<svg width="116.25" height="50.46" viewBox="0 0 30.76 13.35" xml:space="preserve" xmlns="http://www.w3.org/2000/svg"><defs><linearGradient id="a" x1="91.94" x2="104.14" y1="132.83" y2="132.83" gradientUnits="userSpaceOnUse"><stop stop-color="#f5b800" offset="0"/><stop stop-color="#0098f6" offset=".54"/><stop stop-color="#e1b300" offset="1"/></linearGradient><linearGradient id="b" x1="73.38" x2="104.15" y1="138.45" y2="138.45" gradientUnits="userSpaceOnUse"><stop stop-color="#dac100" offset="0"/><stop stop-color="#0090b3" offset="1"/></linearGradient></defs><path transform="translate(-73.39 -125.36)" d="M92.07 135.81v-.37h5.05v.37zm0 .74v-.37h5.05v.37zm0 .75v-.37h5.05v.37zm.58-2.07h-.44l.72-.96.58-.78.46-.62.36-.48.26-.35.19-.26.1-.19q.06-.08.07-.14l.02-.1q0-.24-.2-.31t-.7-.07q-.8 0-1.6.21l-.08-.35q.13-.06.65-.15.53-.09 1.01-.09.3 0 .51.04.22.03.4.11.18.08.27.23.1.15.1.38t-.23.56q-.23.35-1.17 1.6l-1.28 1.72zm.84 0h-.44l2.14-2.9q.44-.62.49-.88.02-.07.02-.16 0-1.07-1.63-1.07-.5 0-1 .1t-.75.17l-.08-.36q.89-.27 1.84-.27.33 0 .6.04.3.04.55.15.26.1.44.27.18.16.28.4.11.25.11.57 0 .33-.32.84t-1.95 2.7l-.3.4zm.86 0h-.43q1.76-2.4 2.14-3 .37-.59.37-.99 0-.48-.19-.84-.18-.35-.52-.54-.34-.2-.75-.29-.4-.09-.9-.09-.95 0-1.9.3l-.08-.38q1.02-.3 1.97-.3.46 0 .86.06t.75.23q.36.16.6.4.25.24.4.61.14.37.14.84 0 .34-.16.69-.16.35-.65 1.06-.5.71-1.65 2.24zm.9 0h-.44q1.1-1.44 1.58-2.16.49-.73.64-1.1.15-.38.15-.78 0-.5-.16-.91-.15-.42-.43-.7-.27-.28-.66-.47-.38-.2-.85-.28-.46-.09-1-.09-.99 0-2.06.31l-.08-.37q1.09-.31 2.13-.31.78 0 1.4.17.63.16 1.1.5.47.34.72.88.26.55.26 1.27 0 .46-.15.86-.14.4-.64 1.14-.5.74-1.51 2.04zm7.59 2.07h-.37V136h.37zm.74 0h-.37V136h.37zm-.74-3.53h-.37v-1.48h.37zm.74 0h-.37v-1.48h.37zm-5.39.55v-.37h5.95v.37zm0 .75v-.38h5.95v.38zm0 .74v-.37h5.95v.37zm2.31-7.06h.43l-2.31 5.01h-.44zm.85 0h.41l-2.3 5.01h-.44zm.83 0h.42l-2.28 5.01h-.43zm.85 0h.43l-2.25 5.01h-.43z" fill="url(#a)"/><path d="m104.15 138.44-30.76.02" fill="none" stroke="url(#b)" stroke-width=".64" transform="translate(-73.39 -125.36)"/><path d="M8.04.24 7.79 0l.07.41zM7.9.69l.3-.3.32.33-.53.52zm-.09 1.05.24-.12-.01-.1.64-.64.28.28.16-.08-1.46 1.46-.55-.09zm-.65.34-.57.29.24.04zm.77.5.28.05.04.27 1.84-1.83.33-.66-.65.34zm1.83-.86L8.3 3.18l.09.55.7-.7.12-.25.1.02.65-.64-.28-.28zm.36.6-.53.52.55.1.3-.3zm.48.48-.18.18.42.06zm-1.84.88L8.43 4l.04.24z" clip-rule="evenodd" fill-rule="evenodd" fill="#fff"/><path transform="translate(-73.39 -125.36)" d="M79.22 133.54h-.01q.58-.57.58-1.39 0-.78-.58-1.34-.57-.58-1.36-.58h-4.1v7.07h-.36v-7.44h4.46q.61 0 1.14.32.54.3.86.84.31.53.31 1.13 0 .83-.44 1.42.44.62.44 1.36 0 .7-.32 1.25-.32.53-.84.8-.52.28-1.15.28H75.5v-.37h2.35q.8 0 1.37-.56.57-.57.57-1.4 0-.39-.17-.76t-.4-.62v-.01zm-1.37 1.86H75.5v.37h2.35q.34 0 .58-.22.24-.24.24-.63 0-.33-.24-.58-.25-.26-.58-.26H75.5v.37h2.35q.18 0 .31.14.14.15.14.33 0 .23-.13.36-.13.12-.32.12zm0 .74H75.5v.38h2.35q.64 0 1.1-.46.47-.46.47-1.14 0-.42-.24-.8-.22-.38-.6-.59.38-.2.6-.56.24-.37.24-.82 0-.62-.47-1.08-.47-.47-1.1-.47h-3.72v6.7h.37v-6.32h3.35q.48 0 .83.35.37.35.37.82 0 .52-.36.85-.35.33-.84.33H75.5v.38h2.35q.48 0 .83.36.37.37.37.85 0 .54-.36.88-.35.34-.84.34zm0-3.55H75.5v.37h2.35q.35 0 .59-.22.23-.22.23-.59 0-.32-.24-.56t-.58-.24h-2.97v5.95h.37v-5.58h2.6q.18 0 .31.14.14.12.14.29 0 .21-.13.33-.13.1-.32.1zm5.4-2.73h.37v7.44h-.37zm-.75 0h.37v7.44h-.37zm-.74 0h.37v7.44h-.37zm-.75 0h.38v7.44H81zm10.27 5.58v.37H88.4l.24-.37zm0 .75v.37h-3.35l.24-.37zm0 .74v.37h-3.76l.23-.37zm-6.74-5.2v-.38h2.9l-.24.38zm0-.75v-.37h3.33l-.24.37zm0-.74v-.37h3.74l-.24.37zm2.62 7.06h-.46l4.63-7.43v.63zm-.92 0h-.46l4.64-7.43h.45zm-.92 0h-.46l4.63-7.43h.46zm-.92 0v-.75l4.18-6.68h.46z" fill="#fdfeff" style="shape-inside:url(#rect8);white-space:pre"/></svg>