<svg width="432.31" height="493.95" xml:space="preserve" xmlns="http://www.w3.org/2000/svg"><path d="M-.01 0v289.44c.16 3.4.42 6.8.77 10.2 5.73 108.66 100.39 194.05 215.38 194.3 115-.25 209.65-85.64 215.38-194.3.35-3.4.6-6.8.77-10.2V0z" fill="#fff"/><path d="M300.91 109.44c-2.44-4.56 1.15-9 6.02-7.46 2.36.75 3.72 5.13 2.3 7.4-1.62 2.58-6.95 2.62-8.32.06z"/><g fill="#888"><path d="m263.94 103.36-3.75.31c-4.76.4-5.56 4.1-1 4.63 3.28.38 3.75 2.4.5 2.14-3.32-.26-3.94-.07-3.25 1.04.34.55 2.17 1 4.06 1 3.42 0 3.44-.03 3.44-4.56zm-4.06 2.12c1.13 0 2.06.45 2.06 1s-.65 1-1.44 1c-.8 0-1.72-.45-2.06-1-.34-.55.3-1 1.44-1zM249.43 103.98c-3.65 0-4.02.25-4.32 2.83-.18 1.56-.07 3.5.24 4.31.4 1.03 1.72 1.39 4.33 1.17 3.66-.3 3.75-.41 3.75-4.31v-4zm.07 1.5c2.1 0 2.51.41 2.25 2.25-.49 3.45-4.82 3.74-4.82.32 0-2.1.48-2.57 2.57-2.57zM242.06 103.35l-3.81.31c-3.35.28-3.85.66-4.13 3.15-.18 1.56-.07 3.5.24 4.32.38.98 1.65 1.37 3.82 1.16 3.07-.3 3.28-.56 3.57-4.63zm-4.12 2.13c1.47 0 2 .66 2 2.5 0 1.83-.53 2.5-2 2.5s-2-.67-2-2.5c0-1.84.53-2.5 2-2.5zM222.93 110.02c0-1.93.71-2.68 3.25-3.41l3.25-.94-3.25-.1c-4.71-.12-4-2.08.75-2.08 3.6 0 4 .25 4 2.5 0 2.11-.47 2.5-3 2.5-1.65 0-3 .5-3 1.11 0 .67 1.2.94 3 .68 2.04-.3 3-.02 3 .88 0 .88-1.35 1.33-4 1.33-3.59 0-4-.26-4-2.47zM207.78 107.98l.36-4.5h3.9c2.14 0 3.9.45 3.9 1s-1.38 1-3.06 1c-1.7 0-2.8.42-2.47.95.33.53 1.25.7 2.06.4.8-.31 1.47-.07 1.47.54 0 .6-.65 1.1-1.44 1.1-.8 0-1.76.52-2.15 1.14-.48.79.27 1 2.45.67 2.17-.31 3.14-.05 3.14.87 0 .9-1.39 1.33-4.26 1.33h-4.26zM196.35 111.12c-.3-.8-.42-2.75-.24-4.3.3-2.58.73-2.87 4.68-3.15 3.25-.24 4.24.02 3.92 1-.27.81-1.64 1.19-3.6.98-2.86-.29-3.17-.06-3.17 2.38 0 2.55.21 2.68 3.56 2.13 2.53-.4 3.45-.23 3.18.62-.6 1.84-7.64 2.13-8.33.34zM183.44 107.98c0-5.17 2.06-6.1 4.92-2.25l1.68 2.25-.46-2.25c-.33-1.62.01-2.25 1.2-2.25 1.36 0 1.6.82 1.31 4.5-.41 5.22-1.17 5.54-4.14 1.75l-2.15-2.75.43 2.75c.32 2.04.01 2.75-1.18 2.75-1.25 0-1.61-1.03-1.61-4.5zM176.44 107.98c0-3.34.38-4.5 1.5-4.5 1.1 0 1.5 1.16 1.5 4.5s-.4 4.5-1.5 4.5c-1.12 0-1.5-1.17-1.5-4.5zM164.93 111.22c0-.98.9-1.26 3-.95 1.7.25 3-.01 3-.6 0-.58-1.24-1.2-2.75-1.37-1.97-.23-2.84-.96-3.07-2.57-.29-2.01.1-2.25 3.75-2.25 4.8 0 5.56 1.95.82 2.12l-3.25.12 3 .64c2.36.5 3 1.18 3 3.13 0 2.16-.5 2.54-3.75 2.8-2.68.23-3.75-.08-3.75-1.07z"/></g><path d="M125.16 110.92c-5.22-3.65-.05-11.52 5.27-8.03 3.16 2.06 3.29 5.93.28 8.03-1.22.86-2.47 1.56-2.78 1.56-.3 0-1.55-.7-2.77-1.56z"/><path d="M71.6 140.82c-.37-.37-.67-19.04-.67-41.5V58.49h283.02l-.52 82.5-24.5.55V86.48l-231.49.5-.26 27.25-.27 27.25H84.59c-6.77 0-12.61-.3-12.98-.66z"/><path d="M209.1 141.45c-4.83.05-6.97.84-9.08 2.62-4.4 3.71-4.55 12.62-.27 16.72 2.58 2.48 3.46 2.7 11.06 2.7 8 0 8.26.06 7.95 2.24-.29 2.02-.96 2.28-6.58 2.55-4.92.23-6.4-.03-6.86-1.25-.4-1.03-1.9-1.55-4.49-1.55h-3.89l-.12 5.25-.12 5.25-1.13-4.74c-.62-2.62-1.47-4.75-1.88-4.75h-3.18c-1.5 0-2.55.65-2.75 1.7-.24 1.21-2.08 2.06-6.32 2.91-3.3.67-6.07 1.14-6.15 1.05s-.31-1.02-.5-2.07c-.28-1.51.8-2.28 5.36-3.82 5.6-1.88 5.7-1.98 5.12-5.1-.88-4.7-1.68-5.09-6.93-3.3-6.15 2.1-6.4 2.07-6.4-.77 0-2.15.63-2.5 6.25-3.5 4.1-.72 6.37-.75 6.58-.1.42 1.25 5.86 1.31 6.62.08.31-.5.07-3.22-.53-6.04-.86-4.02-1.46-5.02-2.76-4.66-.91.26-8.18 1.69-16.16 3.18s-14.65 2.83-14.84 3c-1 .84 1.2 6.3 2.69 6.68 2.53.67 6.13 19.63 3.95 20.85-1.18.66-1.5 6.9-.34 6.9.13 0 6.94-1.4 15.14-3.1 13.02-2.72 16.75-3.1 29.5-3 13.7.1 14.8-.02 17.45-2.12 2.18-1.7 2.7-1.84 2.2-.57-.64 1.67.79 2.17 12.37 4.3 3.38.62 3.65.48 4.16-2.17.36-1.87.06-3.11-.87-3.64-2.97-1.68-1.41-2.87 2.84-2.17 5.41.9 8.9 2.6 6.75 3.29-1.99.64-2.96 2.22-2.98 4.81-.02 1.84.97 2.33 7.23 3.64 3.99.83 7.54 1.56 7.9 1.62.84.15 1.85-2.56 1.85-4.97 0-1.05-.67-1.92-1.5-1.92s-1.5-.56-1.5-1.25c-.01-2.57-3.97-28.05-4.43-28.51-.26-.26-2.97-1.06-6.02-1.77l-5.55-1.29-7.74 12.91c-8.91 14.86-11.26 16.44-11.26 7.59 0-7.65-2.04-9.24-12.9-10.03-9.16-.66-9.63-.83-8.75-3.1.83-2.18 12.46-2.22 13.3-.05.37.98 1.92 1.5 4.46 1.5h3.9v-10.7l-7.66-.65c-5.42-.46-9.29-.7-12.19-.68zm41.69 15.71.7 3.71c.79 4.24.74 4.32-2.3 3.83-2.74-.43-2.77-.91-.32-4.63zM278.5 190.36c-3.81-1.6-7.09-3.06-7.28-3.25-.99-.99 1.89-5.63 3.49-5.63 2.63 0 9.68-17.1 7.55-18.33-.83-.48-2-.36-2.76.27-.92.77-2.14.8-3.95.1-3.15-1.19-3.14-.97-.54-7.02l2.1-4.85 6.65 2.8c3.67 1.55 10.15 4.26 14.42 6.02 8.49 3.5 8.56 3.62 5.79 9.73-1.87 4.1-2 4.2-5 3.15-2-.7-2.99-1.66-2.81-2.72.16-1.03-.42-1.65-1.55-1.65-2.27 0-9.85 16.61-7.88 17.27 1.56.52 1.53 3.43-.05 5.42-1.13 1.42-1.96 1.28-8.18-1.32zM133.85 192.95c-3.15-1.05-3.8-2.05-8.2-12.56-6.47-15.48-5.82-17.45 7.38-22.38 4.07-1.52 9.04-3.6 11.04-4.64 4.92-2.56 5.61-2.42 7.23 1.45 2.98 7.14 2.99 7.1-1.87 8.9-2.48.92-4.5 1.24-4.5.71 0-1.48-2.29-1.13-7.89 1.2-5.73 2.37-5.64 1.75-1.65 11.55 1.28 3.15 2.83 5.9 3.45 6.1 1.25.42 12.1-3.84 12.07-4.73-.06-2.42-1.98-3.39-4.46-2.26-1.44.65-2.95 1.2-3.37 1.2-.78 0-3.59-6.96-3-7.42 1.5-1.16 14.16-5.52 14.82-5.1.47.29 2.08 3.64 3.57 7.45 2.71 6.9 2.72 6.93.84 10.15-2.84 4.86-20.48 12.06-25.46 10.38zM334.4 264.48c0-5.37.2-6 2.02-6s2.04.63 2.04 6-.22 6-2.04 6c-1.81 0-2.03-.63-2.03-6zM322.93 269.11c0-.81 1.22-2.94 2.72-4.72l2.73-3.24-2.73.68c-2.3.58-2.72.37-2.72-1.33 0-1.72.65-2.02 4.44-2.02 5.68 0 6.37 1.25 3.06 5.58l-2.67 3.5 2.68-.67c2.26-.57 2.63-.38 2.32 1.2-.46 2.48-9.84 3.44-9.84 1.02zM311.4 264.48l.03-6h5.25c4.56 0 5.25.26 5.25 1.98 0 1.57-.56 1.9-2.75 1.62-1.52-.19-2.2-.14-1.5.1 1.76.63 1.56 3.3-.25 3.3-.83 0-1.5.49-1.5 1.08 0 .68 1.1.83 3 .42 2.58-.57 3-.37 3 1.42 0 1.84-.6 2.08-5.29 2.08h-5.28zM284.43 258.4l-.03 6.04c-.04 5.72.09 6.04 2.36 6.04 1.91 0 2.3-.41 1.88-2-.65-2.5.75-2.6 2.48-.17.97 1.36 2.7 1.87 6.61 1.95 5 .1 5.27-.02 4.7-2.09l-.6-2.2 1.96 2.26c1.8 2.06 6.14 3.17 6.14 1.56 0-.37-.98-1.72-2.17-3l-2.18-2.31 2.18-2.32c2.88-3.07 2.74-3.68-.83-3.68-2.3 0-3 .45-3 1.94 0 1.07-.51 2.26-1.14 2.65-.81.5-.95-.09-.47-2.01.63-2.51.47-2.7-2.07-2.4-2.63.3-2.75.54-2.46 5.07.3 4.76-.2 5.46-2.7 3.87-1.12-.71-1.12-1.2 0-2.99 2.14-3.44.06-5.57-5.76-5.92zm5.5 3.08c1.1 0 2 .45 2 1s-.9 1-2 1-2-.45-2-1 .9-1 2-1zM272.4 264.48v-6h5.26c4.64 0 5.27.24 5.27 2.05 0 1.8-.46 1.97-3.75 1.48-3.03-.46-3.32-.38-1.5.42 2.51 1.1 3.03 3.05.8 3.05-.79 0-1.75.51-2.14 1.14-.5.81.33.94 2.94.45 3.23-.6 3.65-.45 3.65 1.36 0 1.8-.63 2.05-5.27 2.05h-5.27zM254.43 264.48c0-5.54.18-6 2.23-6 1.3 0 2.94 1.09 3.94 2.6l1.7 2.61 1.9-2.6c1.89-2.6 5.09-3.46 6.19-1.68.32.51.12 1.21-.44 1.56-.56.35-1.02 1.92-1.02 3.51s.46 3.16 1.02 3.51c1.62 1 .09 2.49-2.55 2.49-2.18 0-2.36-.32-1.85-3.25l.57-3.25-1.96 2.82-1.96 2.82-2.1-2.82c-1.55-2.08-2.11-2.37-2.14-1.13-.01.93.43 1.97.99 2.32 1.56.96.13 2.49-2.33 2.49-2 0-2.19-.5-2.19-6zM237.43 258.4l-.03 6.04c-.03 5.5.15 6.04 2.08 6.04 2.81 0 3.7-1 2.32-2.66-.85-1.02-.74-1.34.44-1.34.86 0 1.84.9 2.2 2 .63 2.02 3.9 2.76 4.92 1.11.3-.49-.1-1.42-.9-2.08-1.15-.96-1.2-1.58-.24-3.12 2-3.21-.21-5.36-5.89-5.7zm6 3.08c.83 0 1.5.45 1.5 1s-.67 1-1.5 1-1.5-.45-1.5-1 .68-1 1.5-1zM230.8 258.47c-.74.01-1.56.07-2.5.18-2.67.3-2.89.66-3.18 5.23-.2 3.25.14 5.19 1 5.74 1.96 1.24 7.24 1.03 8.61-.34.66-.66 1.2-3.13 1.2-5.48 0-3.97-1.19-5.39-5.14-5.33zm-.8 2.91c.98-.02 1.93 1.14 1.93 3.1 0 2.03-.5 3-1.53 3-1.8 0-2.92-2.38-2.1-4.5.41-1.09 1.06-1.58 1.7-1.6zM212.43 258.48v6.04c0 5.86.08 6.04 2.5 5.75 1.7-.2 2.42-.83 2.23-1.97-.21-1.25.57-1.77 3-2 2.54-.25 3.35-.84 3.6-2.63.51-3.6-1.54-5.2-6.7-5.2zm6 3c.83 0 1.5.45 1.5 1s-.67 1-1.5 1-1.5-.45-1.5-1 .68-1 1.5-1zM205.37 257.65c-4.35-.02-5.65 1.13-5.27 4.44.28 2.45.83 2.94 3.58 3.2 1.79.18 3.25.79 3.25 1.36 0 .66-1.3.8-3.5.4-3.07-.58-3.5-.41-3.5 1.38 0 1.75.64 2.05 4.3 2.05 2.37 0 4.84-.54 5.5-1.2 1.5-1.5 1.57-5.46.1-6.37-.79-.48-.75-.9.14-1.45 2.37-1.47.25-3.64-3.7-3.79l-.9-.02zm.06 2.83c.76 0 1.66.45 2 1 .35.57-.5 1-2 1-1.49 0-2.35-.43-2-1 .34-.55 1.24-1 2-1zM174.36 258.4c-.95.07-1.8 1-2.43 2.83a45.8 45.8 0 0 1-2.39 5.42c-.78 1.47-1.17 2.94-.85 3.25 1.34 1.35 5.45.57 4.88-.92-.35-.91 0-1.5.9-1.5.8 0 1.46.67 1.46 1.5 0 1.15 1.28 1.5 5.52 1.5 5.5 0 5.52-.01 4.93-2.75l-.58-2.75 2.15 2.75c3.26 4.17 4.98 3.58 4.98-1.69 0-2.44.46-4.73 1.02-5.07 1.63-1 .08-2.5-2.6-2.5-2.15 0-2.38.35-1.87 2.76l.59 2.75-1.8-2.75c-1.07-1.63-2.7-2.75-4.01-2.75-2.47 0-3.9 1.52-2.34 2.49 1.32.82 1.31 6.2-.01 7.02-.58.36-1.95-1.6-3.13-4.44-1.45-3.48-3.04-5.24-4.42-5.15zm.07 5.08c.28 0 .5.22.5.5s-.22.5-.5.5-.5-.23-.5-.5.23-.5.5-.5zM160.3 268.14c.46-1.85-.05-3.32-1.96-5.58-2.14-2.55-2.32-3.18-1.05-3.66 2.16-.83 5.14-.1 5.14 1.26 0 .63.34 1.5.75 1.9.41.42.75-.22.75-1.41 0-1.65.6-2.17 2.5-2.17 3.03 0 3.07.39.44 4.09-1.14 1.6-1.93 3.91-1.75 5.15.25 1.84-.23 2.32-2.57 2.59-2.62.3-2.82.1-2.25-2.17zM150.73 258.42c-1.08-.05-2.15.87-2.88 2.8a72.39 72.39 0 0 1-2.37 5.45c-.73 1.48-1.06 2.96-.73 3.3 1.06 1.04 4.7.01 4.44-1.26-.14-.68.42-1.23 1.25-1.23s1.5.67 1.5 1.5c0 .93.94 1.5 2.5 1.5 2.5 0 3.29-1.74 1.62-3.55-.48-.52-1.42-2.64-2.08-4.7-.78-2.46-2.03-3.76-3.25-3.8zm-.3 5.06c.28 0 .5.22.5.5s-.22.5-.5.5-.5-.23-.5-.5.23-.5.5-.5zM137.82 257.6c-.64-.01-1.34.02-2.1.07l-4.16.3.1 5.76c.05 3.16.14 5.97.19 6.25.2 1.1 9.91.42 10.85-.75.55-.69 1-3.18.99-5.54-.02-4.48-1.4-6.07-5.87-6.1zm.12 2.98c.37 0 .73.23 1.2.7.93.93.67 1.2-1.2 1.2s-2.13-.27-1.2-1.2c.47-.47.84-.7 1.2-.7zm0 4.9c1.1 0 2 .45 2 1s-.9 1-2 1-2-.45-2-1 .9-1 2-1zM124.96 269.23c.05-3.27 2.72-11.17 3.92-11.56 1.39-.47 1.33.03-1.04 9.06-.92 3.52-2.93 5.26-2.88 2.5zM115.82 269.73c-.06-.41-.03-1.54.07-2.5.1-.97-.75-3.07-1.89-4.66-2.68-3.77-2.62-4.09.87-4.09 2.24 0 3.03.53 3.36 2.25l.44 2.25.13-2.25c.1-1.7.75-2.25 2.64-2.25 3.02 0 3.16 1.34.51 4.71-1.31 1.67-1.79 3.34-1.4 4.91.52 2.05.24 2.38-2 2.38-1.44 0-2.66-.34-2.73-.75zM106 258.57c-1.26.04-2.54 1.7-3.9 5-1.2 2.84-2.16 5.57-2.16 6.04 0 .48 1.17.87 2.6.87 1.91 0 2.46-.4 2.04-1.5-.36-.91 0-1.5.89-1.5.8 0 1.47.67 1.47 1.5 0 .93.94 1.5 2.5 1.5 3 0 3-.15.6-6.5-1.38-3.65-2.7-5.45-4.04-5.41zm-.56 4.9c.27 0 .5.23.5.5s-.23.5-.5.5-.5-.22-.5-.5.22-.5.5-.5zM87.44 257.48v13h4.17c6.58 0 7.33-.6 7.33-5.9 0-5.86-1.22-7.1-6.95-7.1zm5.5 3.1c.36 0 .73.23 1.2.7.93.93.66 1.2-1.2 1.2s-2.14-.27-1.2-1.2c.46-.47.83-.7 1.2-.7zm.5 4.9c.82 0 1.5.45 1.5 1s-.68 1-1.5 1-1.5-.45-1.5-1 .67-1 1.5-1z"/><path d="m79.94 159.43-33.5.55-.28 10.75-.28 10.75H13.95v76h32v8.33c0 4.59.3 8.64.66 9 .37.37 8.02.67 17 .67h16.33v-51H352.9l.53 50.5 16.75.27 16.75.28v-18.05h32.02l-.26-38.25-.26-38.25-31.5-.55v-21l-33.5.55-.53 48.5H79.94v-24.53zm-5 4.99v41.06H50.9l.27-20.25.27-20.25 11.75-.28zm284 .06h23v41h-23v-20.5zm-340 22h26v31h-26v-15.5zm370 0h26.05l-.55 30.5-12.75.28-12.75.28v-15.53zM256.94 313.49c-11.85 0-16.82 5.65-15.58 17.72.47 4.67.25 7.01-.9 9.21-3.54 6.86-.54 17.1 6.4 21.78 4.49 3.02 12.79 3.13 17.96.22 7.35-4.13 10.75-13.11 7.7-20.39-1.24-2.98-1.37-4.64-.6-7.44 3.65-13.1-2.04-21.1-14.98-21.1zm.08 3.96c7.37-.13 12.74 5.12 11.32 12.7-.7 3.74-.9 3.82-4.4 1.83-1.38-.79-4.66-1.45-7.3-1.47-2.64-.02-6.07.63-7.63 1.43-2.76 1.43-2.85 1.4-3.4-1.38-1.02-5.09 1.06-10.07 4.87-11.66 2.27-.95 4.48-1.4 6.54-1.45z"/><path d="M196.43 416.77c-42.32-5.78-88.86-31.99-108.07-60.87-9.7-14.58-15.85-32.13-16.6-47.42l-.32-6.5 143.49-.51v50.5c0 27.78.28 50.5.62 50.5 3.52 0 27.95-5.86 37.51-9 39.52-12.97 67.56-36.87 78.83-67.2 2.54-6.83 5-17.4 5.02-21.54l.02-3.25h15v4.37c0 5.8-4.03 21.43-7.96 30.86-9.06 21.76-29 43.1-53.04 56.71-28.82 16.33-70.5 26.63-94.5 23.35z"/></svg>