<svg width="763.7" height="149.9" viewBox="0 0 202.1 39.6" xml:space="preserve" xmlns="http://www.w3.org/2000/svg"><g fill="#f9f9f9"><path d="M107.7 6c-7.4 0-13.7.1-13.9.2-1.1.4-1.2 1.2-1.2 12 0 11.3 0 11.1 1.7 11.6.4.2 7 .3 14.6.3h13.9V7.6l-.8-.8-.8-.7zM103 12h9.8V24h-4.5c-4.4 0-4.5 0-4.8-.6-.2-.4-.4-2.2-.4-6zM65.2 18.1 55 6.1H60c3.9 0 5 0 5.6.3 1.3.7 3.9 3.3 7.2 7.2l3.4 3.8c.1 0 .3-2.4.4-5.3l.3-5.9c.1-.4.6-.4 4.6-.4H86V30H75.3zM55 19.5 55.1 9a71 71 0 0 1 3.7 4l3.6 4v13.1H55zM27.5 18.2l-10.2-12 4.8-.1h5.4c1 .3 4.8 4.2 8 8 1.5 1.9 2.8 3.3 2.9 3.3l.3-3.6.4-5.8.1-2.2h9V30H37.6zM17.2 19.4c0-6.2.1-10.7.2-10.6l3.7 4.2 3.5 4V30h-7.4z"/></g><path d="M0 18V6h10.6v24.1H0z" fill="#fded01"/><path d="M135.3 18.4a688 688 0 0 1-6.7-12.2s2.5-.2 5.6-.2h5.5l1.4 1.5c1.6 1.6 3.1 4.1 5.4 8.7.8 1.7 1.6 3 1.8 3l6-9.6 6-9.5h6.6c5.7-.1 6.7-.1 6.6.2l-10.2 15.2-10 14.9H142z" fill="#f9f9f9"/><g fill="#fded01"><path d="M156.4 39.5c0-.2 4.6-7.7 10.2-16.8L177 6.2h10.3l1 .7c1.7 1.3 3.2 3.6 8.6 13.5L202 30c0 .2-1.2.3-6.2.2h-6.3l-2.4-4.4H182c-2.8 0-5 0-5-.2l1.6-3 1.6-2.9h3.4l-1.2-2.2c-.6-1.2-1.3-2.2-1.5-2.2-.1 0-3.7 5.4-7.9 12l-7.6 12.2h-4.6c-2.5 0-4.5 0-4.5-.2zM148.7 34.4V37c0 2.5 0 2.7.5 2.7s.6-.2.6-1.1c0-1 0-1 .6-1 .4 0 .9.3 1.4 1 .6.7 1.1 1 1.5 1h.7l-.7-1.1c-.4-.7-.6-1.2-.4-1.2.4 0 .9-1 .7-1.7-.2-.9-1.2-1.2-3.2-1.2zm2.2.8c1.4 0 2 .5 1.5 1.1-.2.3-.8.4-1.5.4-1.1 0-1.1 0-1.1-.8s0-.7 1.1-.7zM142 37v-2.6h2.2c1.7 0 2.1 0 2.1.4 0 .3-.3.3-1.6.3-1.5 0-1.6 0-1.6.7 0 .6.1.7 1.4.7 1 0 1.3 0 1.3.4 0 .3-.3.4-1.3.4-1.3 0-1.4 0-1.4.8v.8h1.6c1.3 0 1.6 0 1.6.3 0 .4-.4.4-2.1.4h-2.1zM137.3 37.4v-2.2h-1c-.6 0-.8-.2-.8-.4 0-.4.4-.4 2.3-.4 2 0 2.4 0 2.4.4 0 .2-.3.4-.9.4h-1v2.2c0 2 0 2.2-.5 2.2-.4 0-.5-.1-.5-2.2zM128.6 37c0-2.6 0-2.6.6-2.6.5 0 1.1.5 2.1 1.6l1.5 1.6V36c0-1.5 0-1.6.5-1.6s.6.1.6 2.6c0 2.6 0 2.6-.7 2.6-.4 0-1-.4-2-1.6l-1.6-1.6V38c0 1.5 0 1.6-.5 1.6s-.5-.1-.5-2.6zM122 37v-2.6h2c1.8 0 2.2 0 2.2.4 0 .3-.3.3-1.6.3-1.5 0-1.6 0-1.6.7 0 .6.1.7 1.4.7 1 0 1.3 0 1.3.4 0 .3-.3.4-1.3.4-1.3 0-1.4 0-1.4.8v.8h1.6c1.3 0 1.6 0 1.6.3 0 .4-.4.4-2.1.4H122zM115.5 39c-.5-.5-.7-.9-.7-2s.2-1.5.7-2c.6-.6.9-.7 2-.6.8.1 1.3.4 1.7.8.5.6.5.6-.1.7-.3 0-.8-.1-1-.3-.6-.5-1.4-.6-1.9-.1-.4.4-.4 2.6 0 3 .5.5 1.3.4 1.8 0 .3-.3.8-.4 1-.4.7 0 .7.1.2.7-.4.4-1 .7-1.8.8-1 0-1.3 0-1.9-.6zM104.5 39.4c-.6-.3-.6-.3-.1-.7.4-.2.6-.3 1 0l1.3.1c.6 0 .9-.2.9-.6 0-.4-.3-.6-1.4-.7-1.9-.3-2.6-1.5-1.4-2.6.6-.6 2.3-.7 3.2-.3.8.5.1.8-1.3.6-.9 0-1.2 0-1.3.3-.2.6 0 .7 1.4 1 1.5.3 2 .6 2 1.4 0 1-.7 1.6-2.2 1.7a6 6 0 0 1-2-.2zM98.2 39.4c-.6-.3-.6-.3-.2-.7.4-.2.7-.3 1 0l1.4.1c.6 0 .8-.2.8-.6 0-.4-.2-.6-1.3-.7-2-.3-2.6-1.5-1.5-2.6.6-.6 2.3-.7 3.3-.3.8.5.1.8-1.3.6-1 0-1.2 0-1.3.3-.3.6-.1.7 1.3 1 1.5.3 2 .6 2 1.4 0 1-.6 1.6-2.1 1.7a6 6 0 0 1-2.1-.2zM91.5 37v-2.6h2.2c1.7 0 2 0 2 .4 0 .3-.3.3-1.5.3-1.5 0-1.6 0-1.6.7 0 .6 0 .7 1.3.7 1 0 1.3 0 1.3.4 0 .3-.3.4-1.3.4-1.3 0-1.3 0-1.3.8v.8h1.6c1.2 0 1.6 0 1.6.3 0 .4-.4.4-2.1.4h-2.2zM84.1 37c0-2.6 0-2.6.7-2.6.4 0 1 .5 2 1.6l1.6 1.6V36c0-1.5 0-1.6.5-1.6s.5.1.5 2.6c0 2.6 0 2.6-.6 2.6-.5 0-1-.4-2.1-1.6l-1.5-1.6V38c0 1.5 0 1.6-.5 1.6s-.6-.1-.6-2.6zM79.1 37.4v-2.2h-1c-.6 0-.8-.2-.8-.4 0-.4.4-.4 2.3-.4s2.4 0 2.4.4c0 .2-.3.4-1 .4h-.8v2.2c0 2 0 2.2-.6 2.2-.4 0-.5-.1-.5-2.2zM74.6 37c0-2.5 0-2.6.5-2.6s.6.1.6 2.6 0 2.6-.6 2.6c-.5 0-.5-.1-.5-2.6zM68 37v-2.6h2.1c1.7 0 2.1 0 2.1.4 0 .3-.3.3-1.6.3h-1.5v.8c0 .8 0 .8 1.3.8 1 0 1.3.1 1.3.4 0 .3-.3.4-1.3.4H69v1c0 1-.1 1.1-.6 1.1s-.5-.1-.5-2.6z"/></g></svg>