<svg width="654.6" height="654.6" viewBox="0 0 173.2 173.2" xml:space="preserve" xmlns="http://www.w3.org/2000/svg"><g transform="translate(-18.4 -62)"><circle cx="105" cy="148.5" fill="#f9f9f9" r="86.6"/><circle cx="104.6" cy="148.2" r="81.5" fill="#dfdfdf"/><circle cx="104.6" cy="148.2" r="78.1" fill="#f9f9f9"/><path d="M65 103V134c0 1-.3 2.4 0 3.2.1.4.8.3 1 .3h3.8c.3-.3.2-1 .2-1.3v-9.7c.2-1 .9-2 1.3-2.8.4-.7.7-1.6 1.2-2.1l1.4 3.6 3 8.2 1.2 2.8.6 1.2 1.7.1h4.3c-.3-1.8-1.4-3.6-2.1-5.3l-4.1-10-1.6-3.9c-.2-.5-.7-1.2-.7-1.8 0-.4.4-.7.5-1l1.5-2.7c1.7-3.2 4-6.5 5.3-10h-4.4l-1.7.2-.7 1-1.3 2.9-3.5 6.8-2 3.8V103l-1.4-.1H65m23.9 0v30.9c0 1-.3 2.5 0 3.4.1.4.7.3 1 .3h2.9c.2 0 .8.1 1-.1.3-.4 0-1.7 0-2.2v-30c0-.5.3-1.6 0-2.1-.2-.3-.9-.2-1.2-.2h-3.7m12.2 0v34.6h12.7c.3 0 .8.1 1-.2V136c0-.5.2-1.6-.2-2-.3-.3-1.2-.1-1.6-.1h-4.5c-.5 0-2.2.3-2.4-.4-.3-.8 0-2 0-3V103h-5m18.2 0v34.6c1.5 0 3.5.3 5 0l-.1-3.9V103h-5m17.2 34.6v-14.8l.2-1.1 1.6-.2h4.4V118c-.3-.3-1.1-.2-1.5-.2h-3.3c-.3 0-1 .1-1.2-.1-.4-.5-.2-2.1-.2-2.7v-7.9c.2-.6 1.6-.4 2-.4h4.8c.4 0 1.4.2 1.7 0 .3-.3.2-.7.2-1V103h-12.6l-1 .1c-.3.4 0 1.7 0 2.2v30c0 .5-.3 1.6 0 2.1.2.4 1 .2 1.2.2h3.7m-56.3 5.9 2.7-.1v-2.6c-.6-.2-2-.4-2.6 0-.4.3-.2 2.2 0 2.7m6.6-.1v-2.6c-.6 0-2-.4-2.5 0-.3.3-.4 2.3 0 2.6.6.3 2 0 2.5 0m44.8 14.3-2.7.7c.3 1.8.7 3.7 2.4 4.8 2.6 1.7 7.2.7 7.7-2.7.6-3.6-1.9-5.7-4.3-7.7-1.1-.9-2.5-1.7-2.9-3-.5-2 1.1-3.8 3-2.7 1.2.6 1.3 2 1.6 3 .6 0 2.2-.2 2.6-.7.5-.7-.5-2.4-1-3-1.4-1.9-4.6-2.5-6.7-1.4-2.9 1.4-3 5.4-1.2 7.7 1 1.4 2.8 2.5 4.2 3.6.9.7 1.8 1.6 2 2.7.4 2-1.5 3.5-3.2 2.3-1.2-.8-1.2-2.4-1.5-3.6m-66.6 6c.9.2 2 0 3 0 1.3 0 2.6.1 3.8-.3 3.8-1.4 3-7 3-10.1 0-2.2.4-5.3-1.1-7.1-1.5-1.8-4.3-1.5-6.4-1.5-.5 0-1.9-.2-2.2.2-.2.2-.1.7-.1 1v8.2c0 3.1.3 6.5 0 9.6m13-19V157c0 2 .2 4.4 1.8 5.8 2.4 2.1 7.1 1.5 8.4-1.6.5-1 .6-2.2.7-3.4.2-2.5 0-5 0-7.6v-3.9c0-.3.2-1.1 0-1.4-.2-.2-.5-.2-.7-.2-.5 0-2-.2-2 .4-.2 1 0 2.3 0 3.4v7.3c0 1.5.1 3-.4 4.4-.8 2-3.7 2-4.6.2-.5-1-.5-2.5-.5-3.6v-12H78m17.4 6.7c.6.7.8 1.9 1.1 2.7.9 2.1 1.6 4.2 2.4 6.4l1 2.3c0 .2.1.7.4.8.3.2 1.6.2 1.8-.1.2-.3 0-.8 0-1.2v-17.7h-2.7v11.5c-.8-1.1-1.2-2.8-1.7-4l-3-7.5c-.4 0-1.8-.2-2 .2-.2.4-.1 1-.1 1.3v17.4c.2.2.5.2.7.2.4 0 1.9.2 2-.3.2-.6 0-1.5 0-2v-10m9.3-6.8 1.1 3.8 1.9 6 1 3.1v6l.8.2h1.9c0-2-.3-4.2 0-6 .6-3.1 2-6.3 3-9.3.3-1.2.9-2.5 1-3.8h-2.6l-1.9 6.6c-.2.8-.4 2-1 2.7-.3-2.3-1.2-4.6-1.8-6.8-.2-.6-.3-2-.8-2.4-.5-.3-2 0-2.6 0m11.3 18.9h2.6l.4-1.1.5-2.5.3-1h3.4c0 1 .4 2.2.7 3.3 0 .4 0 1 .3 1.3.5.4 2 0 2.6 0 0-1.7-.7-3.6-1-5.3l-2.3-10.5a51 51 0 0 0-.5-2.2c0-.3 0-.7-.3-.9-.3-.2-1 0-1.5 0-.3 0-.8-.2-1 0-.4.3-.4 1-.4 1.4l-.8 3.3-3 14.2m26.5-18.9c-.2.2-.1.9-.1 1.2v17.5c.2.4 2.3.5 2.6.2.3-.2.2-.9.2-1.2V145c-.2-.4-2.3-.4-2.7-.2m-74.4 2c1-.5 3.3.1 3.7 1.2.5 1.3.3 2.8.3 4.1 0 2 .2 4.3 0 6.3-.2 1.2 0 2.5-1.3 3.1-.6.3-1.4.3-2 .3-.3 0-.7 0-.8-.2-.4-.5-.1-2.2-.1-2.8v-11c0-.2-.1-.8.2-1m53.5 2.5 1.1 7.6c-.4.1-2.2.4-2.5 0-.3-.4.1-1.5.2-2 .3-1.8.4-3.8 1-5.6h.2M65.2 167v2l.1.7 1.3.1h78.5V167H65m37.4 23.2-.8 1.8 1.2-.2c.5 0 .9-.1 1.3.1.5.4.5 1.1-.1 1.4-1 .5-1.8-.2-2.7-.2-.4 0-.4.4-.4.7 1.2.3 2.7.7 3.9-.1.7-.5.6-1.8-.1-2.3-.6-.3-1.3-.3-2-.3.2-.3.4-.7.7-.9.7-.4 1.7-.3 2.5-.5 1.8-.6 3.1-2.2 3-4.2-.3-4-4.6-4.2-7.6-5-1-.3-2.2-.6-3-1.5-1.4-1.9.4-4.3 2.3-4.9 1.5-.4 3.4-.3 4.8.4.8.3 1.3.9 2 1.2.1-.2.5-.6.4-.9 0-.3-.4-.5-.7-.7a7 7 0 0 0-2.4-1c-2.6-.7-6.2-.3-7.6 2.3-.2.5-.4 1.1-.4 1.7-.5 4.7 5.1 4.4 8.2 5.6 1.6.6 3 1.8 2.6 3.6-.6 3.5-6 3.1-8.3 2l-1.5-.8c-.2-.2-.5-.6-.9-.7-.3 0-.6.4-.6.6-.2.6.8 1 1.2 1.3 1.6 1 3.2 1.1 5 1.5m-37.3-17.3V189.7c.2.3.6.3.9.2.5-.2.2-1.9.2-2.3 0-.8-.2-2 .1-2.8.3-.8 1.3-1.5 1.9-2.1.3-.3 1.1-1.5 1.6-1.4.5.2 1.2 1.4 1.5 1.9l4 5.1c.8 1 1.2 1.9 2.5 1.6-.3-1-1.1-1.7-1.7-2.4a828 828 0 0 0-3.6-4.7l-1.4-1.7c-.1-.2-.4-.5-.4-.8.1-.7 1.4-1.7 1.9-2.1l2.9-3c.7-.8 1.5-1.5 2-2.4l-1.3.1c-.9.3-1.7 1.7-2.4 2.4l-4.8 5c-.8.8-1.7 2.2-2.8 2.7v-7.1c0-.7.3-2.2 0-2.9-.2-.3-.8-.2-1.1-.2m17.6 16v-7h6.7c.6 0 2 .2 1.9-.7 0-.7-1.5-.5-2-.5h-6.6V174h7.4c.5 0 2 .3 2.4-.1.2-.2 0-.7 0-1H82.5l-.7.1c-.2.2-.1.7-.1.9v15c0 .2-.2.8 0 1 .5.4 1.8.1 2.4.1h6.4c.5 0 2.4.3 2.5-.3.2-1.2-1.5-.8-2.3-.8h-7.8m44.3 1c-.5-1.5-1.4-3.1-2-4.7l-3.7-8.6c-.4-1-.8-2.6-1.5-3.5-.2-.2-.8-.2-1 0-.3.1-.4.6-.6 1l-1 2.4c-1.4 3.2-2.8 6.4-4 9.6l-1.3 2.8c-.1.3-.5.9-.2 1 .9.5 1.3-.4 1.5-1l1.4-3c.1-.5.3-1.1.6-1.4.4-.3 1.4-.1 2-.1h5.8c.5.2.7 1 .9 1.4l1.2 3c.1.3.3 1 .6 1.1.3.3.9.1 1.3 0m5.1 0c-.4-1.8 0-4 0-5.9v-5.5c0-1-.2-2 0-3.1 3.3 3.4 6 7.5 9 11.2l2 2.6c.4.5.8 1 1.5.8.5 0 .4-.6.4-1v-15l-.1-1c-.3-.3-1.1 0-1.2.4-.2 1.4 0 3 0 4.5v9.9c-1.2-1-2.1-2.6-3.1-3.9l-6.2-7.7-2.2-2.8c-.3-.3-.8-.7-1.2-.4-.3.2-.2.8-.2 1v13c0 1.1-.5 3.7 1.3 2.9m-12.8-15.3 3.6 8.7h-7.4l1.3-3 2.4-5.7z" fill="#080808"/></g></svg>