<svg xmlns="http://www.w3.org/2000/svg" width="470" height="149" fill="none"><path fill="#E31E24" fill-rule="evenodd" d="m30.25 76.33 5.2 12.1c1.7 3.97 3.82 9.05 6.34 15.22l-.2.76c-3.9-.31-6.26-.47-7.08-.47-.88 0-3.37.16-7.47.47l-1.6-4.63a192.08 192.08 0 0 0-5.68-13.8 6.46 6.46 0 0 0-.85-1.61c-.38-.63-.85-.98-1.42-1.04a18.2 18.2 0 0 1-.66 2.46c-.32 1.13-.7 2.74-1.14 4.82a415.8 415.8 0 0 0-2.07 13.8c-.63 0-1.7-.06-3.22-.19a30.23 30.23 0 0 0-3.5-.28c-.82 0-1.95.06-3.4.19-1.7.19-2.87.28-3.5.28l.47-2.36c.82-3.34 2.02-8.35 3.6-15.03a1036.6 1036.6 0 0 0 6.8-35.17c.76-4.23 1.77-10.5 3.03-18.82a54.41 54.41 0 0 0 14.18 0c-1.45 5.49-3.66 15.57-6.62 30.26l-2.55 12a20.5 20.5 0 0 0-.47 3.97c.12.13.4.16.85.1a294.58 294.58 0 0 0 21.27-20.14c2.52.13 4.03.19 4.54.19.94 0 2.36-.06 4.25-.19l-.19.76a163.7 163.7 0 0 1-9.45 8.22c-4.41 3.6-7.56 6.3-9.46 8.13Zm37.54 29.4c-6 0-10.69-1.5-14.09-4.53-3.34-3.1-5.01-7.31-5.01-12.67 0-1.77.19-3.63.57-5.58 1.45-7.37 4.72-13.36 9.83-17.96a27.13 27.13 0 0 1 8.6-5.1c3.34-1.27 6.5-1.9 9.46-1.9 7.75 0 13.1 2.08 16.07 6.24 2.14 3.03 3.21 6.8 3.21 11.35 0 1.76-.15 3.53-.47 5.3-1.45 7.36-4.63 13.29-9.55 17.76-5.17 4.73-11.38 7.1-18.62 7.1Zm9.17-43.67c-2.9 0-5.52 1.57-7.85 4.72a27.7 27.7 0 0 0-3.97 8.7c-.63 2.4-1.2 4.8-1.7 7.19a48.97 48.97 0 0 0-1.04 9.26c0 6.43 2.08 9.64 6.24 9.64 3.84 0 7.15-3.15 9.92-9.45 1.64-3.65 2.9-7.9 3.79-12.76.12-1.07.28-2.65.47-4.73.12-1.2.19-2.3.19-3.3 0-6.19-2.02-9.27-6.05-9.27Zm31.2-2.93.85.09c1.7.19 3.56.28 5.57.28 1.52 0 3.79-.12 6.81-.37l-1.8 7a23.99 23.99 0 0 1 7.19-5.77c2.9-1.52 5.7-2.27 8.41-2.27 6.37 0 10 2.9 10.88 8.7 5.1-5.87 10.46-8.8 16.07-8.8 4.66 0 8.03 1.42 10.11 4.26 1.4 1.89 2.08 4.25 2.08 7.09 0 1.5-.18 3.3-.56 5.38-.7 3.4-1.7 8.48-3.03 15.23L168 104.4l-.85-.1a53.02 53.02 0 0 0-5.67-.37c-.82 0-3.12.16-6.9.47a563.54 563.54 0 0 0 5.29-24.01c.63-3.28 1-5.86 1.13-7.76a7.54 7.54 0 0 0-1.23-5c-.88-1.33-2.3-1.99-4.25-1.99a8.6 8.6 0 0 0-7.09 3.5c-1.26 1.57-2.24 3.94-2.93 7.09-.38 1.64-.95 4.16-1.7 7.56-.76 4.54-1.96 11.4-3.6 20.61-.63 0-1.7-.06-3.21-.19a27.95 27.95 0 0 0-3.4-.28c-.82 0-1.99.06-3.5.19-1.77.19-2.93.28-3.5.28a570.65 570.65 0 0 0 5.3-22.22c.75-4.16 1.13-7.4 1.13-9.73 0-4.35-1.8-6.53-5.39-6.53-4.79 0-8.07 3.78-9.83 11.35-.32 1.13-.73 2.9-1.23 5.3l-3.69 21.83c-3.78-.31-6.05-.47-6.8-.47-.82 0-1.93.06-3.31.19-1.7.19-2.84.28-3.4.28 1.25-5.92 3.11-14.81 5.57-26.66.5-2.7 1.58-8.92 3.22-18.62Zm87.82 25.05c-2.33 1.57-3.84 4.16-4.53 7.75-.2.95-.29 1.8-.29 2.55 0 3.1 1.36 4.64 4.07 4.64 4.66 0 7.62-3.31 8.88-9.93.7-3.47 1.36-6.5 1.99-9.08a55.03 55.03 0 0 1-4.16 1.52 48.4 48.4 0 0 0-5.96 2.55Zm-8.5-13.9h-.67l-.1-5.67a29.61 29.61 0 0 1 18.73-6.33c4.16 0 7.6.78 10.3 2.36 3.22 1.83 4.82 4.54 4.82 8.13 0 1.13-.44 3.97-1.32 8.5a322.9 322.9 0 0 0-3.97 19.2c-.25 2.02.25 3.34 1.51 3.97l1.9-.1c.81 0 1.22.23 1.22.67 0 .12-.06.47-.19 1.04l-.19.94c-.56.32-2.2.95-4.91 1.9-1.9.37-3.25.56-4.07.56-4.6 0-7.28-2.24-8.03-6.71-3.53 4.54-8 6.8-13.43 6.8-3.47 0-6.24-.82-8.32-2.45-2.08-1.64-3.12-3.97-3.12-7 0-2.7.73-5.3 2.18-7.75a15.06 15.06 0 0 1 5.86-5.58c2.46-1.26 6.58-2.58 12.38-3.97 1.7-.38 4.16-1.2 7.38-2.46 1.32-.94 1.98-2.58 1.98-4.91 0-1.9-.72-3.44-2.17-4.64a7.66 7.66 0 0 0-5.2-1.89c-3.66 0-7.44 1.42-11.35 4.26-.25.25-.66.63-1.22 1.13Zm43.58 41.03c-.44.63-.82 1.8-1.14 3.5-.12.75-.19 1.48-.19 2.17 0 2.78 1.08 4.89 3.22 6.34 1.95 1.38 4.47 2.08 7.56 2.08 3.53 0 6.56-1.1 9.08-3.31 2.52-2.2 4.03-4.6 4.54-7.19.19-.94.28-1.8.28-2.55 0-2.9-1.3-4.82-3.88-5.77-1.64-.56-4.5-.85-8.6-.85-2.71 0-4.79.29-6.24.85a8.34 8.34 0 0 0-4.63 4.73Zm43.2-48.6-8.5-.27c2.2 2.26 3.3 4.85 3.3 7.75 0 3.02-.91 5.98-2.74 8.88a18.4 18.4 0 0 1-6.71 6.53c-3.4 1.89-8 2.87-13.8 2.93h-2.18c-1 .06-1.73.28-2.17.66a5.63 5.63 0 0 0-1.61 2.46 3.77 3.77 0 0 0 1.04 3.68c.32.2.79.45 1.42.76.7.32 2.1.5 4.25.57l8.04.28c4.72.2 7.9 1.23 9.55 3.12 1.38 1.64 2.08 3.88 2.08 6.71 0 .82-.07 1.61-.2 2.37-1.25 6.55-4.81 11.66-10.67 15.31-5.24 3.22-11.26 4.82-18.06 4.82-4.35 0-8-.72-10.97-2.17-3.72-1.83-5.58-4.54-5.58-8.13 0-.76.07-1.52.2-2.27 1-5.17 4.28-8.7 9.82-10.59a9 9 0 0 0 1.7-1.13l-.66-.48c-2.33-.81-3.5-2.61-3.5-5.38 0-2.4 1.1-4.64 3.31-6.72a17.4 17.4 0 0 1 7.38-4.06l.19-.66c-6.3-1.52-9.46-5.17-9.46-10.97 0-1.26.16-2.65.48-4.16a16 16 0 0 1 4.06-7.85 19.97 19.97 0 0 1 7.66-5.1c3.4-1.26 7.44-1.8 12.1-1.6l9.74.37h11.44l-.38 1.32-.57 3.03Zm-31.2 11.45a21 21 0 0 0-.47 4.25c0 4.35 1.48 6.53 4.45 6.53 4.1 0 7-4.2 8.7-12.58.3-1.57.46-3.05.47-4.44 0-4.22-1.42-6.34-4.26-6.34-4.28 0-7.25 4.2-8.89 12.58Zm47.37 3.21h14.65c0-.25.03-.6.1-1.04.12-.5.15-.88.1-1.13.37-2.15.56-4.07.56-5.77 0-4.98-1.51-7.47-4.54-7.47-4.54 0-8.16 5.14-10.87 15.41Zm26.28 4.54h-27.23c-.19 1.2-.4 3-.66 5.39-.12 1.39.1 3.05.66 5.01.57 1.95 1.26 3.37 2.08 4.25 1.83 1.96 4.45 2.94 7.85 2.94 4.03 0 8-1.42 11.91-4.26l.95.85-3.12 5.3a26.7 26.7 0 0 1-14.37 4.25c-7.88 0-13.5-2.4-16.83-7.18-1.83-2.65-2.74-6.06-2.74-10.22 0-2.2.25-4.7.75-7.46 1.33-6.75 4.32-12.23 8.99-16.45 4.66-4.29 10.36-6.43 17.1-6.43 10.66 0 15.99 4.98 15.99 14.93 0 2.71-.45 5.74-1.33 9.08Zm12.1-20.89.29-1.9c3.15.26 5.45.38 6.9.38 1.38 0 3.46-.12 6.24-.37l-1.61 6.9c5.3-5.3 10.59-7.94 15.88-7.94 4.67 0 8.26 1.76 10.78 5.29a9.74 9.74 0 0 1 1.6 5.77c0 1.45-.37 4.13-1.13 8.03-.56 2.52-1.35 6.37-2.36 11.54l-2.93 15.69c-4.22-.31-6.71-.47-7.47-.47-.82 0-1.89.06-3.21.19-1.64.19-2.75.28-3.31.28l1.32-4.91c1.2-4.48 2.55-10.5 4.07-18.06.75-3.91 1.13-6.72 1.13-8.42 0-4.6-1.95-6.9-5.86-6.9-3.78 0-6.65 2.08-8.6 6.24-.95 2.08-1.93 5.67-2.94 10.78a1148.8 1148.8 0 0 1-3.68 21.27c-.63 0-1.7-.06-3.22-.19a30.29 30.29 0 0 0-3.5-.28c-.81 0-1.95.06-3.4.19-1.7.19-2.87.28-3.5.28.32-1.13.73-2.77 1.23-4.91 1.08-5.05 2.65-12.58 4.73-22.6.5-2.71 1.36-8 2.55-15.88Zm61.45 16.35h14.66c0-.25.03-.6.1-1.04.12-.5.15-.88.09-1.13.38-2.15.56-4.07.56-5.77 0-4.98-1.5-7.47-4.53-7.47-4.54 0-8.17 5.14-10.88 15.41Zm26.29 4.54h-27.23c-.19 1.2-.41 3-.66 5.39-.13 1.39.1 3.05.66 5.01.56 1.95 1.26 3.37 2.08 4.25 1.83 1.96 4.44 2.94 7.85 2.94 4.03 0 8-1.42 11.9-4.26l.95.85-3.12 5.3a26.7 26.7 0 0 1-14.37 4.25c-7.88 0-13.49-2.4-16.82-7.18-1.83-2.65-2.75-6.06-2.75-10.22 0-2.2.25-4.7.76-7.46 1.32-6.75 4.32-12.23 8.98-16.45 4.67-4.29 10.37-6.43 17.11-6.43 10.65 0 15.98 4.98 15.98 14.93 0 2.71-.44 5.74-1.32 9.08Z" clip-rule="evenodd"/><path fill="#E31E24" d="M282.88 136.73c2.27-.22 4-1.21 5.65-2.8.45.79.38 1.78-.2 2.51a6.1 6.1 0 0 1-2.38 1.72 11.8 11.8 0 0 1-5.05 1.09c-3.73 0-5.87-1.63-6.03-4.91-.16-3.3 1-6.51 3.2-8.9 2.13-2.56 4.88-3.93 7.72-3.93 2.68 0 3.95 1.15 3.92 3.32 0 2.17-2.8 4.94-7.11 6.47-1.03.36-3.1 1.28-3.13 2.11-.03.77.06 1.44.35 1.85a3.23 3.23 0 0 0 3.06 1.47Zm-2.77-6.92-.32 1.43c.54-1.18 1.5-1.6 2.68-2.23 2.04-1.12 2.61-2.17 2.93-3.29.32-1.12-.06-2.07-1.2-2.07-1.73 0-3.17 2.2-4.1 6.16Zm72.8 11.93c0 1.56-1.85 2.87-5.1 2.87-1.02 0-2.01-.06-2.01-.86 0-.38.1-.54.2-.77.25.07.95.2 1.43.2 1.4 0 2.64-.39 2.64-1 0-.86-.6-.92-1.65-1.18-.1-.47.06-.98.38-1.34.16-.18.35-.33.57-.44-3.29-.23-4.97-2.01-4.97-5.36 0-6.35 4.98-12.35 10.89-12.35 2.74 0 4.02.67 4.02 2 0 1.22-1.28 2.18-3 2.72-.42-1.85-1-2.49-2.27-2.49-2.68 0-4.69 3.48-4.69 9.26 0 1.94.7 3.6 2.43 3.6 2.26 0 4.5-1.11 5.96-2.84.2.35.26.7.26 1.09 0 2.67-4.9 4.32-7.65 4.4-.1.2-.21.48-.21.6 1.63.3 2.78.84 2.78 1.89Zm-51.44-18.6v.19c0 1.5-1.21 2.55-2.68 2.55-.64 0-1.25-.03-1.82-.03-.25 0-.48 0-.73.06-.32 1.53-.7 3.26-1.15 4.95-.26.95-.51 2.36-.51 3.41.06 1 .48 1.53 1.24 1.53.38 0 1.06-.6 1.63-1.2 1.02-1.1 1.63-1.64 1.95-1.64.12 0 .16.1.16.3 0 2.29-3.36 5.8-5.65 5.8-2.65 0-3.7-1.6-3.7-4.15 0-.64.1-1.3.19-1.98a56.3 56.3 0 0 1 1.05-5.07c.7-2.68 1.44-5.97 1.44-7.82 0-.6-.07-1.12-.35-1.76a6.81 6.81 0 0 1 3.44-1.05c1.02 0 1.56.6 1.56 1.57 0-.1-.15 1.43-.76 4.56h1.66c.96 0 1.95-.06 3.03-.22Zm8.74-.1c-1.28 0-1.85.73-1.85 1.98 0 .64.31 1.21.82 1.85 1.38 1.66 2.78 3.16 2.78 5.49 0 3.83-3.5 6.8-7.37 6.8-2.2 0-4.72-1.44-4.72-3.93 0-1.09.7-1.76 1.27-2.07.74 1.97 1.98 3.73 3.9 3.82 1.5 0 2.45-.83 2.45-2.55 0-1.5-1.34-2.55-2.55-3.92a5.44 5.44 0 0 1-1.27-3.48c0-4.12 4.14-5.9 7.81-5.9 1.15 0 1.63.22 1.82.95 0 .64-.29 1.22-1.24 1.89-.64-.64-1.28-.93-1.85-.93Zm10.33 11.61c1.4-1.53 2.11-1.94 2.11-1.3 0 .32-.16.89-.51 1.72-.9 2.07-3.48 4.05-5.14 4.05-1.69 0-2.71-.96-2.84-2.93-.06-.7 0-2.75.64-5.14.54-1.92.83-3.8 1.05-4.98.13-.64.16-1.24.16-1.72 0-.6-.16-1.12-.48-1.6a9.38 9.38 0 0 1 3.2-.67c.54 0 1.2.1 1.59.51.38.42.51.96.38 1.66-.1.51-.19 1.02-.35 1.6-.48 1.79-1.05 3.8-1.24 4.69a22 22 0 0 0-.48 3.86c0 .64.2 1.09.35 1.37.32-.06.93-.5 1.56-1.12Zm45.02 0c1.4-1.53 2.1-1.94 2.1-1.3 0 .32-.16.89-.5 1.72-.9 2.07-3.48 4.05-5.14 4.05-1.7 0-2.71-.96-2.84-2.93-.07-.7 0-2.75.63-5.14.55-1.92.83-3.8 1.06-4.98a8.9 8.9 0 0 0 .16-1.72c0-.6-.16-1.12-.48-1.6a9.38 9.38 0 0 1 3.19-.67c.54 0 1.21.1 1.6.51.38.42.5.96.38 1.66-.1.51-.2 1.02-.35 1.6-.48 1.79-1.06 3.8-1.25 4.69a22 22 0 0 0-.48 3.86c0 .64.2 1.09.36 1.37.31-.06.92-.5 1.56-1.12Zm34.74-19.33h.2c.95 0 1.56.57 1.56 1.6 0-.17-.96 6.15-2.62 12.73 3.83-5.3 6.67-7.98 8.62-7.98 1.08 0 1.65 1.05 1.81 3.13-1.81 0-3.89 1.14-6.5 4.14 0 .1-.04.23-.04.35 0 .3.07.61.16.93.77 2.33 1.85 5.07 4.12 5.07.8 0 1.69-.32 2.74-.99.07-.03.1-.06.13-.06s.06.06.06.13c0 .1-.03.16-.06.22-.86 2.2-3.32 4.37-5.3 4.37-1.88 0-3.41-1.88-5.17-6.99-.8 1.47-1.3 2.81-2.36 5.37-.44 1.14-1.02 1.72-2.65 1.72-.63 0-1.43-.1-2.45-.26 2.42-6.35 3.92-13.43 4.85-20.67 0-.13.03-.23.03-.32 0-.51-.13-.93-.38-1.47a7.3 7.3 0 0 1 3.25-1.02Zm13.73 9.76c1.98-2.2 4.47-3.57 7.25-3.57 3.48 0 5.84 2.14 5.84 5.68 0 6-4.66 12.06-10.34 12.06-3.51 0-5.84-2.23-5.84-5.94a12.4 12.4 0 0 1 3.1-8.23Zm8.33 2.1c0-1.88-.5-3.31-2.04-3.31-2.84 0-4.7 6.13-4.7 9.8 0 1.88.58 3.25 2.11 3.25 2.81 0 4.63-6.06 4.63-9.73Zm2.19 15.96a8.88 8.88 0 0 0 3.1-5.2c.25-1.34 2.04-10.66 2.32-11.9h-.67c-.7 0-1.75-.22-1.75-.67 0-.06.03-.1.03-.13.51-1.47.83-1.75 2.97-1.75l.38-1.6c1.15-4.69 5.33-7.21 9.96-7.21 1.72 0 3.03.32 3.03 1.75 0 .7-.83 1.57-2.43 2.33-.57-1.2-1.4-1.82-2.42-1.82-.8 0-1.85.67-2.33 1.38-.6.89-1.18 2.58-1.7 5.17h1.19c1.24 0 2.58-.23 3.7-.23.03.13.03.26.03.39 0 1.94-2 2.36-3.76 2.36-.58 0-1.15-.04-1.73-.04-.8 3.52-1.34 7.22-2.74 11.27a11.24 11.24 0 0 1-6.64 6.83c-.13.03-.22.06-.32.06-.44 0-.57-.22-.57-.48.03-.22.16-.28.35-.5Zm28.1-20v.19c0 1.5-1.22 2.55-2.69 2.55-.63 0-1.24-.03-1.81-.03-.26 0-.48 0-.74.06-.32 1.53-.7 3.26-1.15 4.95-.25.95-.5 2.36-.5 3.41.06 1 .47 1.53 1.24 1.53.38 0 1.05-.6 1.62-1.2 1.02-1.1 1.63-1.64 1.95-1.64.13 0 .16.1.16.3 0 2.29-3.35 5.8-5.65 5.8-2.65 0-3.7-1.6-3.7-4.15 0-.64.1-1.3.2-1.98.31-1.88.4-2.42 1.04-5.07.7-2.68 1.44-5.97 1.44-7.82 0-.6-.06-1.12-.35-1.76a6.81 6.81 0 0 1 3.45-1.05c1.02 0 1.56.6 1.56 1.57 0-.1-.16 1.43-.77 4.56h1.66c.96 0 1.95-.06 3.03-.22Zm6.92 13.59c2.26-.22 3.99-1.21 5.64-2.8.45.79.39 1.78-.19 2.51a6.11 6.11 0 0 1-2.39 1.72c-1.6.74-3.25 1.09-5.04 1.09-3.73 0-5.87-1.63-6.03-4.91-.16-3.3.99-6.51 3.19-8.9 2.14-2.56 4.88-3.93 7.72-3.93 2.68 0 3.96 1.15 3.92 3.32 0 2.17-2.8 4.94-7.11 6.47-1.02.36-3.1 1.28-3.13 2.11-.03.77.07 1.44.35 1.85a3.23 3.23 0 0 0 3.07 1.47Zm-2.78-6.92-.32 1.43c.54-1.18 1.5-1.6 2.68-2.23 2.04-1.12 2.62-2.17 2.94-3.29.32-1.12-.07-2.07-1.21-2.07-1.73 0-3.16 2.2-4.09 6.16Zm-134.66 9.5a4.3 4.3 0 0 1-.18-1.13c0-.98.38-1.97 1.05-2.7 1.95-2.18 5.2-5.62 8.49-9.87-1.6.13-2.37.03-3.07.03-2.14 0-3.38-.89-3.38-1.78 0-.7.74-1.7 1.47-2.65 1.05.64 2.87.96 5.4.96 2.3 0 3.73-.2 5.64-.58a3.2 3.2 0 0 1-.67 2.87c-.7.83-3.06 3.88-5.18 6.22-.97 1.07-1.92 1.9-2.83 2.8l-.26.26c-.38.4-1 1.17-.55 1.45.82.1 1.64.3 2.38.5a8.8 8.8 0 0 0 4.55.07 3.06 3.06 0 0 0 1.87-1.49c.23.3.4.6.5.94.64 1.86-.46 3.74-2.32 4.32-2.3.71-5.14-1.06-7.62-1.3a9.74 9.74 0 0 0-5.3 1.07Zm-4.43-22.46c.85-1.02 2.2-1.19 3.03-.38.82.8.8 2.28-.05 3.3-.84 1.02-2.2 1.2-3.02.4-.83-.81-.8-2.3.04-3.32Zm44.83 0c.85-1.02 2.2-1.19 3.03-.38.82.8.8 2.28-.05 3.3-.84 1.02-2.2 1.2-3.02.4-.83-.81-.8-2.3.04-3.32Zm55.17 0c.85-1.02 2.2-1.19 3.02-.38.83.8.8 2.28-.04 3.3-.85 1.02-2.2 1.2-3.03.4-.82-.81-.8-2.3.05-3.32Zm5.47 0c.85-1.02 2.2-1.19 3.02-.38.83.8.8 2.28-.04 3.3-.85 1.02-2.2 1.2-3.02.4-.83-.81-.81-2.3.04-3.32Zm-45.62-.43c.64.8 1.58 1.3 2.6 1.3a2.36 2.36 0 0 0 2.18-1.28l.11-.08.15-.07a5.7 5.7 0 0 1 1.62-.38c.15 0 .3 0 .44.02a1.76 1.76 0 0 1 1.24.46c.2.17.11.42.05.53-.08.14-.22.29-.38.44-.32.3-.82.65-1.4.99a8.82 8.82 0 0 1-3.98 1.3c-2.47 0-5.24-1.06-5.24-2.58 0-.2.04-.4.13-.59.2-.46.47-.52 1.1-.53 1-.03 1.34.41 1.38.47Zm-3.41 28.52a8.7 8.7 0 0 0 1.09-1.97c-1.44-.52-3.3-.86-4.99-.99-1.2-.08-3.05-.3-3.12.8-.01.12.01.25.07.38.84 1.78 2.3 3 3.98 3.13a3.38 3.38 0 0 0 2.97-1.35Zm8.9-12.46c-.58 2.53-1.11 4.15-1.55 5.8a27.98 27.98 0 0 1-1.65 4.72c.7.43 1.71 1.16 2.46 1.91.87.84 1.13 1.28 1.13 1.4-.16-.01-.67-.54-1.4-1.05.03 0-1.69-1.15-2.56-1.58-1.85 3.31-4.84 5.02-8.37 4.76-3.57-.26-6.94-2.48-6.8-4.61.1-1.64 1.45-3.96 6.5-3.59 1.8.13 3.75.52 5.28 1.05.71-1.98 1.51-4.18 2.4-8 .07-.49.22-1 .33-1.52-2.75 3.9-5.36 5.36-7.53 5.36-2.3 0-3.16-1.88-3.16-4.4 0-5.74 4.28-11.65 9.83-11.65 1.21 0 2.36.3 3.38.9.6-.51 1.4-.8 2.2-.8.8 0 1.63.22 2.56.7-.83 1.25-1.4 3.03-2.24 6.64-.27 1.38-.55 2.72-.81 3.96Zm-9.73 1.73c1.95 0 4.98-4.4 6.67-8.59-.13-.83-1.56-1.69-2.74-1.69-2.72 0-4.92 4.5-4.92 8.87 0 .93.42 1.4 1 1.4Z"/><path fill="#fff" d="m6.86 11.96-.1 1.17.43-.59L16.8 2.5h4.06l-9.72 10.08L21.42 26h-4L8.84 14.6l-1.98 1.9V26H3.68V2.5h3.18v9.46Zm16.64 7.18c0-1.34.31-2.55.94-3.64a7.06 7.06 0 0 1 2.67-2.56 7.74 7.74 0 0 1 3.83-.95 7.7 7.7 0 0 1 3.87.95 6.65 6.65 0 0 1 2.57 2.56c.6 1.09.9 2.3.9 3.64a7.5 7.5 0 0 1-.9 3.68 6.59 6.59 0 0 1-2.6 2.56 7.7 7.7 0 0 1-3.87.95 8.2 8.2 0 0 1-3.84-.88 6.96 6.96 0 0 1-2.63-2.5 7.44 7.44 0 0 1-.94-3.8Zm3.02.04a4.59 4.59 0 0 0 2.14 4.03c.68.4 1.41.61 2.22.61a4.25 4.25 0 0 0 3.8-2.28 5 5 0 0 0 .55-2.36c0-.87-.18-1.65-.55-2.34a4.2 4.2 0 0 0-1.56-1.7 3.95 3.95 0 0 0-2.24-.65 4.1 4.1 0 0 0-2.25.65 4.79 4.79 0 0 0-2.1 4.04Zm18.56-6.63.26 3.02-.13-.26a5.85 5.85 0 0 1 2.1-2.4c.94-.6 2-.88 3.2-.88.75 0 1.42.11 2 .35a3.5 3.5 0 0 1 2.19 2.67l-.17.1a5.72 5.72 0 0 1 2.15-2.28c.93-.56 1.9-.84 2.92-.84 1.33 0 2.37.37 3.12 1.13a3.9 3.9 0 0 1 1.2 2.9V26H60.9v-8.87c-.02-.7-.2-1.27-.52-1.72-.3-.48-.84-.74-1.62-.79a3.4 3.4 0 0 0-2.11.72 4.9 4.9 0 0 0-1.43 1.85 5.93 5.93 0 0 0-.56 2.4V26h-3.02v-8.87c-.02-.7-.2-1.27-.55-1.72-.33-.48-.88-.74-1.66-.79-.8 0-1.5.24-2.11.72a4.9 4.9 0 0 0-1.43 1.85 6.12 6.12 0 0 0-.49 2.44V26h-3.02V12.54h2.7Zm29.7 13.77c-1.25 0-2.4-.27-3.44-.8a6.1 6.1 0 0 1-2.43-2.38 7.91 7.91 0 0 1-.88-3.87c0-1.5.31-2.78.94-3.87a6.55 6.55 0 0 1 2.5-2.53 7.09 7.09 0 0 1 3.48-.88c1.26 0 2.32.3 3.19.88a6.06 6.06 0 0 1 1.98 2.02l-.2.51.3-2.86H83V26h-3.02v-3.51l.32.78c-.08.22-.28.5-.58.84-.28.33-.67.67-1.17 1.01-.48.35-1.03.64-1.66.88-.63.22-1.33.32-2.11.32Zm.82-2.5a4.8 4.8 0 0 0 2.05-.42 4 4 0 0 0 1.5-1.17c.4-.52.69-1.14.84-1.85v-2.63a4.27 4.27 0 0 0-2.47-2.83 4.73 4.73 0 0 0-4.23.16 4.5 4.5 0 0 0-1.62 1.62c-.4.7-.59 1.51-.59 2.44a4.67 4.67 0 0 0 2.28 4.06c.7.42 1.44.62 2.24.62Zm19.1 8.84a8.8 8.8 0 0 1-4.7-1.3c-.61-.4-1.2-.88-1.76-1.4L90 27.93a9.36 9.36 0 0 0 2.17 1.56c.74.37 1.56.55 2.47.55a5.7 5.7 0 0 0 2.57-.52 3.63 3.63 0 0 0 2.18-3.44l.03-3.64.26.58a5.23 5.23 0 0 1-2.11 2.37 6.92 6.92 0 0 1-3.7.95 6.48 6.48 0 0 1-3.42-.95 7.29 7.29 0 0 1-2.47-2.53 7.32 7.32 0 0 1-.9-3.64c0-1.41.32-2.65.97-3.7a7.29 7.29 0 0 1 2.56-2.57 6.7 6.7 0 0 1 3.48-.95c1.2 0 2.28.25 3.25.75a4.9 4.9 0 0 1 2.18 1.85l-.16.55.32-2.6h2.76V26.1a6.1 6.1 0 0 1-.94 3.31 6.61 6.61 0 0 1-2.66 2.38 9 9 0 0 1-4.13.87Zm-4.6-13.52a4.67 4.67 0 0 0 2.27 4.06 5.2 5.2 0 0 0 4.52.2 4.7 4.7 0 0 0 1.62-1.2c.43-.52.74-1.12.91-1.79v-2.66a4.5 4.5 0 0 0-2.6-2.83 5.03 5.03 0 0 0-2.08-.43c-.87 0-1.66.2-2.37.59a4.62 4.62 0 0 0-2.27 4.06Zm23.8 7.18c-1.53 0-2.86-.3-3.96-.9a6.72 6.72 0 0 1-2.57-2.54 7.67 7.67 0 0 1-.88-3.7 6.7 6.7 0 0 1 1.01-3.61 7.57 7.57 0 0 1 6.47-3.58 6.4 6.4 0 0 1 4.42 1.56 7.87 7.87 0 0 1 2.37 4.3l-11.08 3.9-.72-1.8 9.1-3.31-.64.42a4.4 4.4 0 0 0-1.3-1.85 3.45 3.45 0 0 0-2.38-.81c-.82 0-1.56.2-2.2.62a4 4 0 0 0-1.54 1.62c-.36.7-.55 1.48-.55 2.37 0 .93.2 1.76.59 2.47.39.7.92 1.25 1.59 1.66a4.69 4.69 0 0 0 4.03.26c.56-.22 1.08-.5 1.56-.84l1.4 2.24a9.23 9.23 0 0 1-4.72 1.52Zm13.35-13.78.26 3.29-.13-.52c.43-1 1.13-1.79 2.11-2.38.97-.6 2.1-.9 3.38-.9 1.28 0 2.32.37 3.12 1.13a3.8 3.8 0 0 1 1.27 2.9V26h-3.06v-8.87a2.69 2.69 0 0 0-.65-1.79c-.39-.48-1-.71-1.85-.71-.78 0-1.48.21-2.11.64a4.51 4.51 0 0 0-1.5 1.8 6.27 6.27 0 0 0-.52 2.63V26h-3.02V12.54h2.7Zm21.5 13.79c-1.53 0-2.86-.3-3.96-.91a6.71 6.71 0 0 1-2.57-2.54 7.67 7.67 0 0 1-.88-3.7 6.7 6.7 0 0 1 1.01-3.61 7.58 7.58 0 0 1 6.47-3.58 6.4 6.4 0 0 1 4.42 1.56 7.88 7.88 0 0 1 2.37 4.3l-11.08 3.9-.72-1.8 9.1-3.31-.65.42a4.38 4.38 0 0 0-1.3-1.85c-.6-.54-1.4-.81-2.37-.81-.82 0-1.56.2-2.2.62a4.1 4.1 0 0 0-1.54 1.62c-.36.7-.55 1.48-.55 2.37 0 .93.2 1.76.59 2.47.39.7.92 1.25 1.59 1.66a4.7 4.7 0 0 0 4.03.26c.56-.22 1.08-.5 1.56-.84l1.4 2.24a9.25 9.25 0 0 1-4.72 1.52ZM168.1 26l10.27-24.47h.2L188.78 26h-3.6L177.5 6.47 179.76 5l-8.58 21h-3.1Zm6.01-8.9h8.74l1.04 2.72H173.2l.91-2.73Zm21.07-4.56.26 3.29-.13-.52a5.1 5.1 0 0 1 2.1-2.38c.98-.6 2.11-.9 3.39-.9 1.28 0 2.32.37 3.12 1.13a3.8 3.8 0 0 1 1.27 2.9V26h-3.06v-8.87a2.69 2.69 0 0 0-.65-1.79c-.39-.48-1-.71-1.85-.71-.78 0-1.49.21-2.11.64a4.51 4.51 0 0 0-1.5 1.8 6.27 6.27 0 0 0-.52 2.63V26h-3.02V12.54h2.7Zm20.85 13.79c-1.25 0-2.4-.28-3.44-.82a6.11 6.11 0 0 1-2.44-2.37 7.91 7.91 0 0 1-.88-3.87c0-1.5.32-2.78.95-3.87a6.54 6.54 0 0 1 2.5-2.53 7.09 7.09 0 0 1 3.48-.88c1.25 0 2.31.3 3.18.88a6.05 6.05 0 0 1 1.98 2.02l-.2.51.3-2.86h2.8V26h-3.03v-3.51l.33.78c-.09.22-.28.5-.59.84a6.3 6.3 0 0 1-1.17 1.01c-.47.35-1.03.64-1.65.88-.63.22-1.34.32-2.12.32Zm.82-2.5a4.8 4.8 0 0 0 2.04-.43 4 4 0 0 0 1.5-1.17c.41-.52.7-1.14.84-1.85v-2.63a4.27 4.27 0 0 0-2.47-2.83 4.72 4.72 0 0 0-4.22.16 4.5 4.5 0 0 0-1.63 1.62c-.39.7-.58 1.51-.58 2.44a4.67 4.67 0 0 0 2.27 4.06c.7.42 1.44.62 2.25.62ZM230.58 26V15.24h-2.3v-2.7h2.3V6.87c0-1.95.43-3.45 1.3-4.49.89-1.04 2.19-1.56 3.9-1.56.46 0 .96.07 1.5.2.56.13 1.05.34 1.46.65l-1.27 2.18a2.08 2.08 0 0 0-1.37-.52c-.8 0-1.41.27-1.85.8-.43.55-.65 1.47-.65 2.77v5.66h4.26v2.7h-4.26V26h-3.02Zm15.91.32c-1.25 0-2.4-.27-3.44-.8a6.1 6.1 0 0 1-2.44-2.38 7.91 7.91 0 0 1-.88-3.87c0-1.5.32-2.78.95-3.87a6.54 6.54 0 0 1 2.5-2.53 7.09 7.09 0 0 1 3.47-.88c1.26 0 2.32.3 3.19.88a6.06 6.06 0 0 1 1.98 2.02l-.2.51.3-2.86h2.8V26h-3.03v-3.51l.33.78c-.09.22-.28.5-.59.84-.28.33-.67.67-1.17 1.01-.47.35-1.03.64-1.66.88a6.3 6.3 0 0 1-2.1.32Zm.81-2.5a4.8 4.8 0 0 0 2.05-.42 4 4 0 0 0 1.5-1.17c.4-.52.69-1.14.84-1.85v-2.63a4.27 4.27 0 0 0-2.47-2.83 4.73 4.73 0 0 0-4.22.16 4.5 4.5 0 0 0-1.63 1.62c-.39.7-.58 1.51-.58 2.44a4.67 4.67 0 0 0 2.27 4.06c.7.42 1.44.62 2.25.62Zm15.34-11.28.3 3.9-.17-.52c.35-.82.85-1.51 1.5-2.07a7.83 7.83 0 0 1 2.08-1.34 4.88 4.88 0 0 1 1.91-.48l-.16 2.99a4.65 4.65 0 0 0-2.7.58 4.84 4.84 0 0 0-2.47 4.26V26h-2.99V12.54h2.7Zm10.82-5.91h3.03v5.98h3.7v2.37h-3.7V26h-3.03V14.98H271v-2.37h2.47V6.63Zm15.97 19.7c-1.25 0-2.4-.28-3.44-.82a6.11 6.11 0 0 1-2.44-2.37 7.91 7.91 0 0 1-.88-3.87c0-1.5.32-2.78.95-3.87a6.55 6.55 0 0 1 2.5-2.53 7.09 7.09 0 0 1 3.48-.88c1.25 0 2.31.3 3.18.88a6.05 6.05 0 0 1 1.98 2.02l-.2.51.3-2.86h2.8V26h-3.03v-3.51l.33.78c-.09.22-.28.5-.59.84-.28.33-.67.67-1.17 1.01-.47.35-1.02.64-1.65.88-.63.22-1.34.32-2.12.32Zm.82-2.5a4.8 4.8 0 0 0 2.04-.43 4 4 0 0 0 1.5-1.17c.41-.52.7-1.14.84-1.85v-2.63a4.27 4.27 0 0 0-2.47-2.83 4.73 4.73 0 0 0-4.22.16 4.5 4.5 0 0 0-1.63 1.62c-.39.7-.58 1.51-.58 2.44A4.68 4.68 0 0 0 288 23.2c.7.42 1.44.62 2.25.62Zm12.64-23h3.02V26h-3.02V.84Zm13.84 25.48c-1.26 0-2.4-.27-3.45-.8a6.11 6.11 0 0 1-2.43-2.38 7.91 7.91 0 0 1-.88-3.87c0-1.5.31-2.78.94-3.87a6.55 6.55 0 0 1 2.5-2.53 7.09 7.09 0 0 1 3.48-.88c1.26 0 2.32.3 3.19.88a6.05 6.05 0 0 1 1.98 2.02l-.2.51.3-2.86h2.8V26h-3.03v-3.51l.32.78c-.08.22-.28.5-.58.84-.28.33-.67.67-1.17 1.01-.48.35-1.03.64-1.66.88-.63.22-1.33.32-2.11.32Zm.81-2.5a4.8 4.8 0 0 0 2.05-.42 4 4 0 0 0 1.5-1.17c.4-.52.69-1.14.84-1.85v-2.63a4.27 4.27 0 0 0-2.47-2.83 4.73 4.73 0 0 0-4.23.16 4.5 4.5 0 0 0-1.62 1.62c-.4.7-.59 1.51-.59 2.44a4.68 4.68 0 0 0 2.28 4.06c.7.42 1.44.62 2.24.62Zm15.34-11.28.3 3.9-.17-.52c.35-.82.84-1.51 1.5-2.07a7.85 7.85 0 0 1 2.07-1.34 4.9 4.9 0 0 1 1.92-.48l-.16 2.99a4.64 4.64 0 0 0-2.7.58 4.84 4.84 0 0 0-2.47 4.26V26h-2.99V12.54h2.7Zm37.8 11.7a11.68 11.68 0 0 1-3.97 1.69 12.87 12.87 0 0 1-7.87-.65 11.04 11.04 0 0 1-3.69-2.56 11.8 11.8 0 0 1-2.37-3.74 12.73 12.73 0 0 1-.81-4.55c0-1.75.28-3.37.84-4.84.59-1.5 1.4-2.79 2.44-3.87a10.92 10.92 0 0 1 3.67-2.57c1.43-.6 3-.9 4.68-.9a12.92 12.92 0 0 1 6.8 1.92l-1.27 2.92c-.65-.44-1.44-.85-2.37-1.24a7.68 7.68 0 0 0-3.06-.58 7.8 7.8 0 0 0-3.25.68 8.4 8.4 0 0 0-2.7 1.92 9.32 9.32 0 0 0-1.85 2.89 10.67 10.67 0 0 0-.06 7.09 8.7 8.7 0 0 0 1.72 2.82c.76.8 1.67 1.43 2.73 1.88a9 9 0 0 0 3.57.69 8.6 8.6 0 0 0 3.19-.55c.93-.37 1.7-.79 2.3-1.24l1.34 2.8Zm10.16 2.09c-1.26 0-2.4-.28-3.44-.82a6.1 6.1 0 0 1-2.44-2.37 7.91 7.91 0 0 1-.88-3.87c0-1.5.31-2.78.94-3.87a6.54 6.54 0 0 1 2.5-2.53 7.09 7.09 0 0 1 3.48-.88c1.26 0 2.32.3 3.19.88a6.06 6.06 0 0 1 1.98 2.02l-.2.51.3-2.86h2.8V26h-3.03v-3.51l.32.78c-.08.22-.28.5-.58.84a6.3 6.3 0 0 1-1.17 1.01c-.48.35-1.03.64-1.66.88-.63.22-1.33.32-2.11.32Zm.81-2.5a4.8 4.8 0 0 0 2.05-.43 4 4 0 0 0 1.5-1.17c.4-.52.69-1.14.84-1.85v-2.63a4.27 4.27 0 0 0-2.47-2.83 4.72 4.72 0 0 0-4.22.16 4.5 4.5 0 0 0-1.63 1.62c-.39.7-.59 1.51-.59 2.44a4.67 4.67 0 0 0 2.28 4.06c.7.42 1.44.62 2.24.62Zm18.1 2.5c-1.23 0-2.36-.3-3.38-.88-1-.6-1.78-1.45-2.37-2.54a8 8 0 0 1-.88-3.8c0-1.5.3-2.77.91-3.83a6.38 6.38 0 0 1 2.54-2.44 7.51 7.51 0 0 1 6.6-.16 5.45 5.45 0 0 1 2.27 1.88l-.13 1.07V.84h3V26h-3.03v-3.35l.32.85a7.55 7.55 0 0 1-2.43 2.05 7.3 7.3 0 0 1-3.42.77Zm.95-2.57a4.4 4.4 0 0 0 4.58-3.51V17.7a3.84 3.84 0 0 0-.94-1.69c-.44-.5-.97-.89-1.6-1.17-.6-.3-1.29-.45-2.04-.45a4.49 4.49 0 0 0-4.52 4.65 4.73 4.73 0 0 0 2.27 4.09c.7.41 1.44.62 2.25.62Zm18.32 2.56a6.7 6.7 0 0 1-3.38-.87 6.4 6.4 0 0 1-2.37-2.54 8 8 0 0 1-.88-3.8c0-1.5.3-2.77.9-3.83a6.38 6.38 0 0 1 2.54-2.44 7.51 7.51 0 0 1 6.6-.16 5.45 5.45 0 0 1 2.28 1.88l-.13 1.07V.84h2.99V26h-3.03v-3.35l.33.85a7.54 7.54 0 0 1-2.44 2.05c-1 .52-2.13.77-3.41.77Zm.94-2.56a4.4 4.4 0 0 0 4.58-3.51V17.7a3.84 3.84 0 0 0-.94-1.69 4.4 4.4 0 0 0-1.6-1.17 4.5 4.5 0 0 0-2.04-.45 4.5 4.5 0 0 0-4.52 4.65 4.73 4.73 0 0 0 2.28 4.09c.7.41 1.44.62 2.24.62Zm19.1 2.56c-1.54 0-2.86-.3-3.96-.9a6.71 6.71 0 0 1-2.57-2.54 7.67 7.67 0 0 1-.88-3.7 6.7 6.7 0 0 1 1.01-3.61 7.58 7.58 0 0 1 6.47-3.58 6.4 6.4 0 0 1 4.42 1.56 7.88 7.88 0 0 1 2.37 4.3l-11.08 3.9-.72-1.8 9.1-3.31-.65.42a4.38 4.38 0 0 0-1.3-1.85c-.6-.54-1.4-.81-2.37-.81-.82 0-1.56.2-2.2.62a4.1 4.1 0 0 0-1.54 1.62c-.37.7-.55 1.48-.55 2.37 0 .93.2 1.76.59 2.47.39.7.92 1.25 1.59 1.66a4.7 4.7 0 0 0 4.03.26c.56-.22 1.08-.5 1.56-.84l1.4 2.24a9.25 9.25 0 0 1-4.72 1.52Zm14.42-.06c-.96 0-1.89-.16-2.8-.49a5.55 5.55 0 0 1-2.2-1.52l1.26-1.76a6.7 6.7 0 0 0 1.72 1.24 4.52 4.52 0 0 0 3 .22c.36-.1.65-.28.87-.52.24-.26.36-.6.36-1.04 0-.47-.16-.85-.49-1.14-.3-.28-.7-.5-1.2-.68-.48-.17-.99-.33-1.53-.48a5.8 5.8 0 0 1-2.53-1.53 3.42 3.42 0 0 1-.88-2.38 3.93 3.93 0 0 1 2.11-3.5c.72-.4 1.6-.59 2.63-.59.94 0 1.77.12 2.5.36.74.21 1.44.58 2.09 1.1l-1.2 1.89a3.56 3.56 0 0 0-1.4-.91c-.55-.2-1.03-.3-1.47-.33-.37-.02-.72.04-1.07.17-.32.13-.6.3-.81.55a1.2 1.2 0 0 0-.33.84c0 .46.15.83.46 1.1.3.29.7.52 1.17.69.5.15.98.31 1.46.49.67.2 1.27.45 1.79.78.52.32.93.72 1.23 1.2.33.48.5 1.07.5 1.79 0 .8-.2 1.55-.6 2.24a4.05 4.05 0 0 1-1.72 1.63c-.75.39-1.73.58-2.92.58Zm9.46-13.72h3.03V26h-3.03V12.54Zm-.22-4.87c0-.48.18-.88.55-1.2.39-.33.81-.49 1.27-.49.45 0 .85.16 1.2.49.37.32.55.72.55 1.2 0 .5-.18.91-.55 1.23-.35.3-.75.46-1.2.46-.46 0-.88-.16-1.27-.49a1.54 1.54 0 0 1-.55-1.2ZM7.78 138.07a6.02 6.02 0 0 1-4.8-2.14 7.7 7.7 0 0 1-1.34-2.54 10.8 10.8 0 0 1-.48-3.33c0-1.35.15-2.52.46-3.5.3-1.02.74-1.86 1.32-2.53a5.5 5.5 0 0 1 2.1-1.49 7.12 7.12 0 0 1 5.4.05c.82.37 1.52.9 2.1 1.61a7.2 7.2 0 0 1 1.36 2.52c.34.98.5 2.09.5 3.34 0 1.26-.16 2.39-.5 3.38a7.2 7.2 0 0 1-1.36 2.52 5.8 5.8 0 0 1-2.1 1.58c-.8.36-1.68.53-2.66.53Zm-.02-2.23c.93 0 1.7-.24 2.33-.72a4.46 4.46 0 0 0 1.44-2.06c.32-.88.48-1.9.48-3.05s-.16-2.15-.48-3a4.32 4.32 0 0 0-1.44-2.02 3.7 3.7 0 0 0-2.33-.72c-.93 0-1.7.25-2.33.75a4.39 4.39 0 0 0-1.41 2.01 9.1 9.1 0 0 0-.46 3.03c0 1.13.15 2.14.46 3.02.32.86.79 1.54 1.41 2.04.63.48 1.4.72 2.33.72ZM24.11 138c1.03-1 2-1.97 2.93-2.93.93-.96 1.76-1.89 2.5-2.78a14.3 14.3 0 0 0 1.77-2.6c.44-.84.65-1.66.65-2.44 0-.53-.09-.98-.26-1.35-.18-.38-.4-.7-.7-.93a2.58 2.58 0 0 0-.93-.53 3.21 3.21 0 0 0-2.43.07 2.55 2.55 0 0 0-1.56 2.43 3.44 3.44 0 0 0 .94 2.54l-1.44 1.27a3.23 3.23 0 0 1-.96-1 5.71 5.71 0 0 1-.8-2.76 4.83 4.83 0 0 1 2.5-4.27c.83-.47 1.84-.7 3.03-.7a4.86 4.86 0 0 1 4.4 2.54c.4.75.61 1.58.61 2.5 0 .8-.16 1.58-.48 2.35-.32.77-.75 1.53-1.3 2.28-.52.75-1.11 1.5-1.77 2.23l-1.92 2.18-1-.33h7V138H24.11Zm12.48-4.97a4.57 4.57 0 0 1 1.63-3.6 5.5 5.5 0 0 1 1.47-.93c-.48-.3-.88-.68-1.2-1.13a3.02 3.02 0 0 1-.46-1.73 3.37 3.37 0 0 1 2.02-3.14 4.61 4.61 0 0 1 2.14-.48 4.51 4.51 0 0 1 3.6 1.72c.36.53.55 1.13.55 1.8a3 3 0 0 1-.48 1.8c-.3.45-.7.84-1.18 1.16.5.22.98.54 1.47.96a4.71 4.71 0 0 1 1.65 3.57c0 .91-.25 1.76-.77 2.55a5.6 5.6 0 0 1-4.87 2.61 5.61 5.61 0 0 1-4.85-2.61 4.78 4.78 0 0 1-.72-2.55Zm2.38-.12a3.4 3.4 0 0 0 1.58 2.86c.48.3 1.02.45 1.61.45a3.32 3.32 0 0 0 2.88-4.92c-.29-.5-.68-.9-1.17-1.2a2.94 2.94 0 0 0-1.61-.45 2.9 2.9 0 0 0-1.63.43c-.5.29-.9.68-1.2 1.18a3.1 3.1 0 0 0-.46 1.65Zm1.32-6.98c0 .5.2.92.58 1.27.4.34.85.5 1.36.5.52 0 .96-.16 1.32-.5.39-.35.58-.78.58-1.27 0-.58-.2-1.05-.58-1.42a1.8 1.8 0 0 0-1.32-.55c-.52 0-.98.18-1.36.55-.39.37-.58.84-.58 1.42Zm8.5 8.25v-.02l9.63-12.14h.02v10.39h2.04v1.77h-2.04V138h-2.32v-3.82H48.8Zm7.47-6.9-4.06 5.25-.36-.12h4.28v-5.57l.14.43Zm23.73-5.07L73.66 138h-2.61l5.69-13.9.81.34h-7.9v-2.23H80Zm1.95 0h4.12V138h-2.32v-13.56h-1.8v-2.23Zm6.93 11.97v-.02l9.63-12.14h.02v10.39h2.04v1.77h-2.04V138H96.2v-3.82h-7.32Zm7.47-6.9-4.06 5.25-.36-.12h4.27v-5.57l.15.43Zm20.15 10.8c-.98 0-1.88-.2-2.7-.56a6.02 6.02 0 0 1-2.1-1.58 7.7 7.7 0 0 1-1.35-2.55 10.8 10.8 0 0 1-.48-3.33c0-1.35.16-2.52.46-3.5.3-1.02.74-1.86 1.32-2.53.6-.67 1.3-1.17 2.11-1.49a7.12 7.12 0 0 1 5.4.05c.82.37 1.51.9 2.09 1.61a7.2 7.2 0 0 1 1.37 2.52c.33.98.5 2.09.5 3.34 0 1.26-.17 2.39-.5 3.38a7.2 7.2 0 0 1-1.37 2.52 5.8 5.8 0 0 1-2.09 1.58c-.8.36-1.69.53-2.66.53Zm-.03-2.24c.93 0 1.7-.24 2.33-.72a4.46 4.46 0 0 0 1.44-2.06c.32-.88.48-1.9.48-3.05s-.16-2.15-.48-3a4.32 4.32 0 0 0-1.44-2.02 3.7 3.7 0 0 0-2.33-.72c-.92 0-1.7.25-2.32.75a4.39 4.39 0 0 0-1.42 2.01 9.1 9.1 0 0 0-.46 3.03c0 1.13.16 2.14.46 3.02.32.86.8 1.54 1.42 2.04.62.48 1.4.72 2.32.72Zm7.8-1.66v-.02l9.63-12.14h.02v10.39h2.04v1.77h-2.04V138h-2.33v-3.82h-7.32Zm7.47-6.9-4.06 5.25-.36-.12h4.27v-5.57l.15.43Zm20.15 10.8a6.6 6.6 0 0 1-2.69-.56 6.02 6.02 0 0 1-2.11-1.58 7.7 7.7 0 0 1-1.35-2.55 10.8 10.8 0 0 1-.48-3.33c0-1.35.16-2.52.46-3.5.3-1.02.74-1.86 1.32-2.53.6-.67 1.3-1.17 2.11-1.49a7.12 7.12 0 0 1 5.4.05c.82.37 1.51.9 2.09 1.61a7.2 7.2 0 0 1 1.37 2.52c.33.98.5 2.09.5 3.34 0 1.26-.17 2.39-.5 3.38a7.2 7.2 0 0 1-1.37 2.52 5.8 5.8 0 0 1-2.09 1.58c-.8.36-1.69.53-2.66.53Zm-.03-2.24c.93 0 1.7-.24 2.33-.72a4.46 4.46 0 0 0 1.44-2.06c.32-.88.48-1.9.48-3.05s-.16-2.15-.48-3a4.32 4.32 0 0 0-1.44-2.02 3.7 3.7 0 0 0-2.33-.72c-.92 0-1.7.25-2.32.75a4.39 4.39 0 0 0-1.42 2.01 9.1 9.1 0 0 0-.46 3.03c0 1.13.16 2.14.46 3.02.32.86.8 1.54 1.42 2.04.62.48 1.4.72 2.32.72Zm17.98-13.63-4.22 6.79-1.4-.65c.21-.11.44-.19.7-.24.26-.05.51-.07.77-.07.6-.03 1.17.03 1.73.2a3.72 3.72 0 0 1 2.57 2.26c.27.6.4 1.35.4 2.24 0 1.12-.25 2.1-.76 2.9a5.28 5.28 0 0 1-2.05 1.9 6.22 6.22 0 0 1-5.09.2 5.64 5.64 0 0 1-1.86-1.25l1.17-1.92c.3.35.72.67 1.25.96a3.55 3.55 0 0 0 3.31.02c.5-.27.89-.65 1.18-1.15.3-.51.45-1.1.45-1.78a2.9 2.9 0 0 0-.81-2.18 2.95 2.95 0 0 0-2.19-.8c-.46 0-.85.05-1.17.13-.32.06-.61.14-.87.24l-.07-.1 3.72-5.78.72.31h-5.78v-2.23h8.3Z"/></svg>