<svg width="203.13" height="76.83" viewBox="0 0 53.74 20.33" xml:space="preserve" xmlns="http://www.w3.org/2000/svg"><g fill="#fff" style="mix-blend-mode:normal"><path d="M6.45 0c-.22 0-.5.07-.78.22a2.86 2.86 0 0 0-1.4 2.18l.02.62c.1.59.2.82.57 1.24l.37.41.45-.1c.96-.2 1.38-.88 1.06-1.7l-.16-.04a1.54 1.54 0 0 1-.2-.07l-.09-.05a1.08 1.08 0 0 1-.4-.95c.09-.45-.04-.48.76-1.15.15-.13.22-.26.2-.38-.02-.16-.18-.23-.4-.24zM17.2.28c-.17 0-.21.07-.33.56a3.5 3.5 0 0 1-.37.91c-.37.55-1.24.97-2.2 1.05-.13 0-.14.1-.1.2l.13.26c.18.44.5 1.13.86 1.13.42 0 1.18-.43 1.75-.99 0 0 .42-.45.57-.72.08-.14.13-.3.17-.46.07-.3.13-.5.1-.91-.05-.66-.26-1.03-.58-1.03zM9.37 2.1c-.3.01-.53.04-.64.09-.2.08-.2.09.06.04.38-.07.85-.09 1.2.1.15.08.22.26.32.4l.3.42c.07.1.23.27.23.27v-.26l.02-.48v-.09c.04-.26.5-.29 1.09-.06.56.2.64.16.15-.09a8.8 8.8 0 0 0-2.73-.34zm-1.5.28c-.11 0-.24.02-.47.07 0 0-.18.08-.24.15-.07.07-.14.2-.14.25 0 .06.03.14.05.26.12.86-.35 1.46-1.3 1.66-.2.05-.26.1-.21.2.03.08.08.23.1.34.05.23-.12.25-.19.02a9.9 9.9 0 0 0-1.94-1.8 6.6 6.6 0 0 0-.8-.44c-.19-.09-.35-.2-1.23-.29l-.88-.05-.61.05v.71c0 1.21.48 2.3 1.33 3 .36.3 1.42.86 1.91 1.02.18.05.64.1 1.02.12.76.02 1.15.16 1.55.55l.25.25.16-.46c.15-.44.38-.67.26-.27a8.1 8.1 0 0 0 0 3.58c.18.67.55 1.45.93 1.95a11 11 0 0 0 1.74 1.73c.04 0-.03-.16-.16-.36a7.34 7.34 0 0 1-.87-1.64c0-.1.05-.08.19.1a8.34 8.34 0 0 0 2.14 1.9c.38.23.55.2.28-.04-.3-.3-.66-.76-.66-.89 0-.06.12-.24.26-.4s.25-.37.25-.46.13-.3.29-.45c.43-.4.58-.76.52-1.19-.04-.28 0-.51.2-1.06.29-.78.34-1.43.14-1.89a6.27 6.27 0 0 0-.9-1.08c-.45-.44-.9-.97-1.03-1.18-.45-.77-.91-1.07-1.59-1.01-.2.01-.2 0 .1-.33.37-.4.39-.56.15-1.24a3.1 3.1 0 0 1-.17-.73s.02-.16 0-.24c-.02-.1-.04-.23-.12-.3-.08-.08-.2-.1-.32-.11zm11.42.4s-.25.02-.37.05c-.25.06-.7.29-.7.29-.77.3-2.01 1.11-1.98 1.27.02.06-.01.08-.06.05s-.24.03-.43.13c-.24.12-.47.17-.74.15-.38-.03-.4-.05-.57-.4-.1-.2-.23-.64-.37-.95-.07-.17-.1-.39-.23-.5-.14-.1-.55-.07-.55-.07-.38-.02-.48-.06-.6.1-.03.05-.01.11.01.16.12.28.32.37.6.7.29.32.57.68.64.81.08.16.33.34.82.57.72.35 1.21.72 1.12.86-.02.05-.22-.05-.43-.2-.57-.44-1.13-.55-1.32-.27-.12.17.02 2.77.17 3.18.26.74.97 1.79 1.1 1.65.02-.02 0-.1-.07-.17-.09-.1-.09-.21 0-.58.07-.27.09-.6.05-.84-.04-.27-.03-.4.04-.4.11 0 .42-.65.42-.9s.05-.27.77-.33a4.04 4.04 0 0 0 2.04-.84c.67-.63.69-2.13.7-3.24 0-.1-.06-.27-.06-.27zm-1.34.88c.21 0 .27.12.03.2l-.41.15c-.15.07-.5.34-.8.61-.56.51-.6.49-.12-.1.33-.42.83-.77 1.2-.84a.6.6 0 0 1 .1-.02zm.57.5c.06-.01 0 .71-.1 1.06-.13.43-.49.87-.89 1.08a2.1 2.1 0 0 1-.5.15l-.3.06.3-.16c.58-.32.9-.76.46-.65-.12.03-.21.02-.21-.02 0-.1.21-.18.47-.18s.27-.2.02-.38l-.19-.13h.24c.17 0 .23-.04.22-.15-.04-.33 0-.4.12-.23.12.16.12.16.2-.05a114.68 114.68 0 0 1 .16-.4zm-14.58.09c.03 0 .18.15.33.36.39.5.58 1.1.55 1.66-.02.38-.06.47-.24.56-.3.15-1.33.12-1.75-.05-.51-.2-1.1-.65-1.3-.96-.18-.3-.22-.78-.08-1.13.1-.29.2-.22.18.14v.26l.19-.18a.6.6 0 0 1 .4-.17h.2l-.21.1c-.12.06-.22.17-.24.25-.02.12.04.14.35.14.2 0 .45.03.53.08.14.08.13.1-.1.1a.68.68 0 0 0-.42.15c-.15.14-.14.15.18.2.42.06.76.2.85.34.04.07.02.08-.1.04-.09-.04-.3-.09-.47-.11-.47-.07-.5.12-.04.32.3.13.53.16 1.05.14l.65-.02.03-.52c.02-.45-.01-.58-.28-1.09a2.52 2.52 0 0 1-.26-.61zm3.32 2.01c.12 0 .29.04.48.13.42.17.4.3-.03.16-.18-.07-.4-.1-.48-.06s-.18.1-.22.14c-.04.07-.06.06-.06 0 0-.24.1-.36.3-.37zm8.04.17c.26 0 .26.15.01.18-.12.02-.18.08-.18.18.01.09 0 .14-.03.1-.03-.02-.1 0-.18.07-.07.06-.1.06-.09.02.2-.45.3-.55.47-.55zm.39.44h.04c.17 0 .27.03.21.04a.16.16 0 0 0-.1.15c0 .07-.08.1-.22.06-.16-.03-.25.01-.36.16-.08.1-.22.39-.33.62-.21.5-.25.35-.06-.22.2-.56.45-.81.82-.81zm-8.28.06c.27 0 .63.17.94.48.2.2.38.41.38.46 0 .12 0 .11-.41-.25-.52-.47-.82-.58-1.12-.41-.23.13-.24.13-.17-.05.06-.16.2-.24.38-.23zm8.05.3h.05c.04.03.08.1.08.18 0 .14-.14.16-.22.03-.05-.09 0-.21.09-.22zm-7.93.23c.1 0 .2.13.14.23-.03.05-.08.1-.12.1-.12 0-.18-.25-.08-.31a.12.12 0 0 1 .06-.02zm8.1.26c.06 0 .04.1-.08.28-.08.11-.2.2-.27.2-.1 0-.07-.07.1-.27.13-.14.22-.21.26-.21zm-8.37.26c.04 0 .14.05.29.17a.9.9 0 0 0 .53.23c.2 0 .24.02.14.08-.23.15-.52.09-.78-.17-.2-.2-.24-.31-.18-.31z"/><path d="M15.59 10.67c-.17 0-.88 0-1.59.02l-1.29.01-.38.38c-.3.3-.45.56-.72 1.23-.44 1.15-.53 1.63-.42 2.17.08.34.15.46.36.6.37.23 1.02.17 1.86-.17a2.8 2.8 0 0 1 1.98-.15c.54.14 1.02.06 1.24-.21.13-.16.14-.28.1-.72-.05-.39-.03-.58.07-.77.2-.4.1-1.66-.17-1.98a1.3 1.3 0 0 0-1.04-.41zm-3.25.89.56.5c.47.42.56.55.57.78 0 .18-.05.3-.16.36-.25.13-.32.11-.61-.15-.24-.22-.27-.3-.31-.86zm4.22.18c.08 0 .12.2.13.58 0 .64-.27.8-.46.26-.03-.09.02-.33.12-.55.09-.2.16-.29.21-.3zM7.63 15.9a5.07 5.07 0 0 1-2.01-1.1 4.56 4.56 0 0 1-.91-1.94c-.18-.78-.28-3.07-.14-3.16.07-.04.1.1.1.47 0 .66.24 1.8.54 2.53a5.11 5.11 0 0 0 2.35 2.69c.73.35.98.42 1.74.5.48.04.6.07.44.11a5.3 5.3 0 0 1-2.1-.1z"/><path d="M12.4 15.9c-.6-.33-.63-.42-.16-.42.25 0 .64-.1 1.05-.26.51-.22.77-.27 1.24-.27.33 0 .67.04.75.08.13.08.11.12-.2.43-.5.54-.9.7-1.63.7-.53 0-.68-.04-1.05-.25z"/><path d="M9.19 19.3c-2.1-.18-4.37-.97-5.35-1.86l-.62-.55a4.93 4.93 0 0 1-.34-.37c-.1-.11-.2-.22-.26-.35-.17-.32-.33-.7-.36-1.04-.05-.44-.21-1.3-.08-2.1.14-.88.22-1.12.63-2.01l.4-.85.21-.37c.16-.21.57-.94.62-.9.01.02-.08.3-.21.62a8.7 8.7 0 0 0-.64 2.54c-.17 1.51.04 2.59.7 3.52 0 0 .42.52.67.75.25.23.4.36.83.6.4.17.3.14.99.37.96.33 2.12.47 3.62.47 2.76-.02 2.34-.18 2.38-.14.05.05 3.16-.53 5.35-1.13a68.27 68.27 0 0 0 6.48-2.24c.18-.06.99-.33 1.92-.7a33.4 33.4 0 0 1 8.38-2.34c2.31-.35 6.14-.47 7.5-.23a13.6 13.6 0 0 1 6.92 3.14 15.5 15.5 0 0 1 2.12 2.4c.3.44.8 1.41.76 1.46-.02.01-.27-.19-.55-.45a14.73 14.73 0 0 0-6.42-3.52c-2.3-.6-4.85-.7-8.58-.3a24.1 24.1 0 0 0-3.44.54l-1.13.25-1.25.34c-.76.08-7.08 1.72-12.4 3.21-3.24.91-4.78 1.19-6.94 1.26-.63.03-1.5.01-1.92-.02z"/></g><path d="M31.72 17.59a.7.7 0 0 0 .5.21c.53 0 1.19-.62 1.19-1.37 0-.86-.72-1.56-1.76-1.56-1.14 0-1.99.71-1.99 1.54 0 .6.56 1.04 1.08 1.04.24 0 .37-.08.37-.19 0-.03-.02-.04-.04-.04s-.03 0-.04.03a.34.34 0 0 1-.2.05c-.54 0-1.07-.35-1.07-.87 0-.73.76-1.39 1.82-1.39 1 0 1.6.61 1.6 1.45 0 .7-.46 1.2-.96 1.2-.4 0-.4-.3-.47-.3h-.03c.06-.93.15-1.65.24-2.13a.15.15 0 0 0-.14-.1c-.07 0-.09.02-.09.07v.01a23.8 23.8 0 0 0-.33 3.68c.02.08.08.12.16.12.1 0 .16-.04.17-.11a2.68 2.68 0 0 1-.03-.42v-.14c0-.2 0-.45.02-.78zm2.64-.85a.6.6 0 0 0-.28-.1c-.29 0-.56.63-.56 1.38 0 .64.28 1 .64 1 .26 0 .46-.24.46-.44 0-.04-.02-.08-.07-.08-.03 0-.05.03-.05.06l.01.03c-.03.19-.17.32-.34.32-.27 0-.46-.26-.46-.76v-.04c.09.06.19.09.29.09.31 0 .65-.42.65-.9 0-.34-.1-.52-.29-.56zm-.63 1.18c.1-.73.3-1.11.52-1.11.15 0 .26.16.26.46 0 .49-.25.84-.49.84-.2 0-.23-.19-.29-.19zm2.34.2c.03.2.05.55.05 1.02 0 .7-.17 1.05-.55 1.05-.42 0-.47-.3-.53-.3-.02 0-.04 0-.04.04 0 .1.28.4.63.4.46 0 .69-.36.69-1.06 0-.64-.08-1.15-.08-1.54 0-.57.07-.89.07-.93 0-.05-.06-.09-.1-.09-.09 0-.16.03-.16.06 0 .02.03.1.03.24 0 1.1-.25 1.79-.49 1.79-.16 0-.26-.26-.26-.76 0-.56.08-.94.08-1.07 0-.03-.05-.07-.15-.07-.07 0-.11.04-.11.06l.01.13c0 .14-.05.45-.05.91 0 .6.18.9.47.9.24 0 .36-.25.5-.77zm1.1-1.28c0-.06-.07-.11-.17-.11-.05 0-.07.02-.08.05.02.1.02.17.02.22 0 .33-.05.75-.05 1.26 0 .57.04.83.18.83.14 0 .13-.35.23-1.12.07-.58.17-.88.24-.88.12 0 .1.3.12.95.03.58.12.87.37.87.1 0 .15-.03.15-.08 0-.03-.02-.04-.03-.04-.03 0-.03.04-.08.04-.14 0-.18-.25-.21-.77-.06-.74-.03-1.1-.27-1.1-.28 0-.31.64-.5 1.88a8.7 8.7 0 0 1 .08-2zm1.63-.54c-.11 0-.17.06-.17.14 0 .09.06.13.17.13.13 0 .19-.05.19-.13 0-.09-.06-.14-.2-.14zm.08.77.03-.06c0-.04-.07-.1-.15-.1-.06 0-.09.04-.09.07v.03c-.03.42-.11.83-.11 1.25 0 .43.11.65.33.65.13 0 .23-.07.23-.13 0-.03 0-.04-.02-.04-.05 0-.1.09-.19.09-.12 0-.17-.13-.17-.42 0-.27.03-.74.14-1.34zm.95-.47a.1.1 0 0 0-.1-.05c-.02 0-.03.01-.05.03a1.7 1.7 0 0 0-.06.47c0 .08 0 .15.05.22-.17.87-.29 1.42-.29 1.62 0 .13.02.18.07.18.03 0 .05-.02.05-.06 0-.03 0-.06-.02-.09.14-.84.23-1.37.28-1.58.03.03.06.04.11.04a.3.3 0 0 0 .18-.06c-.08.35-.11.64-.11.85 0 .51.2.79.42.79.1 0 .15-.05.15-.1 0-.03-.01-.06-.03-.06-.04 0-.03.07-.12.07-.16 0-.23-.19-.23-.58 0-.72.2-1.06.2-1.1 0-.05-.12-.14-.18-.14-.02 0-.06.22-.24.22-.1 0-.13-.05-.13-.19 0-.11.03-.27.05-.48zm.9 1.37c0 .66.27 1.05.67 1.05.3 0 .52-.28.52-.44 0-.04-.02-.05-.05-.05-.09 0-.07.39-.47.39-.28 0-.46-.26-.46-.76 0-.77.31-1.38.56-1.38.12 0 .2.12.2.31 0 .22-.05.39-.05.5 0 .1.04.15.1.15.08 0 .12-.14.12-.4 0-.34-.09-.56-.23-.64l-.33-.09c-.2 0-.59.6-.59 1.36zm1.87-1.67c-.1 0-.17.06-.17.14 0 .09.07.13.18.13.13 0 .18-.05.18-.13 0-.09-.06-.14-.19-.14zm.09.77.03-.06c0-.04-.07-.1-.16-.1-.05 0-.08.04-.08.07v.03c-.03.42-.11.83-.11 1.25 0 .43.1.65.33.65.12 0 .23-.07.23-.13 0-.03 0-.04-.03-.04-.04 0-.1.09-.18.09-.13 0-.17-.13-.17-.42 0-.27.03-.74.14-1.34zm.84 1.23a4.1 4.1 0 0 1-.07-.79c0-1.29.3-2.21.44-2.21.1 0 .16.28.16.83 0 1.12-.27 1.91-.53 2.17zm.02.1c.31-.21.65-1.1.65-2.29 0-.68-.05-.98-.3-.98-.31 0-.61.89-.61 2.25 0 .32.02.64.08 1h-.05c-.17 0-.16-.07-.2-.07-.02 0-.04.02-.04.05 0 .07.11.13.24.13h.08c.12.4.32.6.53.6.15 0 .26-.06.26-.15 0-.03-.03-.06-.05-.06-.03 0-.04.11-.18.11-.2 0-.32-.19-.4-.58zm1.26-2.1c-.1 0-.16.06-.16.14 0 .09.06.13.17.13.13 0 .19-.05.19-.13 0-.09-.07-.14-.2-.14zm.09.77.03-.06c0-.04-.07-.1-.15-.1-.06 0-.09.04-.09.07v.03c-.03.42-.11.83-.11 1.25 0 .43.11.65.33.65.12 0 .23-.07.23-.13 0-.03 0-.04-.03-.04-.04 0-.1.09-.18.09-.13 0-.17-.13-.17-.42 0-.27.03-.74.14-1.34zm1.18.96.01-.03c0-.03-.05-.08-.13-.08h-.03c.14-.83.38-1.26.61-1.26.19 0 .35.24.35.61 0 .55-.26.9-.59.9-.13 0-.21-.05-.22-.14zm-.34.78c-.04-.14-.04-.27-.04-.4 0-.46.05-1.14.16-2.02.06-.48.1-.82.14-1.01.03-.12.08-.2.08-.23 0-.07-.1-.16-.22-.16-.05 0-.08.04-.08.07v.04c-.1 1.17-.23 2.25-.23 3.27 0 .47.02.7.17.7.16 0 .08-.34.19-1.06.24.59.5.89.81.89.28 0 .46-.25.46-.39 0-.05-.03-.08-.06-.08-.02 0-.04.02-.04.03v.03c-.05.2-.16.3-.32.3-.2 0-.38-.19-.58-.56a.3.3 0 0 0 .14.03c.36 0 .73-.44.73-1 0-.48-.21-.75-.48-.75-.21 0-.41.22-.56.65a5.24 5.24 0 0 0-.26 1.54l-.01.11z" fill="#fff" aria-label="Peynircilik"/><path d="M21.59 12.36q.33.87-.52 1.57.2-.3.24-.68.05-.4-.1-.8-.13-.35-.5-.65-.38-.3-.77-.36.58-.06 1 .17.46.23.65.75zm-.49.12q.17.45.1.89-.05.37-.3.66l-.06.04-.1.07q.59-.6.21-1.6-.19-.5-.57-.75l-.27-.13-.45-.17h.04l.05-.01q.47.05.85.34.36.27.5.66zm-.22.1q.38 1-.33 1.66l-.08.04-.14.06-.18.06-.07.01h-.02q-.47-.08-.77-.36-.27-.27-.45-.74-.18-.48-.09-.94.1-.4.4-.7l.03-.02.05-.02.16-.06.05-.01.03-.02q.52.04.87.3.36.27.54.73zm-1.84-.86q-.32.34-.39.8-.06.43.1.84.34.92 1.22 1.08l-.04.01-.05.01h-.06l-.03.02q-.88-.24-1.2-1.07-.33-.91.34-1.65l.06-.02.05-.02zm-.21.1q-.31.34-.4.8-.09.43.06.82.18.48.53.75.2.15.6.3-.4.04-.78-.12-.5-.22-.7-.74-.21-.55 0-1.06.2-.48.69-.74zm1.63.93q-.17-.45-.47-.74-.32-.33-.62-.22-.28.1-.3.56-.04.4.13.85.16.42.42.7.33.37.62.27.33-.13.36-.6.02-.39-.14-.82zm5.33-1.2q.12.35-.12.63-.2.24-.57.37.18-.16.27-.4.1-.25.03-.46-.08-.23-.3-.34-.21-.1-.46-.1.45-.35.29-.81-.15-.43-.76-.46l.07-.02q.33-.11.63-.05.37.07.48.37.16.5-.34.82l.01.03q.63-.01.77.42zm-.49.17q.08.2-.01.44-.07.2-.25.37l-.1.09-.08.02-.04.02h-.04q.23-.16.33-.39.12-.25.04-.5-.13-.4-.73-.45.41-.42.28-.8-.07-.2-.3-.33-.21-.1-.46-.13l.1-.04q.27 0 .48.1.24.12.32.36.14.4-.3.78v.03q.63.04.76.43zm-.26.07q.14.42-.27.8l-.06.05-.1.07-.03.01-.25.08-.14.05-.1.03-.88-2.57.13-.04.18-.07.31-.1q.25 0 .46.11.24.13.31.34.13.4-.3.78l.01.03q.6.08.73.43zm-1.06 1.13-.1.04-.89-2.57.12-.04zm-.21.07-.27.1-.24.1-.02-.05.15-.2-.25-.73-.14-.4-.23-.6-.2-.5-.25-.05.01-.06.56-.18zm.55-2.31q-.06-.2-.25-.32-.18-.12-.37-.05l-.08.02.13.49.19.6q.01-.02.07-.04.5-.17.31-.7zm.42 1.23q-.08-.23-.27-.35-.22-.13-.44-.05l-.06.02.08.28.06.19.11.31.13.34.08-.03q.22-.08.3-.29.09-.2.01-.42zm5.61-.98v.03l-.53.14L28 8.8l.31-.1.36-.11.04.05-.14.16v.04q.03.08.76 1.04.17.24.37.48l.43.5zm-.63.2-.12.04-1.82-2.3.11-.03zm-.23.07-.64.2v-.03l.13-.15-.4-.56q-.03-.03-.48.1-.38.11-.38.15l-.03.65.26.08v.03l-.22.05-.18.05-.18.05-.19.07-.02-.03.14-.16q.12-.47.23-.99l.2-1.08-.44-.44-.3-.05.02-.07q.33-.07.66-.17zm-1.04-.7-.3-.39-.28-.33-.03.01q-.11.85-.1.89 0 .03.18-.02.42-.12.53-.17zm5.3-.97.04.2.02.14.11.43-.04.01-.18-.17-.7.15-.57.12-.6-2.65.3-.07.33-.09.03.05-.19.15.1.66.08.49.27 1.2.22-.04.19-.05q.13-.03.47-.17l.1-.36zm-1.43.9-.11.03-.6-2.65.12-.02zm-.22.06-.26.06-.25.07-.03-.06.15-.16q-.2-.78-.29-1.2-.09-.4-.31-1.13l-.21-.06v-.06l.32-.05.29-.06zm4.23-3.4-.16.14.02.48.04.7.04.53.06.7.2.13v.03h-.27l-.27.03-.25-2.7.27-.03.3-.05zm-.45 2.75-.12.01-.25-2.7.12-.02zm-.23.02-.26.03-.28.04V9.9l.17-.16-.07-.67-.05-.53q-.05-.42-.18-1.21l-.2-.1.02-.04.33-.01.27-.02zm5.9-1.36q-.04.93-1.1 1.23.3-.2.5-.52.2-.35.22-.77.01-.38-.21-.8-.23-.43-.57-.64.56.18.86.55.32.4.3.95zm-.5-.08q-.02.48-.25.85-.2.32-.53.5l-.08.01-.12.02q.78-.32.82-1.4.03-.53-.23-.9-.06-.09-.2-.22l-.35-.34q.04 0 .05.02h.04q.42.23.65.65.22.4.2.8zm-.24 0q-.05 1.07-.95 1.4h-.25l-.18-.01-.08-.02h-.02q-.4-.26-.56-.64-.15-.35-.13-.85.03-.52.3-.9.23-.34.64-.5h.25l.05.01h.03q.47.24.7.62.22.39.2.88zM39.45 6.9q-.42.19-.67.58-.22.37-.24.82-.04.97.7 1.47h-.04l-.05-.02q-.03 0-.05-.02h-.04q-.71-.56-.68-1.45.05-.97.96-1.38h.11zm-.24.02q-.41.18-.67.56-.25.37-.27.78-.02.52.2.9.13.23.43.52-.39-.13-.67-.43-.38-.39-.36-.95.03-.59.42-.97.37-.37.92-.41zm1.14 1.48q.02-.47-.13-.86-.18-.43-.49-.45-.3 0-.5.4-.19.35-.2.84-.03.44.1.8.16.48.47.5.35 0 .56-.42.17-.35.2-.8zm5.97 1.29-.2.06q-.1.18-.15.32l-.1.24-.1.31-.12.43-.04-.01-.07-.2-.2-.01.43-1.33.25.07.27.06zm.2-1.48-.07.15-.08.22-.06.18-.07.25h-.08q.02-.27-.1-.49-.14-.28-.48-.39-.4-.13-.75.18-.3.27-.44.72-.19.58-.1.97.08.4.43.48l.16-.53q.06-.16.15-.5l-.18-.22.03-.04.3.11.26.1-.45 1.38q-.1-.01-.22-.05l-.27-.08q-.87-.71-.54-1.74.17-.53.5-.76.3-.21.84-.27.03.02.1.03l.1.03q.35.12.8.4l.18-.16zm-1.3 2.6h-.12l.45-1.38.11.04zm-.94-.27-.04-.02-.05-.02-.05-.02-.03-.02q-.3-.29-.42-.66-.17-.47 0-.97.13-.43.46-.7.34-.29.8-.33.06 0 .15.04-.95.1-1.26 1.04-.14.43-.01.89.12.45.45.77zm-.3-.14q-.47-.29-.69-.68-.28-.5-.1-1.05.15-.48.55-.72.41-.24 1.05-.17-.45.04-.78.32-.32.27-.46.68-.28.89.43 1.62zm5.3 2.18-.12.15-.09.12-.24.37-.04-.03v-.24l-.57-.43-.47-.34 1.57-2.2.25.16.29.19-.02.06-.23-.05-.43.5q-.19.23-.3.4l-.73 1 .18.14.16.11q.11.08.45.24l.32-.17zm-1.62-.46-.1-.07 1.58-2.21.1.07zm-.2-.13-.21-.16-.22-.13.02-.07h.23q.44-.66.7-1 .24-.35.63-1l-.1-.2.05-.03.25.2.24.17zm6.26 2.84-.2-.08q-.48.28-1.42.88-.42.27-.76.17-.37-.11-.72-.64l-.04-.1q.04-.4.2-.6.09-.11.36-.3l1.47-1 .16.21.18.25-.03.05-.2-.08q-.25.14-.48.3l-.45.3-.25.15-.16.1q-.27.19-.35.44-.1.26.06.48.16.24.43.24.24 0 .47-.15.45-.31 1.33-.99l-.02-.24h.05l.18.28.1.13.12.16zm-3.22.1q-.05-.06-.05-.09.02-.33.16-.53.1-.14.4-.34l1.47-1 .07.1-1.47 1q-.3.2-.38.31-.13.17-.2.56zm-.11-.21q-.11-.3-.07-.59.06-.3.3-.5l.4-.3.6-.43.21-.17.2-.15-.03-.26h.06l.2.3.16.25-1.48 1.01q-.24.17-.36.32-.18.22-.19.52z" fill="#fff" aria-label="obalıoglu"/></svg>