<svg width="597.09" height="269.05" viewBox="0 0 157.98 71.19" xmlns="http://www.w3.org/2000/svg"><path d="M156.73 35.6a77.74 34.34 0 0 1-77.74 34.33A77.74 34.34 0 0 1 1.25 35.6 77.74 34.34 0 0 1 78.99 1.25a77.74 34.34 0 0 1 77.74 34.34z" stroke="#d3af5c" stroke-linecap="round" stroke-width="2.5"/><g fill="#fff"><path d="M37.17 32.68c.02-5.97-1.65-9.62-4.5-9.56-1.33 0-2.23.55-3.39 2.1h-.08v-1.84h-4.26a.43.43 0 0 0-.33.13l-.1.04v1.16c0 .18.08.35.27.5.32.33.49.74.49 1.21v19.51a2.1 2.1 0 0 1-.76 1.67c-.22.19-.32.3-.32.41v1.2c0 .12.06.19.2.19h5.6c.1 0 .21-.04.21-.19v-1.2c0-.14-.1-.3-.29-.45-.18-.18-.4-.4-.46-.57a3 3 0 0 1-.13-.86v-4.58c1 1 2.12 1.49 3.39 1.49 2.83 0 4.46-3.94 4.46-10.36zm-4.34-.73c0 3.48-.12 5.74-.37 6.78-.14.51-.28.86-.38 1.06-.27.47-.64.7-1.08.7-.29 0-.53-.06-.74-.17a8.2 8.2 0 0 1-.94-.83V26.54c.57-.55 1.12-.83 1.63-.83.64 0 1.1.45 1.41 1.34.12.3.23.94.33 1.9s.14 1.96.14 3zm18.57 9.13c0-.29-.17-.47-.51-.53-.74-.16-.96-.57-.96-1.86V28.56c0-3.36-2.16-5.48-5.54-5.48a5.4 5.4 0 0 0-3.43 1.06 3.19 3.19 0 0 0-1.39 2.59c0 1.24.9 2.16 2.19 2.16 1.08 0 1.91-.84 1.91-1.88 0-.24-.08-.59-.24-1.04a1.4 1.4 0 0 1-.13-.43c0-.32.23-.48.7-.48 1.2 0 1.98.97 1.98 2.54v2.88c-1.19.32-2.12.65-2.8.96a8.1 8.1 0 0 0-1.85 1.16 6.47 6.47 0 0 0-2.4 5.36c0 3 1.62 5.08 3.95 5.08 1.3 0 2.42-.64 3.75-2.17.65 1.53 1.49 2.17 3.01 2.17 1.17 0 1.76-.37 1.76-1.08zM45.98 38c0 1.12-.64 2.04-1.43 2.04-.9 0-1.47-1.08-1.47-2.8 0-2.52.8-3.85 2.9-4.72zm17.63-.43c0-1.49-.53-2.9-1.6-4.18a16.02 16.02 0 0 0-2.46-2.08c-1.39-1-2.3-1.75-2.77-2.28a2.7 2.7 0 0 1-.7-1.81c0-1.17.88-2.04 2.02-2.04.63 0 1.04.28 1.04.67 0 .16-.04.3-.12.45-.1.3-.16.57-.16.8 0 1.03.83 1.75 2 1.75 1.28 0 2.11-.94 2.11-2.16 0-1.96-1.95-3.51-4.54-3.51a5.48 5.48 0 0 0-5.63 5.46c0 1.5.51 2.8 1.53 3.92.35.4.82.83 1.88 1.67l1.01.8c1.15.87 1.88 1.5 2.2 1.87.56.67.84 1.35.84 2.02 0 .61-.24 1.14-.73 1.59-.47.43-1.06.65-1.78.65-.93 0-1.4-.33-1.4-1 0-.12.04-.32.12-.63.08-.33.12-.55.12-.7 0-1.24-.73-1.93-1.95-1.93-1.37 0-2.23.94-2.23 2.34 0 2.3 2.2 3.98 5.14 3.98a6.1 6.1 0 0 0 4.34-1.6 5.28 5.28 0 0 0 1.72-4.05zm9.86 3.75-.41-1.08c-.08-.18-.2-.28-.39-.28h-.08c-.14 0-.24.02-.32.04a1.8 1.8 0 0 1-.6.08c-.9 0-1.24-.63-1.24-2V25.67h2.24c.3 0 .47-.15.47-.41v-1.43c0-.24-.16-.36-.47-.36h-2.24v-6.65c0-.18-.08-.29-.26-.29-.17 0-.31.02-.45.05l-2.67.32c-.3.04-.47.2-.47.51v3.34c0 1.64-.2 2.25-.92 2.76-.35.24-.45.36-.45.75v1.04c0 .24.14.37.41.37h.8v13.5c0 2.54 1.03 3.87 3.13 3.87 1 0 1.96-.25 2.92-.74.67-.37 1-.65 1-.87zm14.3-.24c0-.29-.16-.47-.5-.53-.74-.16-.96-.57-.96-1.86V28.56c0-3.36-2.16-5.48-5.55-5.48a5.4 5.4 0 0 0-3.42 1.06 3.19 3.19 0 0 0-1.39 2.59c0 1.24.9 2.16 2.18 2.16 1.08 0 1.92-.84 1.92-1.88 0-.24-.08-.59-.25-1.04a1.4 1.4 0 0 1-.12-.43c0-.32.23-.48.7-.48 1.2 0 1.97.97 1.97 2.54v2.88a18.3 18.3 0 0 0-2.79.96c-.67.3-1.28.69-1.86 1.16a6.47 6.47 0 0 0-2.4 5.36c0 3 1.63 5.08 3.95 5.08 1.3 0 2.43-.64 3.75-2.17.66 1.53 1.5 2.17 3.02 2.17 1.16 0 1.76-.37 1.76-1.08zM82.35 38c0 1.12-.63 2.04-1.42 2.04-.9 0-1.47-1.08-1.47-2.8 0-2.52.8-3.85 2.9-4.72zm12.66 3.24c-.02-.06-.1-.14-.25-.24-.55-.3-.83-.82-.83-1.51V11.03l-4.83.12c-.3.04-.47.14-.51.29v.96c.02.14.16.28.4.42.64.35.88.74.88 1.53v25.1c0 .7-.26 1.2-.81 1.5-.23.15-.35.27-.35.41v1.06c0 .29-.02.29.39.29h5.66c.17 0 .25-.1.25-.33zm6.4-26.13a2.41 2.41 0 0 0-2.45-2.43c-.63 0-1.2.25-1.67.74a2.4 2.4 0 0 0-.72 1.69A2.4 2.4 0 0 0 99 17.57a2.38 2.38 0 0 0 2.4-2.47zm.7 26.4c0-.19-.11-.39-.36-.6-.55-.38-.71-.67-.71-1.38v-16.1l-4.3.12c-.47 0-.72.14-.72.4v.88c0 .23.13.43.4.63.4.29.6.76.6 1.39v12.31c0 .98-.1 1.2-.65 1.67-.33.31-.39.41-.39.8v.61c0 .3.2.47.6.47h5.13c.27 0 .4-.1.4-.33zm14.26.04c0-.14-.09-.3-.25-.47-.37-.45-.55-.9-.55-1.33V27.52c0-2.53-1.37-4.22-3.28-4.22-1.33 0-2.61.63-3.81 1.88v-1.8l-4.63.09c-.25 0-.47.18-.47.32v1.14c0 .1.12.2.35.33.5.39.75.84.75 1.39v12.88c0 .55-.22 1.02-.67 1.43-.19.18-.27.3-.27.36v1.19c0 .14.08.2.27.2h5.26c.08 0 .12-.1.12-.33v-1.06c0-.08-.06-.18-.16-.28a1.7 1.7 0 0 1-.51-1.24V27.3c.67-.84 1.3-1.25 1.91-1.25.68 0 1.1.56 1.1 1.55v12.36c0 .39-.18.75-.55 1.08-.14.14-.2.22-.2.28v1.19c0 .14.06.2.16.2h5.26c.1 0 .17-.1.17-.33zm14.02-.47c0-.29-.17-.47-.51-.53-.74-.16-.96-.57-.96-1.86V28.56c0-3.36-2.16-5.48-5.55-5.48a5.4 5.4 0 0 0-3.42 1.06 3.19 3.19 0 0 0-1.39 2.59c0 1.24.9 2.16 2.18 2.16 1.09 0 1.92-.84 1.92-1.88 0-.24-.08-.59-.24-1.04a1.4 1.4 0 0 1-.13-.43c0-.32.23-.48.7-.48 1.2 0 1.97.97 1.97 2.54v2.88a18.3 18.3 0 0 0-2.79.96 8.1 8.1 0 0 0-1.85 1.16 6.47 6.47 0 0 0-2.4 5.36c0 3 1.62 5.08 3.95 5.08 1.3 0 2.42-.64 3.75-2.17.65 1.53 1.48 2.17 3.01 2.17 1.17 0 1.76-.37 1.76-1.08zM124.96 38c0 1.12-.63 2.04-1.42 2.04-.9 0-1.47-1.08-1.47-2.8 0-2.52.8-3.85 2.9-4.72z" aria-label="pastalina"/><path d="M83.12 51.8c0-2.63-.73-4.24-2-4.21-.58 0-.97.24-1.48.93h-.04v-.81h-1.88c-.06 0-.1.01-.14.05l-.05.02v.51c0 .08.04.15.12.23.14.14.21.32.21.53v8.6c0 .3-.1.55-.33.74-.1.08-.14.13-.14.18v.53c0 .05.02.08.09.08h2.47c.05 0 .1-.02.1-.08v-.53c0-.06-.05-.14-.14-.2a.98.98 0 0 1-.2-.25 1.46 1.46 0 0 1-.06-.38v-2.02c.44.44.94.66 1.5.66 1.25 0 1.97-1.74 1.97-4.57zm-1.92-.32c0 1.54-.05 2.54-.16 3a2.7 2.7 0 0 1-.17.47c-.12.2-.28.3-.48.3a.72.72 0 0 1-.32-.07 3.36 3.36 0 0 1-.42-.37V49.1c.26-.24.5-.37.72-.37.28 0 .49.2.62.6.06.13.1.4.15.83.04.42.06.86.06 1.32zm8.56 4.03c0-.12-.08-.2-.23-.23-.32-.07-.42-.25-.42-.82v-4.47c0-1.48-.96-2.42-2.45-2.42-.6 0-1.1.15-1.5.47-.41.31-.62.7-.62 1.14 0 .55.4.95.96.95.48 0 .85-.36.85-.82 0-.11-.04-.26-.11-.46a.62.62 0 0 1-.05-.19c0-.14.1-.22.3-.22.53 0 .87.44.87 1.13v1.27c-.52.14-.93.28-1.23.42-.3.13-.57.3-.82.51a2.86 2.86 0 0 0-1.06 2.37c0 1.32.72 2.24 1.75 2.24.57 0 1.07-.28 1.65-.96.29.68.66.96 1.33.96.51 0 .78-.17.78-.48zm-2.4-1.36c0 .5-.28.9-.63.9-.4 0-.64-.47-.64-1.23 0-1.11.35-1.7 1.27-2.08zm6.98 1.47-.18-.48a.17.17 0 0 0-.17-.12h-.03c-.07 0-.11 0-.15.02a.8.8 0 0 1-.26.03c-.4 0-.55-.28-.55-.88v-5.48h1c.13 0 .2-.06.2-.18v-.63c0-.1-.07-.16-.2-.16h-1v-2.93c0-.08-.03-.13-.11-.13l-.2.02-1.18.15c-.13.01-.2.09-.2.22v1.48c0 .72-.1.99-.41 1.21-.15.1-.2.16-.2.33v.46c0 .11.07.16.18.16h.35v5.96c0 1.12.46 1.7 1.39 1.7.44 0 .86-.1 1.28-.32.3-.16.44-.29.44-.39zm3.4-11.56c0-.59-.46-1.07-1.08-1.07a1 1 0 0 0-.74.32c-.2.22-.31.47-.31.75 0 .6.45 1.08 1.07 1.08a1.05 1.05 0 0 0 1.06-1.09zm.31 11.64c0-.08-.05-.17-.16-.26-.24-.17-.31-.3-.31-.61v-7.1l-1.9.05c-.2 0-.32.06-.32.18v.38c0 .1.06.2.17.28.18.13.27.34.27.62v5.43c0 .43-.04.53-.28.73-.15.14-.17.18-.17.35v.27c0 .14.09.21.26.21h2.26c.12 0 .18-.04.18-.14zm5.84-1.73c0-.66-.23-1.28-.7-1.85-.2-.23-.57-.54-1.09-.92a8.21 8.21 0 0 1-1.22-1c-.2-.25-.3-.5-.3-.8 0-.52.38-.9.88-.9.28 0 .46.12.46.3a.5.5 0 0 1-.05.2.94.94 0 0 0-.07.34c0 .46.36.78.88.78.56 0 .93-.42.93-.96 0-.86-.86-1.54-2-1.54a2.42 2.42 0 0 0-2.49 2.4c0 .66.23 1.24.68 1.73.15.18.36.37.83.74l.45.35c.5.39.82.67.97.83.24.3.37.6.37.89 0 .27-.11.5-.33.7-.2.19-.47.29-.78.29-.41 0-.62-.15-.62-.44 0-.06.02-.15.05-.28.04-.15.06-.24.06-.3 0-.56-.33-.86-.87-.86-.6 0-.98.41-.98 1.03 0 1.02.98 1.76 2.27 1.76a2.7 2.7 0 0 0 1.92-.7c.5-.47.75-1.07.75-1.8zm5.88 0a2.9 2.9 0 0 0-.7-1.85 7.37 7.37 0 0 0-1.1-.92 8.21 8.21 0 0 1-1.22-1c-.2-.25-.3-.5-.3-.8 0-.52.38-.9.89-.9.28 0 .46.12.46.3 0 .07-.02.13-.06.2-.04.13-.07.24-.07.34 0 .46.37.78.88.78.57 0 .94-.42.94-.96 0-.86-.87-1.54-2-1.54a2.42 2.42 0 0 0-2.49 2.4c0 .66.22 1.24.67 1.73.16.18.36.37.83.74l.45.35c.5.39.83.67.97.83.25.3.37.6.37.89 0 .27-.1.5-.32.7-.21.19-.47.29-.79.29-.4 0-.62-.15-.62-.44 0-.06.02-.15.06-.28l.05-.3c0-.56-.32-.86-.86-.86-.6 0-.98.41-.98 1.03 0 1.02.97 1.76 2.27 1.76a2.7 2.7 0 0 0 1.91-.7c.5-.47.76-1.07.76-1.8zm6.06-2.95c.02-1.98-.98-3.44-2.38-3.4-1.61 0-2.63 1.73-2.63 4.5 0 1.36.24 2.42.73 3.19a2.32 2.32 0 0 0 2.07 1.13c1.3 0 2-.8 2.13-2.4l-.95-.16c-.18.92-.45 1.3-.95 1.3-.72 0-1.04-.77-1.04-2.5v-.61c0-.05.03-.07.1-.07h2.78c.1 0 .14-.08.14-.21zm-3.02-.06v-.84c0-1.11.21-1.66.64-1.66.4 0 .64.5.64 1.29v1.21zm8.79-2.34c0-.56-.39-.99-.92-.99-.38 0-.7.15-.95.45-.24.28-.47.78-.69 1.49h-.03v-1.85l-1.6.04c-.17 0-.25.05-.25.14v.5c0 .05.05.12.13.2.2.19.3.45.3.78v5.57c0 .2-.11.37-.32.49-.08.05-.12.1-.12.14v.56c0 .06.02.1.07.1h2.51c.07 0 .1-.04.1-.1v-.5c0-.06-.04-.12-.13-.18a.94.94 0 0 1-.35-.72v-3.06c0-.93.21-1.76.65-2.48.22.27.48.4.77.4.5 0 .83-.43.83-.98zm3.22-4.56c0-.59-.46-1.07-1.08-1.07a1 1 0 0 0-.74.32c-.2.22-.31.47-.31.75 0 .6.46 1.08 1.07 1.08.3 0 .55-.1.75-.31s.3-.47.3-.77zm.31 11.64c0-.08-.05-.17-.16-.26-.24-.17-.31-.3-.31-.61v-7.1l-1.9.05c-.2 0-.32.06-.32.18v.38c0 .1.06.2.18.28.18.13.27.34.27.61v5.44c0 .43-.05.53-.3.73-.14.14-.16.18-.16.35v.27c0 .14.09.21.26.21h2.26c.12 0 .18-.04.18-.14zm6.03-4.68c.02-1.98-.98-3.44-2.38-3.4-1.61 0-2.63 1.73-2.63 4.5 0 1.36.25 2.42.73 3.18a2.32 2.32 0 0 0 2.07 1.14c1.3 0 2-.8 2.13-2.4l-.95-.16c-.17.92-.44 1.3-.95 1.3-.72 0-1.04-.77-1.04-2.5v-.61c0-.05.04-.07.1-.07h2.79c.09 0 .13-.08.13-.21zm-3.02-.06v-.84c0-1.11.22-1.66.64-1.66.4 0 .65.5.65 1.29v1.21z" aria-label="patisserie"/><path d="M136.73 25.11q0-.3-.17-.42-.17-.11-.48-.11h-.94v1.07h.94q.3 0 .48-.12.17-.12.17-.42zm2 .89q0-.6-.22-1.11-.23-.52-.61-.91-.4-.4-.91-.62-.52-.22-1.1-.22-.6 0-1.12.22t-.9.62q-.4.39-.62.9-.23.53-.23 1.12t.23 1.11q.22.51.61.9t.91.62q.52.22 1.11.22.52 0 .96-.17.45-.16.82-.46h-.74q-.09-.22-.14-.43-.06-.21-.07-.35l-.05-.37q-.02-.19-.09-.32-.06-.14-.17-.22-.1-.08-.3-.08h-.96v1.77h-.86v-4.45h1.83q.32 0 .59.07.27.07.47.22.2.16.3.4.12.25.12.59t-.14.6q-.15.25-.38.39.22.14.31.37.1.22.13.6.01.23.08.5.07.28.2.6.45-.4.7-.94.25-.54.25-1.17zm.57 0q0 .7-.27 1.33-.26.62-.73 1.09-.47.46-1.09.73-.62.27-1.33.27t-1.33-.27q-.62-.27-1.08-.73-.47-.47-.74-1.1-.27-.61-.27-1.32 0-.7.27-1.33.27-.63.74-1.1.46-.46 1.08-.73.63-.27 1.33-.27t1.33.27q.62.27 1.09.73.47.47.73 1.1.27.62.27 1.33z" aria-label="Ⓡ"/></g></svg>