<svg xmlns="http://www.w3.org/2000/svg" width="645.43" height="129.29" viewBox="0 0 170.77 34.21"><path fill="#fff" d="M0 34.21v-6.27h.94l2.36 3.8 2.3-3.8h.94v6.27H5.46v-3.88l.01-.28.03-.39a9.29 9.29 0 0 1-.29.66l-1.88 3.14H3.1L1.2 30.3a4.04 4.04 0 0 1-.3-.64 12.83 12.83 0 0 1 .03.66v3.88zm10.27-2.5h2.2l-1.09-2.56zm-2.24 2.5 2.83-6.27H12l2.87 6.27h-1.31l-.6-1.37H9.77L9.2 34.2zm10.1-5.16v5.16h-1.16v-5.16h-2.3v-1.11h5.77v1.11zm7.54-.1h-2.66v1.5h2.66c.2 0 .34-.03.42-.1.08-.06.11-.18.11-.35v-.59c0-.16-.03-.28-.11-.35-.08-.07-.22-.1-.42-.1zm0 2.54h-2.66v1.6h2.66c.22 0 .37-.05.45-.13.08-.09.11-.23.11-.44v-.48c0-.2-.03-.35-.11-.43-.08-.08-.23-.12-.45-.12zm-3.8 2.72v-6.27h4.29c.4 0 .68.1.86.29.17.19.26.5.26.92v.77c0 .3-.07.54-.22.72a1 1 0 0 1-.64.34 1 1 0 0 1 .67.38c.15.21.23.48.23.82v.8c0 .42-.12.73-.37.93-.24.2-.6.3-1.1.3zm8.98-2.5h2.2l-1.09-2.56zm-2.24 2.5 2.83-6.27h1.13l2.87 6.27h-1.31l-.6-1.37h-3.18l-.58 1.37zm9.37-2.5h2.2l-1.08-2.56zm-2.24 2.5 2.84-6.27h1.12l2.87 6.27h-1.3l-.61-1.37h-3.17l-.59 1.37zm8.53-2.61v-1.26h2.26v1.26zm8.69-2.58h-2.62v1.66h2.62c.2 0 .34-.03.41-.1.08-.08.11-.21.11-.4v-.67c0-.18-.03-.3-.1-.38-.08-.08-.22-.11-.42-.11zm-3.76 5.2v-6.28h4.27c.4 0 .7.1.87.28.18.2.27.5.27.93v1.4c0 .43-.09.74-.27.93-.18.2-.47.29-.87.29h-3.13v2.44zm10.97-5.2h-2.62v1.75h2.62c.2 0 .34-.04.41-.11.07-.07.11-.2.11-.4v-.75c0-.18-.04-.3-.1-.38-.08-.08-.22-.11-.42-.11zm-3.76 5.2v-6.28h4.27c.4 0 .7.1.87.28.18.2.27.5.27.93v1.48c0 .42-.1.73-.27.92-.18.2-.47.29-.87.29h-.65l2.31 2.37h-1.67l-2.02-2.37h-1.1v2.37zm7.67-4.8c0-.57.08-.96.25-1.17.17-.2.5-.31.98-.31H69c.49 0 .82.1.99.31.17.2.25.6.25 1.17v3.3c0 .58-.08.97-.25 1.18-.17.2-.5.31-1 .31h-3.68c-.48 0-.81-.1-.98-.31-.17-.2-.25-.6-.25-1.17zm1.16 3.61h3.84v-3.98h-3.84zm7.45 1.18v-6.27h.94l2.36 3.8 2.3-3.8h.93v6.27h-1.07v-4.16l.04-.39a9.4 9.4 0 0 1-.3.66l-1.87 3.14h-.24L73.9 30.3a4.07 4.07 0 0 1-.3-.64 12.69 12.69 0 0 1 .03.66v3.88zm8.88-4.8c0-.56.09-.95.26-1.16.16-.2.5-.31.98-.31h3.68c.5 0 .82.1 1 .31.16.2.25.6.25 1.17v3.3c0 .58-.09.97-.26 1.18-.17.2-.5.31-.99.31h-3.68c-.49 0-.82-.1-.98-.31-.17-.2-.26-.6-.26-1.17zm1.16 3.62h3.84v-3.98h-3.84zm11.8-4h-3.28v1.35h3.12c.5 0 .82.1 1 .31.17.22.25.6.25 1.18v.86c0 .57-.08.96-.26 1.17-.17.2-.5.31-.99.31h-3.1c-.48 0-.81-.1-.98-.31-.18-.21-.26-.6-.26-1.17v-.17l1.02-.27v.74h3.54V31.6h-3.12c-.48 0-.81-.1-.98-.32-.17-.2-.26-.6-.26-1.17v-.69c0-.57.09-.96.26-1.17.17-.2.5-.31.98-.31h2.84c.47 0 .8.1.98.3.18.2.26.56.26 1.07v.13l-1.02.3zm4.9 5.18v-2.8l-2.6-3.47h1.56l1.72 2.4 1.72-2.4h1.37l-2.6 3.43v2.84zm4.85-4.8c0-.56.08-.95.25-1.16.17-.2.5-.31.99-.31h3.68c.49 0 .82.1.99.31.17.2.25.6.25 1.17v3.3c0 .58-.08.97-.25 1.18-.17.2-.5.31-.99.31h-3.68c-.49 0-.82-.1-.99-.31-.17-.2-.25-.6-.25-1.17zm1.16 3.62h3.84v-3.98h-3.84zm7.45 1.18v-6.27h.8l3.52 3.7a6.04 6.04 0 0 1 .57.68l-.04-.75-.01-.34v-3.3h1.05v6.28h-.8l-3.68-3.88-.23-.26a3.02 3.02 0 0 1-.18-.25 19.94 19.94 0 0 1 .05 1v3.4zm9.73-2.61v-1.26h2.26v1.26zm8.65-2.58h-2.61v1.75h2.61c.2 0 .34-.04.42-.11.07-.07.1-.2.1-.4v-.75c0-.18-.03-.3-.1-.38-.08-.08-.22-.11-.42-.11zm-3.76 5.2v-6.28h4.28c.4 0 .69.1.86.28.18.2.27.5.27.93v1.48c0 .42-.09.73-.27.92-.17.2-.46.29-.86.29h-.66l2.32 2.37h-1.67l-2.02-2.37h-1.1v2.37zm7.78 0v-6.28h5.12V29h-3.96v1.4h2.31v1.07h-2.3v1.55h4v1.18zm7.32 0v-6.28h1.17v2.61l2.78-2.61h1.68l-3.31 2.95 3.72 3.32h-1.87l-3-2.76v2.76zm7.7 0v-6.28h1.16v5.1h3.76v1.17zm7.74-2.51h2.19l-1.08-2.56zm-2.25 2.5 2.84-6.27h1.12l2.87 6.27h-1.3l-.6-1.37h-3.18l-.58 1.37zm8.43 0v-6.27h.94l2.36 3.8 2.3-3.8h.94v6.27h-1.08v-3.88l.01-.28.03-.39a9.52 9.52 0 0 1-.29.66l-1.88 3.14h-.23l-1.89-3.15a4.1 4.1 0 0 1-.3-.64 12.02 12.02 0 0 1 .03.66v3.88zM16.38 3.46H6.2v5.32h10.2c.78 0 1.32-.11 1.6-.35.3-.23.44-.65.44-1.25V5.04c0-.58-.14-1-.43-1.23-.3-.23-.83-.35-1.62-.35zM1.74 20.06V0h16.65c1.56 0 2.68.3 3.38.92.7.6 1.04 1.6 1.04 2.96v4.48c0 1.36-.34 2.35-1.04 2.96-.7.62-1.82.92-3.38.92H6.2v7.82zm40.65-16.6h-10.2v16.6h-4.45V0H44.4c1.55 0 2.68.3 3.37.92.7.6 1.05 1.6 1.05 2.96V8.6c0 1.35-.35 2.34-1.05 2.95-.7.62-1.82.93-3.37.93h-2.55l9.01 7.58h-6.5l-7.85-7.57V9.06h5.88c.78 0 1.32-.12 1.61-.35.29-.24.43-.66.43-1.25V5.04c0-.58-.14-1-.43-1.23-.29-.23-.83-.35-1.61-.35zm13.15 1.28c0-1.83.34-3.07 1-3.74.66-.66 1.94-1 3.83-1h14.35c1.9 0 3.18.34 3.84 1 .67.67 1 1.91 1 3.74v10.58c0 1.83-.33 3.08-1 3.74-.66.67-1.94 1-3.84 1H60.37c-1.9 0-3.17-.33-3.83-1-.66-.66-1-1.91-1-3.74zm4.54 11.55h14.95V3.58H60.08zm26.94 3.77V0h3.66l9.2 12.13L108.83 0h3.63v20.06h-4.19V7.66c0-.24.01-.54.05-.9l.12-1.24a20.9 20.9 0 0 1-1.15 2.11l-7.32 10.02h-.9L91.73 7.59c-.27-.38-.5-.74-.69-1.07a8.16 8.16 0 0 1-.47-.98 33.84 33.84 0 0 1 .11 2.12v12.4zm46.47-8.01-4.2-8.16-4.35 8.16-1.93 3.62-2.27 4.39h-4.52L127.25 0h4.38l11.18 20.06h-5.1l-2.34-4.4zm29.75-8.55h-12.77v4.3h12.16c1.9 0 3.2.34 3.87 1 .67.68 1 1.93 1 3.75v2.76c0 1.82-.33 3.07-1 3.73-.68.67-1.96 1-3.87 1h-12.05c-1.9 0-3.2-.33-3.86-1-.68-.66-1-1.91-1-3.73v-.55l4-.85v2.37h13.78V11.7h-12.16c-1.9 0-3.17-.34-3.84-1-.66-.67-1-1.92-1-3.74V4.74c0-1.82.34-3.06 1-3.74.67-.66 1.94-1 3.84-1h11.07c1.83 0 3.1.32 3.79.96.7.65 1.04 1.8 1.04 3.44v.42l-4 .97z"/></svg>