<svg width="467.5" height="427.09" viewBox="0 0 123.69 113" xml:space="preserve" xmlns:xlink="http://www.w3.org/1999/xlink" xmlns="http://www.w3.org/2000/svg"><defs><linearGradient id="a"><stop style="stop-color:#fdec3b;stop-opacity:1" offset="0"/><stop style="stop-color:#f95f0b;stop-opacity:1" offset=".58"/></linearGradient><linearGradient xlink:href="#a" id="b" x1="77.36" y1="336.11" x2="196.65" y2="427.06" gradientUnits="userSpaceOnUse"/></defs><path style="fill:#bbaca5;fill-opacity:1" d="M126.59 361.5c0-.1 1.22-2.28 2.71-4.88l2.71-4.7 1.2-.01c1.28 0 3.48.5 4.48 1.04l.63.34-.77.34c-.73.33-.74.36-.21.52.3.1 1.14.45 1.85.79l1.29.62-1.22.02a9.75 9.75 0 0 0-3.41.74c-.22.07.33.29 1.22.48 1.75.37 3.5 1.16 4.06 1.82.45.55.3.53-1.37-.15-1.06-.43-2-.57-3.91-.6a11 11 0 0 0-7.6 2.54c-.91.69-1.66 1.18-1.66 1.09z" transform="translate(-72.96 -314.33)"/><path style="fill:#bbaca5;fill-opacity:1" d="M127.14 363.38a18.56 18.56 0 0 1 5.73-3.51 9.94 9.94 0 0 1 6.03-.14 23 23 0 0 0 2.57.61c.11.01.2.11.2.22s-.95.16-2.1.1c-2.6-.1-5.96.32-8.16 1.05-1.71.57-3.9 1.68-4.17 2.11a.58.58 0 0 1-.45.25c-.16 0 0-.31.35-.69z" transform="translate(-72.96 -314.33)"/><path style="fill:#e5304a;fill-opacity:1" d="M137.35 367.3c-.19-.29.85-2.14 1.21-2.16.11 0 .2.22.2.5 0 .67-1.18 2.05-1.41 1.67zm-4.81.74c-.09-.15-.1-.27-.03-.27.06 0 .31-.07.54-.16.27-.1.42-.01.42.27 0 .46-.67.58-.93.16zm3.31.01c0-.3.17-.54.38-.54.63 0 .73.48.16.79-.46.24-.54.2-.54-.25zm-1.48.42c-.22-.59.07-.89.48-.48.24.24.24.38 0 .62-.23.24-.35.2-.48-.14z" transform="translate(-72.96 -314.33)"/><path style="fill:#fcba2a;fill-opacity:1" d="m162.02 375.48-11.69-20.28-9.15-15.87-1.08-4.37a97.9 97.9 0 0 0-1.3-4.89c-.24-.57-.41.63-.72 5.16l-.17 2.51-4.39 7.54c-7.53 12.95-10.43 17.84-11.07 18.61-.8.96-.79.74.06-.92.37-.73.64-1.38.59-1.43-.05-.04-.9.99-1.87 2.3a20.21 20.21 0 0 1-1.78 2.22c0-.08.41-.98.93-2 .5-1.01.87-1.84.8-1.84-.07 0-.91 1.03-1.86 2.28a15.5 15.5 0 0 1-1.73 2.11c0-.1.48-1.08 1.07-2.2.59-1.1 1.02-2.04.97-2.1-.04-.04-.9 1.04-1.92 2.4-1 1.38-1.87 2.46-1.91 2.41-.05-.05.34-.95.87-2 .53-1.04.9-1.95.84-2.02-.07-.07-.7.63-1.39 1.55-1.42 1.89-2 2.52-1.38 1.53.22-.37 5.32-9.18 11.31-19.58l11.86-20.57a7.57 7.57 0 0 1 1.13-1.65c.09 0 1.46 2.23 3.03 4.96a5699.34 5699.34 0 0 0 13.08 22.56 15055 15055 0 0 0 7.76 13.35c2.53 4.34 4.13 7.67 3.84 7.96-.05.05-.5-.5-.99-1.22a4.8 4.8 0 0 0-.98-1.22c-.05.05.45 1.33 1.11 2.84 1.33 3.04 1.28 3.08-.5.38a11.29 11.29 0 0 0-1.23-1.69c0 .09.53 1.37 1.18 2.85.64 1.48 1.09 2.64.98 2.57-.1-.07-.72-.9-1.36-1.85a9.61 9.61 0 0 0-1.26-1.64c-.04.04.24.78.62 1.64 1.36 3.04 1.67 3.8 1.56 3.8-.06 0-.66-.83-1.34-1.87-.67-1.03-1.27-1.82-1.33-1.75-.07.06.24.92.69 1.9.44 1 .77 1.83.73 1.87-.04.03-1.21-1.92-2.61-4.34z" transform="translate(-72.96 -314.33)"/><path style="fill:#fcba2a;fill-opacity:1" d="M96.46 383.58c.32-.6 6.6-11.59 15.65-27.32l7.77-13.53c2.59-4.52 5.24-8.2 4.6-6.38a14 14 0 0 1-.67 1.53c-.22.43-.36.79-.3.79s.9-1.03 1.86-2.28c1.71-2.24 2.14-2.61 1.36-1.2-.71 1.3-1.47 2.95-1.36 2.95.06 0 .85-1.01 1.76-2.25a34.16 34.16 0 0 1 1.73-2.25c.05 0-.33.9-.82 1.99-.5 1.09-.87 1.98-.81 1.98.05 0 .78-.92 1.61-2.05 2.35-3.16 2.45-3.13.73.16a8.4 8.4 0 0 0-.8 1.78c.06.05.68-.68 1.39-1.62 1.4-1.86 1.8-2.2.98-.85-.55.9-13.29 22.9-19.38 33.5l-3.56 6.16-3.64 3.55c-2 1.96-3.48 3.55-3.3 3.55a1 1 0 0 0 .6-.23c.14-.13 1.72-.9 3.51-1.72l3.26-1.48h10.92c12.08 0 19.95.23 19.42.56-.19.12-.88.23-1.53.25-1.03.02-1.1.05-.5.24.4.11 1.7.3 2.92.42 1.72.16 2.03.25 1.41.4-.43.1-1.32.2-1.96.21-.64.02-1.1.1-1.01.18.19.2.63.27 3.1.54l2 .21-1.2.2c-.65.1-1.73.2-2.38.24l-1.2.05 1.07.21c.58.12 2.07.3 3.3.42 1.72.16 2.06.25 1.46.38a15 15 0 0 1-2.32.22c-2.22.04-1.85.46.67.76 1.53.18-5.11.26-22.24.29l-24.42.04z" transform="translate(-72.96 -314.33)"/><path style="fill:#fcba2a;fill-opacity:1" d="M114.09 391.13c-1.23-.19-.8-.6.6-.6 2.12 0 1.28-.47-1.2-.67-1.23-.1-2.25-.3-2.25-.42 0-.13.84-.24 1.87-.24 2.74 0 2-.44-1.1-.66-2.93-.21-3.13-.65-.3-.66 1.75 0 2.36-.51.66-.55-.55-.01-1.23-.06-1.52-.12-.3-.06-1.03-.13-1.64-.16-1.87-.1-.97-.5 1.12-.5 2.15 0 2.8-.5.72-.55a8.55 8.55 0 0 1-1.92-.24c-.37-.12 10.05-.19 23.15-.16l23.81.06 4.3 1.34c2.36.73 4.3 1.25 4.3 1.15 0-.1-1.4-1.14-3.1-2.31a37.84 37.84 0 0 1-3.54-2.63c-.43-.49-13.2-22.83-14.2-24.83-.92-1.84-.93-2.44-.02-1 .83 1.32 1.62 2 1.02.87-.63-1.18-2.06-4.76-1.84-4.62.13.08.62.79 1.1 1.58.47.8.96 1.45 1.1 1.45.12 0 .16-.15.08-.33l-1.08-2.51c-.51-1.2-.9-2.19-.85-2.19.05 0 .65.9 1.34 1.99 1.85 2.9 1.84 2.78-.08-1.66a23.2 23.2 0 0 1-.98-2.44c.05 0 .66.84 1.36 1.88.7 1.04 1.32 1.76 1.37 1.6a9 9 0 0 0-.85-2.32 15.4 15.4 0 0 1-.87-2.1c.03-.03 1.98 3.29 4.33 7.38 2.35 4.1 7.8 13.55 12.11 21a925.8 925.8 0 0 1 8 13.96c.14.35-2.92.4-27.06.36a1884.3 1884.3 0 0 1-27.94-.15z" transform="translate(-72.96 -314.33)"/><path style="fill:#fff" d="M115.13 398.44c-.08-.3.09-1.09.37-1.74.64-1.51.64-1.79-.07-2.26-.93-.62-.36-1 1.52-1 1.86 0 2.23.38 1.09 1.13-.34.23-1 1.3-1.5 2.41-.48 1.1-.96 2.01-1.07 2.01-.1 0-.26-.25-.34-.55zm-12.35 2.01c0-.22.24-.64.53-.93.43-.43.53-.88.53-2.5 0-1.7-.08-2.04-.53-2.32-.3-.18-.53-.54-.53-.8 0-.66 1.97-.63 3.1.05 1.25.77 1.76 1.72 1.74 3.25-.02 1.55-.6 2.5-1.95 3.18-1.15.59-2.9.63-2.9.07zm66.41 4.43c0-.26.24-.62.53-.8.5-.3.53-.62.53-4.69s-.04-4.38-.53-4.7c-.3-.17-.53-.55-.53-.82 0-.43.14-.48 1.07-.36 2.33.31 3.73 2.25 3.9 5.4.13 2.23-.22 3.48-1.34 4.75-1.36 1.55-3.63 2.31-3.63 1.22zm-5.42.21c-.09-.15.08-.47.38-.73.5-.43.54-.75.54-4.97s-.04-4.54-.54-4.98c-.3-.25-.47-.57-.38-.72.09-.14 1.22-.25 2.52-.25h2.37v11.9h-2.37c-1.3 0-2.43-.11-2.52-.25zm-7.15 0c-.08-.15.09-.47.39-.73.5-.43.54-.75.54-4.97s-.04-4.54-.54-4.98c-.3-.25-.47-.57-.39-.72.1-.14 1.4-.25 2.93-.25 2.3 0 2.76.06 2.76.4 0 .22-.18.48-.4.56-.33.13-.4.93-.4 4.99 0 4.06.07 4.86.4 4.99.22.08.4.33.4.56 0 .34-.46.4-2.76.4-1.52 0-2.84-.11-2.93-.25zm-7.02-.09c0-.18.25-.54.54-.79.5-.42.53-.78.53-5.61v-5.16h2.38c1.96 0 2.38.07 2.38.4 0 .22-.18.48-.4.56-.33.13-.4.93-.4 4.99 0 4.06.07 4.86.4 4.99.22.08.4.33.4.56 0 .34-.47.4-2.91.4-2.19 0-2.91-.08-2.91-.34zm-3.92-4.75c-1.31-3.98-1.83-5.22-2.37-5.68-1.05-.88-.51-1.17 2.06-1.08l2.19.08.72 2.06c.4 1.13.8 2.12.88 2.2.08.1.23-.27.33-.8.1-.52.28-1.02.41-1.1.5-.3.2 2.33-.57 4.95-1.24 4.22-1.33 4.46-1.67 4.46-.17 0-1.05-2.26-1.98-5.09zm-2.77 4.92c-.09-.09.13-.52.49-.94.6-.72.65-1 .67-3.74.03-2.92.03-2.94.45-2.03.23.51.47 1.88.53 3.05.09 1.88.17 2.18.77 2.68.38.31.6.7.5.86-.2.3-3.12.41-3.4.12zm-6.42-.13c-.1-.17 0-.45.25-.63.32-.23.39-.54.27-1.15-.16-.78-.24-.83-1.33-.83-.98 0-1.15-.08-1.15-.53 0-.43.17-.53 1.02-.53h1.02l-.75-3.24a36.45 36.45 0 0 1-.75-3.98l-.01-.74 1.9.08 1.9.08 1.24 5.27c.85 3.62 1.38 5.38 1.7 5.6.87.64.15.9-2.51.9-1.69 0-2.68-.1-2.8-.3z" transform="translate(-72.96 -314.33)"/><path style="fill:#fff" d="M131.09 405.02c0-.17.3-.56.67-.86.54-.43.88-1.3 1.71-4.34a54 54 0 0 1 1.16-3.93c.07-.07.2.3.3.84.14.7-.04 1.82-.62 4.01l-.8 3.05.63.55c.35.3.57.65.5.78-.23.36-3.55.28-3.55-.1zm-11.77.08c-.09-.15.08-.48.38-.74.5-.43.54-.75.54-4.97s-.04-4.54-.54-4.98c-.3-.25-.47-.57-.38-.72.09-.14 1.22-.25 2.52-.25h2.37v5.39c0 5.26.01 5.4.56 5.54.3.08.5.3.44.5-.15.43-5.63.64-5.89.22zm-9-.02c-.22-.36.08-.8.54-.8.3 0 .38-.4.38-1.79 0-1.53-.17-2.21-1.21-4.7a23 23 0 0 0-1.6-3.32c-.78-.89-.45-1.03 2.4-1.03 1.52 0 2.83.1 2.91.24.09.13-.04.44-.27.67-.4.4-.34.63.66 2.95.96 2.25 1.08 2.75 1.08 4.61 0 1.82.07 2.13.53 2.37.3.16.53.46.53.68 0 .31-.53.38-2.9.38-1.64 0-2.96-.11-3.05-.26zm-12.96.02c-.09-.15.08-.48.38-.74.5-.43.54-.75.54-4.97s-.04-4.54-.54-4.98c-.3-.25-.47-.57-.38-.72.09-.14 1.22-.25 2.52-.25h2.37v5.39c0 5.26.01 5.4.56 5.54.3.08.5.3.44.5-.15.43-5.63.64-5.89.22z" transform="translate(-72.96 -314.33)"/><path style="fill:#fff" d="M126.45 404.96c-.55-.55-.65-.9-.65-2.25 0-1.25-.12-1.72-.53-2.13-.3-.3-.53-.68-.53-.87 0-.18.24-.54.53-.79.42-.36.53-.78.53-2.04 0-1.24-.12-1.7-.53-2.12-.92-.91-.69-1.32.72-1.32 2.22 0 3.58 1.24 3.58 3.23 0 1.08-.76 2.18-1.79 2.59l-.53.2.53.2c1.26.48 1.72 1.21 1.72 2.74 0 1.14.07 1.4.32 1.14.46-.46 1-.38 1 .15-.04 1.72-3.05 2.6-4.37 1.27z" transform="translate(-72.96 -314.33)"/><path style="fill:#f1860c;fill-opacity:1" d="M119.98 410.77c0-.32.36-.4 1.71-.4 1.36 0 1.72.08 1.72.4 0 .3-.36.4-1.72.4-1.35 0-1.71-.1-1.71-.4zm31.92.33c.07-.77.17-1.78.25-2.25l.13-.86h3.14c3.62 0 4.59.24 4.46 1.11-.05.34-.43.77-.88 1l-.9.47c-.07.04.28.49.77 1l.9.92h-1.48c-1.47 0-1.48 0-2.3-1.26l-.82-1.26 1-.13c1.5-.2 1.32-.9-.26-1l-1.24-.09-.18 1.87-.19 1.87h-2.5zm-6.57-3.11c-1.27-.01-2.54.11-3.38.39-3.05 1.01-2.65 3.24.7 3.85 1.62.29 5.18.08 6.26-.37 1.8-.76 2.01-2.28.44-3.19-.73-.43-2.38-.67-4.02-.68zm.06.83c1.79.03 3.1 1.12 1.84 2.13-.87.7-3.52.67-4.24-.06-.69-.68-.35-1.4.83-1.82a4.6 4.6 0 0 1 1.57-.25zm-13.68 2.68c.1-.55.17-1.56.17-2.25v-1.26h3.06c3.37 0 4.09.21 4.09 1.21 0 .52-.22.76-.96 1.07-1.26.52-3.11.4-3.23-.23-.06-.32.04-.41.3-.31.23.08.66.01.98-.16.8-.42.3-.85-.83-.74l-.9.08-.07 1.8-.08 1.78h-2.69zm-7.44.8a.56.56 0 0 1-.33-.5c0-.28.42-.37 1.72-.37.95 0 1.72-.1 1.72-.22s-.72-.54-1.6-.92c-1.77-.76-2-1.34-.78-1.97 1-.5 4.87-.34 4.97.23.07.35-.12.4-1.1.3-.65-.06-1.4 0-1.66.15-.41.23-.24.38 1.17.99 1.92.83 2.18 1.5.8 2.08-.79.34-4.19.5-4.9.23zm-12.37-.54c.07-.4.19-1.41.28-2.25l.16-1.52h3.55c2.98 0 3.56.06 3.56.4 0 .32-.43.4-2.25.4-2.1 0-2.25.03-2.25.53 0 .3.15.52.33.5.18-.02 1.01-.03 1.84-.01 1.23.02 1.49.1 1.36.43-.11.3-.6.4-1.97.4-1.45 0-1.83.08-1.83.4 0 .31.41.39 2.08.39 2.18 0 2.47.09 2.24.69-.11.29-.89.37-3.68.37h-3.53z" transform="translate(-72.96 -314.33)"/><path style="fill:url(#b)" d="M134.86 314.33c-7.9 0-7.55-.06-8.28 1.45-.14.3-1.11 2-2.17 3.8l-1.92 3.28-1.6.49c-.89.27-2.35.97-3.26 1.56l-1.66 1.07.06-2.19c.03-1.2.21-2.65.41-3.21.2-.57.36-1.07.36-1.13 0-.24-1.33-.05-2.8.42-3.63 1.13-6 2.74-7.67 5.18-.97 1.43-1.23 1.63-2.75 2.16-4.18 1.44-6.95 4.51-7.79 8.63-.3 1.42-.41 1.6-1.52 2.3-2.48 1.54-4.23 4.6-4.6 8.01a6.31 6.31 0 0 1-.76 2.65 18.78 18.78 0 0 0-2.88 8.82c-.07 1.18-.3 2.55-.53 3.04-1.59 3.6-1.64 3.87-1.64 8.17 0 3.8.06 4.21.69 5.7l.68 1.59-.61 1.8a15.11 15.11 0 0 0-.63 7.18c.43 2.2.44 2.37.11 2.38-.15 0-1.78 1.35-3.6 3-2.32 2.09-3.37 3.22-3.46 3.7-.06.4-.44 1.9-.84 3.36-.4 1.45-.77 2.94-.84 3.3-.06.37-.28 1.2-.48 1.86-.2.65-.57 2.08-.82 3.17-.25 1.1-.63 2.55-.85 3.25-.47 1.5-.7 1.1 3.06 5.3 1.68 1.87 3.06 3.17 3.57 3.36.47.17 1.08.42 1.37.54l2.86 1.2 2.33.98 3.06-.31c1.69-.17 4.63-.37 6.54-.45 1.9-.07 5.32-.25 7.57-.39 2.26-.14 6.7-.33 9.86-.42l5.75-.18v8.55h1.96c1.08 0 2.9-.18 4.04-.4 1.14-.22 2.49-.47 3-.55.5-.09 2.06-.54 3.46-1.01l2.53-.86 1.37.6a5.4 5.4 0 0 0 1.37.5c0-.05.39.06.86.26 1.29.54 6.66 1.4 9 1.45l2.04.04v-8.49h3.11c1.71 0 5.14.12 7.61.26 2.47.13 6.4.31 8.73.4 2.33.09 6.3.33 8.83.54 4.01.33 4.8.33 6.09 0 .82-.21 1.9-.45 2.41-.54.51-.08 1.58-.32 2.38-.52a313 313 0 0 1 7.1-1.62c.75-.16.77.03-.58-5.62-.53-2.23-.9-4.18-.8-4.32.09-.15.82-.69 1.61-1.2 1.18-.75 1.43-1.04 1.33-1.5a33147.88 33147.88 0 0 1-3.7-14.38c-.65-2.5-.44-2.38-4.3-2.63-1.45-.1-2.9-.27-3.22-.38-.56-.2-.56-.25-.2-1.62.67-2.52.39-6.85-.58-8.73-.33-.65-.3-.93.34-2.78.58-1.69.73-2.68.83-5.44.08-2.38.03-3.37-.18-3.37-.16 0-.3-.28-.3-.63 0-.83-1-4.1-1.47-4.85a3.13 3.13 0 0 1-.28-1.78c.05-.66.03-1.26-.05-1.34-.08-.08-.18-.8-.23-1.6-.07-1.46-1.54-5.06-2.74-6.76-.3-.4-.5-.83-.47-.95.04-.12-.03-.96-.14-1.86-.2-1.77-.99-3.8-1.78-4.66-.27-.28-.43-.6-.37-.72.16-.24-1.53-1.78-2.85-2.59-.54-.34-1-.81-1.02-1.05-.16-2.35-1.23-4.5-3.21-6.46-1.54-1.53-3.82-2.89-5.44-3.24-.63-.13-1.05-.48-1.55-1.29a10.83 10.83 0 0 0-3.26-3.44c-2.8-1.95-7.68-3.54-7.67-2.49 0 .19.18.93.4 1.66.4 1.27.58 4.26.29 4.55-.08.08-.52-.17-.99-.56a10.79 10.79 0 0 0-4.03-2.04c-1.55-.44-1.72-.65-4.4-5.66-.23-.43-.76-1.36-1.17-2.05l-.74-1.25Zm-5.66 2.77h11.01l2.45 4.24 2.45 4.23 1.68.44c3.18.82 5.46 2.4 7.32 5.04l1.29 1.84.16-1.02.38-2.12c.12-.6.24-2.21.26-3.56.03-1.35.09-2.5.14-2.54.21-.22 2.28 1.22 3.67 2.56 1.45 1.39 2.71 3.34 3 4.62.06.3.12 1.4.12 2.43 0 1.84-.43 3.46-1.31 4.84-.36.56-.35.7.09 1.52.5.93.93 1.18.93.54 0-.2.36-1.24.8-2.32 1.3-3.09 1.8-4.74 1.98-6.51.1-.91.3-1.66.44-1.66.52 0 3.35 3.1 4 4.4a12.4 12.4 0 0 1 .73 9.1 17.72 17.72 0 0 1-2.82 4.79c-.58.6-.62.77-.35 1.37l.32.68.66-.97c.36-.54 1.32-1.7 2.12-2.56 1.58-1.71 2.96-3.77 3.38-5.03.34-1.04.88-1 1.63.1 1.55 2.31 2.14 7.05 1.24 10.1a14.41 14.41 0 0 1-5.47 7.24c-.7.46-.97 1.3-.5 1.58.27.17 4.59-3.57 5.96-5.16.55-.64 1.2-1.61 1.44-2.16.24-.54.51-.99.6-.99.85 0 1.95 4.45 1.74 7-.43 5.24-3 8.95-7.45 10.81-.87.36-1.63.85-1.67 1.08-.11.55 0 .54 1.48-.12 4.75-2.08 7.08-3.64 8.3-5.54.62-.94.95-.48 1.27 1.75.68 4.82-1.24 9.9-4.69 12.4a7.65 7.65 0 0 0-1.6 1.48c-.36.58-.36.58 1.05.4 1.53-.2 3.49-.97 4.26-1.67.84-.76 1.12-.06 1.12 2.79 0 2.74-.42 4.34-1.63 6.13l-.62.93 4.78.43c2.63.24 4.84.5 4.92.58.24.24 3.53 12.57 3.53 13.21 0 .45-.4.82-1.6 1.52-1.3.75-1.57 1.02-1.46 1.45 1.51 5.6 2.08 8.4 1.76 8.6-.19.11-1.8.47-3.56.8-1.76.32-3.88.75-4.7.95-1.9.47-4.13.47-10.4-.02-2.76-.22-6.87-.46-9.13-.54l-10.33-.4c-9.57-.39-10.65-.36-11.4.3-.35.3-1 .74-1.43.96l-.78.41.64.24c.35.13 1.54.4 2.64.58l2 .33v5.26l-1.3-.05c-1.73-.06-4.7-.73-7.98-1.82l-2.67-.87-2.26.76a62.73 62.73 0 0 1-4.66 1.32c-1.32.31-3 .59-3.74.62l-1.34.06v-5.33l2.18-.36c1.2-.2 2.4-.37 2.65-.38.72-.03.56-.22-1.07-1.33l-1.51-1.03-10.19.31c-5.6.18-12.98.49-16.4.7-11.5.7-11.03.7-12.4.15-5.05-2.05-4.62-1.77-7.08-4.6l-2.31-2.64.3-1.35c.18-.75.5-2.01.73-2.81.23-.8.76-2.77 1.17-4.37 1.76-6.73 1.31-5.82 4.15-8.47a30.06 30.06 0 0 1 2.98-2.56c.23-.1 1.22-.18 2.2-.2l1.78-.01-.96-1.76c-1.5-2.73-2.01-5.6-1.4-7.83l.28-.99.98.65a8.92 8.92 0 0 0 4.19 1.46c1.35 0 1.22-.27-1.33-2.6a14.4 14.4 0 0 1-3.5-5.2c-.4-1.06-.5-2.01-.5-4.7.01-3.94.24-4.45 1.37-3.1 1.73 2.05 3.05 2.9 7.84 5 1.52.66 1.51.66 1.5.08 0-.3-.61-.75-1.88-1.34a11.61 11.61 0 0 1-6.42-7.62c-.38-1.28-.46-2.17-.35-4.23.14-2.58.8-5.4 1.27-5.4.13 0 .48.5.79 1.1.73 1.42 2.31 3.11 4.75 5.07 1.09.88 2.13 1.77 2.3 1.98.27.33.35.27.5-.36.17-.66.07-.85-.84-1.55-4.09-3.16-5.75-6.52-5.55-11.21.06-1.5.3-2.82.66-3.8.55-1.44 1.45-2.87 1.82-2.87.1 0 .57.8 1.04 1.79a16.64 16.64 0 0 0 2.86 3.9 23.24 23.24 0 0 1 2.41 2.9l.42.77.38-.72c.35-.67.33-.78-.28-1.5-3.95-4.69-4.4-10.14-1.23-15.03.97-1.5 2.51-2.95 3.14-2.95.17 0 .3.4.3.95 0 1.2.63 3.62 1.44 5.6a137 137 0 0 1 1.12 2.77c.27.7.56 1.26.64 1.26.1 0 .37-.4.63-.87.46-.86.46-.9-.2-2.19a9.08 9.08 0 0 1-.12-8.44c.74-1.46 3.14-3.9 4.64-4.72l1.26-.68v1.77c0 .97.17 3.15.38 4.85l.38 3.08 1.15-1.76c1.88-2.85 4.83-5.04 7.38-5.45a4.3 4.3 0 0 0 1.5-.5c.22-.16 1.47-2.15 2.79-4.4z" transform="translate(-72.96 -314.33)"/><path style="display:inline;fill:#bbaca5;fill-opacity:1" d="M123.08 374.98a5.93 5.93 0 0 1-1.51-3.36c0-1 .6-3.05.89-3.05.14 0 .74.28 1.34.64.99.57 3.84 1.29 4.66 1.47 1.32.3 2.47.5 5.67.8 0 0 2.52.3 4.9-.12 1.09-.2 2.02-.32 2.07-.27.18.17-1.97 1.1-3.66 1.59-2.49.71-8.14.65-10.7-.11-1-.3-1.88-.5-1.94-.45-.17.18 3.13 2.53 3.54 2.53.2 0 .37.12.37.27 0 .14-.09.26-.2.26-.57-.01-2.94-.88-3.97-1.45-.66-.37-1.23-.67-1.28-.67-.04 0 .09.56.3 1.25.2.68.33 1.28.3 1.32-.05.04-.4-.25-.78-.65z" transform="translate(-72.96 -314.33)"/><path style="display:inline;fill:#fff" d="M128.8 370.57c-.1-.02-.54-.26-1.2-.7a7.03 7.03 0 0 1-1.63-1.43c-.4-.6-.37-.66.7-1.54 1.34-1.09 4.2-2.58 4.96-2.58.5 0 .54.13.43 1.53-.1 1.17-.21 1.5-.52 1.44-.86-.15-.67.49.34 1.16 2.94 1.94 7.1.28 7.98-3.2.16-.65.35-1.19.41-1.19.25 0 2.18 1.07 2.3 1.27.4.64-1.64 3.12-3.42 4.18-1.17.68-3.92 1.68-4.7 1.69-.26 0-1.27.03-1.44.02a15.43 15.43 0 0 1-4.22-.65c-.65-.24.1.02 0 0z" transform="translate(-72.96 -314.33)"/></svg>