<svg xmlns="http://www.w3.org/2000/svg" width="654.05" height="355.19" viewBox="0 0 173.05 93.98"><path fill="#fff" d="m73.1 0-7.03 12.16c-3.86 6.69-7.05 12.24-7.1 12.35-.06.15.08.45.79 1.67l.86 1.49-.86 1.5c-.76 1.3-.85 1.5-.77 1.68.07.16 11.69 20.31 13.58 23.57l.5.87 28.48-.04 14.17-24.56-.24-.42-.87-1.51-.63-1.09.87-1.51.88-1.51-14.2-24.6L87.3.01zm27.52 1.62 6.6 11.46c3.64 6.3 6.6 11.52 6.6 11.6 0 .06-2.98 5.27-6.6 11.55l-6.6 11.43H88.04l.03-1.28.02-1.3.89-.06a19.86 19.86 0 0 0 12.79-5.98 19.63 19.63 0 0 0 5.03-8.22c.66-2.1.93-3.9.92-6.22 0-1.77-.07-2.44-.42-4.19A20.42 20.42 0 0 0 83.81 4.5a20.54 20.54 0 0 0-16.84 17.88 29.94 29.94 0 0 0 0 4.54 20.55 20.55 0 0 0 18.7 18.12l.81.05.03 1.3.02 1.29H74l-.12-.2c-.07-.1-3.06-5.28-6.65-11.5L60.7 24.65l13.28-23 13.32-.02zm-12 4.2.66.06a20 20 0 0 1 8.35 2.98 18.94 18.94 0 0 1 8.3 12.7c.16.93.19 1.38.19 3.08 0 1.69-.03 2.15-.2 3.05a18.46 18.46 0 0 1-2.41 6.6c-.08.06-1.73-3.06-7.04-13.32L89.07 6.7zm-3.08.03h.26c.1.03-1.7 3.55-7.24 14.13a2584.9 2584.9 0 0 1-7.45 14.17c-.13.14-1.12-1.84-1.6-3.2a17.66 17.66 0 0 1-1.05-6.31c0-2.95.55-5.45 1.77-8.02a19.06 19.06 0 0 1 15.3-10.77zm1.75.92c.04 0 9.28 17.78 9.38 18.05.02.04-3.97.07-9.43.07-5.8 0-9.44-.03-9.42-.08.08-.23 9.43-18.03 9.47-18.04zm-.77 19.73v17.02l-.27-.01a19.28 19.28 0 0 1-13.73-7.13l-.46-.6.65-1.23 2.43-4.64 1.77-3.4h4.8zm1.57.04h9.48l2.43 4.7 2.43 4.7-.4.5a18.85 18.85 0 0 1-11.61 6.8c-1.55.26-2.28.31-2.33.18-.02-.06-.03-3.88-.02-8.5zm24.95 2.8c.03-.03.23.26.45.64.33.57.38.72.31.87l-6.64 11.53-6.56 11.34-26.58.04-6.63-11.49-6.66-11.54c-.01-.03.16-.37.38-.75.3-.52.43-.67.5-.58l5.78 10 5.7 9.88 28.44-.05 5.73-9.92c3.15-5.46 5.75-9.94 5.78-9.97zm28.26 56.55c0-.1.1-.13.35-.13.75 0 1.06-.3 1.27-1.24.05-.22.77-5.2 1.6-11.07l1.51-10.67-.33-.65c-.18-.36-.45-.8-.6-.97a2.69 2.69 0 0 0-1.53-.76c-.26-.04-.4-.1-.4-.18 0-.1.4-.11 2.46-.1l2.47.03 4.54 10.57c2.95 6.87 4.57 10.53 4.61 10.46.04-.07 2.1-4.82 4.58-10.57l4.5-10.46 2.05-.02c1.65-.02 2.05 0 2.05.09 0 .06-.19.15-.47.2-.63.14-1 .39-1.28.85-.44.75-.44.7 1.15 12.18.8 5.73 1.52 10.67 1.6 10.98.1.3.23.66.3.79.18.25.75.54 1.1.54.14 0 .23.05.23.13 0 .11-.38.13-2.92.13s-2.93-.02-2.93-.13c0-.09.1-.13.29-.13.6 0 .96-.58.87-1.38a1813 1813 0 0 0-2.76-19.63c-.03-.04-2.13 4.74-4.66 10.6-3.2 7.38-4.65 10.66-4.73 10.65a315.2 315.2 0 0 1-4.72-10.57c-2.53-5.8-4.63-10.6-4.68-10.66-.07-.11-.09-.11-.09.02 0 .08-.6 4.45-1.32 9.7-.72 5.25-1.3 9.81-1.3 10.14 0 .52.02.63.2.82.18.2.33.27.76.33.09.01.18.07.2.13.02.08-.4.1-1.97.1-1.71 0-2-.01-2-.12zm-22.66.03c.02-.06.26-.13.55-.16.67-.08.99-.27 1.18-.7.14-.33.15-1.03.17-11.56.02-7.86 0-11.39-.06-11.78-.17-.99-.55-1.35-1.44-1.35-.32 0-.42-.03-.42-.12 0-.12.44-.13 3.47-.13 2.87 0 3.47.02 3.47.11 0 .08-.16.13-.5.16-.66.06-1.17.33-1.33.7-.1.26-.12 2-.1 12.06.02 11.73.02 11.76.2 12 .31.42.57.55 1.17.6.4.03.56.08.56.16 0 .1-.6.12-3.48.12-2.75 0-3.47-.03-3.44-.1zM77.6 60.12c-3.09 0-3.7.02-3.7.1s.15.14.47.17c.61.06.96.26 1.12.63.26.61.3 2.33.26 12.65-.04 10.73-.04 10.8-.4 11.5-.2.37-.6.6-1.1.6-.25 0-.34.03-.34.12 0 .11.86.13 7.23.13 7.22 0 8.58-.04 10.21-.31 2.38-.4 4.1-1.28 5.95-3.07a14.82 14.82 0 0 0 4.23-7.65c.26-1.18.28-4.1.04-5.22a11.22 11.22 0 0 0-7.24-8.51c-1.02-.4-2.22-.69-3.78-.91-1.21-.17-1.65-.18-8.96-.22l-3.99-.01zm1.13.48 3.2.04c4.2.07 5.77.27 8.1 1.03 2.04.67 3.58 1.58 4.98 2.92a11.95 11.95 0 0 1 3.76 6.74c.2 1.03.2 3.17 0 4.27a13.3 13.3 0 0 1-3.64 6.91c-1.43 1.35-3.16 2.12-5.77 2.59-1.3.23-5.1.3-6.4.12-2.67-.38-3.72-1.14-4.1-2.95-.1-.57-.13-1.9-.13-11.16zm-33.47-.87-4.83 12.2a973.09 973.09 0 0 1-5.03 12.54c-.4.79-1.06 1.29-1.69 1.3-.18 0-.27.04-.27.12 0 .11.27.13 1.9.13 1.64 0 1.9-.02 1.9-.13 0-.08-.08-.13-.24-.13-.3 0-.6-.26-.6-.53 0-.32.31-1.14 2.33-6.15l1.96-4.89c.04-.1.72-.1 3.86-.09l3.8.02 2.12 5.25c1.16 2.88 2.13 5.4 2.16 5.6.04.3.02.39-.17.58a.75.75 0 0 1-.43.21c-.14 0-.22.05-.22.13 0 .11.4.13 3.06.13 2.31 0 3.04-.03 3.02-.1-.02-.06-.24-.14-.5-.2-.83-.16-1.37-.7-1.91-1.92-.2-.43-.87-2.08-1.5-3.67l-4.7-11.64c-3.53-8.76-3.53-8.76-3.78-8.76zm-.81 4.96c.07.02.7 1.5 1.72 4.07.9 2.3 1.7 4.28 1.74 4.41l.09.23h-3.52c-2.79 0-3.51-.02-3.48-.1a5906.7 5906.7 0 0 0 3.45-8.6zM7.36 85.91c0-.08.15-.13.46-.16.75-.08 1.18-.32 1.37-.75.16-.36.16-.77.18-12.2l.03-11.84-3.9.02c-3.54.02-3.9.04-4.03.17-.16.16-.2.56-.1.94.06.2.05.24-.07.21-.1-.02-.33-.48-.72-1.46-.32-.8-.58-1.49-.58-1.55 0-.21.22-.1.37.2.34.63-.44.58 10.42.58 7.9 0 9.8-.02 10.06-.1a.9.9 0 0 0 .5-.45c.2-.33.48-.48.37-.19a18.76 18.76 0 0 1-1.29 2.99c-.07 0-.11-.17-.13-.57-.02-.51-.05-.58-.24-.68-.16-.08-1.11-.1-3.96-.1h-3.75l.05 23.66.18.4c.24.52.5.67 1.22.72.42.03.59.08.59.16 0 .1-.6.11-3.51.11-2.91 0-3.52-.02-3.52-.11zm109.67 7.93c.13-.04.14-.2.14-1.98 0-1.75 0-1.94-.14-2.02-.1-.06.22-.09 1.14-.09h1.3l-.01.23c0 .2-.02.21-.1.09-.06-.13-.2-.15-.88-.15h-.8v1.88l.8-.03c.76-.03.81-.02.81.13 0 .13-.02.15-.1.07-.06-.07-.37-.1-.8-.1h-.7v.83c0 .53.03.86.1.93s.4.1.93.1c.78 0 .84-.01.9-.2.08-.16.08-.16.09.1v.27l-1.41-.01c-.78 0-1.36-.03-1.27-.05zm-5.13 0c.09-.03.11-.5.11-1.98 0-1.75-.01-1.94-.15-2.02-.1-.06.23-.08 1.17-.07l1.31.02.05.5-.13-.18c-.13-.18-.2-.2-.94-.2h-.8v1.9l.76-.05c.54-.03.76-.02.76.05s-.23.09-.76.07l-.76-.03v.94c0 .8.02.94.15 1.01.11.07.02.09-.36.09-.28 0-.46-.03-.4-.05zm-4.64-4.09c-.03 0-.4.89-.83 1.97a16.13 16.13 0 0 1-.91 2.07c-.12.1-.1.1.13.1.18 0 .26-.02.22-.08-.03-.05.1-.48.27-.94l.33-.84.63.02.63.03.32.8c.18.44.3.85.28.91-.03.08.08.1.38.1.4 0 .42 0 .28-.14a18.2 18.2 0 0 1-.91-2.08 21.09 21.09 0 0 0-.82-1.92zm-.16.85c.04 0 .2.37.47 1.12.05.13 0 .15-.46.15-.28 0-.52-.03-.52-.07 0-.12.46-1.2.5-1.2zm-28.2-.85c-.02 0-.38.87-.8 1.93a19.07 19.07 0 0 1-.91 2.07c-.14.14-.14.15.11.15.14 0 .24-.04.21-.08s.1-.45.28-.91l.33-.83.63-.03.63-.02.32.8c.18.45.3.87.27.94-.03.1.05.13.44.12.27 0 .42-.03.34-.05-.14-.04-.3-.39-1.26-2.77-.3-.73-.56-1.32-.58-1.32zm-.16.85c.05 0 .5 1.08.5 1.2 0 .04-.23.07-.51.07-.46 0-.51-.02-.47-.15a5.1 5.1 0 0 1 .48-1.12zM73 93.84c.14-.04.15-.2.15-1.99v-1.94l-.68.02c-.62.03-.76-.01-.76-.2 0-.02.76-.01 1.68 0l1.69.03-.05.18c-.03.1-.06.14-.08.08-.03-.07-.25-.1-.67-.1h-.62v1.9c0 1.72.01 1.9.14 1.99.11.06.01.08-.4.08-.3 0-.48-.03-.4-.05zm-6.2-.42c0-.27.03-.44.05-.37.2.58.52.74 1.41.7.35-.03.74-.44.74-.8 0-.43-.19-.61-.92-.91-.92-.37-1.28-.8-1.15-1.4.14-.6.53-.9 1.24-.9.5 0 .7.11.78.41.06.2.06.2-.17-.02-.61-.57-1.64-.22-1.64.55 0 .35.28.62.85.8 1.13.37 1.51.97 1.13 1.79-.23.47-.48.57-1.46.61l-.86.04zm-4.44-3.6c-.04 0-.43.88-.86 1.96-.42 1.08-.83 2-.9 2.04-.07.05-.03.07.16.07.2 0 .26-.02.23-.12-.03-.07.1-.49.27-.93l.32-.81.63.02.63.03.33.8c.18.43.31.84.29.9-.03.09.07.12.4.12.37 0 .41-.02.28-.11-.08-.06-.5-.98-.93-2.04a15.96 15.96 0 0 0-.85-1.93zm-.19.76c.05 0 .2.3.54 1.18.03.08-.1.1-.51.1h-.56l.24-.57a20.66 20.66 0 0 0 .3-.71zm-6.23 3.26c.08-.03.1-.5.1-1.98 0-1.75-.01-1.94-.14-2.03-.12-.07.08-.08.8-.06 1.03.04 1.4.18 1.61.57.16.3.08.9-.15 1.15-.2.21-.78.42-.96.34-.05-.02-.02-.04.08-.04.24-.01.62-.38.64-.62.04-.84-.3-1.25-1.02-1.25h-.35v1.94c0 1.78.02 1.94.15 1.98.08.02-.08.04-.36.04-.28 0-.46-.02-.4-.04zm44.49.05c-1.42-.28-2.04-1.73-1.31-3.07.4-.74 1.16-1.11 2.16-1.06.68.04 1.07.2 1.17.47.06.18.06.18-.23-.02-.45-.3-.85-.4-1.4-.36-.57.06-.99.28-1.32.72-.3.39-.36 1.16-.16 1.79.18.54.7 1.14 1.17 1.32.65.27 1.74.16 2.23-.22.22-.18.23-.18.14-.02-.15.28-.28.34-.87.44a4 4 0 0 1-1.58.01zm-11.5-4.14c-.31 0-.43.05-.63.25-.29.28-.32.56-.12.95.14.26.08.4-.17.41a.66.66 0 0 0-.26.15c-.86.72-.48 2.1.65 2.4a2.9 2.9 0 0 0 1.71-.23c.36-.18.44-.2.55-.09.23.2.67.4.88.39.1 0 .3-.06.45-.12l.25-.11-.31.04c-.27.04-.35 0-.7-.32-.27-.25-.38-.4-.34-.5.03-.07.13-.43.22-.8.1-.38.21-.73.26-.79.07-.08 0-.1-.33-.1-.22 0-.33.03-.24.06.1.02.2.08.23.13.09.13 0 .87-.15 1.23l-.12.28-.49-.42a12.06 12.06 0 0 1-1.83-1.94c-.26-.5.1-.9.69-.75.13.03.38.18.56.32.24.19.32.22.28.12a.86.86 0 0 1-.06-.23c0-.14-.56-.33-.98-.33zm-.53 1.58 1.02 1.02 1.02 1.02-.3.18c-.34.2-1.05.24-1.46.06-.63-.28-1.05-.83-1.05-1.38 0-.4.16-.64.5-.79z"/></svg>