<svg width="523" height="513.88" viewBox="0 0 138.38 135.96" xml:space="preserve" xmlns="http://www.w3.org/2000/svg"><path style="fill:#fec500;fill-opacity:1" d="M356.36 252.43c-6.4-.83-8.45-4.02-6.37-9.94a50.12 50.12 0 0 1 17.6-23.33c5.46-3.89 7.04-4.32 10.03-2.74 6.33 3.33 13.36-.7 13.36-7.64 0-9.96-14.07-12.18-17.22-2.71-.81 2.45-1.72 3.3-4.43 4.17-11.81 3.8-23.46 12.62-30.48 23.1-3.65 5.43-5.96 6.57-8.6 4.25-6.71-5.89.53-26.7 13.17-37.83 2.41-2.13 2.86-2.2 4.93-.88 3.1 1.97 6.05 2.22 9.23.8 6.68-3 6.47-11.92.2-15.97-1.11-.71-2.31-.86-3.83-.89-1.65-.03-3.74.55-4.51 1-1.97 1.14-3.3 2.89-4.11 5.55-.8 2.58-1.23 3.08-3.66 4.2a55.36 55.36 0 0 0-15.57 11.08c-4.12 4.17-5.42 4-5.33-.7.16-7.96 7.79-19.96 16.36-25.76 30.27-20.44 69.43 4.84 63.35 40.9-3.46 20.49-23.94 35.96-44.12 33.34z" transform="translate(-291.76 -170.89)"/><path style="fill:#164194;fill-opacity:1" d="M416.11 273.49V263.3h5.02v16.14h9v4.24h-14.02zm-15.34 0V263.3h5.02v16.13l4.3.07 4.3.07.08 2.05.08 2.06h-13.78zm-17.2 0V263.3h14.81v4.24h-9.79v3.7h8.2v4.23h-8.2v3.97h9.8v4.24h-14.82zm-36.51 0V263.3h4.74l.08 3.88.07 3.89 3.3-3.87 3.31-3.86 3.14-.02 3.14-.02-1.68 1.88c-4.5 5.03-5.51 6.2-5.52 6.38 0 .1 1.67 2.83 3.7 6.05a225 225 0 0 1 3.7 5.96c0 .06-1.27.1-2.84.1h-2.84l-2.5-4.1c-2.97-4.92-2.6-4.64-3.95-3.05l-1.1 1.3v5.86h-4.75zm-18.53-10.19v20.38h4.77v-7.71l1.24.08 1.24.09 1.97 3.77 1.97 3.77h5.77l-.92-1.66-2.37-4.28-1.44-2.63 1.12-.71c3.83-2.43 3.09-8.43-1.3-10.47l-1.33-.62h-5.36zm4.77 4.24h4.79l.64.65c.41.4.65.95.65 1.46 0 .52-.24 1.06-.65 1.47l-.65.65h-4.79v-2.12zm-35.99 8.06v-8.06h-5.55v-4.24h15.87v4.24h-5.29v16.14h-5.03z" transform="translate(-291.76 -170.89)"/><path style="fill:#164194;fill-opacity:1" d="M370.07 283.5c-5.25-1.92-7.68-9.91-4.76-15.7 3.58-7.08 14.89-6.12 16.28 1.39l.18 1h-5.04l-.31-.96c-.9-2.7-5.07-2.6-6.6.16l-.67 1.19v2.9c0 4.26 1 5.9 3.77 6.16 1.75.17 2.9-.43 3.44-1.8l.4-1.04h5.01l-.18.98a7.55 7.55 0 0 1-3.89 5.24l-1.4.77-2.52.07c-1.81.05-2.85-.05-3.7-.37zm-54.65.2c-1.39-.35-3.53-1.66-4.23-2.58-1.5-1.98-1.55-2.28-1.66-10.34l-.09-7.48h5.07v6.89c0 7.9.11 8.46 1.77 9.16 1.41.59 2.88.33 3.9-.69l.81-.82.09-7.27.08-7.27h4.73v7.34c0 8.31-.08 8.77-1.72 10.6-1.93 2.15-5.78 3.23-8.75 2.47z" transform="translate(-291.76 -170.89)"/><path style="font-weight:700;font-size:11.2889px;line-height:1.25;font-family:Arial;-inkscape-font-specification:'Arial Bold';text-align:center;text-anchor:middle;fill:#164194;stroke-width:.264583" d="M309.06 296.46h2.98q1 0 1.54.15.7.21 1.22.75.5.53.77 1.31.26.77.26 1.9 0 1-.25 1.73-.3.88-.86 1.42-.43.42-1.15.65-.54.17-1.44.17h-3.07zm1.63 1.37v5.35h1.22q.68 0 .98-.08.4-.1.66-.33.26-.24.43-.78.16-.55.16-1.48 0-.94-.16-1.44-.17-.5-.46-.79-.3-.28-.76-.38-.34-.07-1.34-.07zm6.2 2.72q0-1.24.36-2.07.28-.62.75-1.11.48-.5 1.05-.73.76-.32 1.74-.32 1.79 0 2.86 1.11 1.07 1.1 1.07 3.08 0 1.96-1.06 3.07-1.07 1.1-2.85 1.1-1.8 0-2.86-1.1-1.07-1.1-1.07-3.03zm1.68-.06q0 1.38.63 2.09.63.7 1.6.7.98 0 1.6-.7.64-.7.64-2.1 0-1.4-.62-2.08-.6-.68-1.61-.68-1.01 0-1.63.7-.61.68-.61 2.07zm7.47 4.05v-8.01h1.63v6.65h4.06v1.36zm6.84-8.08h1.63v4.38q0 1.04.06 1.35.1.5.5.8.4.3 1.08.3.7 0 1.05-.29.35-.28.42-.7.07-.41.07-1.37v-4.47h1.63v4.24q0 1.46-.13 2.06-.13.6-.49 1.01-.35.42-.95.67-.6.24-1.55.24-1.16 0-1.76-.27-.6-.27-.94-.7-.35-.42-.46-.89-.16-.7-.16-2.05zm8.18 8.08v-8.08h1.59l3.3 5.4v-5.4h1.52v8.08h-1.64l-3.25-5.27v5.27zm15.42 0h-1.77l-.7-1.84h-3.24l-.66 1.84h-1.73l3.14-8.08h1.73zm-3-3.2-1.11-3-1.1 3zm4.95 3.2v-3.4l-2.96-4.68h1.92l1.9 3.2 1.86-3.2h1.88l-2.97 4.7v3.38zm8.3 0v-8.08h1.63v8.08zm.06-8.54v-1.47h1.52V296zm3.17 8.54v-8.01h1.63v6.65h4.05v1.36zm6.85 0v-8.08h5.99v1.37h-4.36v1.79h4.06v1.36h-4.06v2.2h4.51v1.36zm9.35 0v-6.71h-2.4v-1.37h6.42v1.37h-2.4v6.71zm5.02 0v-8.08h1.63v8.08zm.06-8.54v-1.47h1.52V296zm2.72 5.91 1.58-.15q.15.8.58 1.17.44.38 1.19.38.78 0 1.18-.33.4-.34.4-.79 0-.28-.17-.48-.16-.2-.58-.36-.29-.1-1.3-.35-1.32-.32-1.85-.8-.74-.66-.74-1.62 0-.62.34-1.16.36-.54 1.01-.82.66-.28 1.6-.28 1.52 0 2.28.67.78.67.81 1.78l-1.63.07q-.1-.62-.45-.9-.34-.27-1.03-.27-.71 0-1.11.3-.26.18-.26.5 0 .28.24.49.3.26 1.5.54 1.19.28 1.76.58.57.3.89.82.33.52.33 1.29 0 .7-.39 1.3-.39.6-1.1.9-.7.3-1.75.3-1.53 0-2.35-.71-.83-.71-.98-2.07zm1.85 4.85v-.65q.57.06 1.04.06.5 0 .73-.17.18-.14.18-.35 0-.18-.17-.32t-.53-.14q-.35 0-.72.11l.15-.54q.43-.15.92-.15.69 0 1.05.3.36.3.36.74 0 .48-.4.79-.53.41-1.53.41-.71 0-1.08-.09zm6.04-2.22v-8.08h1.63v8.08zm.06-8.54v-1.47h1.52V296zm3.1 8.54v-8.08h2.44l1.47 5.51 1.45-5.51h2.45v8.08h-1.52v-6.36l-1.6 6.36h-1.57l-1.6-6.36v6.36z" aria-label="DOLUNAY İLETİŞİM" transform="translate(-291.76 -170.89)"/></svg>