<svg width="603.51" height="263.42" viewBox="0 0 159.68 69.7" xmlns="http://www.w3.org/2000/svg"><defs><filter id="b" x="-.01" y="-.04" width="1.03" height="1.12" color-interpolation-filters="sRGB"><feFlood flood-color="#000" flood-opacity=".5" result="flood"/><feGaussianBlur in="SourceGraphic" result="blur" stdDeviation="2"/><feOffset dx="6" dy="6" in="blur" result="offset"/><feComposite in="flood" in2="offset" operator="in" result="comp1"/><feComposite in="SourceGraphic" in2="comp1" result="comp2"/></filter><filter id="c" x="-.23" y="-.23" width="1.75" height="1.74" color-interpolation-filters="sRGB"><feFlood flood-color="#000" flood-opacity=".5" result="flood"/><feGaussianBlur in="SourceGraphic" result="blur" stdDeviation="2"/><feOffset dx="6" dy="6" in="blur" result="offset"/><feComposite in="flood" in2="offset" operator="in" result="comp1"/><feComposite in="SourceGraphic" in2="comp1" result="comp2"/></filter><radialGradient id="a" cx="-1339.5" cy="-391.56" r="301.76" gradientTransform="matrix(.17532 .001 -.00067 .11766 314.42 82.26)" gradientUnits="userSpaceOnUse"><stop stop-color="#33aa57" offset=".16"/><stop stop-color="#1d5c1e" offset="1"/></radialGradient></defs><path d="M158.37 34.85a78.53 33.54 0 0 1-78.53 33.54A78.53 33.54 0 0 1 1.31 34.85 78.53 33.54 0 0 1 79.84 1.3a78.53 33.54 0 0 1 78.53 33.54z" fill="url(#a)" stroke="#cbb25e" stroke-linecap="round" stroke-width="2.62"/><path transform="translate(1192.5 -22.16) scale(.26458)" d="M-4214.9 271.92c-2.61-.66-5.75-2.2-6.97-3.43-2.03-2.02-2-2.48.37-5.09 3.19-3.52 6.04-3.63 9.62-.4 3.31 3 20.44 3.3 27.18.49l4.24-1.77-4.24-2.18c-9.79-5.03-12.02-10.49-5.52-13.45 3.16-1.44 3.87-1.3 5.17 1.01 2.04 3.64 8.17 9.2 10.1 9.16 1.65-.05 11.83-13.77 14.64-19.74 3.9-8.26 8.83-20.22 8.83-21.39 0-.7-2.7-1.09-6.01-.88-5.19.33-6.07-.03-6.44-2.61-.6-4.27 7.12-10.43 13.08-10.43 4.1 0 4.77-.54 5.55-4.42 2.55-12.72 15.8-30.9 22.54-30.9 2.71 0 2.72-.1.28-2.79-1.4-1.54-6.1-4.15-10.47-5.8-12.9-4.88-30.57-2.7-44.7 5.52-11.92 6.94-20.28 21.79-20.4 36.27-.17 18.9 11.53 27.57 30.66 22.7 3.76-.95 4.6-.75 4.6 1.1 0 4.6-6.35 6.92-17.45 6.36-8.7-.44-11.39-1.2-16.38-4.66-10.36-7.18-14.22-18.82-10.71-32.29 3.07-11.8 7.2-19.04 15.39-26.94 8.48-8.2 20.48-14 33.5-16.23 25.83-4.42 44.7.85 51.76 14.46 2.92 5.61 2.89 18.32-.06 25.08-2.28 5.25-9 12.94-14.91 17.08l-3.33 2.33 3 4.85c4.18 6.75 4.1 18.97-.16 27.51-6.48 12.96-21.76 21.61-39.95 22.6-8.78.49-13.34 1.59-20.43 4.92-9.8 4.61-23.3 6.26-32.38 3.96zm61.05-16.46c12.63-4.3 25.39-21.4 23.01-30.84-.87-3.5-5.97-9.28-8.16-9.28-.62 0-1.54 1.74-2.05 3.88-1.97 8.28-10.89 24.25-16.85 30.17-9.05 8.98-8.2 10.24 4.05 6.07zm27.45-56.01c5.1-5.28 10.19-15.67 10.2-20.84.02-4.44-1.4-9.89-2.58-9.88-2.78 0-15.74 27.47-15.74 33.36 0 3.3 3.47 2.17 8.12-2.65zm-298.93 65.47c-7.57-3.54-9.58-9.15-4.7-13.1 1.76-1.42 4.77-2.58 6.69-2.58 3.1 0 3.4.44 2.6 4.06-1.7 7.7 6.13 11.57 17.91 8.85 16.65-3.84 29.87-16.41 40.47-38.5 6.5-13.5 13.15-31.9 10.4-28.74-.64.75-6.76 8.23-13.59 16.63-16.95 20.84-30.84 31.63-35.61 27.66-3.31-2.74-2.3-6.02 8.59-27.8 13.07-26.13 16.06-33.65 17.18-43.17 1.62-13.75-5.31-20.7-20.65-20.7-12.57 0-21.74 5.96-27 17.55-6.97 15.31 1.28 29.05 17.45 29.06 5.98.01 7.35-.63 12.5-5.76 6.2-6.21 8.26-6.3 6.13-.28-2.12 6.03-14.36 11.7-25.27 11.7-7.9 0-9.33-.47-14.06-4.6-7.95-6.91-9.47-17.61-4.29-30.03 2.6-6.22 13.88-16.74 22.77-21.23 10.36-5.24 25.72-6.35 32.9-2.38 7.15 3.96 10.7 11.72 10.51 22.92-.19 11.18-2.43 17.83-14.22 42.17-5.02 10.37-8.83 19.16-8.45 19.53 1.26 1.26 17.69-16.48 28.05-30.29 11.16-14.87 12.94-18 19.57-34.46 4.1-10.18 6.97-13.55 9.97-11.7 2.14 1.32 1.45 9.81-1.44 17.8a685.42 685.42 0 0 0-7.9 24.5c-12.15 39.84-27.18 61.55-49.52 71.54-10.06 4.5-28.79 5.18-36.99 1.35zm114.1-.6c0-1.04 1.6-3.37 3.54-5.2 4.37-4.1 4.45-5.99.35-7.78-4.33-1.9-4.8-7.65-.96-11.77l3.05-3.27 3.8 3.64c4.3 4.12 7.45 4.61 10 1.55 1.38-1.67 1.2-3.37-.9-8.53-2.13-5.25-3.14-6.3-5.45-5.67-1.55.42-5.21 1.16-8.13 1.65-4.74.79-5.3.56-5.3-2.12 0-2.08.89-3 2.88-3 1.58-.01 4.92-.87 7.42-1.91 3.6-1.51 4.94-3.25 6.42-8.32 1.03-3.52 3.58-8 5.66-9.94 4.3-4.02 11.81-8.09 14.93-8.09 5.78 0 4.13 8.77-3.23 17.2-5.25 6.02-6.16 8.87-7.12 14.02-.78 4.16 2.19 8.49 1.28 12.62-1 4.52-3.68 8.82-7.1 11.94-1.9 1.75-7 2.72-7 3.36 0 2.54-10.15 11.49-13.04 11.49-.6 0-1.1-.85-1.1-1.88zm31.05-58.68c-.03-1.81-.64-1.59-2.82 1.02-1.53 1.84-2.76 4.38-2.74 5.65.04 1.82.65 1.6 2.83-1.02 1.53-1.83 2.76-4.37 2.74-5.65zm167.22 48.2c-2.81-.96-2.14-3.65 3.86-15.44 3.1-6.08 6.02-13.44 6.51-16.35.87-5.16.78-5.3-3.42-5.3-4.61 0-6.3-1.34-4.74-3.74 2.87-4.4 14.98-6.41 18.35-3.04 2.82 2.81 1.86 11.18-2.45 21.26-2.24 5.24-3.78 9.53-3.43 9.53 1.3 0 7.78-8.09 16.13-20.13 7.42-10.7 9.11-12.36 12.65-12.36 2.24 0 4.45.61 4.91 1.36s-1.71 6.42-4.83 12.61-6.1 13.95-6.62 17.23l-.96 5.97 4.3-.86c2.35-.47 4.65-.49 5.1-.03 1.85 1.84-2.24 6-8.09 8.23-5.02 1.92-6.83 2.05-9.38.68-2.86-1.53-3.1-2.44-2.37-9.4l.8-7.72-5.71 6.47c-7.21 8.19-15.69 12.73-20.62 11.04zm84.81-1.07c-3.73-2.68-4.04-5.92-.98-10.28 2.82-4.02 4.18-3.95 7.96.39 3.76 4.32 7.58 4.53 9.72.54 1.27-2.37 1.07-4.22-.93-8.83-1.4-3.2-2.69-6.06-2.87-6.33s-3.9.85-8.26 2.48-9.14 2.96-10.62 2.96c-3.3 0-7.18-5.2-6.06-8.13.55-1.42.15-1.93-1.16-1.51-1.1.35-5.12 6.79-8.93 14.32-6.32 12.47-7.3 13.68-10.96 13.68-2.27 0-4.02-.77-4.02-1.76 0-.98 2.55-7.97 5.66-15.55 6.46-15.76 6.72-17.4 2.83-18.41-1.56-.4-2.83-1.47-2.83-2.36 0-2.19 8.77-5.7 14.25-5.7 4.35 0 4.42.1 3.53 5.3l-.92 5.29 4.87-5.3c4.9-5.36 12.47-8.28 14.2-5.5.5.84-.69 4.07-2.66 7.19-5.93 9.38-4.54 12.53 4.2 9.51 4.41-1.52 5.7-2.94 7.87-8.65 1.43-3.75 4.06-8.4 5.84-10.34 3.3-3.58 10.7-7.4 14.35-7.4 5.66 0 2.78 11.19-4.56 17.71-4.12 3.68-4.26 4.16-3.47 12.56.97 10.38-1.08 15.36-8.68 21.15-6.39 4.88-13.12 6.03-17.37 2.97zm26.43-40.83c1-1.86 1.53-4.25 1.18-5.3-.4-1.17-1.54-.17-3 2.62-2.65 5.12-2.84 6.08-1.17 6.08.65 0 2-1.53 3-3.4zm4.6 41.25c-2.52-2.52-2-12.34 1.02-18.98 3.47-7.63 11.78-16.73 19.32-21.14 7.41-4.34 20.26-6.73 21.33-3.96.47 1.24 2.1 1.59 4.83 1.04 2.32-.46 4.1-.21 4.1.58 0 .77-2.85 7.44-6.35 14.82s-6.36 15.14-6.36 17.24c0 3.33.5 3.76 3.86 3.37 2.73-.32 4 .24 4.33 1.93.53 2.75-6.23 6.8-11.3 6.77-5.94-.04-7.51-2.16-7.28-9.85l.21-7.16-5.67 6.45c-8.44 9.58-17.64 13.29-22.04 8.89zm19.6-14.2c3.15-3.3 8.88-10.29 12.73-15.53l7-9.54h-4.32c-3.18 0-6.14 1.71-11.26 6.5-6.43 6-14.14 18.4-14.14 22.74 0 3.57 4.32 1.77 9.98-4.17zm-302.08 12.4c-.44-1.15 1.8-8.12 4.96-15.5 7.83-18.23 8.34-20.55 4.57-20.55-6.4 0-1.37-6.45 6.11-7.85 11.93-2.23 12.13-.25 2.25 22.56-3.72 8.61-7.18 17.02-7.69 18.68a6.43 6.43 0 0 1-4.05 3.86c-4.59 1.23-5.26 1.1-6.15-1.2zm21.46-.67c-2.47-2.73-2.59-3.78-1.15-10.61.87-4.18 5.8-17.34 10.95-29.25 5.15-11.9 10.4-24.08 11.67-27.05 1.27-2.97 3.5-6.24 4.97-7.26 3.18-2.23 8.13-1.25 8.13 1.6 0 1.12-4.41 11.7-9.8 23.5-18.35 40.23-19.37 45.4-8.16 41.56 4.44-1.53 5.97-.77 4.78 2.35-1.25 3.24-7.36 6.68-13.28 7.47-4.27.58-5.93.1-8.11-2.3zm-87.38-1.13c-3.73-4.13-4.3-9.6-1.8-17.12 4.68-14.1 20.27-26.35 34.69-27.28 6.06-.39 6.38-.22 6.82 3.63.39 3.36-.96 5.43-7.97 12.24-4.64 4.51-12 10.22-16.37 12.67-4.36 2.46-7.93 4.95-7.93 5.53 0 2.47 5.5 5.74 9.64 5.74 3.38 0 5.76-1.37 9.78-5.65 5.8-6.15 8.86-7.17 8.86-2.95 0 3.1-6.41 8.9-14.27 12.9-7 3.57-18.36 3.72-21.45.29zm19.24-27.09c7.52-7.87 9.61-11.4 6.76-11.4-1.72 0-11.19 9.93-14.6 15.31-4.44 7.01-.9 5.24 7.84-3.9zm65.95-27.74c0-5.93 2.48-9.09 7.12-9.09 3.64 0 4.18.51 4.15 3.89-.07 5.31-3.07 8.83-7.54 8.83-3.06 0-3.73-.65-3.73-3.63z" fill="#fff" filter="url(#b)"/><path d="M43.41 49.84c-.34-.05-.6.17-.65.52-.05.32.15.61.49.66.35.05.6-.17.65-.5.04-.34-.14-.63-.49-.68zm.16 2.17-.87-.12-.94 6.79.88.13zm2.33 1.85c-.93-.13-1.65.4-1.75 1.2-.1.68.2 1.17 1.06 1.64.75.4.93.65.86 1.17-.07.53-.44.78-.95.71-.45-.06-.8-.3-1.09-.64l-.5.42c.32.45.81.8 1.52.9.9.13 1.76-.29 1.9-1.32.11-.85-.3-1.32-1.14-1.77-.68-.36-.87-.59-.81-1.02.06-.45.37-.68.83-.62.38.05.68.24 1 .56l.43-.45a2 2 0 0 0-1.36-.78zm3.5-1.65-.87-.01-.92 7.3.85.1zm2.17 2.51-.87-.11-1.83 2.16 1.26 3.05.94.13-1.32-3.12zm3.62 2.94c.2-1.7-.32-2.64-1.44-2.78-1.16-.14-1.95.82-2.15 2.54-.2 1.75.4 2.76 1.6 2.9.6.08 1.12-.08 1.57-.43l-.32-.57c-.38.25-.7.35-1.14.3-.6-.07-.97-.52-.86-1.84l2.67.33.07-.45zm-.8-.3-1.86-.22c.2-1.26.6-1.64 1.14-1.58.62.08.87.6.73 1.74zm4.1-1.91c-.61-.07-1 .24-1.38.74l.02-.79-.73-.08-.58 5.2.85.1.4-3.66c.36-.56.74-.9 1.14-.85.36.04.54.3.46 1l-.41 3.7.85.1.42-3.83c.1-.9-.3-1.55-1.04-1.63zm5.1-1.55-.28 2.69a1.3 1.3 0 0 0-1.03-.72c-.98-.1-1.77.9-1.94 2.56-.17 1.68.3 2.77 1.36 2.88.5.06.9-.2 1.24-.66l-.01.67.76.08.74-7.31zm-1.66 6.74c-.56-.06-.84-.7-.7-2.13.16-1.44.6-1.99 1.15-1.93.4.04.66.34.86.77L62.97 60c-.3.42-.63.68-1.04.64zm6.59-1.56c.16-1.7-.4-2.62-1.51-2.73-1.16-.11-1.93.87-2.09 2.6-.16 1.75.49 2.74 1.68 2.86.6.06 1.11-.13 1.56-.48l-.33-.56c-.38.26-.7.37-1.14.33-.6-.06-.98-.5-.9-1.82l2.67.26.06-.46zm-.8-.26-1.88-.18c.17-1.27.56-1.66 1.1-1.6.63.05.88.56.78 1.7zm3.9-2.06c-.53-.05-.94.27-1.25.98l.01-.98-.73-.06-.43 5.23.86.07.25-3.07c.25-.93.6-1.37 1.11-1.33.14.01.23.04.35.08l.21-.83a1.2 1.2 0 0 0-.38-.1zm3.84-1.22-.88-.06-.42 6.85.89.05zm3.03.19-.94-.06-2.24 3.06 1.92 3.79 1 .06-1.97-3.85zm3.6 4.22c.05-1.71-.55-2.6-1.67-2.64-1.16-.05-1.87.98-1.94 2.71-.06 1.76.63 2.71 1.83 2.76.61.02 1.1-.19 1.53-.57l-.36-.54c-.36.28-.68.41-1.11.4-.62-.03-1.01-.44-1.01-1.77l2.69.1.03-.45zm-.83-.22-1.88-.07c.1-1.27.47-1.69 1.02-1.67.62.03.9.52.86 1.67zm3.7-2.34c-.5 0-.89.3-1.17.75v-2.83l-.86.1v7.34h.77l.06-.55c.28.42.68.67 1.13.67.99 0 1.65-1.02 1.65-2.75 0-1.85-.6-2.73-1.57-2.73zm-.26 4.78c-.38 0-.7-.3-.9-.67v-2.6c.21-.42.54-.8.96-.8.51-.01.87.42.87 2.02 0 1.53-.38 2.05-.93 2.05zm5.65-.74-.14-2.58c-.05-1.02-.56-1.63-1.64-1.57a3.9 3.9 0 0 0-1.46.43l.24.6c.41-.18.77-.3 1.15-.33.54-.03.83.25.87.95l.02.48-.5.03c-1.3.07-1.95.71-1.89 1.83.05.94.61 1.55 1.47 1.5.5-.03.92-.28 1.18-.82.14.48.45.65.9.7l.16-.61c-.22-.09-.34-.22-.36-.6zm-1.74.68c-.42.02-.69-.28-.72-.93-.04-.74.3-1.11 1.12-1.16l.41-.02.07 1.22c-.19.57-.47.86-.88.89zm4.68-5.19c-.55.05-.93.38-1.2.92l-.1-.69-.76.07.65 7.32.84-.18-.21-2.45c.3.34.69.52 1.13.47 1.07-.1 1.56-1.2 1.41-2.88-.15-1.75-.76-2.67-1.76-2.58zm.1 4.77c-.37.03-.7-.18-.95-.52l-.23-2.68c.19-.4.47-.81.92-.86.56-.05.9.48 1.02 1.95.13 1.47-.17 2.05-.75 2.1zm5.47-7c-1.06.13-1.72 1-1.6 1.98.1.95.68 1.47 1.85 1.76.95.23 1.22.56 1.3 1.19.08.77-.3 1.3-.96 1.38-.58.07-1.04-.14-1.5-.48l-.4.57c.54.49 1.17.75 2 .65a1.97 1.97 0 0 0 1.77-2.25c-.14-1.2-.86-1.61-1.85-1.86-1-.25-1.26-.56-1.32-1.11-.07-.6.26-1.04.8-1.1.47-.06.86.07 1.3.4l.4-.56a2.16 2.16 0 0 0-1.79-.57zm6.29 5.07-.34-2.57c-.13-1-.69-1.57-1.76-1.42a3.8 3.8 0 0 0-1.42.54l.3.59c.39-.23.73-.38 1.1-.43.55-.07.86.18.95.88l.06.47-.5.07c-1.29.18-1.88.87-1.74 1.97.12.94.73 1.5 1.58 1.39.49-.07.9-.36 1.11-.92.18.47.5.62.96.63l.1-.62c-.22-.07-.35-.2-.4-.58zm-1.69.81c-.41.06-.7-.21-.79-.87-.1-.73.23-1.13 1.04-1.24l.4-.06.16 1.22c-.14.58-.4.9-.8.95zm3.97.1c.24-.03.46-.14.6-.26l-.28-.57a.7.7 0 0 1-.23.09c-.2.03-.3-.1-.32-.29l-.9-6.45-.83.22.89 6.37c.08.64.51.98 1.07.9zm2.2-5.86c-1.2.19-1.77 1.25-1.51 3 .24 1.7 1.1 2.6 2.3 2.42 1.18-.19 1.74-1.35 1.5-3.01-.26-1.8-1.1-2.6-2.3-2.4zm.1.7c.64-.1 1.08.39 1.3 1.84.2 1.47-.07 2.08-.72 2.18-.65.1-1.08-.4-1.3-1.86-.21-1.46.06-2.06.72-2.16zm4.8-1.48c-.6.1-.9.51-1.12 1.1l-.19-.77-.73.12.8 5.18.85-.14-.57-3.65c.2-.64.48-1.06.87-1.13.36-.06.6.15.7.83l.58 3.69.85-.14-.6-3.8c-.14-.9-.69-1.41-1.43-1.29zm5.61-.84-.84.15.61 3.74c-.16.53-.4.96-.85 1.04-.37.07-.6-.18-.68-.7l-.63-3.82-.85.15.65 3.9c.13.82.7 1.3 1.43 1.18.55-.1.89-.46 1.1-1.06l.18.72.73-.13z" fill="#9ccb66" aria-label="İskender Kebap Salonu"/><path transform="translate(1192.5 -22.16) scale(.26458)" d="M-3937.5 231.63q0-.93-.52-1.28-.53-.36-1.48-.36h-2.87v3.28h2.87q.95 0 1.48-.36.52-.38.52-1.28zm6.13 2.71q0-1.8-.69-3.4-.68-1.6-1.87-2.78-1.2-1.19-2.79-1.88-1.56-.69-3.37-.69-1.8 0-3.4.69t-2.78 1.88q-1.2 1.19-1.88 2.78-.7 1.6-.7 3.4t.7 3.4q.69 1.57 1.88 2.76 1.19 1.19 2.78 1.88 1.6.69 3.4.69 1.57 0 2.92-.53 1.38-.5 2.5-1.4h-2.26q-.26-.69-.43-1.33-.16-.64-.21-1.05l-.14-1.14q-.07-.57-.27-.97-.19-.43-.52-.67-.33-.26-.93-.26h-2.94v5.42h-2.62v-13.62h5.59q.97 0 1.8.21.84.21 1.43.69.62.48.95 1.24.36.73.36 1.78t-.45 1.83q-.45.78-1.14 1.19.66.45.95 1.14.3.67.38 1.8.05.74.26 1.58.21.83.62 1.83 1.35-1.22 2.11-2.88.76-1.66.76-3.59zm1.74 0q0 2.16-.83 4.07-.81 1.9-2.24 3.32-1.42 1.43-3.33 2.24-1.9.83-4.06.83t-4.07-.83q-1.9-.8-3.33-2.24-1.42-1.42-2.25-3.32-.81-1.9-.81-4.07t.8-4.07q.84-1.92 2.26-3.35 1.43-1.42 3.33-2.23 1.9-.83 4.07-.83t4.06.83q1.9.8 3.33 2.23 1.43 1.43 2.24 3.35.83 1.9.83 4.07z" fill="#fff" filter="url(#c)" aria-label="Ⓡ"/></svg>