<svg width="967.07" height="1243.54" viewBox="0 0 255.87 329.02" xml:space="preserve" xmlns="http://www.w3.org/2000/svg"><path d="M224.91 54.87c-9.43-1.25-18.1-4.38-30.16-10.9-8.39-4.52-15.27-9.91-25.93-20.29-6.75-6.56-11.66-10.58-14.82-12.14-3.44-1.69-12.09-4.63-15.06-5.13-1.97-.32-2.53-1-1.46-1.74a3.28 3.28 0 0 1 1.34-.58c.3 0 1.18-.25 1.95-.54 10.7-4.02 23.03-4.67 32.87-1.73 3.08.92 3.76 1.18 8.94 3.38 7.19 3.06 16.8 10.25 30.87 23.1 11.52 10.52 18.26 15.05 25.47 17.11 3.96 1.14 10.18 1.15 13.82.02 4.6-1.42 4.06.06-1.37 3.8-4.68 3.2-8.77 4.76-15 5.7-5.38.8-4.93.8-11.46-.06z" fill="#c785b2"/><path d="M151.75 183.8c-.73-2.33-2.69-15.97-2.69-18.75 0-3.03 1.19-8.66 2.93-13.9 3.15-9.5 3.64-12.54 3.29-20.61-.18-4.14-.4-5.54-1.26-8.3-1.05-3.33-2.7-7.59-3.2-8.24a5.1 5.1 0 0 1-.53-1.23c-.27-.92-5-9.44-7.88-14.19-5-8.29-5.97-9.89-7.57-12.63-.97-1.64-2.2-3.7-2.74-4.58-1.08-1.75-7.73-15.02-7.73-15.44 0-.14-.26-.74-.57-1.32s-.77-1.7-1.03-2.47c-.26-.77-1.04-3-1.73-4.94a59.1 59.1 0 0 1-3.72-21.5c0-4.75.47-10.66.87-11.07.42-.41.97.69 1.76 3.51a42.26 42.26 0 0 0 4.5 10.55c4.05 7.1 9.16 12.9 21.8 24.71 10.36 9.7 11.39 10.7 14.49 13.99 4.84 5.14 9.71 11.4 10.44 13.4.12.35.5 1.03.82 1.52 1.2 1.77 3.97 8.38 4.95 11.81a78.67 78.67 0 0 1 2.45 17.3c0 2.01-.31 5.77-.7 8.35-1.65 11.23-5.12 18.67-14.37 30.87-7.04 9.28-9.72 14.07-11.03 19.68-.87 3.75-1.22 4.53-1.55 3.48z" fill="#7ea4d6"/><path d="M91.38 206.72c-4.97-.3-10.82-.93-12.7-1.38a147 147 0 0 0-4.76-1.03 70.09 70.09 0 0 1-11.11-3.37 98.42 98.42 0 0 0-4.3-1.58c-2.1-.68-11.42-5.54-14.35-7.48a102.54 102.54 0 0 1-16.48-13.48c-6.4-6.4-7.63-7.96-14.29-18.2-1.6-2.45-6.5-12.3-6.5-13.06 0-.13-.23-.73-.52-1.34-1.27-2.75-4.16-12.61-4.76-16.28l-.85-5.12c-1.17-7-1.02-21.26.31-28.22 1.56-8.16 2.29-11.04 4-15.7l1.74-4.8c.4-1.08.88-2.27 1.1-2.64.2-.37.6-1.23.9-1.9 1.16-2.77 4.9-9.34 7.2-12.7a98.12 98.12 0 0 1 23.65-24.56c4.07-2.98 7.55-5.03 13.97-8.23a86.24 86.24 0 0 1 26.81-8.52c6.77-1.08 9-1.23 9-.6 0 .27-1.7 2.4-3.8 4.73a159.78 159.78 0 0 0-5.87 6.95c-1.15 1.49-2.2 2.7-2.34 2.7-.75 0-4.05 3.91-5.16 6.12-.7 1.39-1.85 3.24-2.57 4.11s-2.55 3.81-4.06 6.53a97.77 97.77 0 0 1-4.66 7.59 16.27 16.27 0 0 0-2.62 5.11c-.39 1.36-1 3.1-1.34 3.88-2.13 4.7-3.2 11.03-3.2 18.8 0 7.8.7 12.17 3.51 21.77.4 1.36.7 3.12.66 3.92-.08 1.66.78 3.02 2.62 4.12 2.05 1.21 3.78 3.14 3.78 4.18 0 .53-.16 1.07-.35 1.19-.7.43-.33 1.47.88 2.55 1.45 1.28 1.52 1.94.7 7.15a429 429 0 0 0-.9 6c-.4 3-1.74 7.93-3.02 11.2-1.04 2.68-1.43 6.2-.87 7.9 1.04 3.16 6.14 5.57 11.81 5.58 3.1 0 3.15.02 4.25 1.2 1.37 1.44 2 3.44 1.9 5.94-.06 1.58.08 2.1.86 3.12 1.17 1.55 2.6 2.61 3.97 2.95 1.35.34 1.58.72 1.58 2.75a4.75 4.75 0 0 0 3.65 4.54c3.2.86 4.15 2.24 4.5 6.5.44 5.1 2.69 8.93 6.22 10.6 2.85 1.35 4.58 1.41 9.62.36 7.82-1.64 12.7-3.53 20-7.76 2.48-1.44 4.67-1.9 6.89-1.47.78.15 2.05 1.07 3.9 2.83 2.27 2.16 2.73 2.78 2.73 3.7 0 1.06-.16 1.18-3.97 3a119.8 119.8 0 0 1-11.73 4.81 105.3 105.3 0 0 1-17.46 4.2 159 159 0 0 1-14.64 1c-.97-.03-2.56-.1-3.53-.16zm81.77 55.62c-1.07-.43-1.39-1.89-.66-3 .32-.48.8-.88 1.07-.88.82 0 1.6 1.05 1.6 2.12 0 .78-.8 2.23-1.16 2.1l-.85-.34zm-.4 38.34c-.41-.5-.63-33.81-.22-34.47.3-.48 2.06-.42 2.57.08.6.61.6 33.82 0 34.43-.56.57-1.86.54-2.35-.04zm-28.39-35.14c-1.2 0-2.34.13-3.01.36l-1.11.4v17c0 12.75.1 17.1.42 17.42.28.28 1.7.43 4 .43 3.15 0 3.73-.1 4.79-.81 2.06-1.39 2.12-1.94 2-17.78l-.1-14.2-1.09-1.1a6.11 6.11 0 0 0-2.47-1.4c-.95-.23-2.22-.33-3.43-.32zm1.01 3.5h.4c1.36 0 2.13.71 2.41 2.22.12.62.16 6.56.1 13.18-.1 11.27-.15 12.1-.78 12.79a2.4 2.4 0 0 1-3.4.02c-.7-.7-.7-1.04-.61-14.12.1-13.8.02-14.1 1.88-14.08zm-35.38 31.82c-.35-.22-.42-3.97-.35-17.55l.09-17.26 1.18-.11c1.5-.15 2.44.68 2.72 2.36.57 3.52 1.98 10.96 2.3 12.13.2.72.5 1.32.68 1.32.84 0 1.06-1.74 1.06-8.45v-7.09l.83-.38c.61-.28 1.05-.27 1.6.02.74.4.74.42.74 17.43 0 12.77-.1 17.13-.42 17.45-.68.68-1.99.49-2.55-.37-.57-.9-1.7-5.25-2.24-8.73-.46-2.96-1.74-6.35-2.4-6.35-.61 0-.64.42-.51 8.55.07 4.6-.02 6.4-.35 6.8-.47.56-1.67.68-2.38.23zM81 300.65c-.3-.37-.4-4.86-.39-17.2.03-14.14.11-16.77.55-17.2.35-.36 1.56-.57 3.86-.67 4.17-.18 5.13.03 5.13 1.12 0 1.29-1.15 2.04-3.54 2.32-1.25.15-2.3.47-2.48.76-.18.27-.32 2.66-.33 5.3 0 5.53.01 5.56 2.9 5.91 1.5.18 1.88.36 1.96.94.15 1-1.17 2.29-2.33 2.29a3.6 3.6 0 0 0-1.75.54c-.75.53-.78.76-.78 6.31 0 4.92.08 5.83.58 6.24.34.28 1.78.56 3.44.66 2.4.15 2.87.28 2.97.83.07.36-.23 1.03-.67 1.5-.75.8-1.03.85-4.75.85-2.99 0-4.06-.12-4.37-.5zm-28.3-34.96c-1.99 0-3.6.16-3.82.38-.55.55-.53 33.91.03 34.58.3.36 1.35.5 3.9.5h3.5l1.47-1.38 1.47-1.37v-6.32c-.02-5.56-.1-6.45-.69-7.45-.66-1.12-.66-1.15.01-2.4.6-1.1.68-2 .67-7.36 0-5.14-.1-6.26-.6-7.03-1.17-1.78-2.2-2.15-5.94-2.15zm.88 3.35c.66-.01 1.37.2 1.77.64.48.54.58 1.5.58 5.77 0 4.51-.08 5.2-.65 5.7-.9.82-2.76.77-3.22-.1-.2-.37-.36-2.9-.36-5.66 0-2.76.16-5.29.36-5.67.24-.45.86-.68 1.52-.68zm.17 15.89c.91 0 1.79.67 2.1 1.82.14.52.18 3.04.08 5.58-.16 4.07-.26 4.7-.86 5.14-.94.68-2.1.62-2.79-.15-.49-.54-.58-1.5-.58-5.94 0-4.68.07-5.37.64-5.88.43-.4.92-.57 1.4-.57zm145.44 16.13c-1.54-.8-2.28-2.21-2.44-4.67-.23-3.57.46-5.12 2.25-5.12.97 0 .96-.04 1 3.39.04 2.92.49 3.67 2.19 3.67 1.6 0 1.9-.72 1.9-4.59v-3.22l-7.14-13.92-.18-3.42c-.32-6.04.86-7.66 5.58-7.66 2.38 0 2.58.07 3.69 1.17 1.55 1.55 1.97 3.92.98 5.61-.52.9-.9 1.16-1.71 1.16-1.01 0-1.04-.05-1.15-1.94-.12-2.14-.78-3.18-2.03-3.18-1.77 0-2.49 1.9-2.1 5.53.2 1.83.67 3.09 2.4 6.4 4.79 9.12 4.87 9.33 5.07 13.26.23 4.35-.22 6-1.96 7.17-.92.62-1.69.8-3.35.8-1.18 0-2.53-.2-3-.44zm-99.52 16.58c-.32.09-4.6 10.1-4.59 10.76 0 .15.4.27.86.27.67 0 .95-.28 1.27-1.25l.41-1.26 1.99.11c1.9.1 2 .15 2.3 1.25.28.95.5 1.15 1.35 1.15 1 0 1-.01.53-1.15l-2.18-5.38a63.3 63.3 0 0 0-1.94-4.5zm-.07 4.08c.1 0 .19.21.34.6.19.48.46 1.24.6 1.67.22.72.12.8-1.02.8-1.43 0-1.44-.02-.57-1.94.36-.8.52-1.14.65-1.13zm53.72 4.56a31.05 31.05 0 0 0-1.45-3.02c-.14-.16-.45.99-.7 2.55-.42 2.77-.46 2.85-1.41 2.85s-.97-.05-.7-1.32c.15-.73.64-3.31 1.08-5.74l.8-4.4 1.84 3.88 1.84 3.88 3.7-7.77 1 5.47c.56 3.01 1.01 5.59 1.02 5.74.01.47-1.68.28-1.86-.21-.1-.26-.3-1.38-.44-2.48-.13-1.1-.37-2.07-.51-2.16-.15-.1-.84 1.1-1.53 2.65a27.25 27.25 0 0 1-1.37 2.81c-.06 0-.65-1.23-1.31-2.73zm-14.71 2.22c-.35-.9.14-1.66 1-1.54.6.08.8.35.8 1 0 .64-.2.9-.8.99-.47.07-.87-.11-1-.44zm-14.56-4.88c-1.18-3-2.15-5.56-2.15-5.7 0-.13.41-.19.92-.12.83.1 1.06.48 2.18 3.6l1.25 3.5 1.18-3.15 1.34-3.58c.15-.4 1.95-.65 1.95-.27 0 .22-4.26 10.9-4.4 11.05-.07.06-1.09-2.34-2.27-5.33zm-11.89 4.88c-.35-.9.14-1.66 1-1.54.6.08.8.35.8 1 0 .64-.2.9-.8.99-.47.07-.87-.11-1-.44z" fill="#fff"/><path d="m168.11 47.69-1.2.11.12 2.12c.06 1.16.33 3.07.6 4.23.28 1.16.68 3.15.9 4.4.21 1.27.59 2.78.83 3.36.25.58.65 1.93.9 3 .26 1.07.67 2.26.91 2.65.24.38.55 1.22.68 1.85.35 1.7 5.01 10.76 7.2 14.02a97.56 97.56 0 0 0 16.8 18.97l4.65 4.61c-.25-1.13.75-2.5 1-3.27.22-.64-.54-5.85-.5-11.56.03-5.39.33-8.67.45-8.79.9-.9 2.6 1.46 6.84 7.48a76.74 76.74 0 0 1 11.98 27.53c1.6 7.23 2 11.82 2.1 14.89l-.1 2.62c.31.32 2.05 4.1 2.7 5.3.99 1.82.84 1.27 2.13 3.96a54.6 54.6 0 0 1 1.68 4.4c.55 1.66 1.15 2.97 1.32 2.92.4-.1 1.14-11.08 1.17-17.55.05-10.33-1.4-23.05-3.53-31.05-.95-3.56-2.82-9.41-3.15-9.88a9.07 9.07 0 0 1-.7-1.76 39 39 0 0 0-2.47-5.47c-.17-.29-.72-1.36-1.24-2.38-2.1-4.2-7.3-11.47-10.71-15.02a124.84 124.84 0 0 0-10.15-8.88 83.54 83.54 0 0 0-17.94-9.32 204.7 204.7 0 0 1-3.9-1.42 24.6 24.6 0 0 0-2.82-.72 42.8 42.8 0 0 1-3.73-.95 8.7 8.7 0 0 0-2.82-.4z" fill="#bfdd8b"/><path d="M176.14 247.24c-1.26-1.43-5.75-10.39-7.37-14.72-4.64-12.44-6.07-21.2-5.51-33.86.28-6.34.69-9.44 1.73-13.05 1.11-3.88 2.85-9.14 3.14-9.53.14-.2.38-.75.53-1.23.82-2.73 7-14.23 10.06-18.7.33-.49 1.2-1.84 1.94-3s2.07-3.2 2.96-4.5c1.9-2.8 5-7.67 6.03-9.44l1.75-3c.57-.96 1.6-2.95 2.3-4.4s1.42-2.93 1.61-3.27c.19-.34.82-1.93 1.4-3.53 2.46-6.7 4.23-15.78 3.61-18.5a4.81 4.81 0 0 1 0-2.7c.22-.65.4-5.19.44-10.9.04-5.39.16-9.9.28-10.01.9-.9 4.17 2.56 8.35 8.87 5.1 7.7 8.9 17.02 11.26 27.69 1.6 7.24 2.26 12.42 2 15.7-.12 1.55-.3 4.79-.38 7.19-.26 7.5-1.93 15.77-3.7 18.39-.33.48-.7 1.27-.82 1.76s-.73 1.69-1.37 2.67-1.46 2.33-1.83 3c-1.1 1.95-3 4.22-8.74 10.42-10.82 11.67-12.7 13.92-17.2 20.56-2.16 3.17-5.7 10.44-7.14 14.68-2.68 7.84-4 16.55-4 26.46 0 7-.23 8.2-1.33 6.95z" fill="#dc6b4c"/></svg>