<svg width="1055.66" height="368.86" viewBox="0 0 279.31 97.59" xml:space="preserve" xmlns="http://www.w3.org/2000/svg"><path d="M70.12 97.37a4.35 4.35 0 0 1-1.35-.86l-.6-.59-.26-.8c-.66-2.05.14-4.1 1.92-4.87l.68-.3h2.5l.79.4.79.4.3.5.3.5-.17.2c-.1.12-.43.2-.75.2h-.59l-.3-.32c-.72-.8-1.6-.96-2.67-.47l-.65.29-.34.55-.33.55v1.8l.25.54c.32.68.94 1.12 1.75 1.25l.64.1.54-.18c.3-.1.7-.35.9-.55l.34-.38-.1-.73-.47.04c-.26.02-.63 0-.83-.05l-.35-.08v-.36c0-.2.08-.44.19-.55l.19-.18h2.9l.08.27c.05.15.1.97.12 1.82l.04 1.55-.23.14c-.35.22-.6.17-.81-.17-.23-.37-.63-.4-.9-.09-.54.66-2.28.87-3.52.43zm-11-.12-.77-.24-.6-.6-.61-.61-.17-.6a7.1 7.1 0 0 1-.16-1.55v-.94l.32-.7c.4-.89.83-1.36 1.64-1.8l.63-.33h2.67l1.65.87.87 1.3.05 1.43.05 1.43-.52.86-.52.85-1.5.78-2.28.1zm2.84-1.32.52-.32.3-.66.3-.67.01-1.57-.3-.51a3.05 3.05 0 0 0-.83-.84l-.52-.32-1.71.13-1.17 1.31-.1.76-.1.76.16.62c.28 1.05 1.03 1.6 2.22 1.61l.7.02zm17.67.77c-.17-.4-.3-1.1-.84-4.42l-.35-2.17.16-.15c.23-.23 1.06-.35 1.3-.18l.22.14.27 1.7c.16.95.33 2.12.39 2.62s.22 1.01.35 1.15l.24.24.97-.1c.53-.06 1.28-.16 1.67-.23l.7-.13.56.3v.93l-.36.06c-.32.07-2.33.3-4.31.53l-.82.09zm-28.06-.1-.25-.28.14-.63c.07-.34.29-1.68.48-2.98s.4-2.54.45-2.75l.12-.4 1.1-.1.4.5-.17 1.3c-.5 3.53-.79 5.16-.96 5.38-.27.32-1 .3-1.31-.04zm-8.01-.9a3.43 3.43 0 0 1-1.8-1.29l-.44-.58v-2.85l.34-.63a4.06 4.06 0 0 1 6.13-1.25c1.28.98 1.37 2.48.13 2.14l-.47-.13-.42-.61c-1-1.49-2.86-1.29-3.7.4l-.36.7v1.94l.89.95.57.11c.75.14 1.23.01 1.81-.48l.47-.39h1.1l.2.24.2.25-.54.56c-.3.3-.82.7-1.16.85l-.63.3H45a5.46 5.46 0 0 1-1.45-.22zm46.57-.07a2.58 2.58 0 0 1-1.55-1.26c-.33-.65-1.33-5.13-1.21-5.43.19-.5 1.67-.35 1.67.17 0 .38.78 3.84.98 4.35.5 1.32 2.6 1.36 3.1.06l.14-.36-.3-1.33-.57-2.48-.27-1.15.3-.22c1.1-.8 2.44 2.06 2.44 5.2v.63l-.32.52-.32.52-.84.39-.85.39-1 .07a5.1 5.1 0 0 1-1.4-.07zm-53.68-1.52c-.13-.13-.24-.48-.24-.77v-.54l-.34-.23a6.32 6.32 0 0 0-1.5-.51l-1.16-.28-.6.58c-.58.58-.87.67-1.55.49l-.36-.1v-.27c0-.14 1.07-1.59 2.38-3.2l2.39-2.94h.25c.14 0 .52.08.85.17l.6.16.14.35c.18.41.67 6.98.54 7.2-.15.23-1.13.16-1.4-.1zm-.43-4.35.04-1.22h-.24c-.26 0-.48.2-1.2 1.17-.64.85-.27 1.4.88 1.31l.47-.04zm66.29 3.16c-.1-.12-.26-.5-.36-.84-.1-.35-.29-.88-.4-1.18-1.05-2.67-1.5-4.05-1.47-4.39l.05-.4.88-.3.27.16c.14.09.35.4.46.7a44.64 44.64 0 0 0 1.78 4.54l.25.37 1.6-.5a8.7 8.7 0 0 1 1.95-.47l.36.05v1.08l-2.05.6c-1.12.34-2.3.65-2.6.7l-.56.1zM24.97 90.7l-.4-.35.16-1.8c.52-5.88.46-5.51 1-5.51.4 0 1.26.7 1.13.91-.14.24-.73 4.6-.64 4.76.18.29.38.12 2.14-1.82l1.78-1.97h.42c.23 0 .59.14.8.31l.36.31-5.52 5.52h-.41c-.23 0-.6-.16-.82-.36zm86.92-.63c-.08-.1-.6-1.22-1.16-2.47s-1.13-2.4-1.28-2.56l-.28-.27-.81.32-.82.33-.35-.1a.7.7 0 0 1-.46-.4l-.1-.33.19-.22c.1-.13.26-.23.35-.23.09 0 1.32-.43 2.74-.94l2.59-.95.28.15c.77.41.5.97-.62 1.34-.42.14-.84.35-.94.47l-.18.22.46.91c.25.5.8 1.7 1.22 2.63l.76 1.72-.37.29c-.41.33-1 .38-1.22.1zm-93.93-2.09-2.28-1.16-.05-.25c-.03-.14.12-.51.33-.83l1.9-2.88c1.72-2.65 1.64-2.58 2.38-2.27l.55.23v.26c0 .14-.67 1.27-1.49 2.5-1.91 2.89-1.94 2.63.4 3.81l1.17.6v.37c0 .21-.14.47-.31.58l-.32.21zm52.57.93c-.55-.29-.8-.77-.54-1.03l.16-.16.54.33c.3.18.76.33 1.02.33h.48l.45-.37c.24-.2.53-.33.64-.3.35.13.2.65-.3 1l-.49.35-1.45.1zm48.19-1.68c-.2-.2-.81-1.13-1.37-2.07a80 80 0 0 0-1.61-2.58c-.93-1.38-.96-1.32 1.41-2.44 3.33-1.57 5.43-.73 6.43 2.55l.23.74-.1.68-.1.67-.45.52-.46.52-1.72.9c-2 1.02-1.82.98-2.26.51zm2.18-1.86.88-.5.24-.5.24-.5-.53-1.6-1.49-1.6h-1.33l-.77.4c-1.2.6-1.22.42.43 3.05.85 1.33 1.1 1.64 1.41 1.74.03 0 .44-.21.92-.49zM10.26 83.62a58 58 0 0 0-2.24-1.5l-.59-.37v-.28c0-.34 4.53-5.67 4.82-5.67.97 0 4.79 3.17 4.38 3.63-.41.45-.55.4-2.15-.72-1.67-1.16-1.8-1.19-2.4-.56l-.44.47.08.22a7 7 0 0 0 1.44 1.07l1.34.85v.32c.01.94-.63.9-2.17-.17-1.61-1.1-2.02-1.08-2.68.2l-.18.34.52.38c.28.21 1.02.72 1.65 1.13l1.14.75v.73l-.3.16c-.46.24-.43.25-2.22-.98zm59.02.8-.17-.2-.41-6.1.26-.18c.14-.1 1.05-.31 2.03-.47 4.33-.66 5.76-.89 6.5-1.03a19 19 0 0 1 3.75-.43l.23.09.19.91.64 2.95.47 2.04-.44.43-3.6.61a1748.74 1748.74 0 0 0-8.8 1.52l-.48.08zm-25.57-.19c-.05-.12.18-1.16.5-2.32.33-1.15.77-2.73.96-3.51s.48-1.5.61-1.62l.24-.2 13.54.09v7.7l-7.88.04-7.89.05zm83.55-1.5c-.42-.43-.4-.7.1-1.1.53-.41.71-.4 1.13.04.78.83-.42 1.86-1.23 1.05zm-94.98-2.31a391.65 391.65 0 0 0-6.92-2.48l-.55-.2v-.65l2.04-2.49a89.2 89.2 0 0 1 2.56-3.02l.51-.53.28.09c.33.1 2.01.58 3.73 1.05l2.36.65c.6.17 1.33.34 1.6.4.29.05.59.18.68.28l.16.2-.16.37a90.4 90.4 0 0 1-2.17 3.6l-2 3.22-.32.03c-.17.02-.98-.22-1.8-.52zm59.89-.32a10.2 10.2 0 0 1-.84-1.62L90.2 76a6.02 6.02 0 0 1-.53-1.53v-.37l2.4-.8 7.06-2.36c5.5-1.86 4.6-2 7.43 1.2l2.3 2.6-.04.25-.05.25-2.28.93a76.12 76.12 0 0 1-13.76 4.13l-.33.08zM3.6 78.66a1.06 1.06 0 0 1-.26-.6v-.3l1.18-.85c1.41-1 1.42-1.09.3-2.25-1.08-1.1-1.09-1.1-2.46-.04-1.25.98-1.48 1.03-2 .49l-.35-.38.14-.26c.08-.14.96-.85 1.94-1.57l2.85-2.12c1.2-.9 1.36-.94 1.84-.43.49.53.45.62-.69 1.51-1.24.98-1.24.98-.1 2.1 1.09 1.09 1.07 1.08 2.26.17l.95-.73.4.14c1.23.44.99.77-2.34 3.26-2.96 2.22-3.22 2.35-3.66 1.86zm133.81.15c-.04-.07.06-.26.23-.41.56-.51.32-.98-.36-.72l-.39.14-.25-.25-.26-.26-.49.28c-.59.35-2.1.5-2.7.28l-.43-.17v-.74l.77-.41 1.17.19.53-.25c1.14-.55 1.69-1.57 1.12-2.1-.48-.44-.63-.42-2.49.47l-1.65.79h-1.24l-.52-.36c-.29-.2-.67-.65-.85-1.02l-.32-.66.19-.58c.56-1.7 2.99-2.97 4.48-2.35l.54.23v.64l-.48.25-.47.24-.53-.1-.53-.1-.47.25c-1 .51-1.39 1.4-.85 1.88.43.38.64.34 2.4-.53l1.61-.78h1.51l.54.47c.3.26.62.68.73.94l.2.47-.1.54c-.06.3-.25.71-.42.93-.17.22-.3.51-.3.65v.26l1.06-.2.33.33c.46.46.41.81-.19 1.4-.5.49-.95.63-1.12.36zM19.32 75.36a72.1 72.1 0 0 0-3-2.37c-3.5-2.7-3.48-2.15-.2-5.13 3.3-3.01 2.8-2.85 4.72-1.46l2.48 1.78c2.93 2.05 3.23 1.2-2.17 6.25-1.04.97-1.62 1.27-1.83.93zm53.21-3.6c-.36-.26-4.7-3.8-9.67-7.9a1132.88 1132.88 0 0 0-5.8-4.76l-2.05-1.69-1.02-.3a35.5 35.5 0 0 0-1.48-.4l-.45-.1.11-.73.1-.73-.3-.25c-2.95-2.4-2.94-2.4-3.33-1.67-.11.2-.33.4-.49.45l-.28.07-.76-.5c-.41-.28-1.9-1.2-3.31-2.05-2.92-1.77-2.8-1.6-1.77-2.55.43-.4.79-.85.79-1v-.27l-1.35-1.12c-1.54-1.28-1.5-1.28-3.21-.65-1.76.65-1.58.72-3.93-1.65l-2.1-2.13.19-.2c.1-.1.6-.26 1.09-.34l.9-.16.04-.32.04-.31-1.14-.94a20 20 0 0 0-1.47-1.14l-.34-.18-1.07.15c-1.43.2-1.4.22-2.79-1.73-1.5-2.11-1.5-2.21-.2-2.21.9 0 3.58-.46 3.86-.67.16-.1 1.82-1.47 3.7-3.03l7.07-5.82c3.42-2.8 5.1-4.18 12.42-10.23l8.03-6.6c1.06-.86 3.43-2.8 5.26-4.32 5.88-4.87 4.6-4.63 8.33-1.55a1727.47 1727.47 0 0 0 8.89 7.3l5.11 4.21a24848.04 24848.04 0 0 1 24.65 20.28l1.93 1.57v.55l-1.14.92-7.43 6.1-7.65 6.3a12305.22 12305.22 0 0 0-11.59 9.5l-.67.53.05.25c.02.13.21.29.42.34l.38.09.11.39c.06.2.19.7.28 1.1.1.38.21.81.27.95l.1.26-.52.51-2.62-.06c-3.16-.07-2.87-.18-5.42 1.93-6.94 5.73-8.22 6.78-8.3 6.78-.04 0-.25-.12-.47-.27zm-17.3-26.9a12.8 12.8 0 0 0 2.21-.83l1.18-.59 1.3-1.14a7.84 7.84 0 0 0 1.39-1.44l.1-.31-.45-.46c-.24-.26-.6-.5-.8-.55l-.34-.1-.53.41c-.29.22-.95.6-1.46.84l-.94.44h-3.3l-.87-.43a7.1 7.1 0 0 1-3.49-4.28l-.34-1.11-.01-1.43v-1.42l.94-1.87.7-.35c.86-.44 1.5-.45 2.17-.04l.52.32.25.58.24.58-.68 1.4.51.52c.68.7.61.73 3-.86l3-1.96.9-.58v-.73l-.47-.45-.48-.45-.55.2-.55.2-.59-.37a7.13 7.13 0 0 0-2.98-1.1l-1.15-.19-1.47.17-1.47.18-1.2.5c-3.11 1.3-5.54 3.8-6.32 6.5l-.26.94.13 3.48.58 1.22.59 1.21 2 2 1.18.58a11.46 11.46 0 0 0 7.82.78zm12.34-.55.15-.43-.3-.86-1.4-.16-.06-.26a3 3 0 0 1 .36-1.07l.4-.8h7.02l.36.77c.2.42.33.9.3 1.06l-.06.3-.39.04-.74.12-.36.08v1.56l.36.09c.19.05 2.33.06 4.75.04l4.4-.04v-1.73l-.39-.06c-.6-.08-.7-.22-1.57-2.27l-1.03-2.4-2.28-5.34a126.84 126.84 0 0 0-2.23-5.07l-.16-.2h-2.56c-3.22 0-2.88-.21-4.02 2.5l-1.64 3.87-2.98 7.08c-.7 1.68-.7 1.67-1.45 1.8l-.6.09-.05.68c-.03.38 0 .79.04.91l.08.22 5.9-.08zm.32-6.1c-.05-.1.36-1.24.92-2.55s1.06-2.52 1.1-2.67.21-.27.35-.27h.25l.32.74.45 1.06.55 1.34.65 1.55c.13.28.2.62.15.74l-.08.23H68zm22.34 5.67v-.86l-.63-.05a1.97 1.97 0 0 1-.82-.22l-.2-.17V34l.16-.1c.08-.05.3.07.46.27L90.74 36c1.91 2.32 2.22 2.7 3.83 4.6a83.3 83.3 0 0 1 2.34 2.89c1.06 1.4.91 1.33 2.76 1.33h1.58l.2-.18.18-.2V30.09l.2-.16c.1-.1.4-.19.66-.22l.48-.05v-1.89l-5.3-.08-.44.36v.65c0 .77.2 1.04.8 1.04.23 0 .5.1.6.21l.18.22-.05 2.96-.04 2.95-.17.06c-.1.03-.84-.74-1.65-1.72-2.38-2.87-5.2-6.15-5.53-6.45l-.32-.28-6.8.08-.05.76-.04.76.18.22c.1.13.38.23.6.23s.51.08.62.19l.19.19v12.47l-.2.17c-.1.09-.44.18-.75.21l-.55.06-.05.68-.04.68.18.22.2.23 5.69-.08zm24.62 23.96c-4.14-3.68-4.3-3.3 3.19-8.23.2-.13.72-.5 1.15-.83 1.06-.78.87-.83 4.5 1.12 1.75.95 3.59 1.92 4.08 2.16l.9.44v.52l-4.95 3.95c-5.9 4.71-4.68 4.6-8.87.87zm24.24 1.26-2.72-1.5-.25.2a4.4 4.4 0 0 0-.63.8l-.37.6h-.93l-.17-.32c-.2-.37-.3-.19 1.63-2.88 1.53-2.13 1.73-2.3 2.32-1.99.42.23.38.57-.18 1.27-.27.34-.46.73-.44.87l.06.25 5.34 2.95.06.25c.05.28-.56 1.02-.83 1.01-.1 0-1.4-.68-2.9-1.5zM9.93 66.8a21.27 21.27 0 0 1-2.34-3.63c0-.21 1.81-1.7 3.94-3.22l.72-.51.22.1c.2.07 2.23 2.52 2.97 3.56l.23.32-.4.33c-.23.19-1.07.76-1.88 1.27l-2.28 1.45c-.92.6-.87.59-1.18.33zM144 64.55l-3.66-1.06c-2.76-.8-2.62-.72-2.47-1.37l.1-.5.34-.12.34-.12.4.15c.41.16 3.37 1.03 5.34 1.57a5.6 5.6 0 0 1 1.4.52l.22.2-.1.4a.96.96 0 0 1-.38.55l-.27.15zm-50.13-2.29-.27-.15v-2.96l.2-.12c.1-.07 1.22-.21 2.47-.3l2.28-.18.53.27.17.9c.1.5.2 1.05.25 1.22.03.18 0 .42-.08.54l-.13.22-2.26.28c-1.24.16-2.4.32-2.57.36a.93.93 0 0 1-.59-.08zm41.86-.23-.2-.24.15-.42.15-.43 1.02-.1.1.25c.04.14 0 .46-.1.72l-.2.47h-.36a.82.82 0 0 1-.56-.25zm10.2-1.96c-.56-.33-.18-1.4.48-1.4.15 0 .43.1.62.24.9.63-.14 1.72-1.1 1.16zm-43.02-1.48c-1.1-1.48-1.31-1.35 3.62-2.32l.91-.18 1.88.9v.51l-2.4.91c-1.31.5-2.6.95-2.87.99l-.48.08zM5.55 56.9v-2.1l.2-.26a18.3 18.3 0 0 1 3.69-1.64l.35-.08.01.21v3.72l-1.38.83c-.76.45-1.55.95-1.76 1.11-.2.16-.54.29-.74.29h-.37zm126.75.89c-.57-.3-2.62-1.27-4.56-2.17a31.6 31.6 0 0 1-3.7-1.88l-.14-.23.94-1.07c.5-.6 1.32-1.5 1.8-2.04l1.93-2.16 1.07-1.2h.32c.18 0 1.15.25 2.16.56l3.16.96 2.76.85c.77.25 1.5.46 1.59.46.1 0 .26.1.36.22l.18.22-2.47 3.12c-3.04 3.85-3.97 4.93-4.2 4.9-.1 0-.64-.25-1.2-.54zm-20.45-2.37a3.4 3.4 0 0 1-.91-1l-.05-.28 1.14-.88c1.26-1 1.2-1 2.46-.06 1.44 1.07 1.43.98.02 2.08-1.34 1.05-1.55 1.06-2.66.14zm5.04-4.12-1.18-.58-.1-.54 1.13-1.26 1.14-1.27.21.08c.46.18 1.94 1.4 1.94 1.6 0 .26-1.68 2.59-1.85 2.57-.07 0-.65-.27-1.3-.6zM6.37 50.77l-.2-.2v-2.7l.2-.26c.1-.15.87-.48 1.68-.73l1.5-.47.2.17.2.17v1.28c0 1.6.04 1.53-1.66 2.22-.77.32-1.48.6-1.57.65-.09.03-.25-.02-.35-.13zm270.15-5.24-.47-.4h-13.39l-.16-.3c-.44-.82-.1-1.58.7-1.58.27 0 .58-.08.68-.19l.19-.19v-12.6l-.19-.2c-.1-.1-.4-.19-.68-.19-.63 0-.86-.24-.86-.94 0-.31.08-.65.19-.75l.19-.2h10.76l.25.25c.28.29.32.9.08 1.34l-.16.3h-1.09c-.6 0-1.12.06-1.16.14-.13.2-.14 12.72-.01 12.93l.12.19 3.17-.18 1.46-.63.4-.52c.21-.29.43-.68.49-.86.06-.2.2-.43.32-.53l.23-.18 1.74.22v2.3l-.16.05c-.1.03-.21.6-.26 1.27-.11 1.46-.22 1.62-1.18 1.74l-.74.1zm-78.8-.62c-.53-.63-.2-1.66.53-1.66h.52l.2-.25.21-.24-.02-6.29c-.03-6.87 0-6.58-.71-6.59-.65 0-.85-.14-.98-.67l-.11-.43.26-.39.25-.4h9.84l.19.2c.24.24.24 1.1-.01 1.42l-.2.26-1.26.1-.08 12.85.18.22c.1.11.42.21.7.21h.53l.18.33.17.33-.1.52c-.13.72-.03.7-5.34.7h-4.77zm14.34.03a1.33 1.33 0 0 1-.2-1.27l.15-.42h.54c.3 0 .66-.11.8-.25l.24-.24V30.49l-.33-.6h-.5c-.73-.01-.91-.19-.94-.93l-.03-.67.46-.29h9.5l.24.25c.66.65.23 1.58-.78 1.66l-.62.05-.05 2.25-.04 2.24h.3c.17 0 1.04-.55 1.94-1.22.89-.68 2.13-1.6 2.76-2.05 1.3-.94 1.35-1.05.6-1.36l-.56-.23v-.6c0-.34.09-.7.19-.8l.19-.2h6.68l.24.26c.62.61.14 1.64-.76 1.64h-.51l-2.26 1.6a24.51 24.51 0 0 0-2.4 1.86l-.14.24 2.26 3.22c1.24 1.77 2.71 3.87 3.26 4.68 1.1 1.62 1.12 1.63 1.9 1.76l.54.09.3.86-.14.43-.16.43-7.73.08-.33-.27a42.62 42.62 0 0 1-2.4-3.74c-2.66-4.43-2.67-4.45-3.42-3.65l-.34.37v5.02l.19.2c.1.1.42.18.7.18h.51l.17.3c.23.45.2 1.06-.09 1.34l-.25.25h-9.53zm24.9-.05c-.63-.63-.24-1.58.7-1.67l.54-.05.94-1.89c.52-1.04 1.62-3.3 2.43-5.03 4.48-9.46 3.45-8.25 6.96-8.25 3.43 0 3.13-.14 4.13 1.95a1274.57 1274.57 0 0 0 3.47 7.25c2.95 6.2 2.86 6.05 3.45 6.05.5 0 .72.3.72.97v.6l-.3.16-.31.16h-4.77c-5.14 0-5.07 0-5.23-.74l-.1-.5.33-.63 1.49-.1.05-.28a2.8 2.8 0 0 0-.39-1.14l-.45-.86-4 .04-4 .04-.45.77c-.24.42-.43.92-.4 1.1l.05.33 1.57.16.05.68.05.68-.19.22-.18.23h-5.92zm12.45-6.52c.02-.14-.37-1.13-.88-2.2l-1.26-2.7-.32-.75h-.51l-.68 1.45c-.37.8-.93 1.98-1.25 2.61a5.84 5.84 0 0 0-.57 1.54v.38l5.42-.09zm-131.73 6.07c-.1-.12-.17-.5-.14-.82l.05-.6.62-.2c.35-.12.65-.23.68-.26.05-.05.4-2.37.97-6.62l.58-4.1a14 14 0 0 0 .2-2.05l-.06-.3-1.42-.16-.05-.7-.05-.7.56-.4h3.34c4.13 0 3.54-.36 5.38 3.27l2 3.92.44.83h.53l1.9-3.19a71.89 71.89 0 0 0 2.22-3.91c.42-.95.3-.92 4.04-.92h3.22l.61.32v.6c0 .73-.22.96-.93.97-.31 0-.66.06-.78.14l-.22.13.34 2.97c.34 3 .88 7.46 1.08 9l.12.85.24.12c.12.06.44.18.7.25l.47.14.05.6c.03.33-.03.7-.13.82l-.19.23h-9.56l-.1-.28a2.4 2.4 0 0 1-.11-.8v-.52l.22-.14c.13-.08.49-.15.8-.15.32 0 .65-.1.75-.2l.17-.22-.16-1.87-.31-3.21c-.08-.74-.15-1.8-.15-2.36a3.9 3.9 0 0 0-.15-1.25l-.14-.23-.27.22c-.52.44-2.68 5.09-3.35 7.23a22.79 22.79 0 0 0-.75 2.75c-.05.35-.17.72-.26.83l-.15.2h-2.94l-.14-.28a7.7 7.7 0 0 1-.34-1.3c-.4-2.14-1.02-3.97-2.48-7.39-.8-1.87-.94-2.07-1.28-2l-.25.04-.27 2.04-.44 3.46c-.09.78-.24 1.79-.34 2.24l-.18.82.2.24.2.24h.66c.82 0 1.03.2 1.03 1.04v.66l-.25.1c-.14.04-1.5.09-3.05.09h-2.8zm30.82-.08c-.43-.8.02-1.58.91-1.58h.5l.28-.74-.04-6.16c-.02-3.39-.09-6.2-.15-6.27-.05-.05-.4-.14-.76-.19l-.66-.09-.15-.4-.14-.4.44-.93 16.7-.07.19.22.18.22-.09 2.94-2 .1-.23-.33a2.35 2.35 0 0 0-.72-.58l-.49-.25-4.5-.34-.45.45-.04 1.56-.04 1.55.54.4 5.04.03.3-.15c.15-.09.33-.38.39-.64l.1-.48 2.1.1.05 2.03.04 2.05-.27.2a2 2 0 0 1-.94.2h-.67l-.24-.25c-.14-.14-.25-.35-.25-.47 0-.42-.59-.52-3.04-.54h-2.48l-.61.32v6.44l.7.33 3.3-.29.94-.37c.92-.38 1-.45 1.33-1.3l.18-.43 1.96.1.05 1.94.04 1.94-.36.44h-16.78zm23.15.13c-.11-.11-.2-.42-.2-.69 0-.27.09-.6.2-.75l.2-.25 1.25-.1.08-12.86-.17-.21c-.1-.12-.4-.22-.68-.22-.85 0-1.24-1.03-.62-1.65l.25-.25 4.66.03c11.5.08 15.22 1.47 16.7 6.25l.3 1v2.25l-.3 1.08c-.89 3.09-3.73 5.3-7.95 6.17l-1.26.27-12.27.13zm11.16-2.35a4.66 4.66 0 0 0 2.48-2.43l.46-.94.17-1.35.18-1.35-.16-1.43-.16-1.43-.4-.8a4.48 4.48 0 0 0-3.65-2.57l-.8-.1-.67.48v11.44l.15.4.15.4h.7c.4 0 1.09-.14 1.55-.32zM9.43 43.77c-.33-.04-.64-.16-.69-.28l-.08-.22.89-1.1c.95-1.18 1.1-1.28 1.9-1.28H12l.08.22c.2.51-1.3 2.8-1.81 2.74l-.84-.08zm2.77-5.48-.09-.24 1.4-1.45c1.42-1.5 1.93-1.8 2.65-1.62l.42.1-.07.3c-.13.49-2.07 2.97-2.4 3.06a5.9 5.9 0 0 1-1.06.1h-.76zm105.07-5.93c-1.11-.55-2.05-2.21-1.41-2.5l.39-.18.31.28c.18.16.6.66.95 1.1l.63.83-.09.24c-.13.33-.4.41-.78.23zM18.65 32c-.14-.37 2.41-2.12 3.1-2.12 1.03 0 .69.72-.76 1.62l-1.2.74h-1.05zm5.17-1.52-.2-.19v-2.73l.44-.36 4.05.09.1 2.94-.2.22-.17.22H24zm88.58-3.28c-1.14-.94-1.34-1.72-.44-1.72.75 0 2.57 2.2 2 2.42-.44.17-.6.1-1.56-.7zm87.95-.32-.27-.15.01-1.56c.01-.85.08-1.64.15-1.75l.12-.2 3.93-.08.39.47-.07 3.2-.17.1c-.26.17-3.8.14-4.1-.03zm-66.07-2.15-2.34-.04-1.64-1.43a8.5 8.5 0 0 1-1.58-1.6l.06-.19 5.39-.08.67.58c1.3 1.12 2.48 2.32 2.48 2.5 0 .19-.4.42-.6.35-.06-.02-1.16-.06-2.44-.09zm-110.46-.7-.2-.18v-2.42l.45-.36 4.04.09.05 1.4.04 1.4-.2.13c-.11.07-1.06.13-2.1.13H24zm6.58-.2c-.35-.4 1.6-1.63 2.74-1.7l.32-.03.05.35.05.35-1.35.63c-1.53.72-1.55.72-1.81.4zm77.45-1.11c-1.16-.98-1.2-1.06-.65-1.41l.39-.26.22.13c1.14.65 2.25 2.13 1.75 2.32-.48.18-.69.09-1.71-.78zm-72.4-1.36c-.33-.33-.2-.6.4-.84.33-.13 1.19-.5 1.91-.85a4.73 4.73 0 0 1 1.54-.52l.23.08-.05.34-.05.33-1.57.82c-1.62.84-2.08.97-2.4.64zm67.06-2.02-1.06-.8.05-.25a.75.75 0 0 1 .3-.4l.27-.17 1.27.83c1.31.86 1.5 1.14.97 1.42-.5.27-.7.2-1.8-.63zm23 0c-1.52-.92-1.79-1.15-1.64-1.4l.1-.16h4.83l.92.62c.5.34 1.13.79 1.38 1l.46.37-.12.18-.11.18h-4.49zm-99.58-.71c-.06-.14-.1-.7-.1-1.23v-.98l.19-.19.19-.18h3.83l.37.44-.18 1a4.3 4.3 0 0 1-.34 1.19l-.17.2h-3.7zm16.1-.83v-.3l1.53-.49c1.66-.53 2-.59 2.17-.32.23.37-2.19 1.4-3.27 1.4h-.43zm55.51-1.38c-1.15-.63-1.3-.79-1.09-1.2.2-.36.7-.35 1.22.02.23.16.72.45 1.1.64l.68.34-.05.35-.05.34-.4.03c-.21.02-.85-.21-1.41-.52zm20.91-.93a3.6 3.6 0 0 1-1.02-.9v-.2l1.73-.04c2.16-.06 4.01.7 4.01 1.63v.22l-3.7-.01zm-87.3-.53a3.25 3.25 0 0 1-1.25-.28l-.18-.19.23-.36c.14-.2.54-.74.9-1.19l.65-.83h.34c.54 0 2.22.5 2.47.73l.23.21-1.03 1.03a5.58 5.58 0 0 1-1.17 1c-.07-.02-.61-.07-1.2-.12zm60.84-1.76-1.55-.78.05-.35.05-.35.33-.04c.17-.03 1.04.29 1.93.7l1.6.75-.04.4-.04.4-.4.02A7.31 7.31 0 0 1 92 13.2zm21.16-.3c-1.96-.28-2.03-.31-1.79-.75.29-.54 2.9-.36 4.58.3l.39.17-.37.3c-.43.34-.45.34-2.81-.01zm-78.24-1.99a1.6 1.6 0 0 1-.58-.51l-.16-.3.2-.14a8.83 8.83 0 0 1 2.5-1.3h.38l1.07 1.1-.23.22c-.19.18-1.52.75-2.52 1.08-.13.04-.43-.02-.66-.15zm70.3.13a4 4 0 0 1-1.39-.28l-.18-.18.18-.33c.3-.55 4.32-.33 4.92.27l.18.18-.38.38-1.06.03c-.58.01-1.6-.02-2.27-.07zm-8.87-.9a.76.76 0 0 1 0-.46l.09-.24h4.1v.31c0 .5-.5.64-2.36.64h-1.74zm-7.92-.3-.2-.24.4-.48 4.75.09v.78l-4.75.09zm-48.1-1.32c-.1-.17-.18-.53-.18-.8v-.49l.36-.13c.19-.07 1.04-.22 1.89-.34l1.54-.2.3.3c.17.16.32.47.35.67l.04.37-.23.13a15 15 0 0 1-1.73.39l-1.84.34-.34.08zm6.25-1.85-.18-.22.2-.23.2-.24h2.75l.2.24.19.23-.36.44h-2.82zm5.86-.51-.2-.13.05-.54.05-.53 3.52-.09.17.3c.17.33.07.81-.22 1-.23.17-3.1.15-3.37-.01zm6.73-.5L59 5.33l.37-.45h2.9l.18.19c.25.25.24.37-.06.66l-.25.25h-2.8z" fill="#e67817"/></svg>