<svg width="291.43" height="99.26" viewBox="0 0 77.11 26.26" xml:space="preserve" xmlns="http://www.w3.org/2000/svg"><path transform="translate(-68.13 -43.11)" d="M94.19 59.05q-1.06 0-1.63-.6-.55-.6-.55-1.7V51.7q0-1.1.55-1.7.57-.6 1.63-.6t1.6.6q.57.6.57 1.7v.99h-1.4V51.6q0-.87-.73-.87t-.74.87v5.25q0 .85.74.85t.73-.85v-1.44h1.4v1.33q0 1.1-.57 1.7-.54.6-1.6.6zm3.05-9.51h2.19q1.14 0 1.66.53t.52 1.62v.58q0 1.46-.96 1.85v.03q.53.16.75.65.23.5.23 1.33v1.65q0 .4.02.66.03.24.14.48h-1.5q-.08-.23-.11-.43-.03-.2-.03-.72v-1.72q0-.64-.21-.9-.2-.25-.71-.25h-.51v4.02h-1.48zm2.01 4.02q.45 0 .66-.23.23-.23.23-.76v-.73q0-.5-.19-.74-.17-.22-.56-.22h-.67v2.68zm4.53-4.02h2l1.53 9.38h-1.47l-.27-1.86v.02h-1.68l-.27 1.84h-1.36zm1.61 6.27-.65-4.64h-.03l-.64 4.64zm2.63-6.27h3.9v1.34h-2.42v2.61h1.9v1.34h-1.9v4.09h-1.48zm5.9 1.34h-1.54v-1.34h4.56v1.34h-1.55v8.04h-1.47z" fill="#312d69" style="inline-size:26.2485;white-space:pre" aria-label="CRAFT"/><path d="M49.26 6.39h2.25q1.1 0 1.65.59.55.59.55 1.73v4.74q0 1.14-.55 1.73-.55.59-1.65.59h-2.25zm2.23 8.04q.36 0 .55-.22.2-.21.2-.7V8.65q0-.48-.2-.7-.2-.21-.55-.21h-.76v6.7zm3.24-8.04h1.47v9.38h-1.47zm2.95 9.43q-.4 0-.69-.05v-1.34q.22.05.49.05.44 0 .65-.21.22-.23.22-.69v-7.2h1.47v7.16q0 1.16-.53 1.72t-1.61.56zM60.9 6.4h1.47v9.38H60.9zm3.75 1.34h-1.54V6.39h4.56v1.34h-1.54v8.04h-1.48zm4.28-1.34h2l1.52 9.38H71l-.27-1.86v.02h-1.67l-.27 1.84H67.4zm1.6 6.27-.65-4.64h-.03l-.64 4.64zm2.66-6.27h1.48v8.04h2.42v1.34h-3.9z" fill="#fe3c00" aria-label="DIJITAL"/><path d="M24.64 16.14c-.15 0-.25.11-.25.26 0 .14.1.25.25.25s.25-.11.25-.25c0-.15-.1-.26-.25-.26zm.2.9h-.39v2.92h.39zm1.53.65c-.27 0-.43.15-.56.38l-.03-.34h-.32v2.23h.37V18.4c.13-.25.27-.41.45-.41.15 0 .24.1.24.4v1.58h.37v-1.63c0-.39-.2-.64-.52-.64zm1.83 0c-.53 0-.84.4-.84 1.16 0 .73.31 1.16.84 1.16s.84-.45.84-1.16c0-.77-.31-1.16-.84-1.16zm0 .3c.29 0 .44.23.44.86s-.15.86-.44.86c-.29 0-.44-.23-.44-.86s.15-.86.44-.86zm2.71-.26h-.37l-.46 1.9-.46-1.9h-.39l.63 2.23h.44zm1.58 1.76v-1.1c0-.43-.2-.7-.67-.7-.2 0-.42.05-.65.14l.1.27c.18-.08.33-.12.5-.12.24 0 .36.13.36.43v.2h-.22c-.57 0-.86.26-.86.73 0 .4.22.67.6.67.21 0 .4-.1.53-.32.05.21.18.3.38.32l.08-.25c-.1-.05-.15-.1-.15-.27zm-.77.25c-.18 0-.29-.14-.29-.42 0-.3.16-.46.52-.46h.18v.52c-.1.24-.23.36-.4.36zm1.92-2.05c-.4 0-.68.26-.68.6 0 .3.15.49.55.64.35.12.44.21.44.44s-.15.35-.37.35a.75.75 0 0 1-.5-.2l-.2.2c.16.17.4.3.7.3.4 0 .75-.23.75-.67 0-.37-.2-.54-.6-.68-.3-.12-.4-.2-.4-.39 0-.2.12-.3.32-.3.17 0 .31.06.46.17l.17-.21a.88.88 0 0 0-.64-.25zm2.51.04h-.38l-.46 1.96-.46-1.96h-.38l.6 2.23h.14c-.1.36-.23.54-.6.62l.04.28c.52-.07.76-.4.9-.88zm1.04-.04c-.53 0-.84.4-.84 1.16 0 .73.31 1.16.84 1.16.52 0 .84-.45.84-1.16 0-.77-.31-1.16-.84-1.16zm0 .3c.28 0 .44.23.44.86s-.16.86-.44.86c-.29 0-.44-.23-.44-.86s.15-.86.44-.86zm2.23-.3c-.27 0-.42.15-.56.38l-.03-.34h-.32v2.23h.37V18.4c.13-.25.28-.41.45-.41.16 0 .25.1.25.4v1.58h.37v-1.63c0-.39-.2-.64-.53-.64zm2.53.04h-.37v1.62c-.11.2-.25.37-.44.37-.17 0-.25-.12-.25-.34v-1.65h-.37v1.69c0 .35.2.6.53.6.25 0 .42-.14.55-.37l.03.31h.32zm1.51-.04c-.26 0-.42.15-.56.38l-.02-.34h-.33v2.23h.38V18.4c.12-.25.27-.41.44-.41.16 0 .25.1.25.4v1.58h.37v-1.63c0-.39-.2-.64-.53-.64zm2.65-.69c-.46 0-.8.33-.8.75 0 .41.23.66.72.84.4.15.5.3.5.57 0 .33-.2.54-.49.54a.87.87 0 0 1-.61-.28l-.21.22c.21.23.47.37.83.37.55 0 .88-.4.88-.85 0-.52-.29-.73-.7-.89-.42-.15-.52-.3-.52-.53 0-.26.17-.43.4-.43.21 0 .37.08.54.24l.2-.22a.95.95 0 0 0-.74-.33zm2.51 2.49v-1.1c0-.43-.2-.7-.68-.7-.2 0-.41.05-.64.14l.1.27c.18-.08.33-.12.5-.12.24 0 .35.13.35.43v.2h-.22c-.56 0-.86.26-.86.73 0 .4.23.67.6.67a.6.6 0 0 0 .54-.32c.05.21.18.3.38.32l.08-.25c-.1-.05-.15-.1-.15-.27zm-.77.25c-.18 0-.29-.14-.29-.42 0-.3.16-.46.52-.46h.17v.52c-.09.24-.22.36-.4.36zm2.3-2.05c-.28 0-.43.15-.57.38l-.03-.34h-.32v2.23h.37V18.4c.13-.25.28-.41.45-.41.16 0 .25.1.25.4v1.58h.37v-1.63c0-.39-.2-.64-.53-.64zm2.37 1.8v-1.1c0-.43-.2-.7-.67-.7-.2 0-.42.05-.65.14l.1.27c.18-.08.34-.12.5-.12.24 0 .36.13.36.43v.2h-.22c-.57 0-.86.26-.86.73 0 .4.23.67.6.67.21 0 .4-.1.53-.32.05.21.18.3.38.32l.08-.25c-.1-.05-.15-.1-.15-.27zm-.77.25c-.18 0-.29-.14-.29-.42 0-.3.16-.46.52-.46h.18v.52c-.1.24-.23.36-.4.36zm2.23-.11a.42.42 0 0 1-.24.08c-.14 0-.2-.1-.2-.24v-1.45h.4l.03-.29h-.43v-.55l-.37.05v.5h-.3v.3h.3v1.44c0 .33.18.54.52.54.16 0 .3-.05.43-.15zm.8-1.9h-.36v2.23h.37z" fill="#312d69" aria-label="İnovasyonun Sanatı"/><path d="M7.37 25.22a.78.78 0 0 1-.49-.68c0-.27.06-.39.41-.78a156.79 156.79 0 0 0 1.1-1.24l2-2.25c1.38-1.54 1.34-1.51 1.73-1.51a.7.7 0 0 1 .66 1 8.7 8.7 0 0 1-1 1.2 58.18 58.18 0 0 0-1.21 1.37l-.8.9c-1.92 2.15-1.9 2.13-2.4 1.99zm-6.92-.46c-.29-.1-.45-.35-.45-.7 0-.3.01-.33.4-.77a281.56 281.56 0 0 1 2.63-2.95l1.38-1.55c2.03-2.31 2.7-3.04 2.86-3.13.56-.28 1.23.24 1.06.84-.07.2-.03.17-1.37 1.68l-.94 1.04-.72.82a408.26 408.26 0 0 1-2.07 2.33C1.17 24.74.94 24.94.45 24.77zm4.73-1.28c-.54-.26-.57-1.09-.05-1.3.53-.23 1.05.1 1.05.66 0 .45-.59.83-1 .64zm1.43-1.56c-.36-.13-.55-.68-.37-1.04.04-.07.54-.65 1.12-1.3a363.19 363.19 0 0 0 3.24-3.65l.6-.68 2.02-2.27c1.24-1.37 1.27-1.43 1.02-1.82-.31-.47-.7-.4-1.27.24a144.27 144.27 0 0 0-2.3 2.58c-.77.9-1.32.97-1.67.19-.14-.32-.06-.5.47-1.08l.7-.8.94-1.04a164.6 164.6 0 0 0 1.54-1.73c1.61-1.82 1.58-1.78 1.4-2.14-.3-.58-.7-.5-1.42.3l-.71.8-.9 1a832.16 832.16 0 0 1-5.23 5.89 33.75 33.75 0 0 1-.87.99 24.63 24.63 0 0 1-.93 1.04 31.14 31.14 0 0 1-.96 1.08 40.8 40.8 0 0 1-.98 1.1c-.68.8-.96.94-1.38.74-.58-.29-.57-.79.03-1.46a411.7 411.7 0 0 0 3.53-3.97 807.58 807.58 0 0 0 3.26-3.67l2.23-2.5c.67-.76.72-1.14.18-1.4-.4-.17-.51-.1-1.34.84-1.08 1.2-1.21 1.3-1.57 1.15-.2-.08-1.52-1.26-1.6-1.44-.25-.48-.04-.7 1.01-1.1a333.42 333.42 0 0 0 3.76-1.5l2.06-.84C24.1-.33 23.46-.09 23.71.08c.14.09.24.23.29.37.04.12.03.19-.08.6a514.07 514.07 0 0 0-1.53 5.64 5890.68 5890.68 0 0 0-3.19 11.85c-.14.54-.22.68-.49.79-.28.12-.4.05-1.22-.68-1.1-.98-1.11-1.01-.24-1.98 1.08-1.21 1.13-1.27 1.18-1.49.05-.27-.2-.6-.49-.67-.33-.08-.42-.01-1.11.77a47.82 47.82 0 0 1-.81.91 57.1 57.1 0 0 1-1.06 1.18c-.61.7-1.04.8-1.44.32-.29-.35-.23-.69.22-1.18l.5-.56a677.04 677.04 0 0 1 3.32-3.73c.76-.84.84-1.22.3-1.5-.38-.2-.54-.1-1.24.68a65.28 65.28 0 0 1-.96 1.09 33.3 33.3 0 0 1-1.28 1.43l-.68.78-.61.68L12 16.6l-.48.54-.94 1.05a197.44 197.44 0 0 1-2.47 2.78c-.84.96-1.07 1.11-1.51.95z" fill="#fe3c00"/></svg>