<svg width="251.84" height="121.64" viewBox="0 0 66.63 32.18" xml:space="preserve" xmlns="http://www.w3.org/2000/svg"><path d="M0 15.99h66.63v9.99H0z"/><path d="M50.11 19.43c-.36-.27-.1-1.72.3-1.64.54.11 1 .54.75.7-.04.02-.27.27-.5.54-.35.43-.43.48-.55.4z" fill="#dd2b1b"/><path d="M21.48 19.42c-.05-.14-.03-.23.17-.77.08-.2.13-.62.13-1.04 0-.7 0-.7.24-.64.72.17.93.42.8.95-.22.8-1.19 1.89-1.34 1.5zm-7.12.44c-.29-.35-.12-1.68.22-1.68.7 0 .88.55.38 1.17-.52.65-.5.63-.6.5zm-3.79.03c-.22-.36-.06-1.63.21-1.68.14-.03.84.4.84.5 0 .25-.96 1.32-1.05 1.18z" fill="#fefefe"/><path d="M48.43 23.54c-.45-.47.04-2.66.73-3.31.4-.37 1.29.21.93.6a8.93 8.93 0 0 0-1.16 2.63c-.07.38-.2.4-.5.08zm11.23.23c-1.07-.43-.1-3.19 1.38-3.9.83-.4 1.52.25.71.69a3.71 3.71 0 0 0-1.72 2.32c-.19 1.08.81.2 1.96-1.72.57-.96.57-.96.85-.91.43.06.45.13.19.69-.51 1.07-.7 2.04-.51 2.65.02.08-.06.14-.25.2-.67.18-.91-.48-.56-1.5.03-.1-.07.02-.23.25-.35.5-1 1.11-1.3 1.23-.25.1-.27.1-.52 0zm-5.02.01a.78.78 0 0 1-.09-.3c0-.21 1.18-1.32 2.18-2.05.55-.41.85-.68.8-.73-.17-.16-1.15-.18-1.45-.02-.29.15-.3.15-.49-.08-.68-.8.24-1.22 1.65-.77.36.12.84.21 1.06.21.6 0 .8.49.27.68-.74.29-2.81 2.12-2.58 2.29.19.13 1.14.02 1.64-.19.51-.22.76-.04.72.52-.05.49-.51.6-1.68.39-1.14-.2-1.4-.2-1.64.03-.24.22-.28.22-.39.02zm-4.44.01c-.32-.36.49-1.25 2.25-2.52.41-.3.71-.56.66-.59a2.7 2.7 0 0 0-1.48 0c-.4.16-.72-.08-.72-.55 0-.55.72-.64 1.95-.27.48.15.9.23 1.06.2.53-.07.6.48.1.69-.78.33-2.76 2.1-2.52 2.27.19.13 1.12.02 1.6-.19.5-.21.61-.16.78.33.2.62-.5.82-1.9.54-.92-.19-1.18-.17-1.46.08-.17.16-.18.16-.32 0z" fill="#dd2b1b"/><path d="M12.93 23.72c-.51-.56.25-3.34.9-3.34.3 0 .73.48.6.66a8.65 8.65 0 0 0-1.03 2.65c0 .32-.19.33-.47.03zm-3.74.03c-.5-.54.23-3.37.87-3.37.5 0 .74.46.47.9-.3.5-.76 1.71-.84 2.23-.06.45-.23.53-.5.24zm9.75.25c-.44-.2-.49-.97-.12-1.9.14-.35.26-.66.26-.69 0-.15-.78.74-1.42 1.61-.64.89-.73.99-.88.9-.45-.23-.39-.95.18-2.08.59-1.17-.2-.44-1.33 1.23-.7 1.03-.72 1.05-.9.76-.35-.53-.17-1.52.55-3.03.48-1.02.56-1.08 1-.7.31.26.3.42-.06.99a7 7 0 0 0-.7 1.41c0 .06.2-.17.43-.5.86-1.22 1.56-1.8 2.05-1.68.52.14.54.22.14 1-.63 1.22-.63 1.26.03.4 1.04-1.35 1.73-1.75 2.16-1.23.09.1.02.32-.37 1.21-.57 1.31-.65 1.87-.27 1.84.38-.03.3.26-.1.43-.4.15-.4.15-.65.04z" fill="#fefefe"/><path d="M46.37 17.32c-1.48-.01-3.52.44-3.44.92.1.56.41.7.97.41 1.22-.62 1.23-.65-.45 3-1.03 2.21-1.02 2.19-.34 2.54.37.2.3.28.68-.86.56-1.66.9-2.32 1.1-2.14.2.18 1.34.14 1.87-.06 2.12-.82 2.57-2.84.8-3.64a3.2 3.2 0 0 0-1.19-.17zm.41.61c2.02-.01 2.06 1.7.07 2.38-.59.2-1.79.32-1.79.17 0-.06.24-.53.53-1.05l.65-1.22c.12-.25.17-.28.54-.28z" fill="#dd2b1b"/><path d="M11.17 24.17c-.68-.67.14-3.9 1.66-6.56.39-.67.43-.7.91-.45.48.24.48.26-.05 1.03a14.16 14.16 0 0 0-2.13 5.69c-.06.6-.06.6-.39.29zm-5.36-6.44c-1.3.02-2.48.73-2.48 1.7 0 .66.41.8.69.23.28-.6 1.28-1.6 1.13-1.12-.24.73-.84 2.4-1.24 3.44-.62 1.62-.5 2.08.57 2.36 3.58.95 6.07-5.11 2.64-6.4a3.55 3.55 0 0 0-1.31-.21zm.31.46c.3-.01.76.07 1.1.24 1.59.82.8 4.06-1.2 4.96-.87.39-1.73.35-1.64-.06.08-.44.89-2.38 1.44-3.5.57-1.14.56-1.1.14-1.37-.29-.17-.14-.27.16-.27zm17.5 1.47a.87.87 0 0 0-.61.33c-.43.5-.47 1.03-.16 2.15.04.15 0 .2-.2.24-1.28.32-1.9 1.78-.93 2.2.8.34 1.66-.46 1.67-1.55 0-.33.02-.37.25-.41.14-.03.26-.1.26-.17s-.1-.12-.26-.12c-.31 0-.36-.64-.08-1.24.25-.56.64-.54.55.02-.07.47.12.53.33.09.38-.8-.2-1.58-.82-1.54zm-.87 3.27c.26 0 .04.58-.37 1-.35.34-.51.35-.51.01 0-.28.64-1.01.88-1.01z" fill="#fefefe"/><path d="M41.72 18.9s.79.04.79-.01l-.07-.37.15-.46.36-.99.06-.43-.2-.83-.4-.65-.17-.11-.4-.07-.5.04-.01.18.1.32.09.3-.44-.13-.25-.04-.2.06-.13.4-.05.23.17.43.23.6.45.76.37.54zm-9.26 2.76-.43 1.18-.64 1.04-.65.33-.3-.03-.01 1.42.19.2.34-.25.4.2 1.11.2.75-.13.49-1 .12-.8-.01-.7-.78-.26-.1-.03v-.7l-.2-.5z" fill="#fff"/><path d="M29.95.04c-.15 0-.3.02-.46.05-1.5.17-2.92.72-4.36 1.13a5 5 0 0 0-1.9 1.05 8.7 8.7 0 0 1-1.72 2.23 8.58 8.58 0 0 0-1.79 2.23c-.3.48-.66.93-.55 1.53 0 .67-.01 1.34-.4 1.92-.27.61-1.02.83-1.5 1.28-.41.44-.5 1.15-.8 1.69.15.5.05 1.13.35 1.55.5.38.87 1.1 1.6 1 .57.09 1.14.14 1.66-.18.9-.3 1.68-.87 2.4-1.47.5-.6 1.24-1.07 1.37-1.9.16-.67.5.55.73.77.44.67.68 1.5 1.15 2.1.53.14.38.9.6 1.31.25 1.1.75 2.12 1.14 3.17-.37.73-.9 1.37-1.2 2.13-.33.77-.84 1.51-1.07 2.28.18.45.12 1.13.76 1.15 1.44.32 2.93.37 4.4.53l.01-1.38.3.02.65-.32.64-1.05.43-1.17.29.16.2.5-.01.7.1.03.78.26.01.7-.12.8-.49 1-.74.13-1.11-.19-.41-.2-.3.23c.53.66.87 1.56.6 2.4 0 .67-.3 1.37-.74 1.84-.66.53-1.52.24-2.26.4-.7.1.15.61.36.84l.12.1c1.07.76 2.55.85 3.67.15 1.7-.79 2.58-2.51 3.34-4.12.96-2.02 2.01-4.01 2.92-6.06.68-.27 1.19.46 1.83.56.5.21 1.2.25 1.45-.34.65-.76.66-1.76.66-2.71h-.77c.03.15.04.3 0 .47-.08.5-.2 1.33-.84 1.35-.54-.23-1.15-.6-1.4-1.15-.02-1.1-.24-2.23.13-3.3.14-.44-.02-.87-.06-1.3.99.23 1.84-.83 1.63-1.76-.07-.87-.96-1.4-1.65-1.78-1.01-.56-2.15-.83-3.25-1.15-.6-1.01-1.5-1.84-2.1-2.87-.64-.8-.85-1.83-1.33-2.7a6.3 6.3 0 0 0 .13-2.97A2.37 2.37 0 0 0 31.27.35a3.37 3.37 0 0 0-1.32-.31zM28.16 21.5l.37.27.58 1.07.53 1.25-.08.38-.5-.07-2-.4-.17-.37.74-1.55z" fill="#d1940b"/><path d="M29.95.04c-.15 0-.3.02-.46.05-1.5.17-2.92.72-4.36 1.13a5 5 0 0 0-1.9 1.05 8.7 8.7 0 0 1-1.72 2.23 8.58 8.58 0 0 0-1.79 2.23c-.3.48-.66.93-.55 1.53 0 .67-.01 1.34-.4 1.92-.27.61-1.02.83-1.5 1.28-.41.44-.5 1.15-.8 1.69.15.5.05 1.13.35 1.55.5.38.87 1.1 1.6 1 .57.09 1.14.14 1.66-.18.9-.3 1.68-.87 2.4-1.47.5-.6 1.24-1.07 1.37-1.9.16-.67.5.55.73.77.44.67.68 1.5 1.15 2.1a.5.5 0 0 1 .34.33l1.84-.46 3.23-1.35L34.5 12c.43-.42 1.3-1.05 2.12-1.66l-.3-.09c-.6-1.01-1.5-1.84-2.1-2.87-.64-.8-.85-1.83-1.33-2.7a6.3 6.3 0 0 0 .13-2.97A2.37 2.37 0 0 0 31.27.35a3.37 3.37 0 0 0-1.32-.31z" fill="#32322e"/><path d="m25.44 23.57.08-.28a9.2 9.2 0 0 1 .79-1.54l.39-.71c.07-.15.14-.35.15-.44s.05-.22.1-.28c.04-.06.1-.11.12-.11.03 0 .1-.07.16-.15.06-.08.1-.13.1-.1l-.16.35a8.3 8.3 0 0 0-.55 1.04l-.33.7-.25.47a22.7 22.7 0 0 1-.6 1.05zm16.23-5.66c-.38.14-.38.14-.49-.13a12.57 12.57 0 0 0-.45-.98c-.01-.02.02-.02.08 0l.3.12.28.18c.05.05.09.15.1.27.02.11.05.21.07.22.02.01.13-.04.25-.12.17-.1.25-.2.33-.36l.1-.23a.61.61 0 0 0-.25.04c-.18.05-.24.06-.29.02a4.86 4.86 0 0 1-.44-.68c-.06-.11-.13-.2-.17-.2-.03 0-.17.1-.3.24-.15.13-.27.22-.28.2l-.04-.15c0-.06.05-.24.12-.39s.14-.26.15-.26l.23.1c.12.04.32.17.45.26.13.1.26.2.3.21.03.02.22.08.43.13l.4.08-.15-.43a3.99 3.99 0 0 1-.2-.58 1.02 1.02 0 0 1-.1-.22c-.05-.19-.05-.19.05-.14.06.02.16.08.22.12a.9.9 0 0 1 .2.25c.06.1.12.24.15.32l.12.32c.04.08.07.18.08.22v.38c0 .3 0 .33-.08.33-.04 0-.13.05-.2.11l-.21.26c-.06.08-.17.2-.24.25-.08.06-.3.16-.52.24zm-22.94-2.34-.48-.02a5.81 5.81 0 0 1-.3-.1 1.74 1.74 0 0 1-.74-.48 2.18 2.18 0 0 1-.46-1.08 2.53 2.53 0 0 1 0-.72c.03-.2.09-.52.14-.7.06-.2.15-.42.21-.5.06-.1.18-.23.26-.3.08-.07.36-.24.62-.37a153.87 153.87 0 0 1 1.04-.52 7.58 7.58 0 0 1 .78-.28 266.03 266.03 0 0 0 1.25-.37 543.62 543.62 0 0 1 .92-.24 7.2 7.2 0 0 0-2.33.24c-.4.08-.41.08-.41 0l.03-.14c.01-.04.07-.28.1-.55a15.57 15.57 0 0 1 .23-1.23c.05-.21.15-.5.25-.7.1-.19.3-.52.44-.74.15-.22.5-.7.79-1.06l.79-1 .5-.6a2.65 2.65 0 0 1 .82-.61 7.5 7.5 0 0 1 2.92-.79 33.25 33.25 0 0 1 .75-.1 5.72 5.72 0 0 0-1.6-.06 12.89 12.89 0 0 0-1.4.22 10.69 10.69 0 0 1-.7.17 2.87 2.87 0 0 1 .96-.83 11.81 11.81 0 0 1 2.69-1.06A18.72 18.72 0 0 1 29.67.4a3.57 3.57 0 0 1 2.2.49c.15.09.36.24.46.34a1.79 1.79 0 0 1 .44.88c.04.16.04.49.02 1.18l-.02 1.28a2 2 0 0 0 .12.66c.07.2.12.42.12.5 0 .09-.02.23-.04.3s-.12.24-.21.34c-.1.12-.2.18-.22.16a2.3 2.3 0 0 1-.45-.92c-.04-.18-.1-.7-.14-1.15l-.08-.9-.13-.33a1.97 1.97 0 0 0-.16-.32l-.1-.14c-.07-.07-.07-.07-.05.04a11.08 11.08 0 0 1 .1 1.97c0 1.12 0 1.12-.3.92a4.12 4.12 0 0 1-.96-.84l-.3-.37c-.03-.02-.03.03-.02.14a1.98 1.98 0 0 0 .42.84c.12.15.35.38.5.52l.6.53c.16.15.37.35.45.45.14.18.15.19.07.24a11.27 11.27 0 0 1-1.54 1.19c-.17.1-.17.1-.6-.76a15.33 15.33 0 0 0-1.14-1.89 8.63 8.63 0 0 0-.9-.87 4.36 4.36 0 0 0-.7-.4v.03c0 .02.15.19.33.37l.48.52a8.96 8.96 0 0 1 1.39 2.39l.28.6.12.34c.02.07-.03 0-.12-.16l-.25-.45a3.52 3.52 0 0 0-.68-.7l-.24-.18-.3-.2a39.54 39.54 0 0 0-1.83-1.01 1.03 1.03 0 0 0-.31-.11c-.03 0 .09.12.25.25s.45.34.63.46l.73.53c.23.18.57.48.77.69.2.2.44.5.53.64.09.15.18.36.2.47.04.15.04.21-.01.32a.98.98 0 0 1-.25.27 8.48 8.48 0 0 1-1.86 1.05c-.3.14-.3.14-.35-.09a8.5 8.5 0 0 0-.25-.89l-.2-.3a9.85 9.85 0 0 0-1.38-1.1 8.2 8.2 0 0 0-1.76-.78 99.08 99.08 0 0 1 1.07.74 9.76 9.76 0 0 1 1.25 1.06c.21.22.43.48.49.59a2.08 2.08 0 0 1 .16.79l-.17-.07-.63-.32a3.64 3.64 0 0 0-2.07-.41 158.25 158.25 0 0 0 1.18.32c.16.05.4.13.51.19a4.75 4.75 0 0 1 1 .7c.04.05-.01.09-.3.23a11.8 11.8 0 0 1-1.68.63c-.32.1-.32.1-.4.3a6.17 6.17 0 0 1-.46.96c-.1.13-.32.4-.5.59a8.98 8.98 0 0 1-1.18.97 10.6 10.6 0 0 1-.97.53 5.64 5.64 0 0 1-.84.26 3.7 3.7 0 0 1-.76.07z" fill="#fefefe"/><path d="M42.02 16.24c-.17.03-.17.03-.3-.23l-.2-.45a1.5 1.5 0 0 1-.11-.37c-.02-.16-.01-.17.09-.2.09-.02.13 0 .24.1a1.57 1.57 0 0 1 .42.8c.04.17.07.3.06.32a.78.78 0 0 1-.2.03zm-16.18-1.66a.96.96 0 0 1-.2-.3l-.39-.74c-.14-.25-.31-.57-.4-.7l-.36-.5c-.18-.27-.18-.27.01-.36l.22-.08a27.71 27.71 0 0 0 2-.8 7936.82 7936.82 0 0 0 1.16-.55 17.38 17.38 0 0 0 1.82-1.1 82.47 82.47 0 0 0 2.05-1.44c.27-.2.73-.6 1.03-.9.3-.3.57-.55.58-.55a13.06 13.06 0 0 0 .67 1.2 21.47 21.47 0 0 0 1.16 1.77c.16.24.32.51.36.6.04.1.06.22.04.27-.01.05-.1.18-.18.3-.08.1-.3.3-.47.45a9.33 9.33 0 0 1-2.07 1.28l-.86.38a22.23 22.23 0 0 1-3.23 1.1 11.6 11.6 0 0 1-1.8.41 13.45 13.45 0 0 0-1.14.26zm-.43-5.28-.07-.07c-.05-.06-.05-.06.01-.01l.07.07-.01.01zm-3.1-5.15.05-.08a.32.32 0 0 1 .1-.08l-.06.08a.32.32 0 0 1-.09.08zm3.47-1.61c-.16 0-.23 0-.15-.02h.3c.08.01.02.02-.15.02zm4.1-2.15c-.05 0-.06 0-.03-.02.03-.01.06-.01.07 0 .02.02 0 .02-.05.02z" fill="#fcfcfc"/><path d="M33.13 25.64a.36.36 0 0 1-.1-.04 2.17 2.17 0 0 0-.45-.08c-.21-.03-.5-.08-.62-.13a1.45 1.45 0 0 1-.42-.25c-.1-.09-.3-.31-.42-.5-.14-.19-.22-.33-.2-.35a198.2 198.2 0 0 0 1.02-.7 1 1 0 0 0 .26-.33c.1-.21.11-.29.13-.76.02-.42.04-.55.09-.6.03-.03.08-.05.1-.03.03.01.1.1.14.19.08.14.09.23.09.57 0 .33-.02.46-.11.74-.07.2-.11.37-.1.39 0 .02.15 0 .33-.06l.36-.1c.03 0 .13.13.24.29.18.27.19.3.16.47a6.96 6.96 0 0 1-.27.98c-.04.09-.1.2-.14.23-.03.04-.07.07-.09.07zm1.81-14.46-.01-.01.07-.07c.06-.05.06-.05.01.01l-.07.07z" fill="#fcfcfa"/><path d="m31.94 23.6.05-.07a.32.32 0 0 1 .1-.08l-.06.08a.32.32 0 0 1-.1.08zm5.23-2.17c-.08.02-.09.01-.09-.14 0-.1.05-.24.1-.35a4.23 4.23 0 0 1 .67-.91l.28-.3c.14-.12.14-.12.11.09a3.62 3.62 0 0 1-.36 1.02c-.07.1-.17.24-.23.3s-.17.15-.25.19l-.23.1zm-6.05-1.9a4.02 4.02 0 0 1-.97-.26 2.9 2.9 0 0 0-.41-.13c-.21-.05-.3-.1-.33-.15a3.29 3.29 0 0 1-.03-.55 5 5 0 0 1 .66-2.35c.05-.08.16-.21.24-.3s.22-.15.3-.18a.42.42 0 0 1 .31.03c.09.04.24.15.34.26a2.66 2.66 0 0 1 .55.97l.24.6a5.57 5.57 0 0 1 .27 1.14.8.8 0 0 1-.08.34.75.75 0 0 1-.33.3 3.05 3.05 0 0 1-.76.28zm-.32-.4a.7.7 0 0 0 .25-.08c.08-.04.2-.14.27-.23.07-.08.14-.21.18-.29.03-.1.05-.28.05-.6 0-.31-.03-.5-.07-.63a1.93 1.93 0 0 0-.19-.34.84.84 0 0 0-.33-.29c-.21-.1-.22-.1-.37-.04-.09.04-.21.13-.29.2s-.16.22-.2.33c-.06.15-.09.31-.09.5 0 .3 0 .3.3.32.16.02.34.05.4.08.11.06.11.06 0 .14-.07.05-.22.11-.35.15-.13.04-.23.09-.23.12s.06.14.14.25.2.24.29.3c.08.06.2.1.24.11zM25.17 9.06 25.1 9c-.05-.06-.05-.06.01-.01l.07.07-.01.01z" fill="#fafbf6"/><path d="m31.52 25.16-.07-.07c-.05-.06-.05-.06.01-.01l.07.07-.01.01zm1.42-18.21c-.01 0 .01-.04.05-.08a.32.32 0 0 1 .1-.08l-.06.08a.32.32 0 0 1-.1.08zm-.1-4c-.02 0-.03-.02-.03-.06 0-.05.02-.06.03-.03v.08zm0-.27c-.01.03-.02 0-.02-.07 0-.06 0-.09.02-.05v.12z" fill="#f3f3f3"/><path d="M38.01 19.85s.01-.04.05-.08a.32.32 0 0 1 .1-.08l-.06.08a.32.32 0 0 1-.09.08zm-9.44-2.08c-.02 0-.03-.1-.03-.24 0-.14.03-.34.08-.48.04-.14.14-.37.22-.52.08-.16.24-.38.36-.5.16-.18.23-.22.26-.18.04.03-.03.2-.29.71a29.98 29.98 0 0 0-.6 1.21zm10.08-1.3c-.1.06-.1.06-.1-.44 0-.49 0-.49.1-.42a.6.6 0 0 1 .2.19.4.4 0 0 1 .06.27.7.7 0 0 1-.08.25.54.54 0 0 1-.18.15z" fill="#fcfae1"/><path d="M28.52 17.58c0 .03-.02 0-.02-.07 0-.06.01-.08.02-.05v.12zm10.22-1.12-.02-.02.07-.07c.07-.05.07-.05.02.02l-.07.07zm-9.59-.4-.01-.02.07-.07c.06-.05.06-.05.01.02l-.07.07zm9.39-.4-.02-.04c0-.02.02-.05.04-.06.03-.02.03 0 .02.03-.01.04-.03.07-.04.07z" fill="#faf7d8"/><path d="M30.89 25.35c-.06.13-.06.13-.15-.23a2.3 2.3 0 0 0-.2-.57.82.82 0 0 1-.13-.23c0-.02.02-.04.04-.04s.1.06.2.13.2.19.25.3c.06.13.08.24.06.35 0 .09-.04.22-.07.3zm10.87-8.34c-.02 0-.05-.01-.06-.04-.01-.02 0-.02.04-.01l.06.04-.04.01zM31.2 15.86l-.07-.07c-.05-.07-.05-.07.01-.02l.07.07-.01.02z" fill="#ecebeb"/><path d="M42.94 16.7c0 .03-.02.01-.02-.05s.01-.07.02-.05v.1z" fill="#e3e3e3"/><path d="M42.94 16.86c0 .03-.02 0-.02-.05s.01-.07.02-.05v.1zm-2.33-.37.07-.1c.05-.06.1-.1.11-.1.02 0-.02.05-.07.1-.05.06-.1.1-.11.1z" fill="#dbdbdb"/><path d="M28.97 24.68a4.4 4.4 0 0 1-1.45-.24c-.18-.04-.4-.13-.5-.18l-.26-.15c-.08-.06-.08-.07.04-.04l.3.08a14.64 14.64 0 0 0 2.3.45l.02.04c0 .03-.18.04-.45.04zm4.31-5.23c-.02 0-.02-.04 0-.09 0-.05.06-.16.11-.26a.8.8 0 0 1 .23-.24c.07-.04.2-.1.28-.12.14-.04.14-.04 0 .16a2.4 2.4 0 0 1-.62.55z" fill="#f5e5b7"/><path d="M32.83 15.9c-.1.06-.13.06-.25 0-.1-.04-.12-.08-.1-.12l.04-.17c.02-.11.02-.11.24.05l.2.18-.13.07z" fill="#fce8a5"/><path d="M30.35 31.95c-.22 0-.51-.03-.66-.05a4.1 4.1 0 0 1-.52-.16 2.5 2.5 0 0 1-.42-.2c-.13-.09-.14-.1-.06-.1.04 0 .3.07.57.16.49.16.5.16.95.15.36-.02.54-.05.8-.13a6.32 6.32 0 0 0 1.52-.78 7.94 7.94 0 0 0 1.7-1.48l.54-.56c.01 0 .01.05-.01.1a5.3 5.3 0 0 1-.56.93 7.49 7.49 0 0 1-1.02 1.1c-.17.12-.4.3-.52.37a4.65 4.65 0 0 1-1.65.61c-.14.03-.44.04-.66.04zm3.58-16.94a.65.65 0 0 1-.19-.03c-.05-.02-.09-.06-.09-.08l.07-.29.15-.69c.08-.44.08-.44.14-.24.04.16.04.24 0 .47a9.6 9.6 0 0 0-.07.43c-.02.13 0 .14.2.24.2.1.2.1.05.15a.66.66 0 0 1-.26.04z" fill="#fbe89e"/><path d="M32.63 25.56c-.05 0-.06-.01-.03-.02.03-.02.07-.01.08 0 .01.01-.01.02-.05.02zm9.98-8.3c-.02 0 0-.04.05-.09a.32.32 0 0 1 .09-.08c.01 0-.01.04-.05.08a.32.32 0 0 1-.1.08zm.33-.24c0 .03-.02 0-.02-.05s.01-.07.02-.05c.02.03.02.08 0 .1z" fill="#d3d3d3"/><path d="M29 24.71c-.1 0-.12 0-.07-.01h.16l-.1.01zm5.73-2.94c-.03 0 0-.07.04-.16.04-.08.18-.29.31-.45s.35-.46.49-.67c.13-.2.28-.42.33-.47a.87.87 0 0 1 .2-.15c.06-.04.1-.05.1-.03l-.2.4a6.7 6.7 0 0 1-1.28 1.54z" fill="#f2dca8"/><path d="M32.32 22.36c-.01.04-.02 0-.02-.07 0-.08.01-.11.02-.07.01.04.01.1 0 .14zm-5.47-1.78c-.02.03-.02 0-.02-.05s0-.08.02-.05v.1zm3.98-1.45c-.05 0-.06-.01-.02-.03h.07c.02.02 0 .03-.05.03z" fill="#d6d3cc"/><path d="M30.67 19.97a1.07 1.07 0 0 1-.44-.13c-.1-.05-.37-.2-.58-.34-.35-.24-.37-.26-.21-.23l.5.17.63.22.4.1c.1.02.1.02-.06.11a.6.6 0 0 1-.24.1zm1.65-1.23c-.01.03-.02 0-.02-.05s0-.07.02-.05v.1z" fill="#ecd9aa"/><path d="m33.7 30.44-.01-.02.07-.07c.06-.05.06-.05.01.02l-.07.07zm.81-9.99-.1-.15a1.6 1.6 0 0 1-.11-.35l-.07-.35v-.15l.09.03c.03.01.07.13.1.25a4.15 4.15 0 0 1 .1.72z" fill="#f2dc9c"/><path d="M32.43 25.87a2.06 2.06 0 0 1-1.05-.23c-.28-.12-.28-.12-.3-.55v-.44l.08.12c.04.07.18.22.3.34.14.15.27.24.43.3.12.04.37.1.56.12.19.02.4.05.5.08.07.02.14.05.14.07 0 .02-.08.07-.17.1-.1.04-.31.08-.49.09zm1.27-1.96c-.03.23-.03.23-.22-.06-.1-.15-.2-.28-.22-.28l-.36.1c-.19.05-.33.07-.33.05l.05-.2c.04-.14.06-.16.3-.24a.98.98 0 0 1 .42-.06c.09.01.2.06.25.11s.11.15.12.22c.02.08.01.24 0 .36zm-1.38-1.33c-.01.03-.02 0-.02-.07s0-.09.02-.05v.12zm8.73-1.77a3.3 3.3 0 0 1-.72-.3 3.62 3.62 0 0 1-.52-.4c-.14-.13-.3-.31-.33-.4a4.5 4.5 0 0 1-.09-1.32 5.63 5.63 0 0 1 .2-2c.01.03-.01.2-.04.35a6.29 6.29 0 0 0-.06 1.98c.05.94.06.97.16 1.13.06.08.22.25.36.36a3.67 3.67 0 0 0 .93.5c.1.02.15 0 .26-.09.07-.06.18-.22.24-.35.06-.13.14-.35.18-.49a2.97 2.97 0 0 0 .02-1.06 3.1 3.1 0 0 0-.27-.4 4.95 4.95 0 0 1-.67-1.24l-.14-.36c0-.02.02-.02.04 0 .02 0 .1.11.15.23l.31.66c.17.38.22.46.28.45.04 0 .23-.07.42-.14.32-.11.36-.14.68-.47.19-.19.37-.35.42-.36.07-.01.08-.06.1-.32.02-.25.02-.27.05-.16l.03.28c0 .08-.03.25-.07.37-.03.12-.13.35-.21.51-.08.17-.17.4-.2.52l-.05.45c0 .25 0 .25-.05.03-.04-.18-.06-.22-.12-.2l-.29.05c-.14.03-.22.07-.23.12-.02.04-.04.27-.06.5a3.9 3.9 0 0 1-.12.7 3.1 3.1 0 0 1-.2.5c-.07.11-.17.25-.23.29s-.13.08-.16.08zm.62-2.32a3 3 0 0 0 .8-.16.27.27 0 0 0 .06-.12c.02-.08.01-.09-.16-.07a1.93 1.93 0 0 0-.73.27c-.1.08-.1.08.03.08zm.05-1c-.15.08-.15.08-.2-.2a9.89 9.89 0 0 0-.1-.51c-.03-.15-.04-.2 0-.15.02.05.1.15.19.24.14.16.14.16.3.11l.24-.07c.05-.02.04 0-.01.13a1 1 0 0 1-.16.26c-.06.05-.17.14-.26.19zm-13.4-9.7-.07-.07c-.05-.07-.05-.07.02-.02l.07.07-.02.02z" fill="#cbcccc"/><path d="M30.49 25.71a14.3 14.3 0 0 1-.05-1.26s.06.08.11.2c.06.1.13.3.16.42l.08.36c.02.1 0 .13-.13.2l-.17.08zm1.23-1.99c-.04.03-.07.04-.07.03l.12-.26a9.86 9.86 0 0 0 .48-1.14c.02-.06.04.03.04.28 0 .3-.02.4-.1.56-.05.1-.16.26-.24.34l-.23.2zm7.67-5.24c-.01.04-.02 0-.02-.09s.01-.12.02-.07v.16zm2.9-.31c-.04 0-.05-.01-.02-.02.03-.02.06-.01.08 0 .01.01-.01.02-.05.02zm-2.9-.73c-.02.02-.03 0-.02-.05 0-.05 0-.06.02-.02.01.03.01.06 0 .07zM30.48 5.6l-.07-.07c-.05-.06-.05-.07.01-.02l.07.07-.01.02zm1.08-1.3c0 .04-.02 0-.02-.12 0-.1.01-.15.02-.09v.2z" fill="#c9cac4"/><path d="M28.74 24.72c-.06 0-.08-.01-.05-.02h.1c.03 0 0 .02-.05.02zm.5 0c-.05 0-.06-.01-.03-.02s.06-.01.07 0c.02.01 0 .02-.05.02z" fill="#ebd595"/><path d="M28.6 31.43c-.05 0-.06 0-.03-.02h.08c0 .01-.01.02-.06.02zm5.42-1.83-.01-.02.07-.07c.06-.05.06-.05.01.02l-.07.07zm.36-.4-.01-.02.07-.07c.06-.05.06-.04.01.02l-.07.07zm-.76-9.95c-.02 0 .02-.04.07-.1s.1-.1.11-.1c.01 0-.02.05-.07.1-.05.06-.1.1-.11.1zm4.93-2.98c-.01.02-.02 0-.02-.05s0-.08.02-.05v.1zm0-.36c-.01.02-.02 0-.02-.07s.01-.1.02-.05v.12zm-1.68-1.21a.5.5 0 0 1-.26-.08c-.06-.05-.09-.08-.06-.08l.32-.04c.16-.02.4-.03.56-.02.16.02.3.04.3.06l-.35.1-.51.06z" fill="#f5db83"/><path d="M36.95 14.49c-.07 0-.1-.01-.05-.02h.12c.02.01 0 .02-.07.02zm.51 0c-.06 0-.08-.01-.04-.02h.12c.02.01 0 .02-.08.02z" fill="#f6d778"/><path d="M41.17 22.08a1.8 1.8 0 0 1-.27-.04 10.23 10.23 0 0 1-1.24-.42 3.79 3.79 0 0 1-.37-.22c-.1-.07-.16-.13-.15-.14a7.13 7.13 0 0 1 .91.29c.3.12.64.24.76.26.2.04.22.04.62-.16l.43-.2c.01 0-.01.07-.06.15s-.13.2-.2.28-.17.15-.23.17a.62.62 0 0 1-.2.03z" fill="#e0c893"/><path d="M29.8 31.75c-.06 0-.06 0-.03-.02.03-.01.06-.01.07 0 .02.01 0 .02-.05.02zm3.75-1.67c-.01 0-.02 0-.02-.02l.07-.07c.06-.05.06-.05.01.02l-.06.07z" fill="#f7d369"/><path d="m33.86 29.76-.01-.02.07-.07c.06-.05.06-.05.01.02l-.07.07z" fill="#f6cd64"/><path d="m39.79 20.13-.07-.07c-.05-.06-.05-.06.01-.01l.07.07-.01.01zm-.4-1-.01-.22a3.26 3.26 0 0 1 .01.21zm2.35-.64c-.05 0-.06-.01-.03-.02.03-.02.07-.02.08 0 .01.01-.01.02-.05.02zm-.7-1.64a5.14 5.14 0 0 1-.5-.22c-.02-.03.1-.16.27-.31.28-.27.28-.27.4-.08.06.1.1.22.1.25l.07.18c.04.07.05.11.04.1-.02-.02-.1 0-.19.03a.91.91 0 0 1-.18.05zM27.45 4.87l-.09-.09c-.07-.09-.07-.09.02-.01l.09.09-.02.01zm4.12-.33c-.02.01-.03-.01-.02-.05 0-.05 0-.06.02-.03v.08z" fill="#b7b7b7"/><path d="M33.7 29.92c-.01 0 .01-.04.05-.08a.32.32 0 0 1 .1-.08l-.06.08a.32.32 0 0 1-.1.08zm.84-.92c-.02 0 .02-.05.07-.1l.11-.1-.07.1c-.05.06-.1.1-.11.1zm3.52-9.23-.02-.01.07-.07c.07-.05.07-.05.02.01l-.07.07zm-1.1-5.04c-.05 0-.07 0-.04-.02a.15.15 0 0 1 .1 0c.02.01 0 .02-.05.02z" fill="#f5c856"/><path d="m30 24.84-.84-.04a6.28 6.28 0 0 1-2.08-.37 3.62 3.62 0 0 1-.53-.26c-.11-.08-.2-.15-.19-.17s.07-.01.13 0c.06 0 .2.08.3.16.1.07.35.18.54.25.2.06.58.16.87.21.42.1.58.1.87.09l.7-.05c.24-.01.36 0 .36.02s0 .07-.02.1c-.01.04-.06.06-.11.06z" fill="#e5c36b"/><path d="m30.48 18.97-.07-.07c-.05-.06-.05-.06.01-.01l.07.07-.01.01z" fill="#b6b2aa"/><path d="M30.4 31.99c-.07 0-.1-.01-.06-.02h.12c.03.01 0 .02-.07.02z" fill="#ceb78a"/><path d="M39.17 17.89a.68.68 0 0 1-.1-.03c-.07-.03-.09-.07-.09-.23 0-.2 0-.2-.2-.3a3.34 3.34 0 0 0-.32-.14c-.12-.04-.12-.04.07-.08a.53.53 0 0 1 .33.01c.09.04.18.13.26.24.07.1.12.24.12.3l-.02.17c-.01.03-.04.06-.05.06z" fill="#ddb67b"/><path d="M33.95 15.05c-.05 0-.06 0-.03-.02H34c.01.02-.01.03-.05.02z" fill="#e3ba65"/><path d="m33.47 30.12-.02-.02.07-.07c.06-.05.07-.05.02.02l-.07.07zm.87-.92c-.02 0 .02-.05.07-.1l.11-.1-.07.1-.11.1zm-5.04-4.37c-.26 0-.36 0-.23-.02a4.44 4.44 0 0 1 .23.02zm11.64-3.03-.26-.03a5.76 5.76 0 0 1-.58-.22c-.24-.1-.57-.22-.73-.27s-.33-.1-.37-.14c-.07-.06-.06-.08.21-.38.29-.31.29-.31.5-.1l.42.36c.1.08.28.16.39.19.15.03.23.03.34 0a1 1 0 0 0 .3-.2c.09-.09.22-.25.3-.37.08-.12.18-.35.24-.51.05-.17.12-.47.14-.68l.06-.4s.12.15.25.35c.23.36.23.36.2.78a2.2 2.2 0 0 1-.1.59l-.18.38c-.1.18-.16.23-.44.38-.18.1-.38.2-.45.22a.78.78 0 0 1-.24.05zM30.67 20c-.05 0-.06 0-.02-.02h.07c.02.02 0 .03-.05.03zm3.57-.18c-.02.03-.02 0-.02-.05s0-.08.02-.05v.1zm3.06-5.13c-.04 0-.05 0-.02-.02.03-.01.06-.01.07 0 .02.02 0 .03-.05.02zm-.1-.25c-.14 0-.2 0-.12-.01h.26l-.13.01z" fill="#f5c446"/><path d="m30.07 31.75-.28-.03a3.86 3.86 0 0 1-.54-.16c-.2-.07-.44-.13-.55-.15-.15-.02-.24-.06-.4-.2a2.7 2.7 0 0 1-.33-.36.68.68 0 0 1-.1-.2l.07-.01h.2c.11 0 .2.06.52.32.2.17.46.37.56.42.13.08.23.11.38.11.13 0 .3-.04.48-.12.15-.07.38-.2.5-.28a1.8 1.8 0 0 0 .58-.73 1 1 0 0 0 .1-.26l.1-.38c.05-.22.07-.49.06-1.02 0-.6-.02-.8-.1-1.2a34.7 34.7 0 0 0-.26-1.09c-.12-.5-.14-.6-.09-.6.04 0 .1.14.17.33a19.66 19.66 0 0 1 .38 1.2c.03.1.12.24.2.33.07.1.17.17.2.17.05 0 .19-.07.32-.15.14-.08.31-.2.38-.28.08-.07.16-.2.19-.3.03-.1.06-.38.07-.62.03-.45.03-.45.15-.38l.38.16c.21.08.27.09.38.05.08-.02.2-.12.29-.22.08-.09.29-.42.45-.72l.4-.74.13-.37c.04-.16.04-.2-.02-.3-.07-.12-.07-.12.15-.48a11.97 11.97 0 0 0 1.09-2.36c.1-.28.25-.73.33-1.02.16-.52.16-.52.14-.22a3.8 3.8 0 0 1-.22.9l-.22.73c-.01.08 0 .12.02.1.02 0 .13-.18.25-.38s.39-.72.6-1.15.4-.84.41-.9c.02-.12 0-.16-.19-.36-.2-.22-.2-.22.27-.2.26 0 .52-.01.57-.03.07-.03.08-.05.06-.16a.68.68 0 0 0-.2-.3 2.1 2.1 0 0 0-.4-.28.89.89 0 0 0-.5-.1c-.23 0-.35.02-.55.1-.15.07-.36.15-.47.18-.21.07-.21.07-.21.26 0 .14.01.2.07.2.04.02.17.04.3.05.12.02.24.04.24.06.01.02-.07.12-.2.24-.11.12-.2.23-.19.25.01.02.07.03.14.03s.12.01.12.03l-.09.3c-.07.24-.1.29-.23.35-.08.04-.2.13-.27.2-.07.08-.2.27-.31.44l-.46.64a4.6 4.6 0 0 0-.38.54 1.2 1.2 0 0 1-.17.27 2.74 2.74 0 0 1-.82.4c-.16.06-.36.1-.45.1a.54.54 0 0 1-.22-.03c-.05-.03-.05-.04 0-.06l.34-.08c.15-.03.38-.1.5-.14a2 2 0 0 0 .36-.2c.12-.1.13-.12.06-.12l-.54.08c-.25.05-.54.1-.63.1-.17.03-.18.02-.3-.12-.07-.09-.2-.2-.3-.27-.18-.11-.18-.11-.28.04l-.11.16a4.04 4.04 0 0 1-1.01-.64l-.3-.3c-.1-.12-.22-.29-.26-.37-.05-.08-.13-.2-.2-.27s-.2-.16-.29-.22c-.15-.08-.23-.09-.6-.09-.4 0-.43 0-.56.1a8.68 8.68 0 0 0-1 .98 12.93 12.93 0 0 0-.8.98 13.99 13.99 0 0 0-1 1.48c-.09.15-.15.3-.15.32a1 1 0 0 0 .27.25c.15.11.36.26.47.32a3.64 3.64 0 0 0 1.06.37l.75.12s.71.05 1.01.05c.3 0 .55.01.55.03l-.06.14c-.04.06-.1.12-.13.14s-.22.03-.41.04a23.62 23.62 0 0 1-2.91-.11c-.14-.02-.4-.09-.59-.14a1.34 1.34 0 0 1-.47-.22.54.54 0 0 1-.18-.34c-.03-.12-.03-.3-.02-.4.02-.12.1-.3.2-.45a13.35 13.35 0 0 0 .73-1.3l.35-.72c.12-.26.32-.65.44-.86.12-.21.3-.56.4-.79a6.1 6.1 0 0 1 .65-1.1c.1-.1.1-.1.04-.46a1.81 1.81 0 0 1 0-.65l.15-.7c.05-.22.1-.53.1-.67 0-.25-.01-.27-.15-.42-.13-.15-.16-.16-.34-.16a.88.88 0 0 0-.67.3c-.07.08-.17.23-.2.33-.05.1-.12.32-.16.48-.07.3-.07.3-.08-.02 0-.18.02-.41.04-.52.02-.11.1-.36.19-.54l.23-.5c.05-.13.11-.18.3-.27a6.14 6.14 0 0 1 1.55-.5c.02 0-.02.16-.08.37a3 3 0 0 0-.13.68c-.01.17 0 .3.01.3.02 0 .13-.1.25-.24a2.2 2.2 0 0 1 .58-.56 5.5 5.5 0 0 1 1.05-.49c.19-.06.5-.12.67-.13s.33-.04.33-.05l-.27-.21-.35-.25c-.05-.03-.07-.06-.06-.07a12.29 12.29 0 0 1 1.32-.51c.01 0 .1.05.17.12.1.09.15.16.15.23 0 .1-.05.14-.26.28-.14.1-.31.25-.38.35-.07.1-.16.26-.2.36-.08.17-.09.18-.15.12-.04-.03-.08-.06-.1-.06s0 .07.01.16l.05.18.24-.02c.13-.02.43-.14.69-.26.46-.22.46-.22.72.13.14.2.3.39.36.42.05.04.14.07.2.07s.18-.04.28-.08.32-.18.5-.3.39-.24.46-.26c.09-.02.34-.02.69 0a5.57 5.57 0 0 0 1.94-.16c.03 0-.03.03-.12.07-.16.08-.16.08.08.19.19.08.34.11.67.14.23.01.45.04.47.05.02.02.09.12.14.22a2.75 2.75 0 0 1 .2.56c.02.04.04.03.12-.02.1-.06.1-.06.1.1a7.12 7.12 0 0 1-.12.9c-.02.03-.04.01-.04-.06a.35.35 0 0 0-.03-.15c-.03-.05-.07-.04-.2.06-.14.11-.16.11-.55.1-.22 0-.62-.03-.9-.06-.5-.07-.5-.07-.75.01a5.64 5.64 0 0 0-1.02.5c-.13.1-.13.1-.1-.07l.03-.27c0-.09-.02-.07-.22.14a2.4 2.4 0 0 0-.42.66c-.2.4-.2.4-.3.3a.48.48 0 0 0-.14-.1 2 2 0 0 0 .2 1.23c.02.05.07.1.08.1a3.92 3.92 0 0 0 .55-.63l.35-.5.28-.25c.1-.07.24-.14.34-.17a1.77 1.77 0 0 1 .85-.01 5.03 5.03 0 0 1 1.25.71c.08.08.18.2.22.28s.1.25.12.38l.04.4c0 .09.02.18.04.21.02.04.06-.05.1-.26l.1-.4c.03-.07.03 0 .02.17l-.06.46-.14.46c-.06.15-.27.61-.48 1.02a71.7 71.7 0 0 0-1.47 3.13l-.42.92-.41.88a51.91 51.91 0 0 1-1.08 2.2c-.18.32-.31.5-.54.73a44 44 0 0 0-.7.71c-.2.22-.44.46-.54.54a12.3 12.3 0 0 1-1.03.77 8.11 8.11 0 0 1-1.27.62 3.87 3.87 0 0 1-1 .2zm2.66-1.76c.22-.01.36-.04.53-.12.14-.07.32-.2.45-.33a1 1 0 0 0 .3-.5c.08-.25.08-.34.06-.65a2.7 2.7 0 0 0-.05-.42.1.1 0 0 0-.08-.05c-.05 0-.05.03-.03.18.02.12 0 .25-.04.4-.04.13-.12.3-.18.37a.72.72 0 0 1-.14.13s.03-.1.09-.21c.09-.17.1-.28.12-.6v-.73c-.02-.19-.05-.34-.08-.34a5.77 5.77 0 0 0-1.55 1.27.97.97 0 0 0-.2.35 1.2 1.2 0 0 0-.02.38c.01.12.08.33.15.47.08.16.17.28.25.33.1.07.18.08.42.07zm3.21-3.92c.02-.05.03-.23.02-.4-.01-.3-.02-.3-.17-.47a3.64 3.64 0 0 0-.62-.48c-.02 0-.05.05-.07.1-.01.06 0 .22.05.36.04.13.13.36.2.51.13.24.17.28.35.37.2.1.2.1.24 0zm.01-2.03c.07 0 .1-.03.12-.14a.9.9 0 0 1 .04-.19c.02-.02.08.02.15.08.12.11.12.11.09-.02-.02-.08-.06-.2-.1-.28s-.07-.14-.1-.15a.58.58 0 0 0-.19-.03.35.35 0 0 0-.26.1.92.92 0 0 0-.16.2.53.53 0 0 0-.05.15c0 .02.03.07.07.12.05.05.13.1.2.12a1 1 0 0 0 .2.04zm.33-.75a2.25 2.25 0 0 0 .57-.24.65.65 0 0 0 .16-.2c.04-.08.08-.2.09-.27.02-.12.02-.13-.15-.15-.1-.01-.26-.08-.37-.15-.2-.13-.2-.13.01-.14.15-.01.26.01.44.09l.26.1c.02 0-.02-.07-.08-.16a1.2 1.2 0 0 0-.3-.24.75.75 0 0 0-.36-.1c-.16 0-.23.02-.33.1a.9.9 0 0 0-.22.25.48.48 0 0 0-.06.33 2.58 2.58 0 0 0 .28.73l.06.05zm.8-1.8.21-.06a1 1 0 0 0 .33-.21c.08-.08.21-.24.28-.35a2.87 2.87 0 0 0 .37-1.04c.03-.17.03-.26 0-.26a9.93 9.93 0 0 0-.87.94c-.08.12-.2.3-.25.4a.8.8 0 0 0-.1.39c0 .1.01.19.03.19zm-2.8-.2c.37 0 .37 0 .45-.16l.14-.38a.91.91 0 0 0 .01-.46c-.02-.13-.1-.34-.17-.48-.1-.22-.14-.26-.34-.34-.18-.07-.22-.11-.23-.2l-.04-.1s-.16.1-.34.24c-.18.13-.4.31-.5.4-.09.1-.2.25-.23.32a2.04 2.04 0 0 0-.18.65c0 .08.04.14.16.23.1.06.22.13.3.16l.36.07c.13.02.4.04.6.04zm.07-.97-.08-.05c-.04-.04-.06-.13-.06-.25 0-.19 0-.19.08.05.04.13.07.24.06.25zm-.15-.6c-.01.04-.02 0-.02-.09s0-.12.02-.07v.16zm-2.26 1.05c.06 0 .17-.03.24-.06s.2-.12.26-.2.18-.23.23-.34a2.75 2.75 0 0 0 .21-.8c0-.07-.06-.04-.35.15-.19.12-.54.31-.8.42l-.57.24-.1.07c0 .01.05.08.12.15a1.8 1.8 0 0 0 .54.33l.22.04zM30.67 20l.34-.15c.17-.09.37-.18.46-.2a3.4 3.4 0 0 0 1.2-.74c.05-.08.12-.22.15-.32a.76.76 0 0 0 0-.42 9.47 9.47 0 0 0-.94-1.86c-.14-.19-.34-.44-.46-.57s-.27-.25-.34-.3c-.1-.06-.2-.07-.45-.07-.3 0-.34 0-.5.12-.11.07-.28.22-.39.34-.2.22-.2.22-.22.06-.03-.17-.03-.17-.17-.07-.09.05-.22.18-.3.29a3.35 3.35 0 0 0-.49.97 1.45 1.45 0 0 0-.03.72c.03.09.06.04.27-.4l.27-.56c.02-.04 0 .07 0 .22-.01.16-.05.4-.07.54a277.23 277.23 0 0 1-.25 1.35c-.02.24-.02.24.22.27.21.02.3.06.58.24l.38.27a4.03 4.03 0 0 0 .73.27zm2.69-.55a2.9 2.9 0 0 0 .66-.64c.04-.07.07-.14.06-.15a1.1 1.1 0 0 0-.59.25.84.84 0 0 0-.22.32l-.06.24c0 .04.04.03.15-.02zm.12-1.13c.16 0 .27-.02.35-.07.07-.04.16-.12.2-.16a.39.39 0 0 0 .12-.2.74.74 0 0 0 0-.23.89.89 0 0 0-.37-.54.99.99 0 0 0-.28-.12.83.83 0 0 0-.28-.01.24.24 0 0 0-.19.13c-.03.06-.06.19-.08.28s0 .3.02.44c.03.21.06.28.16.37.1.1.16.11.35.11zm1.04-1.6a.92.92 0 0 0 .21-.12.9.9 0 0 0 .2-.22c.05-.08.08-.15.07-.16a2.97 2.97 0 0 0-.23-.13c-.21-.12-.21-.12-.07-.16.08-.03.15-.07.15-.1 0-.02-.08-.03-.23-.02-.17.02-.24.04-.3.11a.6.6 0 0 0-.1.2c-.01.05.02.2.09.37.1.26.1.27.2.23zm4.02-.16.14-.05c.06-.03.14-.1.17-.14s.09-.16.1-.27a.52.52 0 0 0-.04-.32.94.94 0 0 0-.23-.22 1.4 1.4 0 0 0-.16-.11 5.8 5.8 0 0 0 .02 1.11zm-5.8-.04c.14 0 .24-.02.33-.08a.43.43 0 0 0 .18-.2c.02-.08.05-.23.06-.35.02-.22.02-.22-.04-.1a.27.27 0 0 1-.19.15l-.2.02c-.07 0-.06-.01.04-.06a.41.41 0 0 0 .13-.07l-.25-.2-.34-.23a.3.3 0 0 0-.2 0 .83.83 0 0 0-.21.16.3.3 0 0 0-.12.27c0 .08.03.22.07.3.04.07.14.18.23.24s.2.12.24.13l.28.02zm2.72-.36c.03 0 .11-.04.19-.08l.44-.23c.25-.11.36-.14.69-.15.33-.02.42-.01.66.07l.58.22c.18.07.32.13.34.12a.87.87 0 0 0-.11-.28 2.19 2.19 0 0 0-.33-.45 2 2 0 0 0-.42-.32c-.2-.1-.29-.11-.62-.13-.37-.01-.41 0-.62.1-.12.06-.3.18-.38.27s-.2.25-.26.36-.13.27-.15.35c-.05.12-.05.15-.01.15zm3.63 4.72c-.01 0 .01-.04.05-.08a.32.32 0 0 1 .1-.08l-.06.08a.32.32 0 0 1-.09.08zm3.3-.97c-.02.01-.03-.01-.03-.05 0-.05.01-.06.03-.03v.08zm-4.46-5.36c-.06.02-.09.01-.07-.02.02-.02-.06-.05-.2-.07-.23-.03-.23-.03.02-.06.15-.01.3 0 .34.02.04.02.06.05.04.07a.43.43 0 0 1-.13.06zm-1.38-.05c-.1.02-.2 0-.26-.03-.1-.06-.07-.06.3-.06.3 0 .36.01.26.04l-.3.05z" fill="#f5c244"/><path d="M33.6 25.44c-.05 0-.05-.04.04-.34.1-.34.1-.34.3-.4.12-.03.26-.09.33-.13.07-.04.24-.21.38-.37l.28-.3c.02-.01.06.02.08.08.04.09.03.11-.13.26-.1.1-.29.3-.42.47a8.33 8.33 0 0 1-.39.5.5.5 0 0 1-.26.2l-.2.03zm8.78-5.4c-.01.01-.02-.01-.02-.05 0-.05.01-.06.03-.03v.08z" fill="#eec349"/><path d="M29.2 25.23c-.1 0-.12 0-.07-.01h.16l-.1.01zm1.4-1.1c-.09 0-.11-.04-.19-.27a28 28 0 0 0-.38-1l-.3-.77c0-.02.1-.06.21-.08.12-.03.26-.05.33-.05.09 0 .16.04.24.14a11.2 11.2 0 0 1 .86 1.5 1.5 1.5 0 0 1-.5.44.8.8 0 0 1-.27.09zm3.64-7.86c-.02.02-.02 0-.02-.07s0-.1.02-.05v.12zm-5.36-.46c-.01 0-.02-.01-.02-.06 0-.04.01-.05.02-.02v.08zm7.37-1.4c-.06 0-.08 0-.05-.02a.15.15 0 0 1 .1 0c.02.01 0 .02-.05.02zm1.51 0c-.05 0-.07 0-.05-.02a.15.15 0 0 1 .1 0c.03.01.01.02-.05.02z" fill="#f5c242"/><path d="M41.43 16.83c-.01.02-.03 0-.05-.04-.02-.06-.01-.07.02-.03.03.03.04.06.03.07zm-18.8-3.21v-.02c0-.02.03-.04.06-.07.07-.05.07-.05.02.02l-.07.07z" fill="#a7a7a7"/><path d="M27.36 18.2a.93.93 0 0 1-.14-.23A2.2 2.2 0 0 1 27 16.7c.02-.05.05-.08.07-.07.03 0 .04.11.03.3 0 .24.01.36.14.77.08.26.13.49.12.5z" fill="#e69478"/><path d="M33.63 28.96c-.01 0-.02 0-.02-.02l.07-.07c.06-.05.06-.04.02.02l-.07.07zm-5.28-3.76c-.04 0-.05-.01-.02-.02.03-.02.06-.01.08 0 0 .01-.01.02-.06.02zm6.77-.2c-.01.03-.02 0-.02-.08 0-.07 0-.1.02-.07V25zm.47.04-.07-.07c-.05-.06-.05-.06.02-.01l.07.07-.02.01zm3.39-4.03c-.01 0-.02 0-.02-.02s.03-.04.07-.07c.07-.05.07-.04.02.02l-.07.07zm.93-.16-.07-.07c-.05-.06-.05-.07.01-.02l.07.07-.01.02zm-11.73-.16.06-.08a.32.32 0 0 1 .09-.08c.01 0-.01.04-.05.08a.32.32 0 0 1-.1.08zm11.57 0-.13-.12c-.06-.06-.13-.1-.15-.1-.02.02-.03.01 0-.02.01-.03.06-.01.16.08l.13.15h-.01zm-2.86-3.13c-.1 0-.14 0-.1-.02h.19c.05 0 0 .02-.1.02z" fill="#f1bc41"/><path d="M34.08 28.7c-.01.05-.02 0-.02-.08 0-.09 0-.12.02-.07v.16zm1.87-6.2c0 .02-.02 0-.01-.07 0-.07 0-.1.02-.05v.12z" fill="#f0ba3d"/><path d="m32.54 27.26-.2-.06a1.17 1.17 0 0 1-.27-.2c-.1-.1-.1-.12-.04-.14a.86.86 0 0 1 .33 0c.14 0 .27.02.28.04.01.01 0 .1-.02.18a.5.5 0 0 1-.08.18zm1.66-7.32c-.02.03-.02 0-.02-.05s0-.08.02-.05v.1zm-.04-.36c-.02.03-.02 0-.02-.07 0-.06 0-.09.02-.05v.12zm2.33-5.17c-.1 0-.14-.01-.1-.02h.19c.05 0 0 .02-.1.02zm1.13 0c-.04 0-.05 0-.02-.02.03-.01.06-.01.07 0 .02.02 0 .03-.05.02z" fill="#f6c32b"/><path d="M31.44 28.75c-.01.04-.02 0-.02-.07 0-.08.01-.1.02-.07.01.04.01.1 0 .14zm-.3-4.86c-.01 0 .02-.05.07-.1l.12-.1-.08.1c-.05.06-.1.1-.11.1zm11.24-3.71c0 .03-.02 0-.02-.05s.01-.08.02-.05a.1.1 0 0 1 0 .1z" fill="#e9b942"/><path d="M34.91 23.5c-.09.11-.09.11-.21-.13a2.12 2.12 0 0 1-.13-.26c0-.01.02-.02.05-.02a.7.7 0 0 1 .22.12c.1.07.17.13.17.15l-.1.14zm-8.16-8.28c-.05 0-.1-.02-.1-.04-.02-.02-.02-.05 0-.06a.9.9 0 0 1 .16-.04c.07-.02.13-.01.13 0 0 .02-.02.06-.05.09a.22.22 0 0 1-.14.05z" fill="#d29277"/><path d="M29.6 31.51c-.05 0-.06 0-.03-.02.03-.01.06-.01.07 0 .02.01 0 .02-.05.02zm1.84-2.58c-.01.03-.02 0-.02-.05s0-.08.02-.05v.1zm-3.32-3.74c-.1 0-.12 0-.07-.02h.16c.04.02 0 .02-.1.02zm-1-.04c-.11 0-.15 0-.1-.02h.2c.06.01 0 .02-.1.02zm2.58-9.25s.01-.04.05-.08a.32.32 0 0 1 .1-.08l-.06.08a.32.32 0 0 1-.09.08zm7.2-.21c-.06 0-.08-.01-.04-.02h.12c.02.01 0 .02-.07.02zm-3-.32c-.04 0-.05 0-.02-.02h.08c.01.01-.01.02-.05.02zm1.8-.64c-.04 0-.05 0-.02-.02h.08c0 .02-.01.03-.06.02zm-2.94-1.13c0 .01-.03-.01-.05-.05-.02-.06-.01-.06.03-.02.02.02.04.06.02.07z" fill="#ebb43b"/><path d="M29.73 24.63c-.07 0-.1 0-.07-.01.04-.01.1-.01.14 0 .04 0 .01.01-.07.01zm-.37-6.07c-.01.01-.02 0-.02-.05s.01-.06.02-.03v.08zm8.1-7.74a23.42 23.42 0 0 1-.83-.18c-.42-.1-.42-.1-.36-.22.05-.11.05-.11.29-.06l.27.06c.02 0 0 .02-.02.04-.05.03-.05.04 0 .06a13.25 13.25 0 0 0 .78.22v.04c-.02.02-.08.04-.14.04z" fill="#d0a466"/><path d="m34.2 20.23-.11-.05c-.07-.04-.13-.14-.2-.36l-.1-.36c0-.02.06-.1.14-.15.07-.05.15-.09.16-.07a4.3 4.3 0 0 1 .11.99zm2.9-5.83c-.26 0-.36 0-.22-.01a4.88 4.88 0 0 1 .23.01z" fill="#fac314"/><path d="M30.23 32c-.05-.01-.06-.02-.02-.03.03-.01.06-.01.07 0 .02.01 0 .02-.05.02zm.34-.01c-.05 0-.07-.01-.05-.02h.1c.02 0 0 .02-.05.02z" fill="#b4a676"/><path d="m34.35 14.9-.23-.1c-.16-.09-.19-.12-.17-.2l.08-.37c.03-.2.04-.35.02-.47-.02-.1-.1-.3-.16-.43-.11-.25-.11-.25.1-.26.17-.01.28.01.58.14.21.1.48.19.6.22.12.04.42.08.66.1.24.03.53.08.64.11.15.04.3.13.48.28.2.18.33.25.59.33.32.1.32.1-.55.12-.87 0-.87 0-1.08-.15-.11-.08-.27-.2-.36-.24a.72.72 0 0 0-.25-.08.7.7 0 0 0-.44.2c-.05.06-.13.2-.17.34s-.13.28-.19.35c-.06.06-.13.1-.15.1z" fill="#fac708"/><path d="M41.76 18.45c-.14 0-.14 0-.02-.08.07-.04.2-.1.3-.13.1-.04.25-.07.33-.08.14-.02.15-.02.13.06a.62.62 0 0 1-.04.1l-.29.07a3.1 3.1 0 0 1-.41.06zm.2-2.14c-.06.01-.08 0-.05-.02a.1.1 0 0 1 .1-.03c.02.01 0 .03-.05.05zM25.41 9.26l-.1-.09c-.07-.09-.07-.09.02-.01l.09.09-.01.01zm6.15-3.72c-.02.01-.03-.01-.02-.05 0-.05 0-.06.02-.03v.08z" fill="#979796"/><path d="M32.87 26.55c0 .01-.02 0-.02-.05s.01-.06.03-.03v.08zm1.62-5.27c-.06 0-.08 0-.05-.02a.15.15 0 0 1 .1 0c.03.01 0 .02-.05.02zm-5.41-4.08c-.01.02-.02 0-.02-.05s.01-.06.02-.02c.01.03.01.06 0 .07zm9.62-.4c-.06 0-.09 0-.05-.01h.12c.03 0 0 .02-.07.02zm-.32-1.83c-.06 0-.08-.01-.05-.02h.12c.03.01 0 .02-.07.02zm-2.03-.2c-.07 0-.1-.01-.05-.02h.12c.02.01 0 .02-.07.02z" fill="#e5a836"/><path d="m32.84 21.85-.07-.07c-.05-.07-.05-.07.01-.02l.07.07-.01.02zm9.54-1.53c-.01.01-.02-.01-.02-.05 0-.05.01-.06.03-.03v.08z" fill="#d4ab44"/><path d="M32.23 26.83c-.06 0-.09 0-.05-.02s.1 0 .12 0c.03.02 0 .02-.07.02zm4.1-2.98c-.02 0-.05-.02-.06-.04-.02-.03 0-.03.03-.02.04.01.07.03.07.04l-.04.02zm-.7-.32c-.02 0-.02-.01-.02-.02l.07-.07c.06-.05.06-.05.01.02l-.07.07zm1.6-1.26c-.04 0-.05-.01-.04-.03.01-.02.04-.02.06-.01l.03.03-.05.01zm-4-2.38-.02-.01.07-.07c.06-.05.06-.05.02.01l-.07.07zm-.52-3.88c-.05 0-.06 0-.03-.02h.08c.01.01-.01.02-.05.02zm-.7-.35.06-.08a.32.32 0 0 1 .1-.08l-.06.08a.32.32 0 0 1-.1.08z" fill="#e3a926"/><path d="M36.34 19.13c-.04 0-.05-.01-.02-.03h.08c0 .02-.01.03-.06.03zm1.13-.2-.09-.09c-.07-.09-.07-.09.02-.01l.08.09v.01z" fill="#d6a735"/><path d="M27.8 15.73c-.05 0-.06 0-.03-.02h.08c.01.02-.01.02-.06.02zm.18 0c-.06 0-.08 0-.05-.02a.15.15 0 0 1 .1 0c.02.01 0 .02-.05.02z" fill="#e29a35"/><path d="m30.28 21.2-.35-.03c-.22-.02-.22-.02.07-.11.15-.05.3-.1.32-.12.03-.02.1-.13.15-.25.1-.22.1-.22.08 0-.01.11-.05.28-.08.36-.06.14-.08.16-.19.15zm-3.16-4.36c-.01.02-.02 0-.02-.05s.01-.05.03-.02v.07z" fill="#d27a64"/><path d="M29.36 18.7c0 .03-.02 0-.02-.05s.01-.08.02-.05v.1zm0-.52c0 .03-.02 0-.02-.05s.01-.07.02-.05v.1zm-2.56-2.93c-.05 0-.06 0-.03-.02h.08c.01.02-.01.03-.05.02zm10.66-4.4c-.04 0-.05 0-.02-.02h.07c.02.02 0 .03-.05.03z" fill="#ce924b"/><path d="m32.7 16.13-.26-.04a.6.6 0 0 1-.3-.22c-.14-.18-.14-.18 0-.32.1-.09.19-.13.24-.13.07.01.1.04.09.12 0 .05-.01.14-.03.2-.02.1 0 .12.1.19.1.06.18.07.37.06.16-.02.23 0 .2.02a.83.83 0 0 1-.42.13zm2.57-2.2c-.07 0-.09 0-.05-.02h.12c.03.01 0 .02-.07.02zm1.68 0s-.05-.03-.09-.08c-.07-.1-.07-.1.02-.01l.09.08-.02.02zm-2.98-.88c-.06 0-.08 0-.05-.02a.15.15 0 0 1 .1 0c.03.01 0 .02-.05.02z" fill="#e5aa17"/><path d="m35.54 17.01-.01-.01.07-.07c.06-.05.06-.05.01.01l-.07.07zm-8.77-.27c-.02.03-.03 0-.03-.05s.01-.07.03-.05v.1zm5.19-.85c-.01.03-.02 0-.02-.07 0-.08.01-.11.02-.07.01.03.01.1 0 .14z" fill="#da9a32"/><path d="M32.88 26.33c-.01.03-.02 0-.02-.05s0-.07.02-.05v.1zm1.19-5.04c-.05 0-.06-.02-.03-.03h.08c.01.02-.01.03-.05.03zm.24 0c-.05 0-.06-.02-.03-.03h.08c.01.02-.01.03-.05.03zm-1.47-2.83c-.01.03-.02 0-.02-.05s0-.07.02-.05v.1zm-1.33-4.09c-.05 0-.06 0-.03-.02h.08c.01.02 0 .03-.05.02z" fill="#d9962b"/><path d="M34.7 24.44h-.01a1 1 0 0 1 .13-.14c.13-.12.13-.12.01.01a1 1 0 0 1-.13.13z" fill="#afb039"/><path d="m32.08 27.04-.1-.09c-.07-.09-.07-.09.02-.01l.1.09-.02.01zm4.53-4.92c-.06 0-.08 0-.05-.02a.15.15 0 0 1 .1 0c.02.01 0 .02-.05.02zm-4.5-6.26-.06-.07c-.05-.07-.05-.07.01-.02l.07.07-.01.02z" fill="#dca218"/><path d="M41.43 17.07s-.08-.03-.16-.09c-.1-.07-.14-.1-.1-.13l.14-.05c.07-.03.09-.01.11.11.02.08.02.15.01.16zm.43-1.9s-.04-.02-.07-.06c-.05-.07-.04-.07.02-.02l.07.07c0 .01 0 .02-.02.02zM25.52 9.39l-.07-.07c-.05-.06-.04-.06.02-.01l.07.07-.02.01zm5.24-3.51a1 1 0 0 1-.13-.13c-.12-.13-.12-.13.01-.01a1 1 0 0 1 .13.13h-.01zm1.2-1.09c-.02.01-.03-.01-.03-.05 0-.05.02-.06.03-.03v.08zm.83-.84c0 .01-.02-.01-.02-.05 0-.05.01-.06.03-.03v.08z" fill="#878786"/><path d="m28.2 31.16-.07-.07c-.05-.07-.05-.07.02-.02l.07.07-.02.02zm9.11-12.39-.07-.07c-.05-.06-.05-.06.02-.01l.06.07-.01.01z" fill="#c69935"/><path d="M29.97 24.64c-.05 0-.07-.01-.05-.02a.15.15 0 0 1 .1 0c.03 0 0 .02-.05.02z" fill="#b5904d"/><path d="M30.07 21.2c-.05 0-.05 0-.02-.02.03-.01.06 0 .07 0 .02.02 0 .03-.05.03zm7.98-2.79a.87.87 0 0 1-.17-.12 1.8 1.8 0 0 0-.28-.2c-.13-.06-.24-.08-.68-.08-.53 0-.53 0-.23-.12a1.13 1.13 0 0 1 .94-.04 2 2 0 0 1 .37.23l.2.16-.06.1c-.04.04-.08.07-.1.07zm-10.93-1.2c-.01 0-.02-.02-.02-.06 0-.05.01-.06.03-.02v.07zm0-.18-.01-.08c0-.06 0-.08.02-.04v.12z" fill="#c7734e"/><path d="m33.46 30.72-.01-.02a1 1 0 0 1 .13-.13c.13-.11.13-.11.01.02a1 1 0 0 1-.13.13zm-2.38-5.23c-.01.03-.02 0-.02-.05s0-.07.02-.05v.1zm-.08-.44c-.01.03-.02 0-.02-.05s0-.07.02-.05v.1z" fill="#908671"/><path d="M31.92 28.99c-.02.01-.03-.01-.02-.05 0-.05 0-.06.02-.03V29zm.96-2.8c-.02.01-.03 0-.03-.05s.02-.06.03-.03v.08zm1.1.01-.01-.01.07-.07c.06-.05.06-.05.01.01l-.07.07zm.2-4.91c-.04 0-.05-.02-.02-.03h.08c.01.02-.01.03-.05.03zm-5.63-.92-.01-.02.07-.07c.06-.04.06-.04.01.02l-.07.07zm8.24-.49c-.01.01-.02-.01-.02-.05 0-.05.01-.06.02-.03v.08zm-3.9-.45c-.02.01-.04 0-.06-.05-.02-.05-.01-.06.03-.02.02.03.04.06.02.07zm-4.53-3.1-.01-.07c0-.08 0-.11.01-.07v.13zm1.03-1.07-.01-.02.07-.07c.06-.05.06-.05.01.02l-.07.07z" fill="#d38925"/><path d="M31.93 27.8a.19.19 0 0 1-.13-.07c-.05-.06-.05-.12-.03-.32.02-.14.06-.3.08-.37l.07-.12.25.18c.13.1.3.19.38.2.14.03.14.03.02.13l-.34.23a1 1 0 0 1-.3.14zm4.21-5.75-.01-.02.07-.07c.06-.05.06-.05.01.02l-.07.07z" fill="#d69712"/><path d="M39.01 20.93c-.01 0 .01-.04.05-.08a.32.32 0 0 1 .1-.08l-.06.08a.32.32 0 0 1-.09.08zm.98-.04a1 1 0 0 1-.13-.13c-.12-.13-.12-.13.01-.01a1 1 0 0 1 .13.13l-.01.01zm-.28-.28a.7.7 0 0 1-.11-.11c-.1-.11-.1-.11.01-.01l.11.1-.01.02zm-11.32-.08-.01-.01.07-.07c.06-.05.06-.05.01.01l-.07.07zm1.24-4.51-.01-.02.07-.07c.06-.05.06-.05.01.02l-.07.07zm.36-.36-.01-.02.06-.07c.07-.05.07-.05.02.02l-.07.07zm-.72-.28-.01-.02.07-.07c.06-.05.06-.05.01.02l-.07.07z" fill="#cb8524"/><path d="m36 24.04-.16-.05a.78.78 0 0 1-.23-.11.2.2 0 0 1-.08-.15c0-.04.06-.14.13-.22a.55.55 0 0 1 .25-.17c.08-.01.15 0 .22.06a.5.5 0 0 1 .15.25c.04.17.04.17-.05.07a.52.52 0 0 0-.12-.11s-.04.1-.06.21l-.06.22z" fill="#d19808"/><path d="m33.9 20.89-.24-.04a1.54 1.54 0 0 1-.6-.38c-.1-.14-.1-.14.02-.34a1.97 1.97 0 0 1 .64-.64c.03 0 .09.14.14.3.09.3.1.31.33.47.24.17.24.17-.05.18a.9.9 0 0 1-.43-.05c-.11-.06-.14-.1-.16-.23l-.05-.29c-.02-.12-.02-.12-.07.04-.03.09-.06.22-.06.29 0 .09.03.15.1.2.06.05.24.13.4.17l.3.1c0 .01-.03.07-.08.12-.06.06-.14.1-.2.1zm.38-4.62c-.02.02-.02 0-.02-.07s0-.1.02-.05v.12z" fill="#d1940b"/><path d="M31.76 27.59c-.02.01-.03-.01-.02-.05 0-.05 0-.06.02-.03v.08zm4.6-4.36c-.1.02-.11 0-.19-.17-.05-.1-.11-.27-.14-.36s-.06-.22-.06-.28a.5.5 0 0 1 .04-.19c.03-.04.1-.14.17-.21.07-.07.18-.14.25-.16s.2 0 .28.02c.09.03.22.09.3.14l.19.19c.05.08.05.08-.03.04a1.99 1.99 0 0 0-.58-.16.4.4 0 0 0-.17.03c-.04.02-.03.05.04.11.05.05.14.11.2.15.07.03.2.07.28.08.13.03.14.04.12.14a1.4 1.4 0 0 1-.1.25c-.04.1-.12.17-.28.24l-.32.14zm-2.3-2.38c-.01 0 .01-.04.05-.08a.32.32 0 0 1 .1-.08l-.06.08a.32.32 0 0 1-.1.08zm.27-.37c-.1 0-.14 0-.1-.02h.19c.05 0 0 .02-.1.02zm1.45-6.94c-.04 0-.05-.02-.02-.03h.08c.01.02-.01.03-.06.03z" fill="#d08e10"/><path d="M41.82 19.56c0 .01-.02-.01-.02-.05 0-.05.01-.06.03-.03v.08z" fill="#b18934"/><path d="m35.94 15.3-.01-.02.07-.07c.06-.05.06-.05.01.02l-.07.07zm.64-.33c-.04 0-.05 0-.02-.02h.08c0 .02-.01.02-.06.02z" fill="#90a733"/><path d="M34.45 16.7a1.04 1.04 0 0 1-.16-.52c0-.1.03-.18.1-.24a.31.31 0 0 1 .22-.08c.14 0 .14 0 .03.05-.06.02-.1.06-.1.08 0 .03.1.1.21.15.1.06.2.14.18.16 0 .03-.06.1-.11.17s-.16.14-.22.17l-.15.05z" fill="#ce9308"/><path d="m33.72 15.3-.1-.1c-.07-.08-.07-.08.02 0 .05.03.09.07.09.08l-.01.02zm3.31-1.32-.07-.07c-.05-.07-.05-.07.02-.02l.07.07-.02.02z" fill="#cb821b"/><path d="M30.44 25.13c0 .07-.01.02-.01-.13s0-.2.01-.13v.26zm2.83-1.93c-.05 0-.06 0-.03-.02h.08c.01.01-.01.02-.05.02z" fill="#887a64"/><path d="M41.03 13.92c-.1.23-.1.23-.12-.18-.01-.3-.04-.48-.1-.65a1.71 1.71 0 0 0-.38-.53 4.34 4.34 0 0 0-1.4-.98l-.79-.35-.55-.25c-.09-.05-.17-.1-.17-.12s.04-.04.08-.06c.05-.01.24.03.45.1a10.08 10.08 0 0 1 2.25 1.14 2.2 2.2 0 0 1 .72.8c.1.2.12.28.12.54 0 .23-.03.35-.1.54z" fill="#c3762d"/><path d="M32.65 30c-.05 0-.08-.02-.05-.03a.15.15 0 0 1 .1 0c.03.01 0 .02-.05.02zm.9-.92c-.01 0-.02 0-.02-.02l.07-.07c.06-.05.07-.04.02.02l-.07.07zm-3-7-.06-.06c-.05-.07-.05-.07.01-.02l.07.07-.01.02zm-1.79-2.88c-.01.01-.02-.01-.02-.05 0-.05.01-.06.02-.03.02.03.01.07 0 .08zm3.75-.15-.02-.01.07-.07c.06-.05.07-.05.02.01l-.07.07zm2.17-.85c-.01.04-.02.01-.02-.07 0-.07 0-.1.02-.07v.14zm1.54-4.62c-.04 0-.05-.02-.02-.03h.08c0 .02-.01.03-.06.03z" fill="#c97b1b"/><path d="m42.39 19.69-.26-.38a1.41 1.41 0 0 1-.25-.5c0-.1.02-.12.15-.15l.26-.06c.1-.03.1-.03.1.53v.56zm-3.43-2.03c-.05.12-.07.14-.12.11a10.3 10.3 0 0 1-.67-.29c-.21-.1-.21-.1-.05-.2.16-.11.16-.11.42-.03.15.05.31.13.37.18.1.08.1.1.05.23z" fill="#ba792b"/><path d="M29.77 25.5a9.45 9.45 0 0 1-2.58-.28c-.14-.05-.07-.05.63-.03.43.02 1.05.03 1.38.03.44 0 .62-.01.71-.06.09-.04.14-.11.2-.29.05-.12.1-.23.13-.23.02 0 .06.14.1.3.02.17.03.32.01.34a.65.65 0 0 1-.17.12c-.09.05-.27.09-.41.1z" fill="#be7825"/><path d="m42.48 16.45-.3-.07c-.28-.07-.28-.07-.1-.1.11-.02.2-.04.2-.06a3.47 3.47 0 0 0-.2-.7 2.07 2.07 0 0 0-.22-.36c-.14-.19-.14-.19-.02-.18.12.02.14.04.24.3a39.07 39.07 0 0 1 .4 1.17zm-.72-.2-.3-.2a3.16 3.16 0 0 0-.5-.31c-.18-.08-.2-.1-.13-.12.05 0 .18 0 .3.03l.24.05c.03 0 .03-.08.02-.21-.03-.21-.03-.21.03-.07l.21.49c.1.19.15.34.13.34zm-1.26-.2h-.02l.07-.2c.04-.1.08-.15.1-.15.02 0 0 .07-.05.17l-.1.18zm2.37-.04c0 .03-.06-.05-.1-.2a2.15 2.15 0 0 0-.2-.42c-.07-.1-.08-.13-.03-.1.04.04.13.2.2.36.08.16.14.32.13.36zm-1.52-.85c-.01.12-.01.12-.04 0-.02-.06-.02-.12-.01-.14a.03.03 0 0 1 .04 0c.02.02.02.08.01.14zm1.09.05a.84.84 0 0 1-.14-.08c-.07-.04-.1-.07-.08-.07.03 0 .1.03.14.07l.08.08zm-20.36-1.03-.01-.02.07-.07c.06-.05.06-.05.01.02l-.07.07zM29 7.78s-.05-.03-.09-.08c-.07-.1-.07-.1.02-.02.05.04.09.08.09.1H29zm2.56-2.42c-.01.03-.02 0-.02-.05 0-.06 0-.08.02-.05v.1zm0-.38c-.02.01-.03-.01-.02-.05 0-.05 0-.06.02-.03v.08z" fill="#747473"/><path d="M39.07 17.13a.83.83 0 0 1-.27-.06c-.12-.06-.2-.06-.56-.02-.4.05-.44.04-.84-.05-.23-.06-.52-.1-.65-.1-.23 0-.24-.01-.14-.07l.3-.12c.18-.05.25-.05.93.03.41.04.82.07.91.06a.7.7 0 0 0 .3-.12l.16-.1.05.17a.6.6 0 0 1-.02.28c-.03.08-.06.1-.17.1zm.28-1.4c-.1.1-.1.1-.12-.04a2.51 2.51 0 0 0-.15-.4.87.87 0 0 0-.2-.3 3.45 3.45 0 0 0-.46-.05 2.45 2.45 0 0 1-.63-.12c-.24-.1-.24-.1-.12-.14l.3-.1c.1-.03.2-.07.2-.09s-.07-.06-.16-.1c-.08-.05-.2-.1-.27-.1s-.21-.07-.34-.12c-.13-.05-.3-.16-.44-.29a.88.88 0 0 0-.5-.27c-.15-.04-.46-.09-.7-.11s-.48-.06-.57-.09-.32-.11-.52-.2a1.78 1.78 0 0 0-.94-.18l.08.21a.7.7 0 0 1 .06.44c-.01.14-.04.3-.06.36l-.12.51c-.08.33-.08.4-.04.43a.6.6 0 0 0 .2.06c.08.02.2 0 .34-.04a.97.97 0 0 0 .32-.18c.07-.06.16-.23.21-.37.05-.15.14-.31.2-.37a.48.48 0 0 1 .3-.13.6.6 0 0 1 .3.04l.37.25.53.35c.29.15.29.15-.5.12-.75-.02-.78-.02-.95.07-.1.05-.28.16-.4.25a1.69 1.69 0 0 1-.68.31c-.04 0-.13-.05-.2-.11a2.92 2.92 0 0 1-.35-.42 2.48 2.48 0 0 0-.24-.31l-.33.16c-.17.09-.33.16-.35.16s.12-.14.3-.3c.24-.22.34-.35.37-.45l.04-.2c0-.03-.06-.05-.18-.05-.18 0-.18 0-.18-.14 0-.11-.03-.17-.15-.27-.14-.14-.14-.14.13-.27l.47-.2c.1-.05.29-.08.41-.08s.48.05.79.12l1.09.25a20.1 20.1 0 0 1 1.83.6 6.3 6.3 0 0 1 1.56.8c.16.12.33.28.38.36.05.08.1.25.13.39.04.23.04.25-.06.34z" fill="#c57a19"/><path d="M32.75 29.95c-.3.01-.33 0-.44-.08a1.14 1.14 0 0 1-.3-.43l.24.08c.16.06.27.08.4.06.08-.01.25-.07.36-.12a3.13 3.13 0 0 0 .82-.72c.03-.08.08-.24.1-.36.04-.18.06-.21.09-.16.02.04.03.22.02.41-.01.24-.04.4-.1.54a1.43 1.43 0 0 1-.65.64.98.98 0 0 1-.54.14zm1.4-12.1c-.01 0-.02-.02-.02-.06 0-.05.01-.06.03-.02v.07z" fill="#c9721c"/><path d="M29.58 31.48a.78.78 0 0 1-.27-.09c-.09-.04-.31-.2-.5-.36a17 17 0 0 1-.38-.33c-.05-.04.08-.05.6-.05.65 0 .65 0 .97-.15.27-.14.35-.2.57-.49.15-.18.35-.48.46-.68.19-.35.19-.35.16-.13a4.49 4.49 0 0 1-.3 1.08c-.08.14-.2.35-.3.46l-.39.42a.98.98 0 0 1-.37.27 1 1 0 0 1-.25.05zm.65-9.55c-.05 0-.06-.02-.02-.03.03-.01.06 0 .07 0 .02.02 0 .03-.05.03zm.38-1.28c-.02 0-.04-.02-.04-.04s.02-.03.04-.02c.03.01.04.03.04.04 0 .01-.01.02-.04.02zm-3-1.58c-.08.05-.1.05-.14.01a15.7 15.7 0 0 1-.95-2.17 22.85 22.85 0 0 1-.48-1.5c-.05-.23-.05-.23.23-.23.16 0 .34.02.42.05.13.04.14.04.21-.05.06-.07.1-.08.22-.08.14.02.14.02-.08.49-.12.26-.24.57-.26.7a2.8 2.8 0 0 0 0 .82l.03.1.07-.33c.04-.17.1-.4.16-.52s.13-.24.17-.28c.09-.07.09-.07 0 .21l-.07.3h-.06c-.04-.01-.07.01-.09.09v.47c.01.23.05.45.1.59a4.21 4.21 0 0 0 .51.85 1.48 1.48 0 0 0 .34-.53 9.97 9.97 0 0 0 .19-1.86c-.02-.43-.02-.43.1-.32.1.1.1.14.1.38 0 .15-.04.5-.11.8l-.15.72c-.01.11 0 .34.03.51.04.29.04.32-.03.41a.8.8 0 0 1-.21.2l-.25.17z" fill="#c6741c"/><path d="M30.44 25.63c0 .06-.01.01-.01-.1 0-.13 0-.18.01-.12v.22z" fill="#83765c"/><path d="M33.17 26c-.05 0-.08-.01-.05-.02a.15.15 0 0 1 .1 0c.03 0 0 .02-.05.02zm7.56-4.8a.8.8 0 0 1-.27-.04c-.07-.02-.2-.1-.28-.15a3.62 3.62 0 0 1-.4-.36c-.13-.13-.25-.24-.27-.24s-.15.13-.3.28a1.8 1.8 0 0 1-.27.27 5.3 5.3 0 0 1 .28-.78c.13-.26.13-.26.48 0 .2.16.45.34.58.42s.36.2.53.25c.17.05.3.11.3.13.01.01-.04.06-.11.11a.67.67 0 0 1-.27.1zm-11.8-1.99c-.17 0-.17 0-.14-.27.01-.15.09-.58.17-.95.07-.37.14-.8.14-.94 0-.22.02-.3.16-.56.09-.16.17-.33.18-.37s.05-.06.07-.06c.03.01.18-.12.34-.28s.3-.28.31-.27c.01 0-.09.18-.22.38s-.27.47-.32.61c-.05.14-.08.3-.08.38s-.05.37-.11.66c-.09.46-.1.6-.09 1.04.02.5.02.5-.11.57a.83.83 0 0 1-.3.06zm3.23-1.6c-.01.03-.02 0-.02-.08 0-.07 0-.1.02-.07v.14zm-5.06-2.52c-.1 0-.14-.01-.1-.02a.57.57 0 0 1 .19 0c.05 0 0 .02-.1.02z" fill="#c1761c"/><path d="M37.58 12.84c-.1 0-.4-.02-.65-.06l-.76-.15a8.46 8.46 0 0 1-1.48-.53l.29-.24c.15-.12.46-.4.69-.62a3.12 3.12 0 0 0 .55-.66l.68.16c.44.11.69.2.82.28.1.06.25.2.33.3.09.1.28.26.42.37l.29.2-.02.17a.77.77 0 0 1-.12.28c-.06.07-.27.2-.47.3-.24.12-.43.19-.57.2z" fill="#c97316"/><path d="M31.74 27.4c-.03.22-.03.22-.1.11a1.9 1.9 0 0 1-.14-.35 238.76 238.76 0 0 0-.4-1.3c.01 0 .15.02.31.07.24.07.42.09.88.09.57 0 .57 0 .55.48-.01.27-.05.54-.07.62s-.06.15-.08.17c0 .01-.04.01-.07 0-.04-.03-.03-.07.02-.2.06-.15.06-.18 0-.21a1.12 1.12 0 0 0-.6-.05c-.1.03-.15.07-.2.19a1.5 1.5 0 0 0-.1.37zm1.93-1.08c-.04 0-.23-.07-.42-.16-.34-.16-.34-.16.1-.16.4 0 .46 0 .68-.12l.25-.12-.11.18c-.07.1-.2.23-.27.28s-.19.1-.23.1zm-3.27-2.24a.5.5 0 0 1-.12-.03c-.04-.02-.13-.16-.2-.35-.07-.17-.23-.5-.35-.73a35.29 35.29 0 0 0-1.27-2.11 3.2 3.2 0 0 0-.77.81 16.72 16.72 0 0 0-.84 1.79c-.04.1-.12.2-.17.26a1 1 0 0 1-.23.17c-.15.08-.15.08-.3-.03-.07-.06-.13-.13-.13-.15a14.36 14.36 0 0 1 .69-1.16 29.4 29.4 0 0 1 1.54-1.87c.42-.44.42-.44.53-.1.05.18.15.4.2.5a1 1 0 0 0 .3.28c.16.1.24.1.47.1.22 0 .33-.02.46-.08.09-.05.2-.15.24-.22a.98.98 0 0 0 .1-.32l.06-.2.24.25a4.2 4.2 0 0 0 1.27.93l-.04.22c-.05.2-.05.2-.25.1l-.4-.24-.46-.38a1.9 1.9 0 0 0-.32-.23c-.02 0 0 .08.02.19l.15.43c.05.13.22.5.38.82.23.45.29.6.27.69-.01.06-.04.1-.05.1s-.07-.07-.12-.16a20.28 20.28 0 0 0-.65-1.15.65.65 0 0 0-.26-.27c-.12-.04-.17-.04-.41.02-.16.03-.29.08-.29.11s.08.24.17.46l.2.5a6.83 6.83 0 0 1 .34 1.05zm6.03-2.66c-.04.05-.06.07-.06.05l.2-.66c.19-.58.2-.65.22-1.1 0-.25.03-.55.06-.66l.06-.2.3.06c.15.04.3.1.32.13.04.05.04.1-.02.27a27.15 27.15 0 0 1-1.08 2.11zm2.62-2.01c-.02.11-.04.08-.07-.25a1.96 1.96 0 0 0-.13-.53 1.5 1.5 0 0 0-.25-.32 3.27 3.27 0 0 0-1.31-.74 2.1 2.1 0 0 0-.5-.03c-.2.01-.36.05-.48.11-.1.05-.29.2-.4.3-.12.13-.29.35-.38.5-.1.16-.25.38-.35.48s-.2.2-.22.2a.42.42 0 0 1-.1-.13 1.72 1.72 0 0 1-.17-.82c0-.3 0-.3.12-.19.13.1.13.1.34-.32.13-.27.28-.51.4-.64.18-.2.18-.2.15 0a.85.85 0 0 1-.1.34l-.21.42a.93.93 0 0 0-.13.3c.02 0 .13-.06.25-.16a3.32 3.32 0 0 1 .87-.54c.18-.07.32-.1.54-.1.23 0 .36.01.52.08l.42.18c.11.05.38.14.58.18l.56.14c.17.05.17.05.18.43a4.06 4.06 0 0 1-.13 1.1zm-6.75-.23c-.17.12-.17.12-.14 0a.66.66 0 0 1 .1-.2c.05-.07.07-.17.07-.35 0-.13-.04-.4-.1-.6-.05-.2-.08-.38-.07-.4a3.06 3.06 0 0 0-.36-1.27c-.04-.08-.06-.14-.05-.14l.17.24a8.84 8.84 0 0 1 .77 1.45c.05.1.1.27.1.38.02.1 0 .26-.02.34-.03.08-.1.21-.17.29s-.2.19-.3.26z" fill="#c57419"/><path d="M34.21 21.25a4.2 4.2 0 0 1-.68-.06 1.57 1.57 0 0 1-.43-.18c-.1-.07-.18-.12-.16-.12l.34.06a4 4 0 0 0 .55.06c.2 0 .27-.02.43-.12.1-.07.24-.2.31-.31.12-.18.12-.2.1-.43l-.04-.34c-.01-.06.03.02.1.16a1.17 1.17 0 0 1 .03 1c-.12.28-.12.28-.55.28zm-2.25-.52-.2-.04a.9.9 0 0 1-.29-.13l-.27-.2c-.11-.1-.11-.1.32-.28l.57-.24c.08-.03.28-.15.44-.26s.3-.2.31-.17a2.11 2.11 0 0 1-.43 1.08.69.69 0 0 1-.23.19.64.64 0 0 1-.22.05z" fill="#c57415"/><path d="M33.55 26c-.11 0-.15-.02-.09-.03h.2c.05.01 0 .02-.11.02z" fill="#ae831d"/><path d="m35.47 16.14.01-.1c.02-.06.16-.15.44-.3.22-.1.5-.23.63-.26a2 2 0 0 1 .41-.06c.1 0 .27.02.38.05.11.03.36.13.54.22.26.11.36.18.4.26.02.07.04.12.03.13l-.32-.12a8.21 8.21 0 0 0-.59-.23 1.44 1.44 0 0 0-.63-.06c-.24.01-.42.05-.6.12a4.78 4.78 0 0 0-.7.35z" fill="#b47b1c"/><path d="M33.12 22.26c-.1.02-.1.01-.13-.1-.01-.06-.02-.12-.01-.13l.61-.12.66-.1c.03 0 0 .03-.05.08a1.5 1.5 0 0 1-.3.15 4.18 4.18 0 0 1-.78.22zm1.26-1.45-.01-.02c0-.02.03-.04.07-.07.06-.04.06-.04.01.02l-.07.07zm-.3-.33c-.05 0-.07 0-.04-.02a.15.15 0 0 1 .1 0c.03.01 0 .02-.05.02z" fill="#bc7614"/><path d="M38.58 17.05c-.05 0-.06-.01-.02-.02.02-.01.06-.01.07 0 .02.01 0 .02-.05.02zm-9.56-1.41c-.1.12-.12.14-.12.08 0-.05.08-.22.2-.4a1.86 1.86 0 0 1 1.25-.93 5.54 5.54 0 0 1 1.08-.05 5.3 5.3 0 0 0-1.4.45 2.5 2.5 0 0 0-.64.45c-.13.13-.3.3-.37.4z" fill="#b67618"/><path d="M29.16 21.29s-.05-.04-.09-.1c-.07-.08-.07-.08.02 0l.09.08-.02.02zm-1.03-4.7c-.01.11-.02 0-.02-.24s0-.33.02-.2v.44zm4.5-1.97-.02-.02.07-.07c.06-.05.07-.05.02.02l-.07.07z" fill="#c26818"/><path d="m36.17 19.1.06-.09a.32.32 0 0 1 .09-.08c.01 0-.01.04-.05.08a.32.32 0 0 1-.1.08zm-4.72-4.81c-.1 0-.14-.01-.09-.02a.57.57 0 0 1 .18 0c.05 0 .01.02-.09.02z" fill="#a67625"/><path d="M36.06 15.67c-.06.02-.06.02-.02-.02.02-.03.06-.04.07-.03.01.02-.01.04-.05.05zm.95-.26c-.1 0-.14-.01-.1-.02h.19c.05 0 0 .02-.1.02zm-7.62-.51-.01-.02.07-.07c.06-.05.06-.05.01.02l-.07.07zm1.3-.57c-.05 0-.07 0-.05-.02a.15.15 0 0 1 .1 0c.03.01 0 .02-.05.02zm.52-.04c-.05 0-.07 0-.05-.02a.15.15 0 0 1 .1 0c.03.01 0 .02-.05.02z" fill="#8f8829"/><path d="M38.46 17.05c-.05 0-.06-.01-.02-.02.03-.01.06-.01.07 0 .02.01 0 .02-.05.02z" fill="#b76a17"/><path d="M28.98 30.67c-.08 0-.11-.01-.07-.02.03-.01.1-.01.14 0 .03 0 0 .02-.07.02zm.34 0c-.07 0-.1-.01-.05-.02h.12c.02.01 0 .02-.07.02zM32.95 26c-.05 0-.06-.01-.03-.02.03-.02.07-.01.08 0 .01.01-.01.02-.05.02zm-6.63-10.83c-.07 0-.09-.01-.05-.02h.12c.03.01 0 .02-.07.02z" fill="#a66a27"/><path d="M18.53 15.61c-.05 0-.06 0-.03-.02h.08c.01.02-.01.02-.05.02zm.46 0c-.06 0-.08 0-.05-.02h.1c.03.01 0 .02-.05.02zm2.52-5.72c-.17 0-.24 0-.15-.02h.3c.08.01.01.02-.15.02zm11.48-3.02c-.01 0-.02 0-.02-.02l.07-.07c.06-.05.07-.05.02.02l-.07.07zm.2-.2c-.01 0-.02 0-.02-.02l.07-.07c.06-.05.07-.05.02.02l-.07.07zM31.56 5.1c-.02.01-.03-.01-.02-.05 0-.05 0-.06.02-.03v.08z" fill="#676766"/><path d="M33.53 25.96c-.33.01-.33.01-.26-.1l.17-.27c.09-.12.12-.15.25-.15.07 0 .18-.02.23-.05s.17-.16.28-.3l.36-.45.3-.35c.08-.08.16-.13.17-.12.01.02 0 .1-.02.18a6.25 6.25 0 0 1-.7 1.31c-.07.07-.2.16-.28.2-.1.05-.27.08-.5.1z" fill="#68a527"/><path d="M29.95 21.2c-.05 0-.05 0-.02-.02.03-.01.06 0 .07 0 .02.02 0 .03-.05.03z" fill="#b94b30"/><path d="M29.09 15.3c-.2.3-.2.3-.18.06a3.04 3.04 0 0 1 .27-.91c.02-.04.07-.07.1-.07.04 0 .45-.13.91-.28.84-.28.84-.28 1.13-.07.29.2.29.2-.3.25-.33.03-.68.09-.84.13-.15.05-.35.14-.46.2l-.32.26c-.06.07-.2.26-.31.43z" fill="#698d33"/><path d="M35.83 15.75c-.18.1-.26.13-.26.09 0-.03.06-.16.15-.28s.23-.28.33-.36c.12-.1.27-.17.45-.21a.96.96 0 0 1 .53-.02c.15.02.35.09.47.14s.27.17.35.24c.08.07.18.2.23.26.05.07.09.14.08.15l-.44-.17c-.4-.18-.43-.2-.75-.19-.27 0-.4.03-.6.1-.15.06-.4.17-.54.25z" fill="#65952e"/><path d="M29.15 30.67c-.04 0-.05 0-.02-.02.03-.01.06-.01.07 0 .02.02 0 .02-.05.02zm-.73-.04c-.06 0-.08 0-.05-.02a.15.15 0 0 1 .1 0c.02.01 0 .02-.05.02zm.77-5.11c-.04 0-.05-.01-.02-.02.03-.02.06-.01.07 0 .02.01 0 .02-.05.02zm1.17-.2c-.07.06-.07.06-.02-.03.03-.04.06-.07.07-.06.01 0-.01.05-.05.08z" fill="#986629"/><path d="M29.12 30.62c-.33 0-.71 0-.84-.02-.24-.02-.24-.02-.1-.08.08-.03.38-.06.72-.07.31 0 .67-.04.77-.06s.34-.1.5-.18.3-.13.31-.12c.01.01-.06.08-.15.17-.1.08-.27.2-.4.25-.2.1-.26.1-.81.11zm2.99-4.58c-.05 0-.06-.01-.03-.02.03-.02.07-.02.08 0 .01.01 0 .02-.05.02zm.36 0c-.05 0-.06-.01-.03-.02.03-.02.07-.02.08 0 .01.01-.01.02-.05.02z" fill="#87633d"/><path d="M30.68 29.81c-.1.13-.1.13 0-.1a10 10 0 0 0 .4-1.31c.03-.22.03-.22.08-.06.04.1.05.25.04.4-.01.2-.05.3-.21.6-.1.18-.25.4-.3.47zm.55-5.97-.02-.01.07-.07c.07-.05.07-.05.02.02l-.07.06z" fill="#836141"/><path d="m38.23 11.5-.09-.09c-.08-.09-.08-.09.01-.01l.1.09-.02.01z" fill="#b85715"/><path d="M33.95 20.49c-.05 0-.06-.01-.03-.03H34c.01.02-.01.03-.05.03zm-1.8-4.2-.06-.06c-.05-.07-.05-.07.01-.02l.07.07-.01.02zm.56-.12c-.07 0-.09-.01-.05-.02h.12c.03.01 0 .02-.07.02z" fill="#b26808"/><path d="M29.5 24.6c-.06 0-.12 0-.13-.02a4.17 4.17 0 0 0-.54-.1 17.64 17.64 0 0 1-1.7-.36c-.15-.04-.27-.1-.27-.12l.09-.2c.08-.17.08-.17.12.01.04.18.04.18.3.21l.58.09.79.14c.25.04.54.07.65.07.2 0 .2 0 .17-.18a2.3 2.3 0 0 0-.19-.53l-.22-.48c-.06-.14-.06-.14.06 0 .07.07.22.32.33.55.21.4.21.4.14.6l-.08.25c0 .05-.03.07-.1.07z" fill="#6c6153"/><path d="M30.63 25.91c-.04.11-.04.11-.2-.07-.17-.18-.17-.18-.1-.38.08-.2.08-.2.08.03 0 .12.01.23.03.24s.1-.01.21-.06c.17-.08.2-.1.28-.33.04-.13.08-.3.08-.36a1.06 1.06 0 0 0-.31-.6.88.88 0 0 0-.21-.12c-.11-.05-.11-.05-.1.44v.4l-.1-.53a2.14 2.14 0 0 1-.06-.47c.01-.01.1 0 .2.02a.6.6 0 0 0 .33 0c.08-.02.24-.1.34-.18.1-.08.22-.2.26-.25l.13-.23c.03-.07.1-.16.16-.2a.95.95 0 0 0 .22-.3c.05-.12.14-.41.18-.65.05-.26.13-.51.19-.61.05-.1.12-.17.14-.17.03 0 .11.05.2.1.08.06.2.17.25.24.06.08.11.21.13.32.02.14.04.2.1.2.04.02.07.04.07.06s-.04.04-.08.04c-.07 0-.08.02-.08.29 0 .29 0 .29.4.36l.43.08a6.12 6.12 0 0 1-.07 1.46l-.16.56a2 2 0 0 1-.23.48c-.16.22-.16.22-.6.27a3.6 3.6 0 0 1-1.39-.11l-.45-.13c-.1-.03-.14-.03-.18 0a.53.53 0 0 0-.09.16zm1.69 0a1.98 1.98 0 0 0 .74-.15c.08-.04.2-.16.27-.27.08-.12.16-.35.22-.6a12 12 0 0 0 .17-.81c.05-.35.06-.46.02-.59a.45.45 0 0 0-.16-.23.6.6 0 0 0-.33-.07c-.12 0-.3.03-.4.07-.16.07-.17.07-.14 0l.07-.27c.02-.1.03-.32.02-.48a1.33 1.33 0 0 0-.11-.48c-.08-.16-.12-.2-.2-.2-.08 0-.11.03-.18.24l-.17.46a13.7 13.7 0 0 1-.53 1.18c-.04.07-.2.21-.36.32l-.36.22c-.05.03-.04.05.03.2.05.08.11.27.13.42s.03.35.02.46c-.03.2-.03.2.27.33a3.6 3.6 0 0 0 .73.24l.25.02z" fill="#716346"/><path d="m39.23 14.9-.07-.07c-.05-.07-.05-.07.01-.02l.07.07-.01.02z" fill="#95651d"/><path d="M33.35 29.24c-.01 0-.02 0-.02-.02l.07-.07c.06-.05.07-.05.02.02l-.07.07zm.4-1.37c0 .01-.02-.01-.02-.05 0-.05.01-.06.03-.03v.08zm-.93-13.45c-.01 0 .01-.04.05-.08a.32.32 0 0 1 .1-.08l-.06.08a.32.32 0 0 1-.1.08z" fill="#b94717"/><path d="M37.54 12.9c-.05 0-.05-.01-.02-.03h.07c.02.02 0 .03-.05.03zm3-.2-.06-.07c-.05-.06-.05-.06.01-.02l.07.07-.01.02zm-.27-.28-.07-.07c-.05-.06-.05-.06.01-.01l.07.07-.01.01z" fill="#a55915"/><path d="M33.4 20.24c-.02.01-.03-.01-.03-.05 0-.05.01-.06.03-.03v.08zm-.64-3.75c-.12 0-.28-.03-.37-.07a1.04 1.04 0 0 1-.29-.22c-.1-.11-.13-.18-.13-.3 0-.16 0-.16.16.01.14.15.2.19.38.22a.9.9 0 0 0 .38 0 .55.55 0 0 0 .29-.15c.06-.07.11-.1.11-.08l-.04.22a.55.55 0 0 1-.17.28c-.09.07-.16.1-.32.1z" fill="#ac6204"/><path d="M33.84 21a1.9 1.9 0 0 1-.31-.03l-.42-.08c-.23-.05-.23-.05-.2-.23 0-.1.03-.2.04-.21.01-.02.09.03.16.12.08.08.23.19.33.23.1.04.27.1.36.1.15.03.18.02.32-.1.14-.14.14-.14-.2-.24a2.33 2.33 0 0 1-.42-.17c-.07-.05-.09-.1-.09-.21 0-.08.02-.19.04-.23.02-.06.04-.03.06.13.01.12.05.24.09.27.03.03.12.08.2.1.08.02.28.04.44.04.29 0 .29 0 .29-.25a2.2 2.2 0 0 0-.12-.7h.06c.04 0 .08.1.14.37.08.32.08.4.04.5a1.36 1.36 0 0 1-.52.53.73.73 0 0 1-.29.06z" fill="#a25e08"/><path d="M33.84 24.1c-.01.02-.02 0-.02-.07s0-.1.02-.05 0 .09 0 .12zm0-.44c-.01.02-.02 0-.02-.07s0-.1.02-.05v.12zm-.23-10.8c-.05 0-.08-.02-.05-.03a.15.15 0 0 1 .1 0c.03.01 0 .02-.05.02z" fill="#885827"/><path d="M16.7 13.65c-.02.01-.03-.01-.03-.06 0-.04.02-.05.03-.02v.08zm15.8-6.3c-.01 0 .01-.04.05-.08a.32.32 0 0 1 .1-.08l-.06.08a.32.32 0 0 1-.1.08zm-6.42-1.32-.04-.04c-.01-.02 0-.04.02-.04s.04.02.04.04l-.02.04z" fill="#585856"/><path d="M28.88 25.51c-.11 0-.15 0-.1-.02h.2c.06.01 0 .02-.1.02zm-3.6-1.3-.01-.07c0-.06 0-.08.02-.04v.12z" fill="#755836"/><path d="M32.53 29.6c-.05 0-.08-.02-.05-.03a.15.15 0 0 1 .1 0c.03.01 0 .02-.05.02zm1.23-1.41c-.01.06-.02.01-.02-.11s0-.17.02-.11v.22z" fill="#b53614"/><path d="m30.22 25.68-.87-.04a15.54 15.54 0 0 1-2.5-.3c-.33-.05-.78-.13-.98-.18a1.9 1.9 0 0 1-.5-.17c-.06-.05-.16-.13-.2-.19s-.09-.2-.1-.33a2.21 2.21 0 0 1 0-.54 3.65 3.65 0 0 1 .47-1.39 20.02 20.02 0 0 1 .96-1.61c.23-.36.3-.44.31-.37 0 .05-.04.2-.1.34s-.25.48-.41.77l-.54 1c-.14.26-.3.63-.36.82-.07.23-.1.43-.11.63 0 .2.02.34.06.43.04.07.12.17.2.23s.23.14.37.18.42.11.62.14a4.95 4.95 0 0 1 .86.22 10.94 10.94 0 0 0 2.04.2c.55 0 .6 0 .76-.1.17-.09.17-.09.1.09-.03.1-.07.17-.08.17zm1.45-2.43-.02-.02.07-.07c.07-.05.07-.05.02.02l-.07.07zm-4.56-3.12-.01-.02c0-.02.03-.03.07-.07.06-.04.06-.04.01.02l-.07.07zm4.45-2.03c-.01.03-.02 0-.02-.05s0-.07.02-.05v.1zm7.9-2.26c0 .02-.02 0-.01-.05 0-.04 0-.05.02-.02.01.03.01.06 0 .07z" fill="#695138"/><path d="M41.86 18.88c-.01.01-.02 0-.02-.05s.01-.06.03-.03v.08z" fill="#775328"/><path d="M33.04 5.8c-.01.03-.02 0-.02-.07s0-.09.02-.05 0 .1 0 .12zM30.05.34c-.12 0-.17 0-.1-.01h.21c.06 0 .01.01-.1.01z" fill="#53514b"/><path d="M29.73 21.48c-.05 0-.07 0-.05-.02h.1c.02 0 .01.02-.05.02zm2.46-7.26c-.01 0-.02 0-.02-.02l.07-.07c.07-.05.07-.05.02.02l-.07.07z" fill="#b12b12"/><path d="m36.38 18.53-.22-.03c-.15-.01-.15-.01-.15-.19 0-.17 0-.17.2-.24.14-.04.37-.06.68-.06.34 0 .52.02.62.06.08.04.23.12.32.2.1.06.17.14.17.15 0 .02-.05.03-.12.03a3 3 0 0 1-.54-.14 1.47 1.47 0 0 0-.69-.13.77.77 0 0 0-.3.07c-.03.03-.02.07.03.16.07.12.07.12 0 .12z" fill="#a5360e"/><path d="M33.84 24.3c-.02.02-.02 0-.02-.05s0-.08.02-.05v.1zm0-.9c-.01.03-.02 0-.02-.07 0-.08 0-.11.02-.07v.14z" fill="#ab2512"/><path d="M40.02 14.94c-.1 0-.26-.05-.4-.12-.13-.06-.37-.2-.54-.3a13.83 13.83 0 0 0-3.02-1.36 9 9 0 0 0-1.81-.34c-.58-.07-.58-.07-.11-.37.26-.17.48-.3.5-.3l.37.12.62.24c.17.07.6.16 1.1.25.68.11.86.13.98.1a3.44 3.44 0 0 0 .88-.46.5.5 0 0 0 .17-.3 1 1 0 0 0 .03-.22l-.27-.19a3 3 0 0 1-.41-.34c-.09-.1-.15-.17-.14-.18a15.36 15.36 0 0 1 1.16.5 4.45 4.45 0 0 1 1.22.83c.13.12.3.34.36.47s.14.35.17.49c.03.15.04.37.02.54a.74.74 0 0 1-.19.5 1.6 1.6 0 0 1-.34.32.64.64 0 0 1-.35.12z" fill="#964408"/><path d="M32.54 29.56a.99.99 0 0 1-.3-.07 1.98 1.98 0 0 1-.22-.1.97.97 0 0 1-.07-.29c-.02-.22-.01-.28.06-.44.05-.1.17-.26.27-.36.1-.1.3-.27.45-.37s.42-.32.6-.48c.35-.29.35-.29.38-.04.01.14.02.45.01.7-.01.4-.02.45-.15.73a.98.98 0 0 1-.35.45 1.36 1.36 0 0 1-.68.27zm1.32-5.2c-.02 0-.03-.26-.02-.58.01-.58.01-.58.18-.66.1-.04.24-.07.33-.07.16 0 .16 0 .3.3.16.3.16.3-.1.55-.14.15-.35.3-.46.36-.1.06-.21.1-.23.1z" fill="#ac1e10"/><path d="M33.46 18.3a.52.52 0 0 1-.28-.08.6.6 0 0 1-.13-.16 1.3 1.3 0 0 1-.07-.34c0-.14 0-.32.03-.42.03-.1.08-.2.14-.23.07-.05.15-.06.28-.04.1.02.24.08.33.14.09.06.2.17.25.24.05.08.1.21.11.32.02.16 0 .2-.1.32-.06.07-.17.16-.24.19s-.21.05-.32.05z" fill="#a7230e"/><path d="M30.1 31.32v-.02l.06-.07c.07-.05.07-.05.02.02l-.07.07zm3.87-3.2c-.02 0-.04-.03-.05-.06-.02-.03-.01-.06 0-.07.01-.02.04-.02.05 0 .02 0 .04.04.04.07s-.02.06-.04.06z" fill="#87450c"/><path d="M29.8 21.44a.72.72 0 0 1-.4-.06c-.1-.05-.2-.12-.25-.16-.05-.05-.12-.15-.17-.23s-.13-.28-.19-.45c-.1-.31-.1-.31.08-.46a.78.78 0 0 1 .3-.17c.07-.02.27-.02.44-.01.25.01.35.04.5.13.1.06.24.18.3.26.12.16.12.16.04.35l-.12.24c-.02.02-.19.1-.37.15-.28.1-.31.12-.23.14.06.02.19.03.28.04.1 0 .22.02.26.04.07.02.06.04-.08.1-.08.04-.26.08-.4.09zm2.09-6.45c-.08.02-.16.02-.17 0-.02-.01-.03-.06-.03-.1 0-.07.01-.07.06-.03.05.04.08 0 .18-.2.06-.15.19-.35.28-.45.09-.1.24-.23.34-.29.15-.08.22-.1.36-.07.13.01.18.04.18.08a.7.7 0 0 1-.07.2 3 3 0 0 1-.87.78.99.99 0 0 1-.26.08z" fill="#ac1e0d"/><path d="M27.67 18.48c-.07.09-.07.09-.16-.04a1.3 1.3 0 0 1-.13-.36l-.15-.52a1.7 1.7 0 0 1-.1-.59c0-.2.04-.4.1-.58l.1-.37c.02-.06.1-.14.2-.2a.73.73 0 0 1 .33-.08c.14 0 .2.01.21.06.02.03.03.28.03.54s-.04.74-.08 1.06c-.06.42-.11.65-.18.8a2.1 2.1 0 0 1-.17.28z" fill="#aa1e0d"/><path d="M41.78 19.48c-.01.01-.02-.01-.02-.05 0-.05.01-.06.03-.03v.08zM33.03 5.62c0 .01-.02-.01-.02-.05 0-.05.01-.06.03-.03v.08zM25.8 2.58c-.24 0-.34 0-.2-.02h.43c.12.01.01.02-.23.02zm4-2.23c-.06 0-.06 0-.03-.02.03-.01.06-.01.07 0 .02.02 0 .02-.05.02zm.51 0c-.05 0-.06 0-.02-.02.03-.01.06-.01.07 0 .02.02 0 .02-.05.02z" fill="#474745"/><path d="M27.27 19.93c-.12.13-.12.13-.12-.22s0-.37-.22-.88a17.67 17.67 0 0 1-1.07-3.45c-.02-.17-.02-.2.03-.2.04.01.1.18.19.5a12.53 12.53 0 0 0 .6 1.75c.12.33.35.86.5 1.17.15.31.3.57.32.57.03 0 .12-.06.2-.12l.17-.11-.23.43c-.13.23-.3.48-.37.56zm2.77-2.1c-.01.02-.02-.01-.02-.08 0-.06.01-.09.02-.05v.12zm1.24-1.93-.07-.07c-.05-.07-.05-.07.01-.02l.07.07-.01.02z" fill="#624529"/><path d="M30.22 31.2c-.01 0 .02-.05.07-.1.06-.06.1-.1.12-.1l-.08.1-.11.1zm.44-.2c-.01 0 .01-.04.05-.08a.32.32 0 0 1 .1-.08l-.06.08a.32.32 0 0 1-.09.08zm.58-1.85c-.02.01-.03-.01-.02-.05 0-.05 0-.06.02-.03v.08zm0-.3c0 .07-.01.01-.01-.13s0-.2.01-.13v.26zm.16-13.07-.07-.07c-.05-.07-.05-.07.01-.02l.07.07-.01.02zm2.87-2.92c-.05 0-.06-.02-.03-.03h.08c.01.02-.01.03-.05.03z" fill="#744610"/><path d="m29.2 23.09-.07-.07c-.05-.07-.05-.07.02-.02l.07.07-.02.02zm10.27-7.13c-.02.02-.03 0-.02-.05 0-.04 0-.05.02-.02.01.03.01.06 0 .07z" fill="#594329"/><path d="M34.37 23.04c-.06 0-.08 0-.05-.02a.15.15 0 0 1 .1 0c.03.01 0 .02-.05.02z" fill="#951e0e"/><path d="M35.9 26.12a.98.98 0 0 1-.4-.26 2.5 2.5 0 0 1-.35-.87c-.02-.11-.02-.19.01-.2.03-.02.15.05.28.15s.3.25.36.33c.12.14.13.17.13.5 0 .2-.02.35-.03.35z" fill="#932304"/><path d="M19.44 15.57c-.04 0-.05 0-.02-.02h.08c.01.01-.01.02-.06.02zM21.6 4.95l-.01-.02.07-.07c.06-.05.06-.04.01.02l-.07.07z" fill="#3c3c3a"/><path d="M25.9 15.17c-.06 0-.08 0-.05-.02a.15.15 0 0 1 .1 0c.03.01 0 .02-.05.02zm9.2-2.2c-.04 0-.05 0-.02-.02h.08c.01.02-.01.03-.06.03zm-1.01-.07c-.02 0-.04 0-.04-.02l.06-.04c.04 0 .05 0 .04.02-.01.02-.04.04-.06.04zm1.4-1.52.14-.16.17-.16a.7.7 0 0 1-.13.16l-.18.16z" fill="#493a29"/><path d="M42.43 19.86c0 .16-.02.02-.02-.31s.01-.46.02-.29v.6zM18.69 15.9c-.17 0-.42-.02-.54-.05l-.46-.14a2.18 2.18 0 0 1-.86-.61 2.88 2.88 0 0 1-.46-.95c-.05-.2-.06-.4-.05-.94.02-.54.04-.73.1-.94a2.26 2.26 0 0 1 .47-.82c.07-.07.21-.18.32-.25l.54-.3c.2-.1.42-.25.54-.37.14-.14.23-.27.3-.44.04-.14.1-.46.14-.8.03-.3.1-.74.14-.96a5.9 5.9 0 0 1 .41-1.23c.07-.14.24-.41.38-.62a16.38 16.38 0 0 1 .95-1.24l.38-.47a62.56 62.56 0 0 0 1.57-1.97 4.55 4.55 0 0 1 1.16-1.03A10.51 10.51 0 0 1 26.04.9a42.83 42.83 0 0 1 1.5-.42A42.9 42.9 0 0 1 29.06.1c.16-.03.47-.07.68-.08.29-.01.45 0 .71.06A5.22 5.22 0 0 1 32.1.7a2.26 2.26 0 0 1 .78.84c.12.22.14.33.18.71.02.3.02.66 0 1.1-.03.34-.05.84-.05 1.1 0 .24.02.53.04.63v.26c-.03.07-.04.05-.11-.1-.05-.11-.1-.34-.12-.53a6.27 6.27 0 0 1 0-.8l.03-1.08c0-.32-.02-.68-.04-.8a2.2 2.2 0 0 0-.16-.43c-.06-.12-.2-.3-.29-.4-.1-.1-.29-.25-.43-.33A4.5 4.5 0 0 0 30.1.31a12.84 12.84 0 0 0-2.74.52 245.52 245.52 0 0 1-1.66.53 12.55 12.55 0 0 0-1.78.8l-.31.22a2.44 2.44 0 0 0-.55.63c0 .04.05.04.21-.02a11.36 11.36 0 0 1 1.53-.36c.22-.02.72-.04 1.12-.03.72.01.72.01.2.06a12.31 12.31 0 0 0-1.92.38c-.22.06-.48.15-.58.2l-.46.22-.44.25a10.46 10.46 0 0 0-.93.98 223.34 223.34 0 0 1-1.28 1.66c-.13.16-.32.45-.44.63-.11.18-.26.45-.33.6a4.7 4.7 0 0 0-.21.66l-.18.98c-.05.31-.1.68-.14.8s-.05.23-.04.23a62.06 62.06 0 0 1 1.48-.28c.22-.03.56-.06.76-.06.36 0 .36 0 .16.05l-.62.16a16.67 16.67 0 0 0-1.86.58 23.97 23.97 0 0 0-1.76.9l-.24.28c-.06.08-.15.29-.2.44a4.7 4.7 0 0 0-.2 1.42 2.28 2.28 0 0 0 .23.89c.06.12.18.3.26.39s.22.2.31.27c.1.06.28.16.4.2.21.1.3.1.86.1.53 0 .67 0 .96-.09a7.07 7.07 0 0 0 1-.39c.03-.04.07-.04.12 0 .07.04.06.05-.06.14a3.31 3.31 0 0 1-.96.46c-.18.05-.43.12-.56.14s-.38.04-.56.04zm9.55-8.22-.07-.07c-.05-.07-.05-.07.02-.02l.07.07s0 .02-.02.02zm-.68-2.72-.07-.07c-.05-.06-.04-.07.02-.02l.07.07c0 .01 0 .02-.02.02zm-.24-.24-.07-.07c-.05-.06-.04-.07.02-.02l.07.07c0 .01 0 .02-.02.02z" fill="#383836"/><path d="M31.2 28.2c0 .2-.01.21-.04.08a5.83 5.83 0 0 1-.04-.58c-.01-.36-.04-.5-.15-.82-.07-.2-.17-.48-.24-.6-.1-.2-.1-.24-.06-.36.03-.1.07-.14.12-.14.07 0 .1.08.21.52a35.17 35.17 0 0 1 .35 1.53c.01.1 0 .13-.06.14-.06.02-.08.07-.09.24zm-.96-3.73c-.02.02-.02 0-.02-.05s0-.05.02-.02c.01.03.01.06 0 .07zm-.04-.24c-.02.02-.02 0-.02-.05s0-.05.02-.02c.01.03.01.06 0 .07zM33 22.7c-.01.02-.02 0-.02-.07s0-.1.02-.05 0 .09 0 .12z" fill="#553415"/><path d="M30.2 31.28c-.02 0 .1-.16.27-.35a3.45 3.45 0 0 0 .62-1.05l.1-.48c.04-.2.06-.55.06-.86 0-.41.02-.54.06-.55.04-.02.06.04.08.24a7.47 7.47 0 0 1-.02 1.19l-.1.52a2.09 2.09 0 0 1-1.07 1.34zm.48-9.87-.01-.06c0-.03.01-.05.03-.04.02.01.02.04.01.06l-.03.04zm7.26-4.28c-.05 0-.06-.01-.02-.02.03-.02.06-.01.07 0 .02.01 0 .02-.05.02zm-1.12-.2c-.04 0-.05-.01-.02-.02.03-.02.06-.01.07 0 .02.01 0 .02-.05.02z" fill="#613404"/><path d="m28.2 31.2-.07-.07c-.05-.07-.05-.07.02-.02l.07.07-.02.02zm14.22-12.26-.01-.07c0-.06 0-.09.02-.05s0 .1 0 .12zm-3.07-1c-.01.03-.02 0-.02-.05s0-.07.02-.05v.1zm-.12-3.08-.07-.07c-.05-.07-.05-.07.01-.02l.07.07-.01.02zm-17.07-.72s-.02 0-.02-.02.04-.04.07-.07c.07-.05.07-.05.02.02l-.07.07zm3.6-3.2-.06-.07c-.05-.06-.05-.06.01-.01l.07.07-.02.01zm-2.28-1.12c-.05 0-.06-.01-.02-.02.02-.02.06-.01.07 0 .02.01 0 .02-.05.02zm2.09-.44-.1-.09c-.07-.09-.07-.09.02-.01l.09.09-.01.01zm-.24-.24-.07-.07c-.05-.06-.05-.06.01-.01l.07.07-.01.01zm.48-.08-.1-.09c-.07-.09-.07-.09.02 0 .05.03.09.07.09.08l-.01.01zm3.4-1.03c-.02 0-.06-.04-.1-.1-.07-.08-.07-.08.02 0 .05.03.09.07.09.08l-.02.02zm-.69-.08-.07-.07c-.05-.07-.05-.07.02-.02l.07.07-.02.02zm.4-.2-.07-.07c-.05-.07-.05-.07.02-.02l.07.07-.02.02zm1.92-1.84-.07-.07c-.05-.06-.05-.07.01-.02l.07.07-.01.02zm-3.16-.84L27.61 5c-.05-.06-.05-.07.02-.02l.07.07c0 .01 0 .02-.02.02zm2.4-.36-.07-.04c-.03-.02-.04-.04 0-.04.02 0 .05.02.06.04l.02.04z" fill="#343431"/><path d="M34.38 24.13c-.01 0 0-.04.05-.08a.32.32 0 0 1 .1-.08l-.06.08a.32.32 0 0 1-.1.08zm3.06-5.54c-.41 0-.8-.01-.87-.03a.3.3 0 0 1-.19-.15c-.05-.1-.05-.13 0-.16.02-.02.13-.05.23-.06s.26-.01.35.01c.1.02.31.09.47.15s.36.1.45.1c.1 0 .18-.02.22-.08l.1-.08c.02 0 .05.05.06.1a.2.2 0 0 1-.02.16c-.03.03-.3.04-.8.04z" fill="#6b2605"/><path d="M31.24 28.26c-.01.24-.01.24-.01-.02 0-.19.02-.26.06-.27.04-.01.05 0 .02.02-.03.02-.06.14-.07.27z" fill="#593308"/><path d="M30.51 32.19a3.16 3.16 0 0 1-1.48-.41l-.35-.2c-.05-.05-.03-.04.07.01l.4.19a3.45 3.45 0 0 0 1.24.21c.18 0 .45-.01.6-.04a5.3 5.3 0 0 0 1.39-.44 5.07 5.07 0 0 0 1.85-1.65l.21-.3c.06-.08.2-.34.33-.58l.37-.68a22.43 22.43 0 0 0 1.13-2.3 298.32 298.32 0 0 0 1.43-3.1l.28-.6.56-1.16c.24-.5.5-1.06.57-1.24.1-.3.11-.35.12-1.1 0-.43.01-.89.03-1.02.03-.22.02-.25-.1-.43-.12-.19-.12-.19-.02-.19.07 0 .11-.04.18-.2a5.28 5.28 0 0 0 .15-1.42 3.37 3.37 0 0 0-.07-.4.71.71 0 0 0-.18-.3l-.18-.17a7.73 7.73 0 0 0-1.7-.9l-.73-.26a24.84 24.84 0 0 0-2.38-.65 10.53 10.53 0 0 1 4.74 1.62l.63.37c.1.05.27.1.38.12.18.02.16.03-.15.03-.36 0-.36 0-.33.14l.06.4c.02.15.03.36.02.48-.01.11-.07.42-.13.68-.1.46-.1.53-.1 1.64.01.7.03 1.22.06 1.3.02.09.12.24.22.34.1.1.17.2.17.2 0 .02-.1-.05-.22-.14-.12-.09-.24-.15-.26-.14a.78.78 0 0 0-.15.25l-.21.57c-.12.34-.12.34-.03.42l.3.25c.1.1.16.16.11.14l-.12-.05a1.49 1.49 0 0 0-.21-.08.75.75 0 0 0-.29-.02c-.08.02-.14.08-.23.25a45.2 45.2 0 0 1-1.11 2.3c-.36.75-1.1 2.25-1.65 3.34a34.08 34.08 0 0 1-1.25 2.38 8.5 8.5 0 0 1-.52.7 7.57 7.57 0 0 1-1.13.99 7 7 0 0 1-1.21.63l-.56.16c-.15.03-.4.05-.55.05zm-1.94-.67c-.02 0-.14-.1-.28-.2l-.38-.36a.81.81 0 0 1-.15-.21l.01-.07c.02 0 .1.1.2.24.1.13.27.3.37.39l.21.17c.03.02.03.04.02.04zm12.55-9.36a2.7 2.7 0 0 1-.51-.08 4.74 4.74 0 0 1-1.08-.47l.24.1a8.64 8.64 0 0 0 1.27.4.9.9 0 0 0 .34-.02c.11-.04.11-.04.04.02-.05.04-.16.06-.3.05zm.4-.11.06-.08a.32.32 0 0 1 .1-.08l-.06.08a.32.32 0 0 1-.1.08zm.22-.24.13-.25a13.45 13.45 0 0 0 .4-.65s-.03.1-.09.21a4.83 4.83 0 0 1-.44.69zm-.57-.89a4.26 4.26 0 0 1-.39-.12l.14.01c.11.03.2.03.25 0l.17-.12c.04-.03.03 0-.04.09-.06.08-.12.15-.13.14zm-.68-.23a.4.4 0 0 1-.13-.08c-.1-.09-.1-.09.02-.02l.14.09h-.03zm.97-.16.02-.08.06-.08-.02.08-.06.08zm-1.31-.04-.07-.07c-.05-.06-.05-.07.01-.02l.07.07-.01.02zm1.45-.2c-.02.03-.04.04-.04.02l.04-.1c.02-.03.04-.04.04-.02l-.04.1zm.82.03c-.01.01-.02-.01-.02-.05 0-.05.01-.06.03-.03v.08zm.07-.64c-.04.35-.04.35-.04-.19 0-.46 0-.51.04-.35.02.13.02.31 0 .54zm-.74.14c-.02.03-.02 0-.02-.05s0-.08.02-.05v.1zm.08-.58c-.01.06-.02.01-.02-.1 0-.13 0-.18.02-.12v.22zM20.9 15.22c-.1.04-.1.04-.05-.01.04-.05.04-.07-.02-.1-.05-.01-.02-.05.17-.16a11.1 11.1 0 0 0 .93-.65 9.24 9.24 0 0 0 .99-.98 3.63 3.63 0 0 0 .49-.92c.13-.32.16-.36.28-.4l.74-.26a12.34 12.34 0 0 0 1.37-.56c.13-.09.13-.09.06-.17a5.7 5.7 0 0 0-.97-.7c-.13-.07-.5-.19-.9-.29-.39-.1-.7-.19-.7-.2s.07-.03.15-.02l.5.06c.2.02.47.1.63.15s.56.23.87.4c.32.16.58.3.59.29 0-.01 0-.18-.03-.38-.03-.3-.05-.4-.16-.57a3.58 3.58 0 0 0-.39-.48 8.67 8.67 0 0 0-1.8-1.46l-.36-.25s.04 0 .1.03l.2.08a10.98 10.98 0 0 1 1.78 1.03l.47.4c.16.14.34.33.4.42.05.08.12.23.15.32s.1.34.14.55c.05.22.1.4.12.4l.33-.15a22.19 22.19 0 0 0 1.05-.52l.42-.26c.16-.1.38-.26.5-.36.2-.19.2-.2.19-.42A.96.96 0 0 0 29 8.6c-.07-.15-.25-.4-.4-.57a7.79 7.79 0 0 0-1.56-1.33 14.03 14.03 0 0 1-.87-.64c0-.02.24.09.53.24a34.63 34.63 0 0 1 1.19.66l.46.3.27.2a5.3 5.3 0 0 1 .6.6c.07.1.23.36.33.57.12.24.2.35.2.3a.87.87 0 0 0-.02-.26l-.13-.36-.43-.9a22.3 22.3 0 0 0-.9-1.65 102.43 102.43 0 0 0-.77-.9 2.27 2.27 0 0 1-.2-.19c-.07-.1-.07-.1.05-.03a4 4 0 0 1 1.34 1.2c.15.18.32.43.4.55l.36.62c.12.22.35.66.5.99.3.59.3.59.4.52l.21-.13a9.26 9.26 0 0 0 1-.76 24.92 24.92 0 0 0 .55-.48 12.08 12.08 0 0 0-.95-.96 9.9 9.9 0 0 1-.83-.83 2.16 2.16 0 0 1-.32-.65c0-.03.1.07.22.21a3.8 3.8 0 0 0 .97.84c.34.23.34.23.35-.94a20.43 20.43 0 0 0-.05-1.9l.1.12.16.4c.06.2.1.5.14 1.08.04.45.1.96.15 1.15a2.2 2.2 0 0 0 .45.92c.05.04.08.03.2-.09.08-.07.18-.2.23-.27.06-.1.09-.22.1-.53.01-.21.03-.4.05-.4a6.23 6.23 0 0 1 .77 1.15l.4.78a16.25 16.25 0 0 0 1.19 1.82l.4.55.32.47c.12.2.12.2.01.45-.09.18-.23.35-.57.7a9.15 9.15 0 0 1-1.85 1.43c-.14.1-.15.1-.08.13.04.02.01.03-.1.04-.1 0-.31.06-.5.13a111.7 111.7 0 0 0-1.49.6l-.56.23a25.06 25.06 0 0 1-2.07.66 14.17 14.17 0 0 0-1.5.5c-.12.06-.3.1-.52.13l-.78.05c-.4.01-.46 0-.62-.07a.8.8 0 0 1-.33-.35 4.5 4.5 0 0 0-.44-.6c-.16-.17-.33-.4-.38-.5a1.82 1.82 0 0 1-.15-.45 1.37 1.37 0 0 0-.2-.47c-.1-.12-.17-.18-.2-.17-.05 0-.2.18-.35.39s-.37.5-.5.63a14.97 14.97 0 0 1-2.09 1.68zm4.91-.6.45-.1c.22-.06.65-.15.95-.2a35.04 35.04 0 0 0 1.38-.3 26.28 26.28 0 0 1 1.52-.44 43.35 43.35 0 0 1 .96-.34 11.07 11.07 0 0 0 1.4-.58l.28-.12a8.46 8.46 0 0 0 1.37-.74l.66-.45a4.8 4.8 0 0 0 .79-.82c.04-.08.07-.18.07-.23s-.05-.19-.1-.3-.23-.37-.37-.58l-.5-.74-.5-.75a22.88 22.88 0 0 1-.8-1.46c-.02 0-.23.2-.47.44a14.06 14.06 0 0 1-2.74 2.16 33.86 33.86 0 0 1-2.05 1.3 21.23 21.23 0 0 1-3.32 1.45c-.09.04-.24.1-.33.12-.1.03-.19.08-.2.1 0 .03 0 .08.03.1a16.06 16.06 0 0 1 1 1.58l.4.75c.05.08.1.15.12.15zm14.43.36c-.04 0 .02-.05.11-.12.1-.06.25-.19.33-.29a2.55 2.55 0 0 0 .47-.95 1.1 1.1 0 0 0-.11-.8 3.68 3.68 0 0 0-.89-.95A8.94 8.94 0 0 0 37 10.54c-.1-.02-.15-.05-.13-.06l.44.1.67.21a11.92 11.92 0 0 1 1.84.81 6.55 6.55 0 0 1 .92.7c.1.1.23.26.28.35.06.1.13.27.16.39s.06.3.06.4a2 2 0 0 1-.19.8c-.05.1-.16.26-.23.35-.08.08-.23.2-.33.27a.79.79 0 0 1-.24.13zM34 12.85c-.06 0-.08 0-.05-.02a.15.15 0 0 1 .1 0c.03.01 0 .02-.05.02z" fill="#32322e"/><path d="M31.24 21.8c-.01 0-.04-.02-.07-.06-.05-.06-.05-.07.01-.02l.07.07-.01.02zm5.7-3.2c-.08 0-.11 0-.06-.02h.16c.03.02 0 .02-.1.02zm1.12-1.47c-.05 0-.05-.01-.02-.02.03-.01.06-.01.07 0 .02.01 0 .02-.05.02zm-1.47-.2c-.11 0-.15-.01-.1-.02h.2l-.1.01z" fill="#532a04"/><path d="M30.25 24.62h-.18l-.32-.04c-.17-.02-.17-.02-.07-.22l.1-.24a3.69 3.69 0 0 0-.55-1.03c-.09-.1-.27-.36-.4-.58l-.37-.6c-.1-.15-.15-.18-.26-.18a.3.3 0 0 0-.21.09c-.05.05-.22.32-.37.6l-.55 1.06c-.22.43-.28.52-.35.52l-.18-.03c-.1-.03-.1-.03.03-.1a.8.8 0 0 0 .2-.18l.23-.46.26-.62a10.13 10.13 0 0 1 .69-1.23c.09-.12.24-.28.34-.36l.18-.13.2.32a151.46 151.46 0 0 1 1.06 1.84l.3.63a3.37 3.37 0 0 1 .22.94zm1.42-1.41-.02-.02.07-.07c.07-.05.07-.05.02.02l-.07.07zm1.33-.35c-.01.02-.02 0-.02-.05s0-.08.02-.05v.1zm-.88-5.29a18.16 18.16 0 0 0-.4-.96c-.09-.2-.25-.48-.35-.61a1.8 1.8 0 0 0-.31-.33.55.55 0 0 0-.33-.1.8.8 0 0 0-.3.06.85.85 0 0 0-.24.2 5.21 5.21 0 0 0-.5.84c-.05.15-.1.22-.1.17-.01-.03.02-.18.07-.33.05-.15.2-.44.36-.67.27-.41.27-.41.49-.43.12-.02.28-.01.36 0 .08.02.2.09.28.14a2 2 0 0 1 .57.75 4.78 4.78 0 0 1 .4 1.1v.17z" fill="#4a2805"/><path d="M31.06 19.73a3.74 3.74 0 0 1-1.23-.37 2.98 2.98 0 0 0-.45-.13c-.18-.03-.18-.03-.07-.09.1-.05.14-.05.4.03l.42.14a4.32 4.32 0 0 0 .99.22c.11 0 .3-.03.4-.06s.27-.12.37-.18c.1-.07.2-.12.21-.12v.08c0 .05-.1.13-.21.18a2.88 2.88 0 0 1-.83.3z" fill="#3c2812"/><path d="M35.51 17.87c-.1.08-.18.14-.18.12l.18-.33c.1-.2.2-.34.31-.41.1-.07.25-.17.36-.22.15-.08.24-.1.5-.1.2 0 .46.04.73.1.3.09.47.1.61.1l.36-.05c.16-.02.16-.02-.02.03-.1.04-.24.12-.31.18-.14.11-.14.11.08.21a8.34 8.34 0 0 0 .58.26s-.17-.03-.37-.09a4.7 4.7 0 0 1-.68-.24 1.34 1.34 0 0 0-.64-.17c-.26-.01-.38 0-.58.07a3.8 3.8 0 0 0-.5.24l-.43.3z" fill="#4b2300"/><path d="M33.94 24.66c-.18.06-.18.06-.15-.09a.99.99 0 0 1 .03-.15l.26-.12c.15-.06.34-.2.45-.3l.37-.42c.17-.22.17-.22.03-.34-.08-.07-.2-.15-.27-.18a.88.88 0 0 0-.66.03c-.2.07-.22.07-.62.01-.42-.07-.42-.07-.4-.19a.95.95 0 0 0 .03-.25c0-.12 0-.13.23-.17a5.42 5.42 0 0 0 1.1-.4c.1-.07.27-.17.34-.23l.5-.45a4.56 4.56 0 0 0 .93-1.28c.1-.19.23-.5.3-.68.11-.34.11-.34-.05-.36-.17-.02-.17-.02.1-.25.24-.21.27-.23.46-.23.18 0 .22.02.34.15l.15.15-.23-.04a.82.82 0 0 0-.28-.04c-.02 0-.07.12-.1.25a19.66 19.66 0 0 1-.77 2.55 17.3 17.3 0 0 1-.91 1.89 5.7 5.7 0 0 1-.61.76c-.13.14-.27.27-.31.3a1.9 1.9 0 0 1-.26.08zm-2.38-1.37-.13-.21a47.1 47.1 0 0 1-.34-.67 6.99 6.99 0 0 1-.39-1.02c.01-.01.17.1.36.26.18.16.47.37.64.47.3.17.31.18.3.3l-.09.33c-.03.1-.11.27-.18.37s-.15.17-.17.17zm-.74-4.2a.44.44 0 0 1-.24-.1 1.73 1.73 0 0 1-.4-.51c0-.01.1-.06.24-.1.14-.05.29-.13.34-.17s.1-.1.1-.12-.1-.06-.21-.1-.3-.06-.4-.06c-.2 0-.2 0-.2-.23a1.33 1.33 0 0 1 .22-.76.77.77 0 0 1 .28-.24c.19-.1.19-.1.36-.01a1 1 0 0 1 .28.2l.18.28a1.78 1.78 0 0 1 .16.82c0 .13-.02.31-.04.4a1.12 1.12 0 0 1-.42.61.54.54 0 0 1-.25.09z" fill="#452202"/></svg>