<svg width="591.8" height="363.35" viewBox="0 0 156.58 96.14" xml:space="preserve" xmlns="http://www.w3.org/2000/svg"><path d="M67.12 95.94c-1-.24-2.05-.83-2.8-1.6l-.67-.65-.42-.87c-.24-.47-.52-1.16-.63-1.53l-.2-.66-.15-13.8-.15-.34a2.13 2.13 0 0 1-.14-.42c0-.05 1.17-.09 2.6-.09h2.6l.03 6.42.04 6.41.2.62c.3.84.84 1.56 1.45 1.89l.52.27h2.9l.6-.27c.33-.15.83-.47 1.12-.7l.52-.43V76.04h4.96v9.37c0 5.14.04 9.6.08 9.92l.08.56h-5.12v-1.7l-.59.43c-.76.55-2 1.1-2.95 1.33l-.75.18-1.21-.01c-.67 0-1.53-.09-1.92-.18zm34.5-.02-2.27-.04V84.1l-.17-.8c-.1-.44-.3-1.09-.44-1.43l-.27-.62-.55-.48c-.67-.6-1.27-.76-2.44-.7l-.91.06-1.45.68-1.65 1.67.04 6.71.04 6.71h-4.9V76.04h4.83v.8c0 .42.02.78.05.78.02 0 .4-.24.86-.54a8.72 8.72 0 0 1 3.06-1.28l.75-.15 2.73.12.71.26a6.86 6.86 0 0 1 4.15 4.42l.33.98.14 13.55.14.32c.08.18.2.36.27.4.27.17.1.31-.33.28l-2.72-.06zm-28.1-34.23c-2.2-.1-9.6-.54-9.99-.6a97.6 97.6 0 0 0-2.42-.23c-20.02-1.83-38.48-7.44-48.94-14.88l-1.2-.85 3.37-.15 1.22-.31a17.7 17.7 0 0 0 1.8-.58l.57-.25.22.16a53.76 53.76 0 0 0 3.75 2.52 68.15 68.15 0 0 0 14.34 6.3c2.36.73 2.97.9 4.78 1.4 43.17 11.7 101.74.58 107.48-20.4l.29-1.04v-3.87l-.29-1.02c-3.73-13.67-29.39-23.7-64.09-25.07l-3.5-.14-3.64.08c-13.67.29-25.28 1.78-35.89 4.61-2.63.7-7.29 2.17-8.7 2.74l-1.7.66a56.25 56.25 0 0 0-12.75 6.88l-.15.1-.82-.32a16.27 16.27 0 0 0-5.38-1.04h-.65l.95-.69c4.84-3.47 12.08-6.83 19.9-9.23l2-.62c6.76-2.08 18.15-4.2 27.04-5L63.54.6c.23-.03 2.35-.18 4.72-.33l4.3-.27H86.1l2.36.15 4.24.27a159.49 159.49 0 0 1 24.63 3.52c22.93 5.33 36.87 14.13 39.01 24.64l.25 1.22v2.1l-.25 1.21a16.07 16.07 0 0 1-2.8 6.33l-.87 1.21-1.7 1.7c-7.1 7.08-20 12.68-37.16 16.15a168.15 168.15 0 0 1-21.17 2.78l-3.93.25c-1.84.13-13.27.25-15.19.16zM9.98 43.19a7.2 7.2 0 0 0-1.03-.3 5.88 5.88 0 0 1-1.88-.74c-.46-.22-.9-.45-.97-.5l-.87-.6a3.04 3.04 0 0 1-.76-.6c0-.06-.07-.1-.17-.1-.28 0-2.5-2.65-2.5-3 0-.06-.09-.25-.2-.4s-.38-.65-.57-1.08L.6 34.9c-.05-.1-.16-.5-.24-.88a2.5 2.5 0 0 0-.25-.76L0 33.2v-4.7l.12-.07c.06-.03.17-.38.25-.76a4 4 0 0 1 .23-.81c.05-.07.16-.37.25-.67.1-.3.2-.57.24-.6.03-.04.22-.38.41-.77 1.4-2.8 5.67-6.13 7.85-6.13.13 0 .4-.08.62-.18.76-.35 4.3-.4 4.74-.06.06.05.3.12.54.17 1.62.3 4.24 1.58 4.24 2.06 0 .1-.18.3-.4.47l-.39.3-.18-.15a6.8 6.8 0 0 0-1.15-.61 8.36 8.36 0 0 0-2.48-.92l-1.06-.21-.51-.11-.13.14-.12.15.03 11.18.03 11.18.3-.02a9.73 9.73 0 0 0 2.84-.64 11 11 0 0 0 2.45-1.26c.52-.44 1.13-.18 1.12.48v.23l-.51.38c-.43.32-.91.58-2.5 1.37-.1.05-.49.16-.85.24a9.6 9.6 0 0 0-1.07.32l-.4.17-4.16-.01zm2.2-12.34.04-11.24-.13-.12-.12-.12-.11.11-.12.12.08 11.28.07 11.29.26-.09zm-5.3 9.1c-.49-.54-.9-1-.9-1.03-.05-.08-.78.41-.78.52 0 .13 1.35 1.1 1.43 1.05.03-.03.09.01.13.08.09.15.9.5.96.44a6.2 6.2 0 0 0-.84-1.05zm3.88.52c0-.07-.06-.12-.13-.12s-.09.05-.05.12c.04.07.1.12.13.12s.05-.05.05-.12zm-1.81-.56.11-.11-.27-.67a8.83 8.83 0 0 0-.37-.82l-.1-.15-.38.08c-.21.04-.46.15-.56.24l-.17.17.29.33c1 1.14 1.14 1.24 1.45.93zm1.62-.72.2-.08v-.77c0-.43-.05-.78-.1-.78a4.6 4.6 0 0 0-1.36.46c0 .05.12.35.27.66l.28.57h.26c.14 0 .35-.02.45-.06zm-5.8-.98.43-.2v-.29c0-.15-.16-.57-.35-.93a5.1 5.1 0 0 1-.55-1.34c-.02-.16-.34-.13-1.13.09-.8.22-.83.25-.59.63.11.17.16.3.1.3-.04 0-.03.05.04.1s.28.33.47.63c.8 1.21.95 1.3 1.58 1zm2.84-1.13h.25l.01-.21c.01-.12 0-.27-.01-.33l-.23-.97-.2-.85-.36.02c-1.65.1-1.85.32-1.25 1.37l.34.69c.29.6.44.67.88.45.18-.1.43-.17.57-.17zm3.18-1.56c.03-.5 0-.98-.05-1.06l-.11-.14-.93.06c-.52.04-.99.12-1.05.17-.15.15-.2.5-.08.65.06.07.14.4.18.72.1.75.13.77 1.15.63l.84-.12zM3.43 34.2l.47-.18-.09-.44a14.3 14.3 0 0 1-.16-1.1l-.08-.66-1.01-.04a3.45 3.45 0 0 0-1.13.07l-.1.11.12.84a6.56 6.56 0 0 0 .42 1.54l.07.22.51-.09c.29-.04.73-.16.98-.27zm2.43-.5c.04-.05.34-.12.68-.16.76-.07.73-.02.63-.94l-.09-.78h-2.3l.03.3c0 .17.09.61.17 1l.15.7h.33c.19 0 .37-.05.4-.11zm4.82-.63.23-.12-.07-.18c-.04-.1-.07-.37-.07-.6v-.42l-2.48.07.02.58c.01.32.05.66.1.76l.06.18.99-.07a5.02 5.02 0 0 0 1.22-.2zm-7.12-2.6c.04-.1.07-.36.07-.57 0-.21.09-.78.19-1.27l.18-.9-.12-.15a3.18 3.18 0 0 0-1-.36L2 27.01l-.19.28c-1 1.5-.63 3.38.67 3.38h1zm3.6-1.01c.08-1.33.13-1.23-.53-1.34-.28-.06-.72-.15-.98-.22l-.46-.12-.1.27c-.36.96-.51 2.31-.28 2.54.04.05.57.07 1.18.05l1.1-.03zm3.63.23.04-.98-.12-.1a5.38 5.38 0 0 0-1.13-.23l-1-.15-.18.14-.17.15v1.86l.15.14.14.15h2.23zm-.04-2.31.14-.15v-2l-.2-.04a7.87 7.87 0 0 0-1.36-.14l-.42-.01-.15.79c-.08.43-.15.93-.16 1.12v.33h.75c.42 0 .84.06.94.12.23.15.28.15.46-.02zm-3.05-1.5c.3-1.27.33-1.18-.43-1.43-.84-.28-.81-.3-1.29.74-.23.52-.48 1.03-.54 1.15l-.1.2.14.1c.28.18 1.11.37 1.54.35l.41-.01zm-3.17-.17a5.03 5.03 0 0 1 .64-1.31l.26-.51-.3-.18-.58-.36-.3-.18-.28.27c-.15.16-.43.53-.63.82-.2.3-.44.68-.56.84a2.7 2.7 0 0 0-.28.56l-.08.26.7.24c.38.13.8.24.94.23l.24-.02zm6.34-1.87a3 3 0 0 0-.03-.73l-.08-.52-.3-.13c-.42-.2-.56-.1-.88.6l-.28.61.1.1c.34.34 1.41.4 1.47.07zm-2.43-.46c.07-.09.25-.44.4-.8l.28-.64-.24-.24-.24-.24-1.52 1.59.14.17c.23.28 1 .38 1.18.16zm-1.5-1.68c1.2-1.36 1.1-1.54-.3-.6-.85.56-1.53 1.17-1.42 1.26.18.17.78.4.84.34l.88-1zm3.95-.53c0-.1-.05-.18-.11-.18-.15 0-.26.19-.17.28.14.14.28.09.28-.1zm-1.12-.57-.07-.16v.23c-.01.13.02.2.06.16.04-.04.04-.14 0-.23zm29.9 21.26c-4.3-.72-7.66-3.47-8.71-7.14l-.28-.97.01-1.75v-1.76l.33-1.06A10.2 10.2 0 0 1 38.97 22l1.03-.22 3.63.02.96.26c.53.14 1.37.46 1.87.7l.92.46 2.3 2.3.45.86c.24.47.56 1.28.72 1.81l.27.96v3.47l-.2.16c-.55.4-5.17.66-11.87.67H35.8l.09.27c.66 2.2 3.09 3.67 6.41 3.9l1.2.09 1.26-.14c1.47-.17 3-.59 4.03-1.1l.74-.38-.08.77-.14 1.91c-.04.64-.1 1.32-.13 1.53l-.05.38-.7.3c-.87.4-1.86.65-3.38.88l-1.18.18-1.64-.01c-.9 0-2.05-.08-2.56-.17zm6.13-12.18c.3-.29-.74-2.26-1.58-2.99l-.57-.5-1.56-.48h-.87a5.28 5.28 0 0 0-5.15 3.5l-.25.62 4.95-.04a96.4 96.4 0 0 0 5.03-.1zm53.28 12.18c-4.3-.72-7.65-3.47-8.7-7.14l-.28-.97V32l.01-1.76.33-1.06c1.14-3.76 4-6.35 7.94-7.18l1.03-.22 3.63.02.96.26c.53.14 1.37.46 1.88.7l.91.46 2.31 2.3.44.86c.25.47.57 1.28.72 1.81l.28.96v3.47l-.21.16c-.55.4-5.17.66-11.87.67h-3.24l.08.27c.67 2.2 3.1 3.67 6.41 3.9l1.21.09 1.25-.14c1.47-.17 3-.59 4.03-1.1l.74-.38-.07.77-.14 1.91c-.04.64-.1 1.32-.13 1.53l-.06.38-.7.3c-.86.4-1.86.65-3.37.88l-1.19.18-1.63-.01c-.9 0-2.05-.08-2.57-.17zm6.13-12.18c.3-.29-.74-2.26-1.57-2.99l-.57-.5-1.57-.48h-.87a5.28 5.28 0 0 0-5.15 3.5l-.24.62 4.95-.04c2.72-.02 4.98-.06 5.02-.1zm25.7 12.15-2.25-.04-.06-5.95-.06-5.96-.2-.76c-.36-1.4-.91-2.24-1.82-2.73l-.49-.26h-2.19l-.92.45-.92.46-.68.73-.68.74.03 6.65.04 6.64h-4.9V22.08h4.84v.78c0 .91-.02.9.64.44a9.65 9.65 0 0 1 2.63-1.24l.9-.28h2.9l.73.22a6.9 6.9 0 0 1 4.75 5.1l.19.72.14 13.2.54.9-.45-.03-2.7-.06zm-69.6-.12c-.13-.22-8.3-19.43-8.3-19.53v-.1l5.58.06 2.4 6.39a685.6 685.6 0 0 0 2.44 6.43c.02.03 1.1-2.86 2.4-6.42l2.34-6.46h5.52l-.1.27-7.9 18.87-.25.58H63.4c-1.12 0-2.06-.04-2.09-.1zm15.53-9.77v-9.86h4.84v1.47l.61-.55c.34-.3.93-.7 1.3-.89l.7-.33h1.26c2.75 0 2.71-.05 2.49 2.92l-.19 2.5c0 .06-.21-.09-.47-.32-.56-.5-1.19-.7-2.3-.73l-.8-.02-1.4.65-1.2 1.25.03 6.88.03 6.89h-4.9zM13.4 31.1c-.01-5.76 0-10.59.04-10.74l.07-.28.48.03c.66.05 1.63.27 1.92.44.14.08.48.22.76.31.28.1.52.2.52.24 0 .05.18.15.4.23.22.08.5.25.62.37l.2.23-.2.38c-.25.5-.74.39-2.61-.6-.11-.06-.4-.14-.64-.18l-.44-.09v7.78h.37v-7.13l.12-.08c.07-.04.2-.02.28.05.08.07.41.21.73.32s.65.25.73.3l.5.41.36.3-.2.34-.18.34-.29-.03a1 1 0 0 1-.47-.2.9.9 0 0 0-.36-.21l-.17-.04L15.9 29l.5.51-.03.3a.75.75 0 0 1-.21.45c-.23.17-.22.4 0 .48l.19.07v.71l-.18.07c-.1.04-.18.14-.18.23 0 .08.08.18.18.22l.18.07v.77l-.21.15-.2.15-.02 2.38c-.02 2.62-.01 2.63.64 2.2.7-.48 1.24-.37 1.24.24v.26l-.33.22c-.55.37-2.19 1.14-2.41 1.14h-.16l-.06-6.45-.3-.1v7.16h.19c.1 0 .36-.08.57-.17.21-.1.57-.24.8-.33.24-.08.63-.28.88-.43.25-.16.5-.28.56-.28.06 0 .18-.09.26-.19.3-.36.96.05.96.61v.24l-.63.4c-.35.21-.7.39-.78.39-.09 0-.15.04-.15.1 0 .06-.24.17-.52.25a8.02 8.02 0 0 1-2.82.73h-.41zm1.49.72c0-.12-.24-.18-.3-.07-.05.07 0 .13.1.13.11 0 .2-.03.2-.06zm-.07-1.26c.03-.06-.02-.14-.12-.18l-.18-.07v.18c0 .2.2.24.3.07zm5.27 9.7c-.7-.73-1.35-1.47-1.45-1.67-.1-.2-.22-.39-.26-.42a27.3 27.3 0 0 1-1.02-2.12c-.17-.38-.48-1.52-.68-2.54l-.13-.6.07-2.16c.03-1.18.11-2.22.18-2.3.06-.08.15-.48.2-.9l.09-.75-.26-.41c-.3-.5-.3-.67-.01-1.02.28-.33.49-.35.49-.03v.24h.36v-.23c0-.13-.06-.37-.13-.53l-.13-.28.2-.48.2-.47.22.27c.42.52.72-.08.35-.68l-.14-.22.23-.32c.27-.38.62-.41.75-.07l.1.25.22-.26.23-.25-.28-.89.15-.3c.08-.17.24-.33.36-.35l.2-.04.13.3c.14.4.2.4.56.02l.28-.3h.3c.54 0 .5.5-.1.98l-.25.2.2.09c.3.11.28.33-.06.64-.31.3-.57.33-.78.12l-.14-.14-.25.22c-.31.28-.31.55 0 .55.34 0 .44.32.18.6l-.22.24h-.9l-.15.19c-.16.18-.13.2.36.22l.3.02.04.22c.03.12-.08.35-.23.51l-.27.3h-.93v.48h.36c.42 0 .5.18.28.62l-.16.33-.96.16-.06.26c-.18.88-.3 1.39-.37 1.62l-.08.28h.13c.07 0 .16-.06.2-.12l.07-.13h5.87l.15.15a.64.64 0 0 1 0 .8l-.15.14h-5.89l-.07-.18c-.14-.37-.28-.16-.28.43 0 .6.15.81.27.36l.07-.24h2.9c1.6 0 3 .03 3.1.07l.19.07v.35c0 .5-.04.51-3.17.51h-2.9l-.13-.14c-.25-.24-.33-.15-.33.35 0 .26.05.48.12.48.06 0 .12-.08.12-.18 0-.24-.33-.2 2.9-.25l2.85-.04.54.36v.69l-.2.07c-.1.04-1.49.08-3.08.08h-2.9l-.07-.18c-.04-.1-.12-.19-.18-.19-.13 0-.14.7 0 .78.06.04.14.34.19.68a4.59 4.59 0 0 0 .38 1.39c.24 1.17 2.7 4.76 3.28 4.78.06 0 .25.14.44.3l.35.31-.15.6h-.54zm.62-1.07-.25-.32.2-.32c.12-.18.44-.6.72-.95.28-.34.54-.74.58-.87.05-.14.13-.25.2-.25.06 0 .1-.07.1-.16 0-.08.09-.27.19-.4l.18-.26.85.38v.3c0 .18-.11.45-.24.62-.13.17-.24.36-.24.42 0 .1-.87 1.26-1.46 1.97-.2.24-.57.17-.83-.16zM19.63 38c-.34-.36-.34-.39.13-.98a8.12 8.12 0 0 0 1.18-1.87c0-.2.5-.17.82.05.36.26.34.5-.15 1.27-1.11 1.77-1.49 2.06-1.98 1.53zm-.87-1.4c-.18-.35-.15-.71.09-.96.12-.11.32-.43.46-.7l.25-.47h.83l.08.79-1.15 1.57h-.22c-.12 0-.27-.1-.34-.24zm1.26-8.7c-.67-.46-.75-2.2-.1-2.2.13 0 1.02 1.41 1.02 1.63 0 .36-.65.76-.92.57zm1.2-.93c-.03-.17-.12-.3-.18-.3s-.1-.08-.1-.17-.17-.4-.36-.7c-.43-.63-.46-.93-.12-1.36.44-.56.44-.55 1.52 1.47l.4.77-.31.3c-.18.16-.42.29-.54.29h-.23zm1.52-.7c-.1-.08-.27-.36-.36-.6-.09-.25-.2-.46-.26-.46-.05 0-.08-.04-.07-.09a3.7 3.7 0 0 0-.75-1.18c-.2-.13-.14-.46.18-.85l.3-.36.5.55c.28.3.6.76.73 1.02.4.82.62 1.21.73 1.25.2.08.1.37-.22.62-.36.29-.5.3-.78.1z" fill="#2d70e1"/></svg>