<svg width="1156.27" height="1155.75" viewBox="0 0 305.93 305.79" xml:space="preserve" xmlns="http://www.w3.org/2000/svg"><g transform="translate(95.93 -405.84)"><ellipse cx="56.97" cy="558.74" rx="150.48" ry="151.51" fill="#fff"/><path d="M19.15 484.76c0-.28.16-.79.35-1.13.53-.95 2.48-5.32 2.48-5.55 0-.23 1.42-3.46 2.35-5.35.66-1.35 2.71-3.6 4.25-4.65 1.9-1.32 13.87-3.97 14.66-3.25.14.13-.77 1.88-2.03 3.87-1.27 2-2.3 3.7-2.3 3.78 0 .43-3.06 4.23-4.32 5.37-2.17 1.96-6.28 4.29-7.57 4.29-.29 0-.95.22-1.46.48-.52.27-2.17.97-3.67 1.57-2.13.84-2.74.97-2.74.57zm14.47 9.32c-1.26-.4-2.53-.9-2.82-1.13-.3-.22-2.24-1.28-4.33-2.34-2.08-1.07-3.79-2.07-3.79-2.22 0-.15.44-.45.97-.67 1.66-.68 4.1-1.74 5.2-2.27 3.3-1.55 7.93-1.93 11.12-.92 1.72.56 5.38 2.69 6.63 3.87.25.23 1.72 1.26 3.26 2.28 1.55 1.02 2.8 1.98 2.8 2.12 0 .35-1.04.55-4.4.83-1.55.12-3.86.45-5.12.71-3.25.7-6.8.6-9.52-.26zm-35.17 5.22c.1-.26.28-2.12.41-4.14.4-6.43.88-9.18 1.96-11.43 1.46-3.02 3.33-4.94 6.7-6.84 4.96-2.8 8.69-4.4 9.02-3.88.18.3.01 1.33-1.1 6.66a100.7 100.7 0 0 0-.7 3.69 15.45 15.45 0 0 1-2.56 5.52c-.34.4-1.8 1.7-3.26 2.9a895.9 895.9 0 0 0-3.07 2.52l-1.36 1.07c-.5.39-1.9 1.54-3.1 2.56-2.09 1.78-3.32 2.36-2.94 1.37zm11 3.82c-1.16-.26-2.83-.5-3.7-.54a17.1 17.1 0 0 1-2.61-.29c-1.01-.21-.99-.25 1.76-2.33 1.53-1.16 3.5-2.68 4.38-3.38.94-.77 2.58-1.6 4.05-2.05 2.66-.82 2.55-.82 9.18.5 1.55.32 4 .8 5.46 1.07 3.69.7 3.87.79 3 1.43-.39.29-1.74 1.05-3 1.7a65.97 65.97 0 0 0-5.46 3c-1.85 1.4-8.75 1.86-13.06.9zm-25.86 13.86c-1.54-5.15-2.57-10.25-2.6-12.86-.04-2.82 1.19-5.32 4.06-8.23 4.24-4.3 7.65-7.5 7.82-7.35.31.32 1.06 8.97 1.05 12.12-.01 2.1-.21 3.67-.6 4.62-.62 1.55-8.63 12.84-9.1 12.84-.16 0-.44-.51-.63-1.14zm4.87 2.92c0-.17.17-.43.37-.55.2-.12.84-1.05 1.42-2.05 1.82-3.11 4.4-6.57 5.58-7.44 2.14-1.58 3.71-1.77 10.73-1.3 3.52.23 6.48.5 6.58.61.1.1-.06.38-.37.6a101 101 0 0 0-2.61 2.18c-6.97 5.99-8.13 6.66-12.21 7.05-1.44.14-3.69.47-5.01.75-2.8.57-4.48.63-4.48.16zm-13.95 17.9c-.92-1.61-2-3.55-2.41-4.33a10.8 10.8 0 0 0-.95-1.59c-.12-.1-.65-1.3-1.18-2.67a9.36 9.36 0 0 1-.83-4.94c.12-2.15 1.1-5.65 1.73-6.15a46.6 46.6 0 0 0 2.06-3.97c1.02-2.08 1.97-3.79 2.11-3.79.23 0 1.97 3.51 4.21 8.54 1.86 4.14 1.84 7.81-.07 13.69a229.6 229.6 0 0 0-1.84 5.9c-.35 1.22-.75 2.21-.89 2.21s-1.01-1.3-1.94-2.9zm5.95 3.82c.1-.27.84-2.59 1.62-5.15 2.54-8.22 3.84-10.15 7.44-10.98.68-.15 2.66-.63 4.41-1.04 6.63-1.6 7.05-1.67 7.17-1.17.06.25-.13.98-.42 1.62-.3.64-1.02 2.26-1.61 3.6a20.27 20.27 0 0 1-4.43 6.3c-2.14 1.85-7.62 4.93-11.71 6.58-2.14.86-2.73.92-2.47.24zm143.43 19.28c-.03-.15-.02-.42.02-.6.18-.93-.78-11.29-1.24-13.42-2.05-9.45-3.66-13.7-8.43-22.23-3.6-6.42-12.57-16.16-18.23-19.76a163.23 163.23 0 0 1-4.54-2.97c-1.94-1.36-9.96-5.06-12.7-5.85a63.3 63.3 0 0 1-2.64-.84c-2.44-.85-7.34-1.8-11.42-2.19-3.75-.36-4.5-.54-5.38-1.28-.56-.48-1.02-1-1.02-1.18 0-.53 4.79-.35 9.88.36 7.94 1.12 13.07 2.73 20.1 6.32a41.4 41.4 0 0 1 4.27 2.38c.3.27.66.5.8.5.97 0 8.5 6.1 12.58 10.2 4.7 4.72 4.73 4.77 9.25 11.18 3.83 5.44 7.91 15.42 9.49 23.22.78 3.87 1.69 11.64 1.7 14.57l.02 1.85h-1.24c-.68 0-1.25-.12-1.27-.26z" fill="#f4bc03"/><path d="M150.27 559.15a64.61 64.61 0 0 1-.23-4.96 96.1 96.1 0 0 0-1.95-14.68 17.4 17.4 0 0 1-.52-2.6c0-1.54-3.28-11.23-5.46-16.14-2.48-5.6-6.43-12.57-8.12-14.32-.3-.3-.54-.67-.54-.81 0-.38-1.48-2.32-5.14-6.74a91.29 91.29 0 0 0-13.9-13.57c-.49-.53-6.26-4.6-6.53-4.6-.1 0-.94-.52-1.86-1.15-2.17-1.5-10.08-5.39-14.02-6.89a80.67 80.67 0 0 0-12.52-3.74c-8.35-1.94-15.33-2.67-25.67-2.68-2.76 0-5.02-.06-5.02-.14 0-.07.25-.72.55-1.45l.55-1.32 8.18.18c8.26.17 11 .43 18.06 1.7 5.67 1.02 13.79 3.33 17.46 4.98l2.65 1.18a76.84 76.84 0 0 1 13.05 7.16l2.82 1.96c5.34 3.72 13.7 11.52 18.4 17.16 2.54 3.06 7.88 10.37 7.88 10.8 0 .13.22.49.5.8.26.3 1.23 1.98 2.16 3.73a94.21 94.21 0 0 0 1.92 3.53c.82 1.17 4.97 11.97 5.63 14.64.17.68.65 2.5 1.07 4.05 1.64 6.07 2.98 15.65 3.26 23.29l.1 2.82-1.27.1-1.27.11z" fill="#f4bc03"/><path d="M144.22 561.07c-.08-.24-.31-2.82-.51-5.73-.38-5.43-1-9.76-2.02-14.1-1.11-4.74-3.27-11.73-4-12.97-.2-.34-.36-.78-.36-.98 0-.21-1.1-2.63-2.43-5.39a94.1 94.1 0 0 0-17.8-25.05c-2.9-2.91-10.59-8.93-14.06-11-6.33-3.77-11.68-6.5-15.27-7.81a87.7 87.7 0 0 0-19.05-4.78c-3.59-.46-14.22-.55-19.88-.18l-4.35.29.65-1.1c1.36-2.33 1.17-2.28 9.76-2.3 4.3 0 9.8.21 12.23.47 6.7.7 14.89 2.44 19.58 4.15 1.36.5 2.89 1.03 3.4 1.19 2.8.88 11.12 5.08 14.5 7.32a38.37 38.37 0 0 0 2.97 1.86c.53 0 9.52 7.61 11.87 10.06 2.2 2.27 6 6.56 7.1 8 1.61 2.12 5.5 7.69 5.5 7.89 0 .09.45.8 1.01 1.57 1.25 1.73 4.57 8.43 6.04 12.2l1.38 3.5c1.29 3.18 3.63 12.1 4.26 16.23l.69 4.4c.2 1.27.53 4.51.72 7.21.3 3.9.27 4.98-.08 5.2-.67.43-1.68.35-1.85-.15z" fill="#f4bc03"/><path d="M137.18 561.1c-.08-.26-.25-2.37-.37-4.7-.8-14.62-4.21-26.73-10.4-36.87a45.77 45.77 0 0 1-1.73-3 4 4 0 0 0-.89-1.2c-.31-.26-.57-.61-.57-.8 0-.6-4.98-6.8-8.52-10.6a75.82 75.82 0 0 0-9.3-8.46l-1.46-1.16c-4.9-3.92-14.95-9.2-20.58-10.8-.68-.2-1.95-.57-2.82-.84-2.7-.8-7.75-1.85-11.88-2.45-4.3-.63-21.41-.82-23.75-.26a3.8 3.8 0 0 1-2.44-.2l-1.2-.49.94-.95c.86-.85 1.28-.96 4.38-1.17 15.63-1.05 28.23.5 39.94 4.91a81.3 81.3 0 0 1 7.41 3.24l2.63 1.44a100.2 100.2 0 0 1 12.52 8.45c4.9 4.12 9.37 8.57 12.02 12 .68.86 1.5 1.84 1.82 2.17.32.32 1.15 1.44 1.84 2.47l2.56 3.82a128.1 128.1 0 0 1 6.37 12.2 95.3 95.3 0 0 1 5 18.14c.63 4.19 1.16 10.92 1.04 13.23-.11 2.1-.12 2.12-1.26 2.23-.72.07-1.2-.06-1.3-.35z" fill="#f4bc03"/><path d="M130.83 561.09c-.08-.25-.22-2.6-.32-5.22-.52-14.06-4.95-26.71-13.68-38.98-2.64-3.72-4.23-5.52-9.22-10.5a67.57 67.57 0 0 0-24.43-15.9c-7.05-2.66-17.79-4.47-26.54-4.47-3.45 0-4.71-.12-4.92-.46a4.8 4.8 0 0 0-1.14-1.05c-.75-.51-.78-.61-.25-.81 1.22-.47 17.56.1 20.33.7 6.5 1.42 7.8 1.76 11.29 2.92a56.9 56.9 0 0 1 8.82 3.6c12 5.76 20.56 13.42 29.76 26.61 2.42 3.48 6.92 11.92 8.12 15.23 2.95 8.16 4.54 16.95 4.38 24.14l-.1 4.38-.98.13c-.59.08-1.03-.05-1.12-.32z" fill="#f4bc03"/><path d="M-5.57 563.01c-.17-1.31.18-7.3.59-10.14 2.64-18.05 11.36-33.45 24.49-43.25 8.83-6.58 18.62-10.5 30.26-12.11 4.97-.69 8.2-.7 13.9-.03 27.85 3.26 47.37 19.77 54.1 45.77a81.5 81.5 0 0 1 2.28 16.73v2.88l-1.77.12c-.97.07-1.92.07-2.12 0-.2-.06-.73-.94-1.2-1.94-.46-1-4.24-8.72-8.4-17.16-4.14-8.44-8.08-16.5-8.75-17.9-.66-1.41-1.36-2.56-1.56-2.56-.2 0-1.24 1.32-2.3 2.92-1.07 1.6-7.16 10.48-13.52 19.75l-11.57 16.84h-3.5c-3.35 0-3.51-.04-3.67-.8a210.6 210.6 0 0 1-1.26-10.52c0-.38.58-.7 1.85-.98 5.65-1.3 11.28-5.88 13.98-11.35a22.63 22.63 0 0 0 .73-19.08c-5.21-12.65-19.17-17.83-31.82-11.8-3.13 1.49-7.02 4.64-8.4 6.8-3.72 5.89-5.1 13.76-3.51 20a19.71 19.71 0 0 0 5.47 9.58c2.74 2.77 5.17 4.29 9.26 5.8 1.6.58 2.73 1.2 2.71 1.47-.05.87-.95 6.8-1.36 8.94l-.4 2.11-5.5.1c-4.11.07-5.58-.02-5.86-.35-.2-.25-1.67-3-3.27-6.1-7.65-14.9-8.9-17.3-9.13-17.56-.14-.15-3.9 5.2-8.35 11.9l-8.08 12.17H1.6c-3.93.01-7.16-.1-7.17-.25z" fill="#383e70"/><path d="M-22.3 561.78a48.73 48.73 0 0 1 2.24-11.2c.64-1.78 2.82-4.13 4.34-4.66.55-.2 1-.5 1-.67 0-.17.21-.32.46-.32s2.06-.79 4.03-1.76a34.15 34.15 0 0 1 3.93-1.76c.29 0-.43 3.14-1.97 8.64a5.8 5.8 0 0 1-.68 1.4c-.26.38-.47.98-.47 1.32 0 .35-.12.63-.27.63-.15 0-.56.53-.9 1.17-.82 1.51-6.28 6.6-7.1 6.6-.11 0-1 .55-1.96 1.23-2.5 1.76-2.9 1.67-2.65-.62zm-6.38.52a52.25 52.25 0 0 1-7.36-9.07c-1.1-1.82-1.25-2.37-1.25-4.41 0-3.13 2.28-14.12 2.93-14.12.35 0 1.19 1 3.09 3.7 4.06 5.75 4.25 6.09 5.5 9.53.54 1.47.65 2.85.65 8.12 0 6.55-.21 8.29-1 8.29-.26 0-1.4-.92-2.56-2.03z" fill="#f4bc03"/><path d="M40.73 568.02c-.92-2.01-1.52-1.92 12.4-1.92 7.06 0 12.92.1 13.04.22.12.12-.2.75-.73 1.41l-.95 1.2H41.14z" fill="#34673c"/><path d="M-38.06 567.5c-.07-.79-.03-1.6.1-1.82.18-.28 6.33-.32 22.06-.13 12 .14 21.87.3 21.94.37.06.06-.3.76-.8 1.56l-.91 1.44h-42.25z" fill="#366c40"/><path d="M119.29 569.36a7.8 7.8 0 0 1-.94-1.6c-.91-2.14-2.02-2.01 17.02-2.01 13.62 0 17.46.1 17.59.44.22.63-.14 2.83-.55 3.35-.27.34-4 .44-16.47.44-14.94 0-16.17-.04-16.65-.62zm2.53 5.93c-1.37-2.69-2.5-2.5 14.72-2.4l15.43.09-.12 1.23c-.26 2.66.86 2.47-15.05 2.47h-14.27zm-76.82.95c-.78-.96-1.54-2.82-1.36-3.3.15-.4 1.8-.49 9.37-.49 5.05 0 9.18.13 9.18.28 0 .35-2.13 3.32-2.63 3.68-.2.15-3.48.27-7.29.27-5.12 0-7.02-.11-7.28-.44z" fill="#34673c"/><path d="M-36.79 576.21a10 10 0 0 1-.25-2.03l-.07-1.55 19.49-.1c10.72-.04 19.49 0 19.49.1s-.5 1.06-1.1 2.12l-1.09 1.93h-18.14c-14.82 0-18.18-.08-18.33-.47zm1.62 8.08c-.64-1.7-.83-4.31-.3-4.47.26-.07 7.66-.1 16.44-.04 12.36.07 15.95.2 15.93.53 0 .24-.62 1.38-1.35 2.55l-1.32 2.11-14.54.1-14.53.09z" fill="#366c40"/><path d="M97.7 585.27c-.12-.13-.23-1.32-.23-2.65v-2.4h26.12c22.46 0 26.14.06 26.31.5.1.28-.1 1.43-.45 2.56l-.65 2.05-25.43.09c-13.98.05-25.53-.02-25.66-.15zm-30.49-.12-17.74-.18-1.21-2.19c-.67-1.2-1.1-2.26-.95-2.35.2-.13 36.28-.36 38.08-.25.3.02.44.77.44 2.46 0 1.65-.14 2.48-.44 2.56-.24.07-8.42.05-18.18-.05zm-12.04 7.67c-1.9-1.8-3.4-3.38-3.32-3.52.09-.15 21.73-.27 48.09-.27 26.37 0 48 .12 48.1.27.09.14-.31 1.73-.9 3.52l-1.04 3.27H58.64z" fill="#34673c"/><path d="M-31.31 594.64c-1.04-2.03-2.14-5.61-1.87-6.05.23-.37 23.96-.18 24.34.2.09.09-.98 1.77-2.39 3.73l-2.55 3.57h-16.8z" fill="#2e6639"/><path d="M132.4 611.22c-1.27-.16-7.06-.79-12.88-1.4l-13.67-1.41c-9.07-.95-16.02-1.1-45.87-1.05l-31.32.05.1-4.16.1-4.16 57.4.02c31.58 0 57.5.1 57.6.21.18.18-3.05 5.76-6.04 10.44-1.3 2.05-1.18 2.01-5.42 1.46z" fill="#376c42"/><path d="M-22.96 611.17c-1.06-1.68-6.22-11.3-6.22-11.6 0-.18 8.82-.28 21.26-.22l21.25.09.1 4.66c.12 5.51.9 4.9-6.62 5.19-5.67.2-13.48.9-22.05 1.97-7.03.88-7.1.87-7.72-.1z" fill="#376c40"/><path d="M-14 621.99c-3.15-3.41-5.6-6.33-5.43-6.49.17-.15 2.13-.47 4.36-.7l7.06-.73c41.61-4.37 85.16-4.86 122.6-1.38 12.61 1.17 19.92 2.1 19.92 2.52 0 .18-2.42 3.17-5.38 6.65l-5.37 6.33h-2.47c-3.44-.02-15.96-.91-21.8-1.57-5.63-.63-10.36-1.35-21.6-3.32-15.4-2.69-19.63-3.16-30.69-3.46a167 167 0 0 0-36.69 2.93c-5.45 1.08-12.5 3.04-15.77 4.37a32.3 32.3 0 0 1-2.78 1.05c-.11 0-2.8-2.79-5.95-6.2z" fill="#336c69"/><path d="M86.71 644.9c-4.74-.5-12.42-2.43-20.81-5.23-9.8-3.27-11.35-3.54-19.76-3.53-5.96 0-7.66.13-10.93.81a78.84 78.84 0 0 0-18.23 6.13l-3.07 1.42-3.1-1.88c-5.75-3.45-14.94-9.95-14.94-10.56 0-.73 10.88-3.92 19.1-5.6 8.48-1.75 14.7-2.28 26.76-2.29 6.7 0 13.37.18 16.05.44 6.33.62 15.41 1.75 17.2 2.14 1.23.27 9.31 1.63 13.85 2.32 6.17.95 22.44 2.29 27.8 2.3 2.62 0 3.44.1 3.33.44-.21.67-4.8 4.14-10.46 7.92-6.82 4.54-8.5 5.1-15.91 5.22-3 .06-6.1.03-6.88-.05z" fill="#353e6f"/><path d="M49.85 654.43c-7.6-.57-16.6-2.56-22.93-5.07-5.63-2.24-5.65-2.25-5.65-2.68 0-.9 9.7-4.43 15.47-5.63a53.2 53.2 0 0 1 20.23 0c1.49.31 5.93 1.68 9.87 3.05 7.79 2.7 11.92 3.9 16.44 4.81 1.64.33 2.86.75 2.8.96-.23.65-10.85 2.94-17.97 3.87-4.23.55-14.77.94-18.26.69z" fill="#373f71"/><path d="M56.03 447.3c-4.26-.05-7.9-.24-8.07-.42-.35-.35-.35-9.86 0-20.62l.23-7.01 9.91.25c5.45.14 10.04.38 10.2.53.15.15.23 1.2.17 2.35l-.1 2.08-7.34.1-7.33.1.1 2.72.1 2.73 6.53.17 6.53.18.1 2.38c.08 1.75-.02 2.4-.35 2.43-.25.02-3.26 0-6.69-.04l-6.22-.09-.14 3.3c-.08 2.03.01 3.4.23 3.57.2.14 3.4.26 7.13.26 3.72 0 7.01.1 7.32.22.68.26.8 4 .13 4.65-.25.26-1.26.4-2.56.35a677.8 677.8 0 0 0-9.88-.19zm26.62 3.01c-4.94-1.14-9.1-2.2-9.24-2.32-.27-.27 5.62-26.18 6.06-26.64.15-.16 1.45 0 2.88.35 2.18.54 2.6.76 2.56 1.35-.02.39-1.1 5.29-2.4 10.88-1.3 5.6-2.29 10.26-2.2 10.36.1.1 2.93.8 6.29 1.58s6.25 1.54 6.42 1.7c.4.38-.49 4.51-1 4.7-.2.07-4.42-.81-9.37-1.96zM29.8 422.52c-1.63 0-15.34 3.12-15.6 3.56-.12.2.31 2.6.96 5.36.65 2.76 1.66 7.16 2.25 9.78a360.5 360.5 0 0 0 2.64 11.2c.08.24.27.44.44.44.48 0 12.2-2.8 14.01-3.34 6.28-1.88 8.43-9.04 4.1-13.59-.74-.78-1.66-1.41-2.05-1.41-1.13 0-1.19-.37-.27-1.72.65-.95.87-1.74.87-3.14 0-4.15-3.08-7.13-7.35-7.14zm-1.2 5.3c1.61 0 2.23.34 2.72 1.52a2.66 2.66 0 0 1-1.15 3.48c-.53.32-2.36.9-4.08 1.3-3.62.87-4.08.9-4.28.3-.57-1.7-1.15-4.7-.95-4.9.36-.34 6.54-1.7 7.75-1.7zm3.54 10.36.28.02c1.48.28 2.33 1.49 2.38 3.38.05 1.85-1.13 3.04-3.68 3.7-4.12 1.07-6.32 1.5-6.45 1.29-.3-.52-1.66-6.5-1.5-6.66.45-.46 7.25-1.73 8.97-1.73zm73.09 20.1a219.18 219.18 0 0 1-9.25-4.3c-.21-.22 2.54-6.68 7.47-17.52.35-.78 1.24-2.8 1.97-4.5.74-1.7 1.51-3.1 1.72-3.1.84 0 18.2 7.92 18.2 8.31 0 .99-1.54 4.05-2.04 4.05-.29 0-3.18-1.2-6.43-2.65-5.75-2.58-7.05-3-7.05-2.3 0 .19-.42 1.23-.93 2.3-.51 1.08-.86 2.03-.78 2.12.08.08 2.68 1.28 5.78 2.66a84.46 84.46 0 0 1 5.94 2.82c.32.3-1.22 3.98-1.79 4.32-.16.1-2.9-1-6.1-2.43a254.6 254.6 0 0 0-5.94-2.6c-.32-.01-2.88 6.13-2.64 6.33.16.14 3.06 1.47 6.46 2.96s6.4 2.85 6.69 3.03c.43.28.36.66-.5 2.47-.57 1.17-1.2 2.12-1.4 2.11a205 205 0 0 1-9.38-4.08zm59.41 7.69c-2.16-2.55-2.18-2.62-.63-4.05a6.03 6.03 0 0 1 1.78-1.29c.4 0 3.65 3.54 3.65 4 0 .44-2.67 2.67-3.18 2.65-.29 0-1.02-.6-1.62-1.3zm-178.74 4.44c-.52-.8-13.31-21.24-13.79-22.03-.25-.42 4.09-3.63 4.9-3.63.22 0 4.5 2.2 9.53 4.91 5.02 2.71 9.2 4.86 9.28 4.78.08-.08-1.94-3.49-4.49-7.57-2.55-4.08-4.63-7.63-4.63-7.9 0-.6 3.44-2.76 4.16-2.62.56.1 14.54 22.2 14.53 22.96 0 .46-4 3.08-4.7 3.07-.22 0-4.62-2.28-9.76-5.06-5.14-2.79-9.4-4.94-9.45-4.8-.06.14 2.05 3.67 4.67 7.84 2.63 4.17 4.78 7.76 4.78 7.97 0 .39-3.63 2.87-4.2 2.87-.17 0-.54-.35-.82-.79zm149.41-26.56c-.03-.01-.06 0-.07 0-.67.41-16.25 21.33-16.22 21.78.03.56 9.33 7.52 11.54 8.64 1.22.62 2.2.81 4.1.81 3.52 0 6.18-1.3 9.54-4.68 5.7-5.7 7.07-12.79 3.36-17.26-1.34-1.62-11.22-9.09-12.25-9.3zm1.78 7.26c.36-.02 4.74 3.5 5.84 4.68 1.83 1.98.7 6.24-2.66 10.09a15 15 0 0 1-3.05 2.64c-.81.46-2.03.93-2.7 1.04-1.86.3-2.65-.1-8.08-4.23-.2-.15 10.32-14.2 10.65-14.22zm4.64 35.29c-1.67-1.8-2.36-2.79-2.22-3.16.21-.54 20.15-17.68 20.57-17.68.5 0 3.8 3.79 3.65 4.19-.09.23-17.96 15.87-20.12 17.61-.49.4-.75.26-1.88-.96zM-42.7 462.03c-.24 0-1.46 1.04-2.7 2.3l-2.29 2.3 6.52 13.05c3.59 7.17 6.6 13.04 6.7 13.04a19 19 0 0 0 2.27-2.08l2.06-2.1-1.36-2.65-1.37-2.65 3.17-3.29c1.74-1.8 3.36-3.4 3.6-3.55.25-.16 1.48.25 2.96 1l2.53 1.27 2.07-2.05c1.13-1.12 2.06-2.22 2.06-2.43 0-.2-.67-.68-1.5-1.04l-4.5-2.03-4.58-2.1-8.4-3.86c-3.74-1.72-7-3.13-7.24-3.13zm2.61 7.37c.24-.06 2.2.8 4.56 1.98 2.53 1.26 4.59 2.42 4.59 2.57 0 .15-.92 1.18-2.04 2.3a15.56 15.56 0 0 1-2.27 2.01c-.13 0-.98-1.39-1.9-3.09-.9-1.7-1.94-3.6-2.3-4.25a5.68 5.68 0 0 1-.66-1.5c0-.01 0-.02.02-.02zm193.22 32.93c-1.4-1.65-2.8-4.05-2.5-4.35.18-.18 2.14-1.5 4.36-2.94l4.04-2.63 4.45-8.38c2.45-4.61 4.62-8.44 4.83-8.5.38-.14 3.6 4.57 3.6 5.26 0 .22-1.44 2.77-3.2 5.67a65 65 0 0 0-3.1 5.37c.07.05 2.85-.3 6.19-.8 4.72-.7 6.17-.8 6.56-.48.92.76 3.16 4.7 2.85 5-.17.16-2.37.47-4.9.68l-8.28.72c-2.04.18-4.12.34-4.62.35-.51 0-2.67 1.13-4.94 2.58a937.8 937.8 0 0 1-4.42 2.82c-.22.13-.63-.04-.92-.37zm12.95 30.87c-3.11-8.73-6.49-19.13-6.28-19.33.16-.15 3.15-1.25 6.64-2.45l12.62-4.33c3.88-1.33 6.4-2.02 6.6-1.82.43.44 6.06 16.6 6.26 17.97.14 1 .04 1.1-1.6 1.67-3 1.06-2.47 1.79-5.92-8.37a37.81 37.81 0 0 0-1.58-4.18c-.24-.28-4.43.97-4.98 1.48-.13.13.71 2.98 1.87 6.36 1.16 3.37 2.02 6.21 1.91 6.32-.25.25-3.77 1.48-4.24 1.48-.2 0-1.32-2.78-2.48-6.17-1.16-3.4-2.28-6.18-2.48-6.18-.2 0-1.64.47-3.18 1.03-2.16.8-2.8 1.18-2.76 1.68.03.35 1.03 3.48 2.23 6.93 1.2 3.46 2.12 6.48 2.03 6.72-.09.23-1.03.7-2.09 1.03-2.3.72-2.37.73-2.57.16zm-232.98 1.35c-6.88-1.99-12.56-3.78-12.63-3.98-.07-.2.76-3.52 1.85-7.38 3.4-12.08 3.29-11.77 4.12-11.77.86 0 3.51.72 3.91 1.06.15.13-.6 3.26-1.67 6.95-1.08 3.7-1.95 6.82-1.95 6.93 0 .37 5.02 1.7 5.28 1.4.14-.16.99-2.9 1.89-6.08.9-3.2 1.77-5.94 1.94-6.11.4-.4 4.28.7 4.5 1.26.08.23-.64 3.1-1.6 6.39-.96 3.28-1.68 6.07-1.6 6.2.28.46 6.2 1.87 6.49 1.55.15-.18 1.04-3.1 1.97-6.5a65.1 65.1 0 0 1 2.15-6.93c.47-.76.49-.76 2.51-.16 1.15.34 2.08.83 2.12 1.12.05.28-1.14 4.8-2.64 10.03-2.37 8.27-2.82 9.53-3.43 9.58-.4.03-6.34-1.57-13.21-3.56zm240.85 24.43c-1.85-.5-4.3-2.8-5.43-5.1-.8-1.64-1-2.56-1.13-5.57-.19-4.3.4-6.74 2.1-8.8 1.55-1.87 5.53-3.7 6.06-2.78.08.15.26 1.33.4 2.63l.24 2.36-1.43.73c-1.82.93-2.5 2.26-2.5 4.88 0 4.3 1.95 7 4.4 6.08 1.48-.57 1.79-1.53 3.01-9.36.49-3.1 1.72-5.84 3.04-6.78 3.55-2.52 9.04-1.65 11.37 1.8 1.28 1.9 1.7 3.06 2.19 5.92.7 4.14-.52 7.98-3.25 10.32-1.52 1.3-4.05 2.26-4.54 1.73-.15-.16-.38-1.41-.52-2.79l-.24-2.5 1.13-.47a4.5 4.5 0 0 0 1.8-1.55c.9-1.5.89-4.73-.03-6.53-.74-1.46-1.28-1.8-2.84-1.8-1.68 0-2.3 1.23-2.98 5.9-.86 5.87-1.48 7.95-2.9 9.6-1.81 2.12-4.83 2.9-7.95 2.08zm-231.88 6.87c-11.83-.34-24.04-.93-24.3-1.17-.16-.16-.19-1.51-.05-3l.26-2.72 5.25.25c2.9.14 5.26.12 5.26-.05 0-.16-2.3-2.6-5.12-5.4l-5.11-5.11v-3.43c0-1.88.14-3.5.32-3.62.17-.1 2.58 2.23 5.35 5.19 2.77 2.96 5.24 5.43 5.49 5.49.25.06 3.96-2.28 8.24-5.2 4.29-2.93 7.95-5.32 8.13-5.32.52 0 .43 6.46-.1 7.12-.24.31-3.05 2.26-6.23 4.33l-5.79 3.78 1.38 1.36 1.38 1.37 4.05.06c2.23.03 4.26.14 4.5.23.62.24.62 5.61 0 5.79-.24.07-1.55.1-2.9.05zm250.47 5.34a314 314 0 0 0-9.17-.7l-11.82-.8-3.35-.24.02-.97.1-2.96.06-2 3.97.23c2.18.13 6.27.4 9.08.6l9.66.68c2.5.17 4.67.44 4.82.6.16.16.18 1.49.05 2.94l-.24 2.65-1.24.04c-.67.03-1.55 0-1.94-.07zm6.6.11c-.24-.3-.3-1.34-.14-2.91.28-2.76.43-2.88 3.11-2.48l1.55.23v2.25c0 3.2-.1 3.36-2.3 3.36-1.07 0-2-.2-2.22-.46z"/><path d="M56.9 455.85c-5.57 0-11.12.21-13.78.64-24.63 3.95-43.82 13.75-60.32 30.8a93.23 93.23 0 0 0-11.5 14.27c-2.79 4.15-3.65 5.02-3.65 3.7 0-.73-2.06-2.3-3.01-2.3-.47 0-1.39.47-2.05 1.05a5.9 5.9 0 0 1-1.47 1.06c-.31 0-.07-1.06.71-3.17.9-2.41.59-6.1-.69-8.03-1.24-1.87-3.98-3.65-5.97-3.88-2.53-.28-4.29.78-9.18 5.53-4.71 4.58-5.32 4.89-7.05 3.53-1.74-1.38-.89-5.05 1.71-7.33 1.2-1.05 1.52-1.16 3.12-1.05l1.78.11 1.17-1.94a9.96 9.96 0 0 0 1.17-2.4c0-1.48-5.59-1.9-8.1-.6-1.9.98-4.48 3.88-5.67 6.38-2.52 5.27-1.44 9.73 2.97 12.32 3.85 2.25 5.96 1.5 11.8-4.16 4.41-4.28 5.53-4.9 7-3.95 2.26 1.48 1.7 4.89-1.3 8.02l-1.73 1.78-1.95-.2-1.95-.2-1.24 2.1a13.13 13.13 0 0 0-1.24 2.47c0 .6 2.56 1.46 4.41 1.5 2.3.03 4.66-1.11 6.9-3.35.94-.94 1.78-1.72 1.86-1.72.08 0 .35.48.59 1.06.56 1.36 1.55 1.37 2.1.03.58-1.4 1.44-1.67 2.21-.72.7.87.46 1.6-1.04 3.23l-.88.94.91.92.92.91-1.1 2.37a104.5 104.5 0 0 0-9.17 51.06 103.37 103.37 0 0 0 72.67 90.88 113.45 113.45 0 0 0 21.22 4.17c1.46.16 5.27.3 8.47.33 51.6.37 95.56-37.75 102.85-89.2.89-6.27 1.07-18.5.37-24.65-2.15-18.74-8.37-35.04-18.94-49.64a104.31 104.31 0 0 0-38.09-32.23c-10.22-5.07-19.49-7.93-31.86-9.81-2.78-.43-8.4-.64-13.97-.63zm4.27 3.78c2.12.04 3.99.11 5.33.24a97.06 97.06 0 0 1 27.15 6.5c12.52 4.9 23.51 12.15 33.49 22.1 8.5 8.5 14.06 16.2 19.18 26.65 6.92 14.1 10.06 27.77 10.06 43.75a96.42 96.42 0 0 1-9.95 43.56c-4.74 9.87-10.98 18.54-19.3 26.83-16.2 16.14-36.5 25.83-59.47 28.4-5.45.6-16.11.6-21.34-.01-19.53-2.3-36.3-9.25-51.54-21.39a111.72 111.72 0 0 1-15.14-15.13c-11.39-14.34-18.15-29.92-20.99-48.33-.76-4.9-1.06-17-.58-22.57a98.9 98.9 0 0 1 30.09-62.96c15-14.46 33.2-23.43 54.45-26.84 3.56-.57 12.2-.89 18.56-.8zM-5.3 684.4c-.54-.3-1.07-.72-1.16-.96-.09-.24 1.75-4 4.08-8.39 2.34-4.37 4.25-8.13 4.25-8.35 0-.22-1.11-.96-2.47-1.64-2.58-1.3-2.92-1.85-1.94-3.14.49-.65.56-.65 2.48-.05 2.5.78 4.07.55 5.67-.85 1.18-1.04 1.26-1.06 2.27-.54.57.3 1.04.74 1.04 1 0 .25-.88 2.1-1.97 4.13l-4.4 8.26-4.1 7.76c-.94 1.75-1.94 3.2-2.23 3.23a3.6 3.6 0 0 1-1.52-.47zm103.5-19.48a9.8 9.8 0 0 0-3.06.48c-4.97 1.48-7.36 6.77-6 13.31 1.34 6.42 4.32 11.4 7.8 13.05 1.1.52 1.98.63 4.06.52 4.45-.24 7.11-2.3 8.32-6.48.46-1.56.48-2.21.13-3.9-.72-3.48-2.13-5.53-4.75-6.88-1.8-.93-4.74-1-6.94-.15-1.53.59-3.84 2.65-4.26 3.8-.12.35-.3.39-.57.13-.23-.22-.41-1.65-.43-3.4-.06-5.2 1.67-7.24 5.94-7.03.44.02 1.4.6 2.16 1.27 1.35 1.22 1.38 1.23 2.62.71a4.63 4.63 0 0 0 1.45-.83c.33-.53-2.33-3.3-3.83-3.98a6.5 6.5 0 0 0-2.63-.62zm2.29 12.77a4.6 4.6 0 0 1 3.41 1.23c3.04 3.24 2.65 7.95-.8 9.68-5.05 2.54-10.37-4.22-7.02-8.93.9-1.27 2.7-1.96 4.41-1.98zm-69.34-8.18c-2.3.02-3.81.65-5.18 2.13-.96 1.03-2.21 3.73-2.22 4.8a8.06 8.06 0 0 0 1.77 4.15c.68.73.68.73-.89 1.5a6.8 6.8 0 0 0-2.55 2.24c-.88 1.32-.99 1.8-.99 4.36 0 2.54.12 3.04.97 4.33 1.06 1.61 3.43 3.16 5.89 3.85 5.97 1.69 11.4-2.15 11.39-8.04 0-2.21-.38-3.15-1.9-4.76l-1.04-1.1 1.25-.74c3.31-1.96 3.89-6.72 1.19-9.8-1.65-1.87-3.56-2.7-6.65-2.89l-1.04-.03zm.44 3.13c4.46 0 6.83 4.09 4 6.91-1.04 1.05-1.42 1.2-2.9 1.18-2.2-.03-2.97-.35-4.13-1.73a3.88 3.88 0 0 1 3.03-6.36zm-1.86 11.14a7.7 7.7 0 0 1 1.94.3c3.17.93 4.56 3.34 3.7 6.42-.46 1.66-2.04 3.3-3.16 3.3-.36 0-.86.07-1.12.14-.84.25-3.46-.43-4.5-1.17-1.35-.97-1.92-2.48-1.71-4.63a4.55 4.55 0 0 1 4.85-4.36zm36.24-12.32c-4.43-.1-7.44 2.1-9.03 6.6-.66 1.87-.82 3.08-.83 6.13-.02 4.49.5 7.3 1.88 10.02a9.08 9.08 0 0 0 5.26 4.71c3.12 1 7.46-.1 9.4-2.4 1.6-1.9 2.23-3.71 2.24-6.46 0-2.76-.52-4.38-1.97-6.1-2.79-3.32-8.59-3.76-11.75-.9-.74.66-1.42 1.13-1.52 1.03-.32-.32.63-5.25 1.23-6.38 1.05-2 2.55-2.95 4.61-2.95 2.15 0 3.08.54 3.9 2.28.53 1.1.75 1.24 1.9 1.24 2.02 0 2.4-.39 1.83-1.81-1.3-3.26-3.7-4.94-7.15-5.01zm.07 12.92a5 5 0 0 1 3.25 1.22 6.34 6.34 0 0 1 .18 9.24c-.73.67-1.4.89-2.96.96-2.28.12-2.74 0-3.91-1.07-1.3-1.17-1.87-2.6-1.87-4.63 0-2.95 1.15-4.64 3.7-5.46a5.32 5.32 0 0 1 1.6-.26z"/><path d="M56.42 405.85c-5.28.03-10.67.17-12.66.38-27.39 2.9-49.7 10.8-71.53 25.28-37.73 25.04-62.9 66.57-67.35 111.13l-.6 5.82c-.34 3.18-.24 18.59.15 22.58.69 7.08 1.96 15.68 2.95 19.93 4.44 19.17 10.51 34 20.23 49.45 24.39 38.76 65.92 65.12 110.77 70.3 1.94.23 4.16.55 4.94.71 1.62.33 26.09.23 28.22-.12.78-.12 2.84-.4 4.59-.6 36.6-4.3 71.79-23.1 96.5-51.5 19.87-22.88 33.3-52.96 36.33-81.47.21-2.03.54-4.19.72-4.78.42-1.39.43-26.87.01-28.24a46.8 46.8 0 0 1-.74-4.9c-1.12-10.3-3.91-22-7.86-32.99-15.63-43.45-51.24-78.35-94.98-93.06a159.06 159.06 0 0 0-32.28-7.1c-2.03-.2-4.5-.47-5.46-.6-1.52-.19-6.68-.25-11.95-.22zm2.22 3.73c15.48.2 31.24 2.76 45.36 7.49a149.5 149.5 0 0 1 86.28 74.45c10.83 21.42 15.98 43.12 15.97 67.35 0 11.99-.79 19.62-3.18 31.04-9.93 47.38-43.13 87.57-87.96 106.48-13.97 5.89-27.76 9.36-43.74 11.01-5.19.54-22.5.63-27.34.14-26.32-2.63-48.4-10.4-69.68-24.53a148.86 148.86 0 0 1-61.76-86.84 149.04 149.04 0 0 1 16.35-113.85 149.13 149.13 0 0 1 129.7-72.74z"/></g></svg>