<svg width="555.52" height="566.74" viewBox="0 0 146.98 149.95" xmlns="http://www.w3.org/2000/svg"><defs><radialGradient fx="0" fy="0" cx="0" cy="0" r=".5" gradientUnits="userSpaceOnUse" gradientTransform="matrix(26.89136 .20137 .20137 -26.89136 40.21 61.88)" spreadMethod="pad" id="a"><stop offset="0" stop-color="#ffed00"/><stop offset=".58" stop-color="#fd0"/><stop offset="1" stop-color="#fc0"/></radialGradient><radialGradient fx="0" fy="0" cx="0" cy="0" r=".5" gradientUnits="userSpaceOnUse" gradientTransform="matrix(36.22644 .27127 .27127 -36.22644 47.8 49.84)" spreadMethod="pad" id="b"><stop offset="0" stop-color="#ffed00"/><stop offset=".58" stop-color="#fd0"/><stop offset="1" stop-color="#fc0"/></radialGradient><radialGradient fx="0" fy="0" cx="0" cy="0" r=".5" gradientUnits="userSpaceOnUse" gradientTransform="matrix(27.60473 .20718 .20718 -27.60473 60.26 42)" spreadMethod="pad" id="c"><stop offset="0" stop-color="#ffed00"/><stop offset=".58" stop-color="#fd0"/><stop offset="1" stop-color="#fc0"/></radialGradient><radialGradient fx="0" fy="0" cx="0" cy="0" r=".5" gradientUnits="userSpaceOnUse" gradientTransform="matrix(27.6571 .2071 .2071 -27.6571 73.77 38.46)" spreadMethod="pad" id="d"><stop offset="0" stop-color="#ffed00"/><stop offset=".58" stop-color="#fd0"/><stop offset="1" stop-color="#fc0"/></radialGradient><radialGradient fx="0" fy="0" cx="0" cy="0" r=".5" gradientUnits="userSpaceOnUse" gradientTransform="matrix(28.08865 .2108 .2108 -28.08865 87.55 41.9)" spreadMethod="pad" id="e"><stop offset="0" stop-color="#ffed00"/><stop offset=".58" stop-color="#fd0"/><stop offset="1" stop-color="#fc0"/></radialGradient><radialGradient fx="0" fy="0" cx="0" cy="0" r=".5" gradientUnits="userSpaceOnUse" gradientTransform="matrix(34.31182 .25693 .25693 -34.31182 96.71 50.2)" spreadMethod="pad" id="f"><stop offset="0" stop-color="#ffed00"/><stop offset=".58" stop-color="#fd0"/><stop offset="1" stop-color="#fc0"/></radialGradient><radialGradient fx="0" fy="0" cx="0" cy="0" r=".5" gradientUnits="userSpaceOnUse" gradientTransform="matrix(26.16838 .19595 .19595 -26.16838 105.3 62.36)" spreadMethod="pad" id="g"><stop offset="0" stop-color="#ffed00"/><stop offset=".58" stop-color="#fd0"/><stop offset="1" stop-color="#fc0"/></radialGradient><radialGradient fx="0" fy="0" cx="0" cy="0" r=".5" gradientUnits="userSpaceOnUse" gradientTransform="matrix(77.2189 .57823 .57823 -77.2189 73.05 70.44)" spreadMethod="pad" id="h"><stop offset="0" stop-color="#ffed00"/><stop offset=".58" stop-color="#fd0"/><stop offset="1" stop-color="#fc0"/></radialGradient><radialGradient fx="0" fy="0" cx="0" cy="0" r=".5" gradientUnits="userSpaceOnUse" gradientTransform="matrix(21.53768 .16164 .16164 -21.53768 72.99 68.44)" spreadMethod="pad" id="i"><stop offset="0" stop-color="#008bd2"/><stop offset="1" stop-color="#2f2483"/></radialGradient><linearGradient x1="249.01" y1="72.72" x2="247.26" y2="247.93" gradientUnits="userSpaceOnUse" spreadMethod="pad" id="j" gradientTransform="matrix(.35278 0 0 -.35278 -14.7 164.66)"><stop offset="0" stop-color="#2f2483"/><stop offset="1" stop-color="#008bd2"/></linearGradient></defs><path d="M73.94 15.55c-32.17-.25-58.46 26.18-58.7 59-.25 32.82 25.64 59.63 57.8 59.87 32.18.24 58.46-26.18 58.7-59 .25-32.82-25.63-59.63-57.8-59.87z" fill="#fff"/><path d="M30.01 54.5h-.1a50.3 50.3 0 0 0-6.27.37c7.3 10.46 18.22 15.27 33.14 13.85-6.56-9.9-15.7-14.15-26.77-14.23" fill="url(#a)" fill-rule="evenodd"/><path d="M56.78 68.72C49 56.97 37.56 53.2 23.64 54.87c7.3 10.46 18.22 15.27 33.14 13.85z" fill="none" stroke="#2f2483" stroke-width=".08" stroke-miterlimit="22.93"/><path d="M61.12 62.61c-3.83-13.44-13.3-21.39-26.64-25.55 3.75 12.13 12.47 20.75 26.64 25.55" fill="url(#b)" fill-rule="evenodd"/><path d="M61.12 62.62c-3.84-13.45-13.3-21.4-26.64-25.56 3.75 12.13 12.47 20.76 26.64 25.56z" fill="none" stroke="#2f2483" stroke-width=".08" stroke-miterlimit="22.93"/><path d="M66.21 59.35c3.37-15.5-1.87-26.76-13-35.1-2.75 14.05 1.36 25.83 13 35.1" fill="url(#c)" fill-rule="evenodd"/><path d="M66.21 59.35c3.37-15.5-1.87-26.75-13-35.1-2.75 14.05 1.36 25.83 13 35.1z" fill="none" stroke="#2f2483" stroke-width=".08" stroke-miterlimit="22.93"/><path d="M73.4 57.76c8.44-14.29 7.33-27-.3-38.62-7.36 13.05-7.5 25.93.3 38.63z" fill="url(#d)" fill-rule="evenodd"/><path d="M73.4 57.77c8.44-14.3 7.33-27-.3-38.63-7.36 13.05-7.5 25.94.3 38.63z" fill="none" stroke="#2f2483" stroke-width=".08" stroke-miterlimit="22.93"/><path d="M80.58 59.3C91.63 51 95.1 38.86 93.38 24.1c-9.84 7.74-14.28 19.35-12.8 35.2z" fill="url(#e)" fill-rule="evenodd"/><path d="M80.58 59.3C91.63 51 95.1 38.87 93.38 24.1c-9.84 7.75-14.28 19.35-12.8 35.2z" fill="none" stroke="#2f2483" stroke-width=".08" stroke-miterlimit="22.93"/><path d="M84.58 62.8c13.74-4.6 21.64-13.1 24.26-25.19C95.9 41.58 87.16 49.4 84.58 62.8z" fill="url(#f)" fill-rule="evenodd"/><path d="M84.58 62.8c2.58-13.4 11.31-21.2 24.26-25.18C106.22 49.7 98.3 58.2 84.58 62.8z" fill="none" stroke="#2f2483" stroke-width=".08" stroke-miterlimit="22.93"/><path d="M88.62 68.96c14.91 1.64 25.9-3 33.36-13.36-2.19-.3-4.3-.46-6.37-.47-11.06-.08-20.28 4.02-26.99 13.83" fill="url(#g)" fill-rule="evenodd"/><path d="M88.62 68.96c7.96-11.63 19.45-15.24 33.36-13.35-7.45 10.35-18.45 15-33.36 13.35z" fill="none" stroke="#2f2483" stroke-width=".08" stroke-miterlimit="22.93"/><path d="m90.5 76.02.36.2 34.35.24c.38-.22.75-.46 1.13-.7-6.2-3.45-12.32-5.37-18.34-5.42-5.93-.04-11.77 1.74-17.5 5.68zm-70.8-1.06c.37.25.74.5 1.11.72l34.36.26.34-.17c-5.66-4.03-11.47-5.9-17.4-5.95-6.02-.04-12.17 1.78-18.4 5.14z" fill="url(#h)" fill-rule="evenodd"/><path d="M90.5 76.03c11.53-7.94 23.52-7.1 35.84-.27-.38.24-.75.48-1.13.7l-34.35-.25zm-35-.26c-11.4-8.12-23.4-7.47-35.8-.8l1.1.72 34.36.26z" fill="none" stroke="#2f2483" stroke-width=".08" stroke-miterlimit="22.93"/><path d="M55.22 75.93v.01l34.88.26c-.06-9.7-7.76-17.6-17.3-17.68-9.56-.07-17.37 7.71-17.58 17.4" fill="url(#i)" fill-rule="evenodd"/><path d="M72.8 58.53c9.54.07 17.24 7.96 17.3 17.67l-34.88-.25c.2-9.7 8.02-17.5 17.57-17.42z" fill="none" stroke="#183d92" stroke-width=".08" stroke-miterlimit="22.93"/><path d="m72.83 65.85-2.2 2.44 1.32.17 1.1-.94.38.87 1.4.01zm6.86-.16 2 2.56h-1.4l-.39-.9-1.1.96-1.32-.17zm3.9-1.5 2 2.56h-1.4l-.4-.89-1.1.96-1.32-.18zm-3.87-2.98 2 2.57h-1.4l-.38-.89-1.1.94-1.32-.16zm-3.4 2.11-2.2 2.45 1.33.17 1.1-.94.38.88h1.4zm-3.26-2.56 2.01 2.57h-1.4l-.39-.89-1.1.94-1.32-.17zm-3.4 2.62 2.01 2.56h-1.4l-.39-.89-1.09.95-1.33-.17zm-3.45-2.68 2 2.58h-1.4l-.38-.9-1.1.95-1.33-.17zm-1.14 5.28 2.01 2.57h-1.4l-.38-.9-1.1.96-1.33-.18zm-2.66-2.66 2.01 2.56h-1.4l-.39-.88-1.1.95-1.32-.18z" fill="#fff" fill-rule="evenodd"/><path d="m123.9 93.6.04-6.07-6.1-.04-6.92 12.51h-1.88l-.08-12.58-5.7-.04-6.9 12.51h-1.9l-.08-12.58-5.36-.04-6.9 12.52h-1.43l-.08-12.58H79.2l.06-9.1-9.5-.07-.07 9.1-3.85-.04-6.9 12.51h-1.89l-.09-12.58L51.6 87l-6.9 12.52-1.89-.02-.09-12.56-6.03-.05-6.9 12.52-1.9-.02-.08-12.57-5.75-.04-.04 5.07c3.37 17.68 17.4 32.05 35.84 37.28l-.07 8.88 32.14.24.07-9.56c17.05-5.36 30.12-18.63 33.9-35.1" fill="url(#j)" fill-rule="evenodd"/><path d="M79.16 79.88s1.95 4.06 9.06 4.68c2.53.22 18.32-7.5 27.1 3.22M79.58 77.63c8.07 10.5 26.9-5.74 39.17 2.21 3.2 2.08 1.63 1.02 1.63 1.02m-18.69-.56s6.73-.87 12.2 2.78c5.46 3.64 9.5-.86 9.5-.86" fill="none" stroke="#183d92" stroke-width=".08" stroke-miterlimit="22.93"/><path d="m80.42 131.56 3.56.02-.02 2.24-3.56-.02zm-4.43-.04 3.94.03v2.24l-3.96-.03zm-4.43-.03 3.94.03v2.24l-3.96-.03zm-4.26-.03 3.34.02-.02 2.24-3.34-.02zm-2.65-.02 2 .01-.02 2.24h-2zm13.75-3.67 5.04.03-.02 2.24-5.03-.04zm-4.73-.04 4 .03-.03 2.24-3.99-.03zm-4.73-.03 3.8.02v2.24l-3.82-.03zm-3.7-.03 3.04.02-.02 2.24-3.04-.02zm14.87-3.08 2.97.02-.02 2.23-2.97-.02zm-4.56-.04 3.97.03v2.23l-3.99-.03zm-4.5-.03 3.96.03v2.23l-3.98-.03zm-3.39-.03 2.31.02-.02 2.23h-2.3zm-2.13 0h1.41v2.23H65.5zm12.66-3.07 4.38.03-.02 2.23-4.38-.03zm-4.93-.04 3.9.03v2.23l-3.9-.03zm-4.5-.03 3.9.03-.02 2.23-3.9-.03zm-2.8-.02 2.37.01-.02 2.24-2.36-.02zm14.14-3.36 1.9.01-.02 2.24h-1.9zm-4.67-.04 3.78.03-.02 2.24-3.78-.02zm-4.4-.03 3.8.03-.02 2.24-3.8-.03zm-4.62-.03 3.8.03-.03 2.24-3.79-.03zm11-3.25 3.9.03v2.23l-3.9-.02zm-4.4-.04 3.5.03-.02 2.24-3.5-.03zm-4.27-.03 3.5.03-.02 2.24-3.5-.03zm-2.13 0h1.42L68 116.8l-1.42-.02zm12.6-3.2 1.77.01v2.25l-1.78-.02zm-3.68-.03 3.14.03-.02 2.24-3.13-.03zm-3.74-.03 3.14.03-.02 2.24-3.14-.02zm-4.86-.03 3.73.03-.02 2.24-3.73-.03zm10.67-3.2 2.91.03-.02 2.24-2.9-.03zm-3.92-.02 3.22.02-.02 2.24-3.22-.03zm-4.2-.04 3.22.03-.02 2.24-3.22-.03zm-2.05 0h1.4v2.24h-1.42zm11.91-3.29h.8l-.02 2.24h-.8zm-3.83-.03 3.05.02-.02 2.24-3.05-.02zm-4.05-.03 3.4.02-.02 2.24-3.4-.02zm-3.76-.03 3.05.02-.02 2.24-3.05-.02zm10.23-3.36 1.62.01-.02 2.24h-1.6zm-4.45-.03 3.73.03v2.24l-3.75-.03zm-3.56-.03 2.57.02-.02 2.24-2.57-.02zm-1.79 0h1l-.02 2.23h-1zm7.23-3.74 3.6.03-.02 2.24-3.6-.03zm-4.18-.03 3.6.03-.02 2.23-3.6-.02zm-2.8-.02 2.01.01-.02 2.24h-2.02zm8.03-3.03 2.64.02-.02 2.24-2.64-.02zm-3.35-.03 2.63.02-.02 2.25-2.63-.02zm-3.85-.02 2.64.02v2.24l-2.66-.02zm5.51-3.47 3.87.03v2.24l-3.89-.02zm-3.7-.03 2.64.02v2.25L71 93.08zm-1.7 0h1l-.03 2.24h-1zm7.86-3.52h1.41v2.25l-1.42-.02zm-4.15-.03 2.68.02v2.23l-2.69-.02zm-3.22-.03 2.68.02v2.24l-2.69-.02z" fill="#e3000f" fill-rule="evenodd"/><path d="M73.94 15.55c-32.17-.25-58.46 26.18-58.7 59-.25 32.82 25.64 59.63 57.8 59.87 32.18.24 58.46-26.18 58.7-59 .25-32.82-25.63-59.63-57.8-59.87zM74.05 0c40.58.3 73.24 34.12 72.93 75.53a76.7 76.7 0 0 1-1.2 12.96l-5.18.1-.66 4.98 4.63.47a75.32 75.32 0 0 1-1.88 6.2l-4.56-.28-1.54 3.7 3.67 2.65a76.65 76.65 0 0 1-2.7 5.4l-3.88-1.67-2.37 3.52 3.31 3a71.7 71.7 0 0 1-3.7 5.17l-2.87-2.14-3.6 3.37 2.56 3.38c-1.4 1.52-2.89 3-4.42 4.4l-2.63-2.52-3.12 3.38 2 2.36a75.36 75.36 0 0 1-5.7 4.14l-2-2.38-3.64 2.5.31 3.05a69.8 69.8 0 0 1-4.5 2.24l-1.58-2.49-4.37 1.56-.03 3.32a69.29 69.29 0 0 1-5.4 1.66l-.34-1.85-5.76.58-.24 2.65c-1.73.3-3.5.52-5.26.7l-.1-1.64-6.38.11-.02 1.84h-.9c-1.5 0-2.97-.08-4.45-.17l.1-2.34-7.78-.85-.85 2.1c-2-.38-3.96-.84-5.9-1.38l.7-2.67-4.18-1.62-1.6 2.66a71.13 71.13 0 0 1-5.55-2.26l.33-3.3-4.03-1.94-1.6 2.55a73.22 73.22 0 0 1-5.24-3.25l1.27-3-3.7-2.87-2.14 2.5a72.14 72.14 0 0 1-4.73-4.1l1.77-3.35-2.62-2.88-3.03 2.3c-1.35-1.49-2.63-3-3.86-4.6l2.9-2.8-2.93-4.15-3.6 1.87a73.18 73.18 0 0 1-2.95-4.95l3.32-2.97-1.83-3.67-4 1.62a74.9 74.9 0 0 1-2.39-5.95l4.1-1.23-.74-5.09-5.32-.12A76.23 76.23 0 0 1 0 74.44C.31 33.02 33.47-.3 74.05 0" fill="#2f2483" fill-rule="evenodd"/><path d="m28.67 19.54-.89-1.1-.97.82.9 1.12zm-.43 3.73-1-1.15-3.58 3.42 1.01 1.14 1.18-1.12 4.72 5.35 1.22-1.16-4.72-5.36zm-.04-1.9 5.4 6.8 1.28-1.1-5.4-6.8zm-9.22 9.72 4.18 3.58-6.4-.76-1 1.26 6.54 5.6 1.04-1.3-4.3-3.7 6.54.85.98-1.24-6.55-5.6zm26.35-14.93-1.8.94-.3-3.02zm-3.8-4 .84 9.44 1.54-.8-.2-1.97 2.81-1.47 1.4 1.35 1.58-.83-6.69-6.38zm-2.17 8.41c0 .38-.1.72-.28 1.05-.2.33-.45.62-.79.87-.6.43-1.25.56-1.96.4a2.73 2.73 0 0 1-1.73-1.23c-.2-.3-.33-.63-.4-1a2.88 2.88 0 0 1 .32-2.08c.18-.28.41-.53.7-.73.34-.26.7-.4 1.06-.47.36-.05.75 0 1.13.12l1.67-1.2a4.7 4.7 0 0 0-2.48-.77 4.1 4.1 0 0 0-2.33.84 4.3 4.3 0 0 0-1.77 2.83 4.81 4.81 0 0 0 .68 3.46c.33.5.72.91 1.16 1.24.44.33.92.56 1.45.68a4.01 4.01 0 0 0 3.47-.65 4.3 4.3 0 0 0 1.77-4.57zm85.57 3.23-.9-.9-.97 1.06.91.9zM17.71 42.06l-1.06 1.8-1.79-2.4zm-5.25-1.3 5.51 7.53.9-1.52-1.17-1.55 1.64-2.8 1.86.37.92-1.58-8.9-1.72zm4.7 9.73.14.06c.28-.69.3-1.36.05-2a3 3 0 0 0-1.58-1.63 2.2 2.2 0 0 0-1.46-.24c-.45.1-.9.37-1.32.83-.09.1-.22.24-.37.43a2.4 2.4 0 0 1-.88.76l-.3.03-.32-.1a1.04 1.04 0 0 1-.53-.55.85.85 0 0 1 .05-.7.84.84 0 0 1 .5-.5.86.86 0 0 1 .7.06l.06.03.65-1.4a2.65 2.65 0 0 0-1.92-.18c-.56.2-1 .61-1.29 1.26a2.4 2.4 0 0 0-.1 1.97c.24.63.72 1.13 1.44 1.5.52.24 1.02.3 1.5.18.48-.13.95-.45 1.43-.99l.16-.19c.56-.63 1.08-.82 1.57-.58.31.15.51.37.61.64.1.27.07.57-.07.87a.96.96 0 0 1-.6.56c-.28.08-.58.04-.9-.1l-.1-.07-.66 1.43a2.9 2.9 0 0 0 2.14.23c.55-.18.97-.53 1.3-1.05l-.13-.06zm-3.82 5.86-1.98-.73.97-2.88-1.38-.5-.97 2.87-1.83-.67.98-2.88-1.4-.5-1.53 4.48 8 2.93 1.52-4.5-1.4-.5zm-9.09 6.6 8.22 2.2.4-1.67-8.2-2.2zM19.3 49.86c-.34-.17-.65-.19-.9-.05-.28.13-.5.4-.7.83l-.04.1-.36-.19-.06.17-.18.33.94.47.05-.1.06-.13c.11-.28.24-.46.36-.55.13-.09.26-.1.4-.02.14.06.21.16.23.3.02.13 0 .3-.1.48-.07.17-.18.35-.32.57l-.54.71.63.31c.2-.25.38-.5.53-.72.16-.22.28-.45.37-.64.2-.44.26-.83.2-1.15a1.02 1.02 0 0 0-.58-.72M5.77 56.8l-.46 1.86 3.5 3.7 4.71-1.5.46-1.85-4.8 1.64zm86.26-45.52a2.7 2.7 0 0 0-1.07-1.15l-.5-.28a2.46 2.46 0 0 1-.9-.72l-.08-.3.02-.34c.06-.3.2-.52.38-.67a.81.81 0 0 1 .68-.1.8.8 0 0 1 .57.4c.13.2.16.44.1.71v.08l1.46.33c.12-.8.02-1.46-.29-1.99-.3-.52-.79-.86-1.46-1.02a2.21 2.21 0 0 0-1.87.34c-.54.4-.89 1-1.06 1.8-.13.6-.07 1.12.15 1.57.24.46.65.87 1.25 1.22l.2.13c.72.42 1.02.9.9 1.46-.06.35-.22.6-.45.76a1 1 0 0 1-.84.13.92.92 0 0 1-.66-.5 1.38 1.38 0 0 1-.09-.93l.04-.12-1.49-.34c-.17.87-.08 1.61.26 2.23.34.63.9 1.02 1.63 1.2.78.17 1.47.05 2.06-.38.6-.43.98-1.1 1.16-1.98.12-.58.1-1.1-.1-1.54m32.53 27.01c-.2-.29-.34-.63-.4-1a3.03 3.03 0 0 1 .4-2.12c.18-.3.42-.55.72-.77a2.4 2.4 0 0 1 1.96-.46c.71.12 1.3.5 1.72 1.12.4.6.56 1.28.44 2.01a2.65 2.65 0 0 1-1.07 1.77c-.64.48-1.32.66-2.04.55-.72-.1-1.3-.47-1.73-1.1zm3.2 2.8a4.44 4.44 0 0 0 2.72-2.06 4.72 4.72 0 0 0-.13-5.02 4.39 4.39 0 0 0-3.68-1.93 4.34 4.34 0 0 0-2.45.87 4.66 4.66 0 0 0 .21 7.61c.5.32 1.05.53 1.64.6a4 4 0 0 0 1.68-.08m2.85 6.1c-.6-.15-1.15-.64-1.62-1.46l-.56-1 4.8-2.95.55.97c.43.77.56 1.5.38 2.17a2.92 2.92 0 0 1-1.4 1.74c-.83.5-1.55.68-2.15.53zm.97 1.71c.67-.06 1.34-.3 2-.7a5.58 5.58 0 0 0 1.44-1.26 4 4 0 0 0 .75-1.57 3.6 3.6 0 0 0 .04-1.53 6.4 6.4 0 0 0-.74-1.79l-1.45-2.53-7.3 4.5 1.47 2.57c.33.58.63 1.02.92 1.3.27.3.6.53.94.7.62.27 1.27.4 1.93.31m-9.39-24.29-5.82 6.42 1.2 1.18 5.83-6.4zm-1.9-1.86-3.49 1.92 1.25-3.89-1.38-1.23-1.68 5.94L113 27.9l1.27 1.13 1.98-2.43 5.4-2.63zm16.37 39.78a2.3 2.3 0 0 0 1.24-.83c.28-.39.42-.9.45-1.55v-.57c0-.57.04-.96.17-1.18l.2-.23.3-.14a.96.96 0 0 1 .73.03c.21.1.36.3.44.56.07.27.05.5-.06.72a.91.91 0 0 1-.56.44l-.07.02.43 1.5a2.75 2.75 0 0 0 1.53-1.22c.3-.54.34-1.14.15-1.83-.2-.73-.6-1.25-1.2-1.54a2.63 2.63 0 0 0-2.02-.09c-.55.17-.96.47-1.24.9a3.34 3.34 0 0 0-.42 1.72v.27c0 .84-.27 1.36-.8 1.52-.32.1-.6.08-.86-.05a1.09 1.09 0 0 1-.5-.7.98.98 0 0 1 .1-.84c.14-.25.4-.43.73-.53l.12-.04-.44-1.5c-.8.26-1.38.7-1.75 1.31-.35.61-.43 1.3-.2 2.06.22.8.66 1.37 1.3 1.7.65.32 1.4.36 2.23.1m-2.07-8.83-.74-1.96 2.92-.05zm4.16-3.6-9.1.06.64 1.67 1.9-.04 1.14 3.04-1.4 1.33.65 1.72 6.7-6.39zm3.71 12.68-8.33 1.62.3 1.7 8.34-1.63zM51.6 11.92c-.25.36-.69.67-1.3.91l-.35.14-.97-2.68.58-.2c.58-.24 1.04-.3 1.4-.2.34.1.6.37.75.8.16.46.12.87-.12 1.23zm1.71-.04c.18-.59.15-1.19-.08-1.84a2.65 2.65 0 0 0-.85-1.23 2.4 2.4 0 0 0-1.36-.52 2.5 2.5 0 0 0-.83.08c-.3.07-.76.22-1.36.45l-1.89.74 2.98 8.26 1.55-.6-1.38-3.84 3.43 3.03 1.86-.72-3.14-2.42c.53-.36.9-.82 1.07-1.4m58.21 10.5-1.65-1.22 2.42-1.7zm1.6-5.37-7.59 5.21 1.4 1.04 1.56-1.1 2.57 1.9-.5 1.9 1.45 1.07 2.28-9.15zM64.88 4.64l-4.78.85.25 1.52 1.57-.27 1.17 7.17 1.63-.29-1.17-7.17 1.58-.28zm13 4.51a1.8 1.8 0 0 1 1.8-1.22c.45.04.82.2 1.1.43.3.27.47.62.57 1.08zm4.56-.92a3.3 3.3 0 0 0-2.66-1.73 3 3 0 0 0-1.3.2 3.52 3.52 0 0 0-2.24 3.07A3.57 3.57 0 0 0 77 12.3a3.12 3.12 0 0 0 2.3 1.23c.71.06 1.35-.09 1.92-.45a3.52 3.52 0 0 0 1.34-1.59l-1.6-.13c-.17.25-.4.43-.67.56-.28.13-.58.17-.9.15-.5-.04-.9-.22-1.2-.52-.3-.3-.45-.7-.47-1.18l5.1.42.03-.17.02-.17a4.9 4.9 0 0 0-.05-1.23c-.08-.36-.2-.7-.4-1m-9.6 2.53-1.54-4.4H69.7L72.2 13l1.16-.02 2.5-6.69-1.55.02zm-15.24 2.76-.42-2.13 2.88-.62-.3-1.5-2.87.61-.38-1.96 2.87-.63-.3-1.5-4.48.95 1.7 8.65 4.48-.97-.3-1.52zm50.21.01-2.5 5-.6-6.69-1.4-.75-3.9 7.83 1.43.78 2.57-5.15.57 6.85 1.36.74 3.9-7.84zm-10.29.75-1.88-.77 1.95-2.25zm-5.84 1.36 1.6.65 1.26-1.47 2.92 1.2-.03 1.97 1.66.68.08-9.46-1.33-.54zM84.9 72.88l-2.64-.02c-.2 0-.32.04-.39.1-.06.05-.1.2-.1.38v.38c0 .2.02.32.1.38.05.06.18.1.38.1l2.64.02c.2 0 .33-.03.4-.1.05-.05.1-.18.1-.37v-.39c0-.2-.04-.32-.1-.39a.77.77 0 0 0-.39-.1zm-.1-2.08-2.4-.02c-.2 0-.33.03-.4.1-.07.06-.1.2-.1.38v.26c0 .2.02.32.1.38.06.07.2.1.4.1l2.4.03c.2 0 .32-.04.4-.1.06-.06.1-.19.1-.38v-.27c0-.19-.04-.32-.1-.38-.07-.06-.2-.1-.4-.1zm.4-.89c.48 0 .8.08.94.22.17.16.24.42.24.82v.47c0 .31-.08.54-.23.7-.15.14-.4.25-.77.32.38.04.66.15.83.32.18.17.27.42.26.73v.55c0 .43-.1.72-.28.9-.19.15-.5.23-.98.23l-3.29-.03c-.46 0-.8-.08-.97-.25-.18-.17-.28-.46-.27-.89v-.56c0-.3.1-.55.28-.72.18-.17.45-.27.83-.3a1.5 1.5 0 0 1-.77-.36c-.14-.15-.2-.38-.2-.68v-.48c0-.39.07-.65.24-.8.16-.15.47-.22.94-.2zm-11.89 2.82.32-2.9 4.45.03-.1.9-3.6-.04-.12 1.02 1.17-.1.92-.02c.85 0 1.48.16 1.9.47.43.3.64.74.64 1.33 0 .62-.23 1.07-.69 1.34-.44.27-1.17.42-2.16.4-.53 0-1-.02-1.42-.06a7.6 7.6 0 0 1-1.06-.17l-.26-1.02a17.72 17.72 0 0 0 2.72.3c.64 0 1.1-.06 1.37-.19a.68.68 0 0 0 .4-.65c0-.3-.13-.5-.39-.63s-.68-.2-1.3-.2a28.1 28.1 0 0 0-2.8.2zm-3.42-.57.02-.17v-.15c.01-.52-.06-.84-.18-.96-.14-.13-.43-.2-.88-.2h-1.43c-.36 0-.6.03-.75.12-.13.1-.2.27-.2.51v.3c0 .26.07.43.22.52.15.1.46.14.92.15.32 0 .68 0 1.06-.03.4-.02.8-.05 1.22-.1zm-.07.8a14.42 14.42 0 0 1-2.28.16c-.82 0-1.4-.1-1.7-.3-.32-.2-.47-.56-.46-1.08v-.7c0-.44.15-.76.43-.96.3-.2.74-.3 1.34-.3l2.17.01c.66 0 1.1.12 1.34.36.24.23.35.66.35 1.27v.7a2.74 2.74 0 0 1-1 2.25c-.68.53-1.62.8-2.84.78h-.22l-.14-.02-.7-.85h.32c1.1.01 1.9-.08 2.4-.28.48-.2.82-.54 1-1.04zm-9.72 2.02.04-4.26h-1.1V70l2.2-.32-.05 5.3zm-22 57.32a2 2 0 0 1-2.15-1.02 2.3 2.3 0 0 1-.2-1.65c.08-.26.2-.5.38-.75.35-.46.81-.74 1.4-.82a2 2 0 0 1 1.58.4c.46.34.73.8.81 1.37a2 2 0 0 1-.39 1.55c-.38.51-.86.82-1.43.92zm2.54-.08a3.4 3.4 0 0 0 .64-2.6 3.5 3.5 0 0 0-6.3-1.53 3.58 3.58 0 0 0-.7 2.56 3.35 3.35 0 0 0 1.4 2.38 3.48 3.48 0 0 0 3.94.14c.4-.24.73-.56 1.02-.95m-1.34 3.1 1.14.66 1.46-2.48 2.04 1.2.6-1.02-2.04-1.2.8-1.33 2.03 1.2.6-1.04-3.17-1.86zm24.2 7.04-.99-5.15-1.75-.25-1 6.72 1.31.2.67-4.9 1 5.14 1 .15 2.41-4.64-.76 4.88 1.3.2 1-6.73-1.75-.27zm7.97.67-1.52-5.02-1.77-.07-.29 6.8 1.33.05.15-4.93 1.52 5 1 .05 1.94-4.87-.26 4.93 1.31.06.3-6.8-1.77-.07zm-12.89-3.35a2.17 2.17 0 0 1-1.02 1.35 2 2 0 0 1-1.63.2 2.12 2.12 0 0 1-.74-.4 2.32 2.32 0 0 1-.75-1.5c-.02-.28 0-.56.1-.83.16-.56.5-.98 1.01-1.25a2.08 2.08 0 0 1 1.63-.16c.55.16.96.5 1.24 1 .27.5.33 1.04.16 1.6zm1.46-.94a3.47 3.47 0 0 0-1.3-2.36 3.57 3.57 0 0 0-2.89-.7 3.47 3.47 0 0 0-2.67 2.47 3.39 3.39 0 0 0 .23 2.65c.2.42.5.8.86 1.08a3.65 3.65 0 0 0 2.66.78c.47-.05.91-.2 1.32-.44a3.56 3.56 0 0 0 1.8-3.47m-9.89.34c-.3 0-.59-.05-.9-.18a1.9 1.9 0 0 1-1.12-1.15 2.2 2.2 0 0 1 .52-2.37 2.2 2.2 0 0 1 1.48-.65c.27 0 .53.05.78.16.32.13.57.3.77.52.2.23.34.5.41.8l1.51.63a3.77 3.77 0 0 0-.58-2 3.33 3.33 0 0 0-1.57-1.2 3.3 3.3 0 0 0-2.6 0 3.54 3.54 0 0 0-2.05 4.47 3.35 3.35 0 0 0 1.94 2.05c.68.28 1.33.37 1.96.24a3.55 3.55 0 0 0 1.78-.96l-1.5-.62a1.7 1.7 0 0 1-.83.26M19.1 101.54l-2.58.96-.77-2.05 2.58-.95-.47-1.26-6.39 2.4.48 1.24 2.6-.97.76 2.05-2.6.96.47 1.25 6.4-2.39zm-1.67 6.26-.73-1.44 2.34-.24zm3.1-3.03-7.3.67.62 1.24 1.52-.17 1.13 2.25-1.04 1.13.64 1.27 4.94-5.37zm-7.9-6.95a1.6 1.6 0 0 1-.7-.49 2.1 2.1 0 0 1-.4-.82 1.98 1.98 0 0 1 .23-1.58 2.2 2.2 0 0 1 2.22-1.02 2.07 2.07 0 0 1 1.8 2.44c-.06.28-.2.55-.4.8l.41 1.58a3.82 3.82 0 0 0 1.25-1.66c.21-.6.22-1.26.04-1.98a3.46 3.46 0 0 0-2.9-2.55 3.38 3.38 0 0 0-1.38.07 3.58 3.58 0 0 0-2.12 1.47 3.34 3.34 0 0 0-.48 2.78 3.26 3.26 0 0 0 2.83 2.54zm12.2 14.4-5.15 1.11 3.32-4.05-.92-1.5-5.82 3.56.7 1.11 4.18-2.63-3.3 4.05.52.86 5.12-1.12-4.24 2.55.7 1.12 5.8-3.56zm-1.47 7.11c-.23-.07-.46-.26-.7-.58l-.26-.32 1.41-1.08.25.32c.23.3.34.6.34.84 0 .25-.13.48-.37.66-.22.18-.45.23-.67.16zm2.55-3.58.11.15c.23.28.34.53.35.74 0 .2-.09.4-.3.55-.2.16-.4.2-.63.14-.22-.06-.44-.24-.66-.53l-.1-.13zm-1.04 4.44c.3-.24.52-.53.63-.86.1-.32.1-.65-.03-.97.23.11.47.15.73.1.24-.04.5-.16.75-.35a1.7 1.7 0 0 0 .61-1.93 1.5 1.5 0 0 0-.19-.44 4.41 4.41 0 0 0-.4-.59l-.89-1.15-5.4 4.15 1.03 1.34c.3.38.54.65.76.8a1.84 1.84 0 0 0 1.58.3c.3-.07.57-.2.82-.4m.58 2.01 1.24-1.14 1.6 1.73.87-.8-1.6-1.73 1.15-1.05 1.6 1.74.88-.8-2.5-2.7-5.02 4.6 2.5 2.7.88-.82zm7.18 2.25a.97.97 0 0 1-.9.32c-.33-.05-.7-.27-1.08-.65l-.2-.2 1.53-1.57.36.35c.35.34.56.66.6.94.05.3-.05.56-.3.81zm1.12-1.85c-.15-.2-.4-.48-.78-.84l-1.16-1.14-4.78 4.87.95.92 2.22-2.25-.95 3.5 1.14 1.1.63-3.08c.42.28.87.38 1.33.33.47-.06.9-.27 1.26-.65.3-.32.5-.65.58-1.02a2.03 2.03 0 0 0-.44-1.74m97.32-15.84c-.4-.2-.8-.29-1.16-.22-.36.06-.73.26-1.08.6-.09.07-.19.18-.32.32-.3.31-.54.5-.72.55l-.25.02-.25-.1a.78.78 0 0 1-.4-.42.65.65 0 0 1 .05-.55c.1-.18.23-.3.41-.37a.77.77 0 0 1 .56.08l.05.02.56-1.06a2.29 2.29 0 0 0-1.54-.2 1.8 1.8 0 0 0-1.07.95 1.78 1.78 0 0 0-.13 1.51c.18.5.55.9 1.12 1.2.41.2.8.26 1.2.17.4-.08.78-.33 1.18-.7l.14-.16c.45-.47.88-.6 1.27-.4.24.13.4.3.47.5.07.22.05.44-.08.68a.78.78 0 0 1-.5.42c-.23.04-.47 0-.72-.13l-.09-.04-.56 1.08c.61.3 1.18.38 1.72.24a1.9 1.9 0 0 0 1.23-1.02c.3-.58.35-1.14.15-1.67a2.4 2.4 0 0 0-1.24-1.3m-6.09 11.9-.5.71-3.67-2.59.5-.7c.4-.56.87-.88 1.42-.97.54-.07 1.1.1 1.68.5.63.44 1 .91 1.08 1.4.1.5-.08 1.04-.5 1.65zm.24-4.13c-.44-.33-.9-.55-1.35-.68a3.26 3.26 0 0 0-1.35-.05 2.7 2.7 0 0 0-1.1.45c-.32.23-.66.6-1.02 1.1l-1.32 1.86 5.56 3.94 1.35-1.88c.3-.43.51-.79.63-1.08.11-.3.17-.6.16-.92a3.1 3.1 0 0 0-.4-1.5 3.74 3.74 0 0 0-1.16-1.24m4.35-3.1a5.66 5.66 0 0 0-.87-.66l-3.65-2.3-.72 1.11 3.32 2.11c.52.33.85.61.98.84.13.24.12.5-.05.76-.17.26-.4.4-.66.37a2.9 2.9 0 0 1-1.2-.52l-3.3-2.1-.73 1.11 3.66 2.33c.43.27.75.44.97.51a1.93 1.93 0 0 0 1.65-.17c.3-.18.55-.44.77-.8.23-.35.36-.68.4-1.02.02-.33-.03-.67-.17-1.02-.09-.2-.22-.39-.4-.56m2.6-10.7-.09.27-2.1-.69.16-.47c.16-.47.35-.8.6-.96.23-.17.52-.2.86-.07.36.11.6.33.68.66.1.32.07.74-.1 1.25zm.96-2.35a2.1 2.1 0 0 0-1.14-.84 2.1 2.1 0 0 0-1.18-.08 2.15 2.15 0 0 0-1.37 1.16c-.12.22-.26.58-.42 1.07l-.5 1.53.01.01.05-.1 1 .45 5.41 1.8.42-1.27-3-1 3.55-.67.5-1.5-3.05.78a1.9 1.9 0 0 0-.28-1.34m-6.16 6.3 1.1.48.52-1.17 5.12 2.32.55-1.2-5.12-2.32.53-1.17-.09-.04-1.05-.35zm-49.72 39.05-.14-1.68 2.36-.2-.1-1.16-2.35.2-.13-1.56 2.36-.19-.1-1.19-3.67.3.54 6.78 3.68-.3-.1-1.19zm40.75-25.5 3.17 3-5.1-.96-.88.92 4.95 4.67.9-.95-3.25-3.07 5.21 1.01.86-.89-4.96-4.68zm17-23.12-3.7-3.06-.38 1.4 2.53 1.9-3.15.36-.4 1.41 4.74-.72 2.37.65.35-1.28zm-45.14 46.41c-.23.18-.5.3-.84.37-.57.13-1.1.03-1.58-.3a2.2 2.2 0 0 1-.93-1.4 2.1 2.1 0 0 1-.02-.83 2.16 2.16 0 0 1 .85-1.38 2.03 2.03 0 0 1 1.66-.33c.3.07.56.2.8.42l1.6-.35a3.84 3.84 0 0 0-1.62-1.3 3.67 3.67 0 0 0-3.2.41 3.54 3.54 0 0 0-1.45 2.28c-.09.45-.08.9.02 1.37.11.46.28.87.52 1.23.23.37.53.67.88.92a3.35 3.35 0 0 0 2.78.6 3.4 3.4 0 0 0 1.74-.93 3.6 3.6 0 0 0 .9-1.8l-1.6.35c-.1.27-.28.5-.5.67m11.92-5.88-1.45.75-.29-2.3zm-3.1-3.02.8 7.25 1.23-.64-.2-1.5 2.24-1.17 1.14 1.01 1.27-.66-5.47-4.83zm-4.6 7.9-.55-1.6 2.24-.76-.37-1.12-2.24.74-.5-1.46 2.24-.75-.39-1.14-3.49 1.17 2.18 6.45 3.5-1.17-.39-1.13zm-12.1.45-.3.03-.3-2.17.5-.06c.5-.07.86-.03 1.12.1.25.14.4.4.45.75a.98.98 0 0 1-.3.9c-.26.23-.64.38-1.18.45zm2.53-.18c.24-.4.33-.86.25-1.38-.06-.43-.2-.8-.45-1.1-.24-.29-.57-.5-.98-.62a2.54 2.54 0 0 0-.66-.1 9 9 0 0 0-1.15.1l-1.6.22.9 6.73 1.32-.17-.42-3.13 2.16 2.9 1.58-.2-2.04-2.4c.48-.16.84-.45 1.1-.85m20.74-11.76 2.35 3.66-4.73-2.14-1.07.67 3.68 5.74 1.1-.7-2.4-3.79 4.81 2.25 1.04-.67-3.68-5.72zm6.83 2.16-.7.57-2.8-3.5.68-.54a2.1 2.1 0 0 1 1.62-.54c.55.07 1.04.37 1.48.93.48.6.7 1.15.65 1.65-.05.5-.36.98-.94 1.43zm1.37-3.9a4.32 4.32 0 0 0-1.13-1 3.06 3.06 0 0 0-1.28-.44 2.7 2.7 0 0 0-1.18.14c-.37.14-.8.4-1.28.77l-1.78 1.43 4.25 5.31 1.82-1.44c.4-.32.7-.6.9-.86.2-.25.33-.54.41-.84.15-.52.16-1.03.04-1.56a3.84 3.84 0 0 0-.77-1.5m.17-4.64 4.7 4.92.98-.9-4.7-4.94z" fill="#fff"/></svg>