<?xml version="1.0" encoding="UTF-8"?>
<svg width="676.18" height="506.03" fill="none" version="1.1" viewBox="0 0 676.18 506.03" xmlns="http://www.w3.org/2000/svg">
 <path d="m399.71 341.3c8.904 2.989 5.97 18.711-7.58 23.519-20.494 7.264-20.681-12.165-6.534-20.65h-17.063v-7.097c-4.691 1.775-9.858 2.667-13.755 3.394-11.061 2.026-27.84-16.856-38.626-14.932-60.359 10.303-22.45 95.372 7.826 123.5 46.264 42.983-48.013 112.51-47.31-20.316 0.141-32.179-0.703-50.091-28.215-54.471-7.378-1.15-11.114 4.111-13.57 11.038-4.075 11.468-4.614 27.515-12.51 26.2-17.552-3.065 20.731-54.471-6.137-61.579-26.707-7.085-42.125 29.19-55.01 47.046-10.232 14.015-50.577 40.919-71.2 25.05-44.315-34.024-1.991-49.602 23.331-63.641 8.008-4.435 14.472-9.246 19.54-14.194h-24.634l-33.748-49.593c-2.261 0.694-4.146 1.37-6.026 2.061v47.532h-30.615v-39.58l-0.419 0.076c-44.376 8.057-55.364-45.919 0.419-35.71v-56.954h34.009c10.8 0 19.2 0.682 25.213 2.064 5.979 1.42 11.36 3.806 16.083 7.235 4.722 3.39 8.49 7.717 11.254 12.937 2.761 5.227 4.146 10.772 4.146 16.586 0 8.344-2.102 15.599-6.283 21.792-1.201 1.768-2.559 3.437-4.07 5 11.058-4.11 17.889-14.308 20.477-34.869 2.904-8.669-3.932-23.297-14.361-30.639-17.356-12.242-54.149-14.683-46.827-29.829 15.995-20.854 40.456 8.743 61.042 18.524 18.181 8.614 37.317 8.075 40.851-8.171 7.896-35.748-69.263-80.332-56.249-103.98 11.29-20.64 57.792 84.8 100.29 64.449 10.139-4.757 27.603-30.17 28.748-53.18 1.938-37.51 62.516-14.647 25.828 20.009-20.71 19.566-4.18 59.732 32.109 56.787 30.385-2.422 27.498-30.651 47.919-50.036 43.723-41.478 92.005 4.415 25.29 37.525-35.285 17.315-74.661 59.768-14.814 55.233v-7.425h31.177v57.522l43.665-57.522h37.584l-49.895 62.909 53.806 69.256h-38.119l-47.041-60.892zm36.829 49.895c9.372-2.855 11.131 7.864 2.462 10.932-11.828 4.181-12.545-7.861-2.462-10.932zm-238.89 95.823c-29.849 1.634 5.419-63.193 20.819-66.516 7.644-1.651 3.607 65.225-20.819 66.516zm170.88-222.87v-24.051c-12.607 1.408-3.686 16.275 0 24.051zm-60.939-230.49c-9.152-0.518-20.518-10.01-16.422-14.982 41.153-50.149 46.394 16.744 16.422 14.982zm-233.9 202.39h-5.206v36.644h6.661c7.966 0 14.03-1.614 18.234-4.828 4.195-3.23 6.283-7.823 6.283-13.875 0-6.312-2.011-10.877-6.107-13.725-4.073-2.82-10.693-4.216-19.865-4.216zm31.119 52.515 34.387 48.463c19.747-26.426 2.409-53.724-33.362-48.612zm200.12-228.18c-34.621 48.136-51.585-32.788-9.744-22.614 12.581 3.373 17.447 11.916 9.744 22.614zm109.81 306.64c12.58-3.859 15.777 15.169 4.11 19.294-15.883 5.636-17.678-15.18-4.11-19.294zm-390.82-222.31c9.55-7.302 55.212 22.058 52.855 29.527-5.815 18.503-70.586-15.904-52.855-29.527z" fill="url(#paint0_linear_18_2)"/>
 <path d="m368.53 344.17v-132.16h31.177v57.52l43.667-57.52h37.581l-49.893 62.907 53.806 69.257h-38.121l-47.04-60.893v60.893z" stroke="#000" stroke-width=".288"/>
 <path d="m73.693 236.05h-5.205v36.646h6.66c7.967 0 14.031-1.613 18.234-4.828 4.197-3.231 6.283-7.825 6.283-13.874 0-6.313-2.01-10.877-6.105-13.726-4.075-2.819-10.694-4.218-19.867-4.218zm-35.822 108.12v-132.17h34.011c10.8 0 19.2 0.682 25.214 2.066 5.977 1.419 11.36 3.805 16.081 7.234 4.722 3.389 8.491 7.718 11.254 12.938 2.763 5.225 4.146 10.771 4.146 16.586 0 8.343-2.101 15.598-6.283 21.79-4.197 6.191-10.302 11.126-18.325 14.769l40.293 56.787h-35.999l-35.288-51.852h-4.487v51.852z" stroke="#000" stroke-width=".288"/>
 <path d="m609.34 314.59c0.539 0.214 1.099 0.397 1.618 0.59 5.652 1.979 11.233 2.982 16.707 2.982s9.855-1.186 13.157-3.536c3.322-2.33 4.97-5.347 4.97-9.026 0-5.225-5.866-11.167-17.659-17.821l-4.395-2.498-8.924-4.915c-8.557-4.742-14.967-10.16-19.236-16.245-4.253-6.1-6.375-12.978-6.375-20.64 0-10.267 4.025-18.758 12.083-25.483 8.039-6.716 18.377-10.053 31.029-10.053 4.559 0 9.656 0.539 15.329 1.633 5.652 1.094 11.681 2.783 18.142 4.97v30.261c-6.461-3.892-12.525-6.909-18.142-9.081-5.673-2.137-10.521-3.175-14.611-3.175-4.432 0-7.932 0.896-10.481 2.763-2.528 1.811-3.82 4.36-3.82 7.662 0 2.192 0.732 4.273 2.223 6.247 1.506 2.01 3.77 3.806 6.893 5.418l15.507 8.364c12.938 6.965 21.663 13.406 26.13 19.369 4.452 5.972 6.695 13.044 6.695 21.159 0 12.525-4.416 22.67-13.248 30.459-8.791 7.789-20.421 11.666-34.89 11.666-1.201 0-2.457-0.021-3.714-0.071z" clip-rule="evenodd" fill="#9b9d9b" fill-rule="evenodd"/>
 <path d="m147.34 344.17v-132.16h81.412v27.243h-50.81v23.851h43.504v27.086h-43.504v26.165h51.547v27.819z" clip-rule="evenodd" fill="#fff" fill-rule="evenodd"/>
 <path d="m147.34 344.17v-132.16h81.412v27.243h-50.81v23.851h43.504v27.086h-43.504v26.165h51.547v27.819z" stroke="#f6d449" stroke-width=".288"/>
 <path d="m253.54 344.17v-136.47h3.017l82.307 77.138v-72.828h29.075v137.18h-2.727l-82.576-77.107v72.096z" clip-rule="evenodd" fill="#fff" fill-rule="evenodd"/>
 <path d="m253.54 344.17v-136.47h3.017l82.307 77.138v-72.828h29.075v137.18h-2.727l-82.576-77.107v72.096z" stroke="#f6d449" stroke-width=".288"/>
 <path d="m529.4 302.16h34.748l-17.176-41.402zm-49.41 42.018 67.379-136.3h2.01l65.904 136.3h-33.008l-8.379-19.221h-53.613l-8.542 19.221z" clip-rule="evenodd" fill="#9b9d9b" fill-rule="evenodd"/>
 <path d="m508.91 362.58c-1.399-1.491-3.068-2.62-5.026-3.393-1.954-0.774-4.055-1.165-6.314-1.165-2.208 0-4.258 0.376-6.12 1.093-1.852 0.753-3.521 1.847-4.991 3.353-1.583 1.654-2.783 3.521-3.608 5.622-0.808 2.096-1.241 4.36-1.241 6.817 0 2.478 0.433 4.742 1.241 6.823 0.789 2.101 2.01 3.963 3.608 5.616 1.455 1.455 3.123 2.529 4.97 3.287 1.883 0.753 3.933 1.129 6.141 1.129 4.36 0 7.947-1.256 10.801-3.79 2.854-2.528 4.629-6.029 5.311-10.496h-15.003v-4.97h20.732v1.18c0 2.463-0.255 4.757-0.718 6.873-0.468 2.122-1.185 4.004-2.157 5.602-1.953 3.444-4.538 6.069-7.733 7.896-1.597 0.9-3.302 1.562-5.133 2.009-1.832 0.453-3.806 0.667-5.922 0.667-3.068 0-5.886-0.484-8.471-1.47-2.569-0.952-4.828-2.407-6.766-4.31-2.122-2.045-3.719-4.451-4.813-7.199-1.13-2.742-1.684-5.703-1.684-8.847 0-3.195 0.554-6.135 1.648-8.883 1.079-2.727 2.712-5.113 4.849-7.178 1.938-1.888 4.182-3.338 6.73-4.289 2.549-0.987 5.383-1.476 8.507-1.476 2.976 0 5.744 0.469 8.328 1.44 2.564 0.952 4.793 2.366 6.731 4.218zm23.082 12.866h3.963c3.394 0 5.999-0.737 7.774-2.223 1.796-1.475 2.692-3.607 2.692-6.41 0-2.564-0.916-4.559-2.748-5.922-0.915-0.682-2.045-1.185-3.352-1.526-1.293-0.341-2.854-0.519-4.65-0.519h-3.679zm-5.459 20.442v-41.998h9.606c5.062 0 8.974 1.115 11.737 3.338 2.747 2.243 4.11 5.388 4.11 9.422 0 3.734-1.17 6.802-3.52 9.265-2.351 2.442-5.383 3.657-9.117 3.657h-0.321l14.805 16.316h-6.873l-14.968-17.084v17.084zm53.13-4.126c2.35 0 4.446-0.376 6.334-1.114 1.867-0.753 3.551-1.867 5.042-3.373 1.49-1.506 2.691-3.358 3.556-5.51 0.412-1.007 0.697-2.101 0.915-3.251 0.214-1.185 0.321-2.365 0.321-3.607 0-2.457-0.392-4.721-1.221-6.802-0.809-2.101-2.045-3.963-3.658-5.637-1.455-1.47-3.124-2.564-5.027-3.317-1.887-0.753-3.983-1.129-6.262-1.129-2.208 0-4.294 0.376-6.192 1.129-1.923 0.753-3.592 1.847-5.026 3.317-1.547 1.547-2.727 3.394-3.572 5.551-0.844 2.131-1.256 4.431-1.256 6.888 0 2.478 0.412 4.777 1.236 6.894 0.824 2.101 2.03 3.968 3.592 5.545 1.434 1.42 3.088 2.529 5.006 3.266 1.882 0.753 3.948 1.15 6.212 1.15zm0.051 4.971c-3.033 0-5.831-0.484-8.364-1.455-2.565-0.952-4.829-2.422-6.838-4.381-2.137-2.045-3.714-4.446-4.843-7.178-1.099-2.742-1.669-5.688-1.669-8.812 0-3.195 0.57-6.135 1.684-8.862 1.129-2.712 2.727-5.118 4.884-7.199 1.938-1.867 4.161-3.302 6.731-4.289 2.528-0.987 5.347-1.476 8.415-1.476 3.052 0 5.85 0.489 8.42 1.476 2.564 0.951 4.807 2.401 6.766 4.289 2.132 2.065 3.75 4.467 4.864 7.234 0.554 1.328 0.966 2.727 1.256 4.218 0.27 1.485 0.428 3.032 0.428 4.609 0 3.18-0.555 6.12-1.649 8.812-1.078 2.696-2.711 5.098-4.848 7.178-1.954 1.939-4.218 3.378-6.767 4.366-2.549 0.986-5.367 1.47-8.47 1.47zm34.854-42.843v25.901c0 3.821 0.916 6.746 2.748 8.827 1.867 2.05 4.467 3.088 7.86 3.088 3.358 0 5.978-1.022 7.789-3.047 1.832-2.05 2.727-4.991 2.727-8.868v-25.901h5.53v26.222c0 5.047-1.47 9.066-4.395 12.078-2.946 3.017-6.843 4.543-11.651 4.543-4.828 0-8.72-1.526-11.686-4.543-2.961-3.012-4.447-7.031-4.447-12.078v-26.222zm41.423 22.544h4.36c2.931 0 5.21-0.774 6.859-2.336 1.668-1.541 2.492-3.729 2.492-6.583 0-2.819-0.875-4.971-2.62-6.446-1.755-1.47-4.288-2.223-7.606-2.223h-3.485zm-5.438 19.454v-41.998h8.974c4.828 0 8.669 1.257 11.508 3.77 2.834 2.514 4.269 5.887 4.269 10.069 0 4.019-1.384 7.305-4.126 9.87-2.727 2.548-6.283 3.841-10.608 3.841h-4.579v14.448z" clip-rule="evenodd" fill="#9b9d9b" fill-rule="evenodd"/>
 <defs>
  <linearGradient id="paint0_linear_18_2" x1="167.5" x2="512.62" y1="66.686" y2="436.77" gradientTransform="translate(-77.66 -162.73)" gradientUnits="userSpaceOnUse">
   <stop stop-color="#9E6915" offset="0"/>
   <stop stop-color="#F6D449" offset=".17"/>
   <stop stop-color="#F6D449" offset=".18"/>
   <stop stop-color="#F6E16E" offset=".33"/>
   <stop stop-color="#F6E16E" offset=".34"/>
   <stop stop-color="#C38E0F" offset=".53"/>
   <stop stop-color="#F6D449" offset=".66"/>
   <stop stop-color="#F6D449" offset=".67"/>
   <stop stop-color="#E9A818" offset=".76"/>
   <stop stop-color="#E9A818" offset=".8"/>
   <stop stop-color="#FFFF8C" offset=".88"/>
   <stop stop-color="#FFFF8C" offset=".9"/>
   <stop stop-color="#9E6224" offset="1"/>
  </linearGradient>
 </defs>
</svg>
