<svg width="676.18" height="506.03" fill="none" xmlns="http://www.w3.org/2000/svg"><path d="M399.71 341.3c8.9 2.99 5.97 18.71-7.58 23.52-20.5 7.26-20.68-12.17-6.53-20.65h-17.07v-7.1c-4.69 1.78-9.85 2.67-13.75 3.4-11.06 2.02-27.84-16.86-38.63-14.94-60.36 10.3-22.45 95.38 7.83 123.5 46.26 42.99-48.01 112.51-47.31-20.31.14-32.18-.7-50.1-28.22-54.47-7.37-1.15-11.11 4.1-13.57 11.04-4.07 11.46-4.61 27.51-12.5 26.2-17.56-3.07 20.72-54.48-6.14-61.58-26.71-7.09-42.13 29.19-55.01 47.04-10.24 14.02-50.58 40.92-71.2 25.05-44.32-34.02-2-49.6 23.33-63.64 8-4.43 14.47-9.24 19.54-14.2h-24.64l-33.74-49.59c-2.27.7-4.15 1.37-6.03 2.07v47.53H37.87v-39.58l-.41.07c-44.38 8.06-55.37-45.92.41-35.7V212h34.01c10.8 0 19.2.68 25.22 2.06a44.6 44.6 0 0 1 16.08 7.24 37.1 37.1 0 0 1 11.25 12.94 35.07 35.07 0 0 1 4.15 16.58c0 8.35-2.1 15.6-6.28 21.8a37.53 37.53 0 0 1-4.07 5c11.05-4.12 17.89-14.31 20.47-34.88 2.9-8.66-3.93-23.3-14.36-30.63-17.35-12.25-54.15-14.69-46.82-29.83 15.99-20.86 40.45 8.74 61.04 18.52 18.18 8.61 37.31 8.08 40.85-8.17 7.9-35.75-69.26-80.33-56.25-103.98 11.29-20.64 57.8 84.8 100.29 64.45 10.14-4.76 27.6-30.17 28.75-53.18 1.94-37.51 62.51-14.65 25.83 20-20.71 19.57-4.18 59.74 32.1 56.8 30.39-2.43 27.5-30.66 47.92-50.04 43.73-41.48 92 4.41 25.3 37.52-35.3 17.32-74.67 59.77-14.82 55.24V212h31.18v57.52L443.37 212h37.59l-49.9 62.91 53.8 69.26h-38.11l-47.04-60.9zm36.83 49.9c9.37-2.86 11.13 7.86 2.46 10.93-11.83 4.18-12.54-7.86-2.46-10.93zm-238.9 95.82c-29.84 1.63 5.43-63.2 20.83-66.52 7.64-1.65 3.6 65.23-20.82 66.52zm170.89-222.87V240.1c-12.6 1.4-3.69 16.27 0 24.05zm-60.94-230.5c-9.15-.51-20.52-10-16.42-14.97 41.15-50.15 46.4 16.74 16.42 14.98zm-233.9 202.4h-5.2v36.64h6.65c7.97 0 14.03-1.61 18.24-4.83 4.2-3.23 6.28-7.82 6.28-13.87 0-6.31-2-10.88-6.1-13.73-4.08-2.82-10.7-4.21-19.87-4.21zm31.12 52.51 34.39 48.47c19.74-26.43 2.4-53.73-33.37-48.62zM304.93 60.38c-34.62 48.14-51.59-32.79-9.75-22.61 12.59 3.37 17.45 11.91 9.75 22.61zm109.8 306.64c12.59-3.86 15.79 15.17 4.12 19.3-15.88 5.63-17.68-15.18-4.11-19.3zm-390.8-222.3c9.55-7.3 55.21 22.05 52.85 29.52-5.81 18.5-70.58-15.9-52.85-29.53z" fill="url(#a)"/><path d="M368.53 344.17V212.01h31.18v57.52l43.66-57.52h37.59l-49.9 62.9 53.8 69.26h-38.11l-47.04-60.89v60.9zM73.7 236.05h-5.21v36.65h6.66c7.96 0 14.03-1.62 18.23-4.83 4.2-3.23 6.29-7.83 6.29-13.88 0-6.3-2.01-10.87-6.11-13.72-4.08-2.82-10.7-4.22-19.87-4.22zM37.86 344.17V212h34.01c10.8 0 19.2.68 25.22 2.07a44.57 44.57 0 0 1 16.08 7.23 37.08 37.08 0 0 1 11.25 12.94 35.03 35.03 0 0 1 4.15 16.58c0 8.35-2.1 15.6-6.29 21.8-4.2 6.19-10.3 11.12-18.32 14.76l40.3 56.79h-36l-35.3-51.85H68.5v51.85z" stroke="#000" stroke-width=".29"/><path d="M609.34 314.59c.54.21 1.1.4 1.62.59 5.65 1.98 11.23 2.98 16.7 2.98s9.86-1.18 13.16-3.53c3.32-2.33 4.97-5.35 4.97-9.03 0-5.23-5.86-11.17-17.66-17.82l-4.4-2.5-8.92-4.91c-8.55-4.75-14.96-10.16-19.23-16.25a35.23 35.23 0 0 1-6.38-20.64c0-10.27 4.03-18.76 12.09-25.48 8.04-6.72 18.37-10.06 31.03-10.06 4.55 0 9.65.54 15.32 1.64 5.66 1.1 11.69 2.78 18.15 4.97v30.26a117.05 117.05 0 0 0-18.15-9.08c-5.67-2.14-10.52-3.18-14.6-3.18-4.44 0-7.94.9-10.49 2.77a8.9 8.9 0 0 0-3.82 7.66c0 2.19.73 4.27 2.23 6.24 1.5 2.01 3.77 3.81 6.89 5.42l15.5 8.37c12.94 6.96 21.67 13.4 26.13 19.37 4.46 5.97 6.7 13.04 6.7 21.15 0 12.53-4.42 22.67-13.25 30.46-8.79 7.8-20.42 11.67-34.89 11.67-1.2 0-2.45-.02-3.71-.07z" clip-rule="evenodd" fill="#9b9d9b" fill-rule="evenodd"/><path d="M147.34 344.17V212.01h81.41v27.24h-50.8v23.85h43.5v27.09h-43.5v26.17h51.54v27.81z" clip-rule="evenodd" fill="#fff" fill-rule="evenodd"/><path d="M147.34 344.17V212.01h81.41v27.24h-50.8v23.85h43.5v27.09h-43.5v26.17h51.54v27.81z" stroke="#f6d449" stroke-width=".29"/><path d="M253.54 344.17V207.7h3.02l82.3 77.14V212h29.08v137.18h-2.73l-82.57-77.1v72.09z" clip-rule="evenodd" fill="#fff" fill-rule="evenodd"/><path d="M253.54 344.17V207.7h3.02l82.3 77.14V212h29.08v137.18h-2.73l-82.57-77.1v72.09z" stroke="#f6d449" stroke-width=".29"/><path d="M529.4 302.16h34.75l-17.18-41.4zm-49.41 42.02 67.38-136.3h2l65.91 136.3h-33l-8.38-19.22h-53.62l-8.54 19.22zm28.92 18.4a13.67 13.67 0 0 0-5.03-3.4 16.98 16.98 0 0 0-6.31-1.16c-2.2 0-4.26.38-6.12 1.1a14.53 14.53 0 0 0-5 3.35 17.08 17.08 0 0 0-3.6 5.62c-.8 2.1-1.24 4.36-1.24 6.82 0 2.48.43 4.74 1.24 6.82.79 2.1 2.01 3.96 3.6 5.62a14.99 14.99 0 0 0 4.98 3.28 16.4 16.4 0 0 0 6.14 1.13c4.36 0 7.95-1.25 10.8-3.79 2.86-2.53 4.63-6.03 5.31-10.5h-15v-4.96h20.73v1.18c0 2.46-.25 4.75-.72 6.87a18.2 18.2 0 0 1-2.15 5.6 20.54 20.54 0 0 1-7.74 7.9c-1.6.9-3.3 1.56-5.13 2-1.83.46-3.8.67-5.92.67-3.07 0-5.89-.48-8.47-1.47a19.01 19.01 0 0 1-6.77-4.3 20.3 20.3 0 0 1-4.81-7.2 23.03 23.03 0 0 1-1.69-8.85c0-3.2.56-6.14 1.65-8.89a20.29 20.29 0 0 1 4.85-7.17 19.2 19.2 0 0 1 6.73-4.3 23.38 23.38 0 0 1 8.5-1.47c2.98 0 5.75.47 8.34 1.44 2.56.95 4.79 2.37 6.73 4.22zm23.08 12.87h3.97c3.39 0 6-.74 7.77-2.23 1.8-1.47 2.7-3.6 2.7-6.4 0-2.57-.92-4.57-2.76-5.93a9.63 9.63 0 0 0-3.35-1.53c-1.3-.34-2.85-.51-4.65-.51H532zm-5.46 20.44v-42h9.6c5.07 0 8.98 1.11 11.75 3.34 2.74 2.24 4.1 5.39 4.1 9.42 0 3.73-1.16 6.8-3.51 9.27-2.35 2.44-5.39 3.65-9.12 3.65h-.32l14.8 16.32h-6.87l-14.97-17.09v17.09zm53.13-4.13c2.35 0 4.45-.37 6.34-1.11a14.85 14.85 0 0 0 5.04-3.37 16.53 16.53 0 0 0 4.47-8.77 20.07 20.07 0 0 0-.9-10.4c-.8-2.1-2.04-3.97-3.66-5.64a14.46 14.46 0 0 0-5.02-3.32 16.79 16.79 0 0 0-6.27-1.13c-2.2 0-4.3.38-6.19 1.13a14.1 14.1 0 0 0-5.02 3.32 15.95 15.95 0 0 0-3.58 5.55 18.55 18.55 0 0 0-1.25 6.89c0 2.47.4 4.77 1.23 6.9.83 2.1 2.03 3.96 3.6 5.54a14.4 14.4 0 0 0 5 3.26c1.88.76 3.95 1.15 6.21 1.15zm.05 4.97c-3.03 0-5.83-.48-8.36-1.45a19.37 19.37 0 0 1-6.84-4.38 20.72 20.72 0 0 1-4.84-7.18 23.5 23.5 0 0 1-1.67-8.81c0-3.2.57-6.14 1.68-8.86a21.16 21.16 0 0 1 4.89-7.2 19.83 19.83 0 0 1 6.73-4.3 23.01 23.01 0 0 1 8.41-1.47c3.06 0 5.85.49 8.42 1.48 2.57.95 4.81 2.4 6.77 4.29a20.72 20.72 0 0 1 4.86 7.23 21.6 21.6 0 0 1 1.26 4.22c.27 1.48.43 3.03.43 4.6 0 3.19-.56 6.13-1.65 8.82a20.69 20.69 0 0 1-4.85 7.18 19.48 19.48 0 0 1-6.77 4.36 23.28 23.28 0 0 1-8.47 1.47zm34.86-42.84v25.9c0 3.82.91 6.75 2.75 8.83 1.86 2.05 4.46 3.09 7.86 3.09 3.35 0 5.97-1.03 7.79-3.05 1.83-2.05 2.72-5 2.72-8.87v-25.9h5.53v26.22c0 5.05-1.47 9.07-4.4 12.08-2.94 3.02-6.84 4.54-11.64 4.54-4.83 0-8.72-1.52-11.69-4.54-2.96-3.01-4.45-7.03-4.45-12.08V353.9zm41.42 22.54h4.36c2.93 0 5.21-.77 6.86-2.33 1.67-1.54 2.5-3.73 2.5-6.59 0-2.81-.88-4.97-2.63-6.44-1.75-1.47-4.29-2.22-7.6-2.22h-3.49zm-5.44 19.46v-42h8.98c4.83 0 8.67 1.26 11.5 3.77 2.84 2.51 4.27 5.89 4.27 10.07 0 4.02-1.38 7.3-4.12 9.87-2.73 2.55-6.28 3.84-10.61 3.84h-4.58v14.45z" clip-rule="evenodd" fill="#9b9d9b" fill-rule="evenodd"/><defs><linearGradient id="a" x1="167.5" x2="512.62" y1="66.69" y2="436.77" gradientTransform="translate(-77.66 -162.73)" gradientUnits="userSpaceOnUse"><stop stop-color="#9E6915" offset="0"/><stop stop-color="#F6D449" offset=".17"/><stop stop-color="#F6D449" offset=".18"/><stop stop-color="#F6E16E" offset=".33"/><stop stop-color="#F6E16E" offset=".34"/><stop stop-color="#C38E0F" offset=".53"/><stop stop-color="#F6D449" offset=".66"/><stop stop-color="#F6D449" offset=".67"/><stop stop-color="#E9A818" offset=".76"/><stop stop-color="#E9A818" offset=".8"/><stop stop-color="#FFFF8C" offset=".88"/><stop stop-color="#FFFF8C" offset=".9"/><stop stop-color="#9E6224" offset="1"/></linearGradient></defs></svg>