<svg width="1363.24" height="646.31" viewBox="0 0 360.69 171" xml:space="preserve" xmlns="http://www.w3.org/2000/svg"><path style="fill:#0292dc;fill-opacity:1;stroke:none" d="M1048.73-109.68c-.96-.68-1-1.61-.09-2.44 1.59-1.44 3.73.7 2.3 2.3-.76.83-1.18.86-2.2.14z" transform="translate(-951.63 176.48)"/><path style="fill:#fff;stroke:none" d="M1029.96-108.7c0-.15.45-1.46 1.01-2.9l1.02-2.65 7.35-.1c4.05-.05 7.57 0 7.82.09.35.13.28.43-.3 1.22-.65.87-.74 1.34-.57 2.83l.22 1.78h-8.28c-4.55 0-8.27-.12-8.27-.27z" transform="translate(-951.63 176.48)"/><path style="fill:#0292dc;fill-opacity:1;stroke:none" d="M1211.3-106.79c0-.16.32-1.99.74-4.05 1.87-9.4-.84-19.12-7.72-27.7-2.99-3.72-2.85-3.58-6.97-7.19-12.13-10.62-30.16-18.29-51.15-21.76-8.97-1.48-12.94-1.76-24.52-1.77-13.24-.01-20.27.66-31.4 3-23.61 4.97-43.97 16.34-53 29.6-.55.8-.61.82-.62.18 0-.82 2.13-4.56 4.5-7.9 3.56-5.04 11-11.53 18.18-15.86 23.64-14.28 59.76-19.75 92.15-13.96 33.65 6.01 58.27 22.58 63.72 42.88.67 2.46.8 3.83.78 8.08-.02 4.44-.15 5.51-.94 8.17-1.1 3.64-3.74 9.47-3.76 8.28z" transform="translate(-951.63 176.48)"/><path style="fill:#0292dc;fill-opacity:1;stroke:none" d="M1157.13-112.43c-.62-.96-.4-1.85.6-2.38 1.5-.8 3.19 1.58 1.98 2.79-.7.69-1.99.48-2.58-.41z" transform="translate(-951.63 176.48)"/><path style="display:inline;fill:#fff;stroke:none" d="m1075.17-137.67-10.55.04c-21.8.11-19.83-.2-23.73 3.77-3 3.06-4.33 5.72-4.51 9.07-.14 2.39-.1 2.57.92 3.7l1.07 1.2 9.81.17 9.82.18.12.98c.14 1.22-1.04 3.17-2.24 3.72a6.7 6.7 0 0 1-2.3.42c-1.52 0-1.76.43-.8 1.48.61.68.75 2.38.3 3.72l-.27.8h8.79c8.69 0 8.8-.02 10.57-.9.99-.49 2.08-1.2 2.43-1.6.64-.7.64-.7 1.08.34.24.57.88 1.33 1.42 1.69.9.6 2.19.65 16.96.74 8.79.06 15.98.18 15.98.26 0 .08-.64 1.45-1.41 3.03a27.29 27.29 0 0 0-1.41 3.18c0 .16 3.05.34 6.79.4 3.73.06 6.88.14 6.99.18.64.27 1.75-1.65 5.04-8.77 2.03-4.39 4.1-8.87 4.63-9.97l.94-2 3.77.01c2.07 0 3.98.15 4.25.32.65.41.37 1.43-1.45 5.18-1.78 3.67-2.36 4.02-6.72 4.02h-2.94l-.77 1.6c-1.4 2.9-1.93 2.73 8.3 2.57 9.65-.15 9.18-.08 12.88-1.97.15-.08.27.1.27.4 0 .3.27.7.61.87.34.18 8.97.42 19.16.55l18.55.24 1-2.22c1.71-3.72 4.39-9.47 5.8-12.44.75-1.56 1.29-2.95 1.2-3.1-.08-.14-3.09-.26-6.67-.26h-6.52l-1.36 2.92a1829.01 1829.01 0 0 0-4.5 9.7l-.54 1.14h-5.4c-3.04 0-5.5-.14-5.62-.33-.25-.4 3.53-8.52 4.15-8.91.23-.15 2.37-.27 4.75-.28h4.32l.85-1.85c.62-1.34.74-1.92.44-2.11-.63-.4-17.51-.33-19.67.08-1.04.2-2.48.75-3.19 1.22-1.24.82-1.3.83-1.47.17-.1-.37-.6-.84-1.12-1.04-.59-.22-7.3-.35-17.86-.35h-16.93l-.8.8c-.45.45-.97 1.1-1.17 1.44-.33.59-.44.56-1.4-.42a6.6 6.6 0 0 0-2.45-1.43c-.9-.25-6.6-.39-16.22-.4h-14.83l-.78 1.6c-1.36 2.82-1.98 2.64 9.24 2.64 8.07 0 10.09.1 10.41.49.32.38.01 1.32-1.36 4.26a40.9 40.9 0 0 0-1.78 4.1c0 .35-7.36.45-8.26.1-.82-.3-.68-1.04.37-1.87.8-.62 1.43-.73 4.23-.73h3.3l.91-1.8c.5-.99.8-1.9.68-2.03-.12-.12-3.67-.23-7.87-.23-6.52 0-7.89.1-9.3.64-.9.35-1.83.87-2.06 1.15-.8.97-.95.5-.48-1.52.52-2.2.36-4.02-.46-5.32-1.02-1.64-2.42-1.88-13.51-2.35-5.72-.25-10.45-.47-10.5-.49-.35-.17.04-1.88.59-2.56l.67-.84 12.38-.1 12.38-.1.5-.99c.83-1.58 1.97-4.75 1.97-5.43 0-.45-.54-.58-8.4-.57zm83.12 20.78c3.81 0 5.22 5.13 1.89 6.85-1.77.92-3.31.56-4.58-1.05-1.84-2.34-.23-5.8 2.7-5.8z" transform="translate(-951.63 176.48)"/><path style="fill:#d6281a;fill-opacity:1;stroke:none" d="M1128.27-69.98c-29.38-2.17-54.9-12.3-69.2-27.46-3.6-3.8-7.73-9.9-7.13-10.51.13-.13 2.1 1.66 4.39 3.98a61.23 61.23 0 0 0 13.31 10.56c13.03 7.98 28.46 13.04 47.15 15.47 21 2.72 45.24.54 63.98-5.76a93.3 93.3 0 0 0 16.05-6.8c15.33-8.09 25.16-18.5 28.79-30.47.84-2.77.96-3.78.99-8.27.02-3.93-.12-5.71-.63-7.69-.36-1.42-.57-2.66-.46-2.77.32-.32 2.3 3.88 3.4 7.2 2.66 8.05 2.1 15.73-1.76 23.9-9.16 19.44-36.44 34.1-70.9 38.1-5.66.66-22.03.96-27.98.52z" transform="translate(-951.63 176.48)"/><path style="fill:#fff;stroke:none" d="M1284.92-16.92c-2.32-1.02-2.37-2.15-.47-11.09a247.6 247.6 0 0 0 1.41-6.87c0-.12-1.05-.23-2.33-.23h-2.33l.23-1.67c.13-.93.4-2.2.6-2.83.36-1.14.36-1.14 2.75-1.14h2.38l.45-2.03a365.5 365.5 0 0 0 1.61-7.41l.23-1.15h8.79c10.15 0 9.2-.52 8.07 4.43-.4 1.74-.82 3.83-.93 4.66l-.2 1.5h3.57c2.89 0 3.57.1 3.57.5a25 25 0 0 1-1.24 4.8c-.11.18-1.77.34-3.68.34-2.92 0-3.5.1-3.7.6-.12.32-.78 3.19-1.47 6.37-.97 4.53-1.15 5.9-.82 6.29.3.37 1.31.5 3.9.5h3.5l-.25 1.5c-.13.82-.34 1.9-.47 2.38l-.23.88-10.9.08c-8.67.06-11.15-.02-12.04-.41zm-24.81.29c0-.32.4-2.42.9-4.68a2773.41 2773.41 0 0 0 3.56-16.53l.63-2.91h15.82l-.22 1.14c-.12.63-.44 2.18-.72 3.44-1.21 5.6-1.6 7.4-2.12 9.88l-1.37 6.35-.81 3.7-7.84.1c-7.08.09-7.83.04-7.83-.49zm-48.83.27c-.2-.33.08-1.78 1.9-9.75a5217.93 5217.93 0 0 0 5.05-22.4l.45-1.94h16.91l-.1 1.05a34.9 34.9 0 0 1-.59 3.18l-1.01 4.59-1.31 5.92c-.43 1.9-.71 3.52-.63 3.6.08.09 3.58-1.9 7.77-4.42l7.63-4.58h5.7c6.75 0 6.9.16 3 2.9l-6.26 4.36c-2.08 1.46-3.8 2.8-3.8 2.97 0 .19.68 1.1 1.5 2.04.83.94 3.1 3.58 5.04 5.88l4.32 5.1c1.55 1.81 1.6 1.8-9.54 1.8h-10.33l-1.6-1.67a88.85 88.85 0 0 1-3.27-3.7c-.93-1.12-1.82-2.04-1.97-2.04-.16 0-.37.52-.46 1.15-.36 2.42-1.09 5.4-1.42 5.82-.4.52-16.66.65-16.98.14zm-29.13-.02c-9.97-.2-10.85-.26-12-.92a5.73 5.73 0 0 1-1.87-1.95c-1.7-3.26 1.23-9.3 5.58-11.46 1.27-.63 2.29-.7 10.54-.8 5.02-.07 9.26.01 9.43.18.17.17.03 1.38-.31 2.76l-.61 2.46-3.53.09c-4.5.1-5 .23-5.62 1.45-.46.88-.46 1.09.01 1.76.5.7.82.75 5.27.75 4.62 0 4.74-.01 4.92-.79 1.92-8.31 2.23-10.33 1.73-11.11-.28-.44-.78-.8-1.12-.8l-11.9-.1-11.28-.07.05-1.66c.03-.92.24-2.23.47-2.91l.41-1.25h16.58c19.06 0 20.35.13 22.88 2.4 2.52 2.25 2.5 2.44-.84 17.5a80.91 80.91 0 0 1-1.02 4.3c-.25.25-18.44.36-27.77.17zm-95.95-.45c0-.42.22-1.73.5-2.91.27-1.18.84-3.73 1.25-5.67a2252.88 2252.88 0 0 1 2.28-10.58c.33-1.55.74-3.18.92-3.62l.32-.79h15.09c9.2 0 15.6.14 16.39.37.71.2 1.7.83 2.19 1.41 1.55 1.85 1.57 3.22.13 10.57l-.45 2.29-6.44.1c-3.54.05-6.44-.03-6.44-.18s.25-1.54.54-3.09c.9-4.69.2-5.93-3.22-5.76l-2.07.11-.79 3.7a520.05 520.05 0 0 1-3.15 14.2c-.16.57-.88.62-8.62.62h-8.44zm-29.47.43c-9.89-.17-11.04-.25-12.03-.85-1.58-.96-2.25-2.31-2.25-4.5.01-2.36.9-4.35 2.86-6.49 2.86-3.1 3.09-3.15 13.5-3.28 5.78-.07 9.25.02 9.48.24.23.23.15 1.18-.26 2.85l-.61 2.5h-3.96c-3.68 0-4.01.05-4.72.81-.96 1.02-.99 2.22-.07 2.7.42.24 2.5.35 5.2.29l4.5-.1.4-1.94 1.17-5.6c1.16-5.4 2.17-4.99-12.18-4.99-7.36 0-11.82-.13-11.96-.34-.27-.44.5-4.62.97-5.21.27-.34 4.08-.44 16.92-.44 13.9 0 16.93.09 18.75.55 2.8.71 4.54 1.87 5.33 3.55.69 1.44.6 2.41-.7 8.42l-1.52 7.06-1 4.58-4.03.22c-4.53.25-8.1.24-23.79-.03zm-61.33.06c-.1-.16.12-1.55.49-3.1.37-1.53 1.23-5.3 1.92-8.35a48819.72 48819.72 0 0 1 4.28-19.14c.85-3.86-.04-3.52 9.35-3.52h8.25l-.1 1.4c-.06.78-.33 2.37-.6 3.53l-1.24 5.65a348.8 348.8 0 0 1-1.25 5.62 7.91 7.91 0 0 0-.35 2.25c.09.08 1.79-.87 3.79-2.12s5.41-3.33 7.59-4.63l3.96-2.36h5.8c3.2 0 5.9.14 6.01.32.1.17-2.82 2.42-6.5 5.01-3.7 2.59-6.67 4.82-6.62 4.97.05.14 2.76 3.37 6.02 7.17 3.25 3.8 5.82 7.06 5.7 7.24-.12.2-4.31.34-10.45.34h-10.25l-1.28-1.34c-.7-.74-2.22-2.42-3.35-3.73-1.14-1.3-2.15-2.3-2.24-2.2-.1.09-.52 1.72-.94 3.63l-.77 3.46-8.52.1c-4.69.05-8.6-.04-8.7-.2zm-28.45-.06c-11.54-.18-11.85-.2-13.12-1-3.36-2.09-2.8-7.42 1.19-11.23 2.88-2.76 2.88-2.76 13.12-2.89 5.58-.07 9.26.02 9.47.23.22.22.13 1.23-.27 2.85l-.6 2.5h-3.8c-3.29 0-3.9.1-4.7.73-.99.78-1.22 2.02-.51 2.73.28.29 1.93.42 5.08.42 5.32 0 4.8.36 5.66-3.88l1-4.94c.4-1.96.4-2.4-.03-3.08-.28-.44-.78-.8-1.12-.81l-11.78.01c-7.29.02-11.25-.1-11.4-.33-.28-.46.5-4.62.98-5.23.28-.37 3.88-.44 17.68-.35 19.37.12 19.84.17 22.24 2.57 1.46 1.46 1.84 3.07 1.3 5.57l-1.92 8.89-1.53 7.05-4.03.22c-4.47.24-5.9.24-22.9-.03zm155.39 10.48c-.09-.24.12-1.63.47-3.08l.62-2.65h12.41c13.97 0 13.25.14 13.65-2.71l.24-1.66-10.16-.1c-8.99-.1-10.3-.19-11.33-.75a5 5 0 0 1-2.54-4.34c0-1.37 3.68-18.75 4.05-19.12.28-.28 14.8-.06 15.08.22.22.22-.74 4.9-2.74 13.36-1.02 4.36-.66 4.7 5.03 4.7 2.2 0 3.98-.07 3.98-.16 0-.51 3.58-17.08 3.81-17.61.26-.62.8-.66 7.77-.67 4.12 0 7.56.06 7.65.15.1.1-.07 1.27-.37 2.61l-1.2 5.62a20581.55 20581.55 0 0 0-4.44 20.51c-.66 3.08-1.66 4.86-3.11 5.55-1.08.51-3.33.58-19.96.58-14.68 0-18.78-.1-18.9-.45z" transform="translate(-951.63 176.48)"/></svg>