<svg width="1367.02" height="647.89" viewBox="0 0 361.69 171.42" xml:space="preserve" xmlns="http://www.w3.org/2000/svg"><path d="M98.07 67.3c-.97-.68-1-1.61-.1-2.44 1.6-1.43 3.74.7 2.3 2.3-.75.83-1.17.86-2.2.14z" fill="#0292dc"/><path d="M79.37 68.28c0-.15.46-1.46 1.01-2.91l1.02-2.64 7.35-.1c4.05-.05 7.57-.01 7.82.09.35.13.28.43-.3 1.22-.65.87-.74 1.34-.56 2.83l.2 1.78h-8.27c-4.55 0-8.27-.12-8.27-.27z" stroke="#fff"/><path d="M260.67 70.19c0-.17.33-2 .74-4.06 1.88-9.4-.83-19.11-7.71-27.7-2.99-3.71-2.86-3.58-6.97-7.18-12.13-10.62-30.16-18.3-51.15-21.76-8.97-1.48-12.94-1.77-24.52-1.78-13.24 0-20.27.67-31.4 3.01-23.62 4.97-43.97 16.33-53 29.59-.55.81-.62.83-.62.19 0-.82 2.13-4.57 4.5-7.9 3.56-5.04 11-11.53 18.18-15.86 23.64-14.28 59.76-19.75 92.15-13.96 33.65 6.01 58.27 22.58 63.72 42.87.67 2.47.8 3.83.78 8.09-.02 4.44-.15 5.51-.94 8.16-1.1 3.65-3.74 9.48-3.76 8.3z" fill="#0292dc" stroke="#fff"/><path d="M206.47 64.55c-.62-.95-.4-1.84.6-2.38 1.5-.8 3.18 1.58 1.98 2.79-.7.7-2 .49-2.58-.41z" fill="#0292dc"/><path d="m124.57 39.31-10.55.04c-21.8.12-19.83-.2-23.73 3.77-3 3.06-4.33 5.72-4.52 9.07-.13 2.39-.08 2.57.93 3.7l1.06 1.2 9.82.18 9.82.17.11.98c.14 1.22-1.03 3.18-2.23 3.72-.5.23-1.54.42-2.3.42-1.53 0-1.76.43-.8 1.48.61.68.75 2.38.3 3.72l-.28.8h8.8c8.69 0 8.8-.01 10.57-.9.98-.48 2.08-1.2 2.43-1.6.63-.7.64-.7 1.07.34.25.57.88 1.33 1.42 1.69.91.6 2.2.65 16.97.75 8.79.05 15.98.17 15.98.25 0 .08-.64 1.45-1.42 3.04-.77 1.58-1.4 3.01-1.4 3.17s3.05.34 6.78.4 6.88.14 7 .18c.64.27 1.74-1.65 5.04-8.77 2.02-4.39 4.1-8.87 4.62-9.97l.95-1.99h3.76c2.08 0 3.99.15 4.26.32.65.41.37 1.43-1.45 5.18-1.78 3.68-2.36 4.02-6.72 4.02h-2.94l-.78 1.6c-1.4 2.9-1.93 2.73 8.31 2.57 9.65-.15 9.18-.07 12.88-1.97.15-.08.26.1.26.4 0 .3.28.7.62.87.34.18 8.96.43 19.16.55l18.54.24 1.02-2.22c1.7-3.72 4.38-9.47 5.8-12.44.74-1.55 1.27-2.94 1.19-3.09-.08-.14-3.09-.26-6.67-.26h-6.53l-1.35 2.9a1817.45 1817.45 0 0 0-4.5 9.7l-.54 1.16h-5.41c-3.03 0-5.5-.15-5.62-.34-.24-.4 3.54-8.52 4.15-8.9.24-.16 2.38-.28 4.75-.28l4.33-.01.85-1.85c.62-1.34.74-1.92.44-2.11-.63-.4-17.51-.32-19.67.09-1.04.2-2.48.74-3.2 1.21-1.23.82-1.3.83-1.46.18-.1-.38-.6-.85-1.12-1.04-.59-.23-7.3-.36-17.87-.36h-16.92l-.81.8c-.44.45-.97 1.1-1.16 1.45-.33.58-.44.55-1.41-.42a6.6 6.6 0 0 0-2.44-1.44c-.9-.25-6.61-.39-16.22-.39h-14.83l-.78 1.6c-1.37 2.8-1.98 2.63 9.24 2.63 8.07 0 10.08.1 10.41.49.31.38.01 1.32-1.37 4.26a40.92 40.92 0 0 0-1.77 4.1c0 .36-7.36.46-8.26.11-.83-.32-.68-1.05.37-1.88.79-.62 1.43-.73 4.23-.73h3.3l.9-1.8c.5-.99.82-1.9.69-2.02s-3.67-.23-7.87-.23c-6.52 0-7.89.09-9.3.63-.9.35-1.83.87-2.07 1.15-.8.97-.95.5-.47-1.52.52-2.2.36-4.02-.46-5.32-1.03-1.64-2.43-1.88-13.52-2.35-5.72-.25-10.44-.46-10.49-.49-.35-.17.04-1.88.59-2.56l.67-.83 24.75-.2.51-1c.82-1.58 1.97-4.74 1.97-5.43 0-.45-.55-.57-8.41-.57zm83.12 20.78c3.8 0 5.22 5.13 1.89 6.85-1.78.92-3.32.57-4.59-1.05-1.84-2.34-.23-5.8 2.7-5.8z" stroke="#fff"/><path d="M177.67 107c-29.38-2.17-54.9-12.3-69.2-27.46-3.6-3.8-7.73-9.9-7.13-10.5.13-.14 2.1 1.65 4.39 3.97a61.23 61.23 0 0 0 13.31 10.56c13.03 7.98 28.46 13.04 47.15 15.47 21 2.72 45.24.54 63.98-5.76a93.28 93.28 0 0 0 16.05-6.8c15.33-8.09 25.16-18.5 28.79-30.47.84-2.77.96-3.78.99-8.27.02-3.93-.12-5.71-.63-7.69-.36-1.42-.57-2.66-.46-2.77.32-.32 2.3 3.89 3.4 7.2 2.66 8.05 2.1 15.73-1.76 23.9-9.16 19.44-36.44 34.1-70.9 38.1-5.66.66-22.03.96-27.98.52z" fill="#d6281a" stroke="#fff"/><g stroke="#fff"><path d="M333.77 159.47c-2.32-1.01-2.37-2.15-.47-11.08.78-3.65 1.41-6.74 1.41-6.87 0-.13-1.05-.23-2.33-.23h-2.33l.23-1.68c.13-.92.4-2.19.6-2.82.36-1.15.36-1.15 2.75-1.15H336l.45-2.03c1.05-4.71 1.4-6.32 1.61-7.4l.23-1.15h8.79c10.15 0 9.2-.52 8.06 4.43-.4 1.73-.81 3.83-.92 4.65l-.2 1.5h3.57c2.89 0 3.57.1 3.57.52 0 .64-.95 4.31-1.24 4.78-.12.2-1.77.35-3.68.35-2.92 0-3.5.1-3.7.59-.12.32-.78 3.2-1.47 6.37-.97 4.54-1.15 5.9-.82 6.3.3.37 1.31.5 3.9.5h3.5l-.25 1.5c-.13.82-.34 1.9-.47 2.38l-.23.88-10.91.08c-8.66.06-11.14-.03-12.03-.42zM308.97 159.77c0-.32.4-2.43.9-4.68a2770.58 2770.58 0 0 0 3.56-16.54l.63-2.9h15.82l-.22 1.14c-.12.63-.44 2.18-.72 3.44l-2.13 9.88c-.3 1.45-.92 4.31-1.36 6.35l-.82 3.7-7.83.1c-7.08.08-7.83.04-7.83-.5zM260.17 160.03c-.2-.32.08-1.77 1.9-9.75a5209.46 5209.46 0 0 0 5.05-22.4l.45-1.94h16.91l-.1 1.06a34.9 34.9 0 0 1-.59 3.17 475.3 475.3 0 0 0-1.01 4.6l-1.31 5.92c-.43 1.9-.71 3.52-.63 3.6.08.08 3.58-1.91 7.77-4.43l7.63-4.57h5.7c6.75 0 6.9.15 3 2.89l-6.26 4.37c-2.08 1.45-3.8 2.79-3.8 2.97 0 .18.68 1.1 1.5 2.04.83.93 3.1 3.58 5.04 5.87 1.94 2.3 3.88 4.6 4.32 5.1 1.55 1.82 1.6 1.8-9.54 1.8h-10.33l-1.6-1.67c-.87-.92-2.35-2.59-3.27-3.7s-1.82-2.03-1.97-2.03-.37.51-.46 1.15c-.36 2.41-1.09 5.4-1.42 5.82-.4.52-16.66.65-16.98.13zM230.97 160.02c-9.96-.2-10.85-.27-12-.93a5.73 5.73 0 0 1-1.87-1.94c-1.7-3.27 1.24-9.31 5.58-11.46 1.27-.63 2.3-.71 10.54-.81 5.02-.07 9.26.02 9.43.19.17.17.04 1.38-.3 2.76l-.62 2.45-3.53.09c-4.5.11-4.99.24-5.62 1.45-.45.88-.45 1.1.02 1.76.5.71.82.76 5.26.76 4.62 0 4.74-.02 4.92-.8 1.92-8.3 2.23-10.33 1.74-11.1-.28-.44-.79-.8-1.12-.8l-11.9-.1-11.29-.08.06-1.66c.03-.91.24-2.22.47-2.9l.4-1.26h16.58c19.06 0 20.35.14 22.89 2.4 2.5 2.25 2.5 2.45-.85 17.51a80.92 80.92 0 0 1-1.02 4.3c-.24.24-18.43.35-27.77.17zM135.07 159.57c0-.43.23-1.74.5-2.91.28-1.18.85-3.73 1.26-5.67a2242.73 2242.73 0 0 1 2.28-10.58c.33-1.56.74-3.18.92-3.62l.32-.8h15.09c9.2 0 15.6.15 16.38.37.72.2 1.7.84 2.2 1.42 1.55 1.85 1.57 3.21.12 10.56l-.45 2.3-6.43.1c-3.54.05-6.44-.03-6.44-.18s.25-1.54.54-3.1c.9-4.68.2-5.93-3.22-5.75l-2.07.1-.79 3.71a519.5 519.5 0 0 1-3.15 14.2c-.16.57-.88.62-8.62.62h-8.44zM105.57 160c-9.9-.17-11.04-.26-12.03-.86-1.59-.95-2.26-2.3-2.25-4.5.01-2.35.89-4.34 2.86-6.48 2.85-3.1 3.08-3.15 13.5-3.28 5.77-.08 9.25.01 9.47.23.24.24.15 1.19-.25 2.85l-.62 2.5h-3.95c-3.68 0-4.01.06-4.73.82-.96 1.01-.98 2.21-.06 2.7.42.23 2.5.34 5.2.28l4.5-.1.4-1.94c.21-1.06.74-3.58 1.17-5.59 1.15-5.4 2.17-5-12.19-5-7.36 0-11.82-.12-11.95-.34-.28-.44.5-4.61.97-5.2.27-.35 4.08-.45 16.92-.45 13.89 0 16.93.1 18.74.55 2.8.72 4.55 1.88 5.34 3.55.68 1.44.6 2.42-.7 8.43l-1.52 7.05-1 4.59-4.03.22c-4.53.24-8.1.24-23.79-.03zM44.27 160.06c-.1-.17.12-1.56.5-3.1.36-1.54 1.23-5.3 1.91-8.35l2.5-11.11a2159 2159 0 0 0 1.79-8.03c.84-3.86-.04-3.53 9.35-3.53h8.25l-.1 1.41c-.06.78-.33 2.37-.6 3.53-.27 1.16-.83 3.7-1.24 5.64-.42 1.95-.98 4.48-1.26 5.63a7.91 7.91 0 0 0-.34 2.24c.08.08 1.78-.87 3.78-2.12 2-1.24 5.42-3.33 7.6-4.62l3.95-2.36h5.81c3.2 0 5.9.14 6 .31.11.17-2.82 2.43-6.5 5.02s-6.66 4.82-6.61 4.96c.05.15 2.75 3.38 6.01 7.17s5.83 7.06 5.71 7.25c-.12.2-4.32.34-10.46.34H70.07l-1.28-1.35c-.7-.73-2.21-2.41-3.35-3.72-1.14-1.3-2.14-2.3-2.24-2.2-.1.08-.51 1.72-.94 3.63l-.76 3.46-8.53.1c-4.68.05-8.6-.04-8.7-.2zM15.82 160c-11.54-.19-11.85-.21-13.12-1-3.36-2.1-2.8-7.43 1.18-11.24 2.9-2.76 2.89-2.75 13.13-2.88 5.58-.07 9.26.01 9.47.22.22.22.13 1.24-.27 2.85l-.6 2.5h-3.8c-3.29 0-3.9.1-4.7.74-.99.77-1.22 2.02-.51 2.73.28.28 1.92.42 5.07.42 5.33 0 4.81.35 5.67-3.88l1-4.94c.4-1.96.4-2.4-.03-3.09-.28-.43-.79-.8-1.12-.8H15.4c-7.3.03-11.25-.09-11.4-.33-.28-.45.5-4.62.98-5.23.28-.36 3.88-.43 17.67-.35 19.37.12 19.85.18 22.25 2.58 1.46 1.46 1.83 3.06 1.3 5.57l-1.93 8.88-1.52 7.06-4.04.22c-4.46.24-5.9.24-22.9-.03zM171.17 170.48c-.09-.24.12-1.63.46-3.09l.63-2.64h12.4c13.97 0 13.26.14 13.66-2.72l.23-1.65-10.16-.11c-8.98-.1-10.3-.18-11.32-.74a5 5 0 0 1-2.54-4.34c0-1.37 3.68-18.76 4.05-19.13.27-.27 14.79-.05 15.07.23.22.21-.74 4.9-2.73 13.36-1.03 4.35-.67 4.69 5.03 4.69 2.19 0 3.98-.07 3.98-.15 0-.52 3.58-17.08 3.8-17.62.27-.61.8-.66 7.77-.67 4.12 0 7.57.07 7.66.16.09.09-.08 1.26-.37 2.6l-1.2 5.62a2998.48 2998.48 0 0 1-4.44 20.52c-.67 3.08-1.67 4.85-3.12 5.54-1.08.51-3.33.58-19.96.58-14.67 0-18.77-.1-18.9-.44z"/></g></svg>